<mxfile host="app.diagrams.net" agent="Mozilla/5.0 (Windows NT 10.0; Win64; x64) AppleWebKit/537.36 (KHTML, like Gecko) Chrome/134.0.0.0 Safari/537.36" version="26.1.3">
  <diagram name="페이지-1" id="ms0BYzlggc-QDF1qGRae">
    <mxGraphModel dx="5349" dy="2645" grid="1" gridSize="10" guides="1" tooltips="1" connect="1" arrows="1" fold="1" page="1" pageScale="1" pageWidth="827" pageHeight="1169" math="0" shadow="0">
      <root>
        <mxCell id="0" />
        <mxCell id="1" parent="0" />
        <mxCell id="jmXBiwtvv2VWkNp-MAJb-1" value="" style="shape=image;verticalLabelPosition=bottom;labelBackgroundColor=default;verticalAlign=top;aspect=fixed;imageAspect=0;image=data:image/png,iVBORw0KGgoAAAANSUhEUgAADwAAAAE7CAYAAABguXQOAAAAAXNSR0IArs4c6QAAIABJREFUeJzs3Xl0VeXduP1rnxMSBJlCGLSIQ1UGlUkmrVXLIGLp6Fgrfaz1tbYOdR4eARGFVqTgVPtzeCoarFSpYwetikidRS2KClQRwQEEFEQkyTln3+8f4cQEkhAgkIHrs1ZWkrP32edO2LkXrMWVbxRCCEiSJEmSJEmSJEmSJEmSJEmSJEmSJEmqFxJ1vQBJkiRJkiRJkiRJkiRJkiRJkiRJkiRJXzMAliRJkiRJkiRJkiRJkiRJkiRJkiRJkuoRA2BJkiRJkiRJkiRJkiRJkiRJkiRJkiSpHjEAliRJkiRJkiRJkiRJkiRJkiRJkiRJkuoRA2BJkiRJkiRJkiRJkiRJkiRJkiRJkiSpHsmp6wVIkiRtLyGESh+PomgHr0SSJEmSJEmSJEmSJEmSJEmSJEmqOQNgSZLU6GTD36oC4CxDYEmSJEmSJEmSJEmSJEmSJEmSJNVHBsCSJKlRKR//ln+Dr4PfKIoqfCxJkiRJkiRJkiRJkiRJkiRJkiTVJ4m6XoAkSVJtyca+cRyTyWTIZDKk02mWvLGcVx9YQDqdJpPJEMfxJnGwJEmSJEmSJEmSJEmSJEmSJEmSVF84AViSJDUK5YPe8gHwx2+v4q7T/kX6qzREgQOP2ZtkMkkymSSRSJBIlP4+FCcBS5IkSZIkSZIkSZIkSZIkSZIkqb4wAJYkSQ1e+fi3/OTfpW9+yp/PnEXJujQRgYcue5ZUcYqeP9iXEAI5OaV/FTICliRJkiRJkiRJkiRJkiRJkiRJUn1iACxJkhq0yuLfVCrF0jdX8OdfPbMh/gWICCHmH1e+SBzH9PrhfgBGwJIkSZIkSZIkSZIkSZIkSZIkSap3EnW9AEmSpK1VVfy75I1PuedXz1C8LgUh0KlHO/r8eH+iKCIEeGzsy8x96L+kUinS6TRxHBPHcdm1JEmSJEmSJEmSJEmSJEmSJEmSpLrkBGBJktQgVTn5960V3PPr2aTWpSHAN7oXcMa075HXPJdMSYY3//YuhJjHr3qZRE7EQSP2BZwELEmSJEmSJEmSJEmSJEmSJEmSpPrDAFiSJDU41cW/0345m5J1aSDQqXsBZ07/Hk13zQXgJzcMJQLeePS/hBD45+gXAYyAJUmSJEmSJEmSJEmSJEmSJEmSVK8YAEuSpAaluvi38JezKfkqDUCn7gX86t6v41+AKIKTbhhKRCiNgOPAY6NfJCJw4Ij9ACNgSZIkSZIkSZIkSZIkSZIkSZIk1T0DYEmS1GBUF//efea/KfkqTRRK499f3zuiQvybFUVw4g1HAfDmowtLI+BRpZOAjYAlSZIkSZIkSZIkSZIkSZIkSZJUHxgAS5KkBqG6+PeuM58ltS4NATr3aMeZhcdUGv9mZSPgiMCbj/6XEAKPj3oBMAKWJEmSJEmSJEmSJEmSJEmSJElS3TMAliRJ9V7V8e9K7jrzWUrWpQHYs0c7fnXPd8lr1mSz14wiOOGGYQDMe2QhIQT+ZQQsSZIkSZIkSZIkSZIkSZIkSZKkesAAWJIk1WtVxb9LKsS/gb16tOPX046pUfyblY2Ac5okmPvAfEIceGLU80QBDvieEbAkSZIkSZIkSZIkSZIkSZIkSZLqhgGwJEmqt6qKf9+f+ymF57xAybo0EaWTf7c0/s2KIvjxpKEAzP3rO4Q48K/RzwOBA763P2AELEmSJEmSJEmSJEmSJEmSJEmSpB3LAFiSJNVL1cW/d531POn1GSDQuUc7zpo2fKvi36xsBByFUGESMGAELEmSJEmSJEmSJEmSJEmSJEmSpB3OAFiSJNU71cW/U896gdT6DFEI7NmjHWdvY/ybFUXwo98fBcAbD7xDCIEnRz1HBHQ3ApYkSZIkSZIkSZIkSZIkSZIkSdIOZAAsSZLqleri3zvPemHD5F/Ys2c7zik8ulbi36xsBByRjYBjnhz1HGAELEmSJEmSJEmSJEmSJEmSJEmSpB3HAFiSJNUb1ca/Z79Ian0GCOzVo6DW49+sKIIf/v4oIPDGX0snAT816lnACFiSJEmSJEmSJEmSJEmSJEmSJEk7hgGwJEmqF6qLf/9UFv/C3j3acW7hsO0S/2aVTgIeRgS8+dd3iOOYmaOeBQLdv9cFMAKWJEmSJEmSJEmSJEmSJEmSJEnS9mMALEmS6lxV8e+iuSv409kvkVqfIQqlk3+3d/xbJoIf/n4YAG/+9W1CHJh5xbNEQDcjYEmSJEmSJEmSJEmSJEmSJEmSJG1HBsCSJKlOVRf//t/ZL5Jen4EAe/Zox28Kj9ox8W/Whgg4CoE3H3ibEEoj4DgVc8CPuwFGwJIkSZIkSZIkSZIkSZIkSZIkSap9BsCSJKnOVBv/nlM6+RcCe/co4LzCYeQ1q4O/ukTwg8lHAzDvr28RQuCZsc8BGAFLkiRJkiRJkiRJkiRJkiRJkiRpuzAAliRJdaK6+PeOsvgX9u7RjvPuPqpu4t+sDRFwRGDeX98mxIHZY5+DEDjg2O6AEbAkSZIkSZIkSZIkSZIkSZIkSZJqjwGwJEna4aqLf28/52VS62OiAHv1KOD8uo5/syL4/uThwIZJwNkIGIyAJUmSJEmSJEmSJEmSJEmSJEmSVKvqQU0jSZJ2JtXFv7ed8zKp9RmiENirRwEX3D20fsS/WRsi4IgNEXAI/Hvss0DggGMPAIyAJUmSJEmSJEmSJEmSJEmSJEmStO3qUVEjSZIau6ri3/fmruD2c1+hZH1MBPUz/s2K4HvZCHjGPEIIPDv2OSKguxGwJEmSJEmSJEmSJEmSJEmSJEmSakE9rGokSVJjVF38e9s5c0gVxUBg74PacmF9jX+zIhgxeTgQeGvGW4Q48OzYZwEjYEmSJEmSJEmSJEmSJEmSJEmSJG27elzWSJKkxqLq+Hclt547h1RRBkJgn4MKuPDuIfU7/s2KYMTkY76eBBwHnrvy34ARsCRJkiRJkiRJkiRJkiRJkiRJkrZNA6hrJElSQ1Zd/Pv/zp1Dan1cGv/2aMtFdzWQ+Dcrgu9OPgZC4O2/vkUIMc8bAUuSJEmSJEmSJEmSJEmSJEmSJGkbNaDCRpIkNTTVx7+vUrI+Q0Rgnx4FXHzX4IYV/2ZF8N0p3yUC3poxjxACz185m4hAt2MPBIyAJUmSJEmSJEmSJEmSJEmSJEmStGUaYGUjSZIaguri3z+e+yqpogwAex/UtuHGv1kRHDPluwC8PWMeIf56ErARsCRJkiRJkiRJkiRJkiRJkiRJkrZUAy5tJElSfVVV/Pvu3JX88Tevlca/IbDPQW255K5BDTv+zdoQAUeEDRFw4IUxswEjYEmSJEmSJEmSJEmSJEmSJEmSJG2ZRlDbSJKk+qS6+PeW37xGan0GAnyzMcW/WREMnzICgHdmzCOEmBfHzCYK0PU4I2BJkiRJkiRJkiRJkiRJkiRJkiTVTCMqbiRJUl2rPv59nZL1pZN/S+Pf79C0McW/WRsi4Ah4+/43CSHwwpXPAEbAkiRJkiRJkiRJkiRJkiRJkiRJqplGWN1IkqS6UGX8+8ZK/vCb1ykpygDQpU87LrrjiMYZ/2ZFcPSUERAC7/y1NAJ+8cpngEDX4w4CjIAlSZIkSZIkSZIkSZIkSZIkSZJUtUZc3kiSpB2luvj35t/8h5L1GSJg/94FXPKnI8ltmqzrJW9/ERx9/feIgHdmvEEIgZfGZCcBGwFLkiRJkiRJkiRJkiRJkiRJkiSpagbAkiRpm2wc/6bTadLpNPNfXcEfL5xLasPk3/16F3Dpn47YOeLfrAiGXf89IDB/Rukk4JfHzCICuhgBS5IkSZIkSZIkSZIkSZIkSZIkqQoGwJIkaatVF//+4YK5pItjCNCldwGX7Wzxb1YEw67/foVJwC+PmQUYAUuSJEmSJEmSJEmSJEmSJEmSJKlyBsCSJGmrVBn/vraCm8+fS7okhhDo0qeAy/7v8J0z/s2K4Kjrvw/Agg0R8CtjngYCXY7rARgBSzuzEEJdL0HbiXu5JEmSJEmSJEmSJEmSJEmSpK1lACxJkrZYdfHvTee/QbokEAH79yng8p09/s3aEAFHBObf/3UEHAH7GwFLO42NY9/ynxsCNx7Z/TuEsMle7t4uSZIkSZIkSZIkSZIkSZIkqSYMgCVJ0hapOv5dyY1l8W9g/94F/O//fdv4t7wIhl7/AwAW3P8GIY43TAI2ApYas8oi3+w+uvFjlT1HDUd2z67sfWX7uXu8JEmSJEmSJEmSJEmSJEmSpKoYAEuSpBqrKv5957WV3HT+G6RKAlEw/q3Whgg4AhbcP5cQB+aMngkYAUuNTWWBb/m3OI43CYEri4HVMFQW+2Y/TiQSZR9XFgO7z0uSJEmSJEmSJEmSJEmSJEnamAGwJEmqkeri3xvOf4NMSYAAXXq35Qrj3+pFMOT6H0AILJzxBiHEvGoELDUamwt+4zgue5u3oJhly1OsXpNmzRcZ1qzJsHZtzJo1aYqKYqIQiIAoBBIEoOLnEYEoUPq+ss+zz9/481Du/B18/UTpN6durl/V9bbx+slmTchp05ycNruUvs9vTpP8XcntlM8uvfcikUiUvVUWBGe510uSJEmSJEmSJEmSJEmSJEnKMgCWJEmbVW38e8GbpEtKo6iuvdtyxf8dZvxbExEMueGHX08CDoFXRz9FRGC/43oCRsBSQ1NZ+Fs+9o3jmEwm5tU31/Pks+uZ+dx6Vq7KQIhJAoSYBBCVfx99/Xmlx8udt9njcUyyqvM2d3yj88qva+P3hOqvU3a8uuvU8HU2u46anlfN69VoveVfZ6Pzcjq0pMUxvdh1RG+aH7I/iWSyQhBcPgbOcr+XJEmSJEmSJEmSJEmSJEmSFIXs/1KXJEmqRHXx7/UXzCNdEkMIdO2dz+g7jH+3WIBZFz/KO/e8VhqPJSIOHjeI/Y7vSZMmTcjJyakyEJNUP1QX/mYyGeI45j9vF/HwU18x8/kiVn2eIRG+njibKP9+w1t1xxPlp9NufLzCZNoN55ONUbPHISIud27lUWvpc6s+/vV5kCCu/ryaHA+l7yt/nezXXP3xRNl1st+Pr48nyn1Pvv4+Vn68so8rPFb+OlX8OUQb/XkkCOS0a0Gz4T1pccIhNOu3H4lEgmS5IHjjqcDu+ZIkSZIkSZIkSZIkSZIkSdLOywBYkiRVqbr4d8oFb5EuyRCF0sm/o+/4lvHvNnjmokd5555XIQQSEfS5erARsNQAlI9/K076zZDJZHhnUQmT71zLs6+WfB3flotXB3+rBQcftAsF+Tnkt06S3zqH/Dalb7s2d09tKDJr15NauZbUii9IrVhLeuUXpFd+wZcvLGT1P17dMIk4kIxC2SThpoMOoPWlP6Rpr71JJpMVQuDsfg9GwJIkSZIkSZIkSZIkSZIkSdLOygBYkiRVqqr49+0N8W+m3OTfMca/teKZix5hflkEHNHn6sHsawQs1VtVTfzNZDIsXFzMlMJ1PPVCafibnQTbsnmCIYc2Z9gRLThy4K402yVR11+GtrN4XTFrnpjLmkde4Yt/vkq8el3ZBOEEgaZH96LlFT+madc9NgmBN54ILEmSJEmSJEmSJEmSJEmSJGnnYQAsSZI2UW38e+HbpIszAHTt1YYrjX9r1eyLHmH+tDkAJCLoffUQI2CpHtp4n4zjmHQ6zZJPSpgybR0PP50i2jDplRDTZa9cLv9lAcO+vWtdL111bM2jr/Dp1fdT9MaiChOh844bSKv/PZbcPTuU7ffJZNIIWJIkSZIkSZIkSZIkSZIkSdpJGQBLkqQKqo5/VzH5wrdIb5j8261XPlfecajx73Yw+6JHWDBtTukk4AT0unoI+x7fywhYqicqm/qbTqeZNaeIM675klTq64m/e++ew6Wnt+WHQ1rgj6vKhMCaGS/w6dg/k3r3k9JpwCEQ5SVpVXgezQb3JCcnp9JpwJIkSZIkSZIkSZIkSZIkSZJ2DgbAkiSpTHXx7+8vfJt0SUwUAl17tWHs/x1Kbp7x7/by74seZv60OUQhEEURva8ZwjeNgKU6Vz7+zWQyZDIZUqkUM55az6U3FhHi0omuuxUkueBnrRn5/ZbkJP0ZVeVCOsPqO59i1TV/IfPJZySiABHseuPpNDvx2zRp0oRkMlkWArvnS5IkSZIkSZIkSZIkSZIkSTsPA2BJkgRUH/9OuvBtMtnJv73zGXvHIca/O8C/L3r460nAEfS6ZqgRsFSHNo5/0+k0qVSKm+5bz+/vKSFB6eTf/gfk8ZdJHWnZPFHXS1YDEa/5io+OncD62fPK7qOml/+Y5hf8sGzPNwKWJEmSJEmSJEmSJEmSJEmSdi7JsWPHjq3rRUiSpLpVVfz71mur+P1F75AqKf19Id1653OV8e8Os+dRXVm3bC2fvfExEPj06UXkdmxOq67tKwRgG7+XVPsqi39LSlJc/sevuPXBNBERhMAPv9Oce37bgWZNjX9Vc1HTJrT8yRGkFn5EyVsfEEWQmf0WmeWfkzO4R9meX9neL0mSJEmSJEmSJEmSJEmSJKlxMgCWJGknV138O+nCd0iXxECgW698xhn/7nB7HtWVr5Z9wWdvfgJxvCECbmYELO1A5ePfbACcSqW46k/ruesfGRJARODcn7Ti+osLSCb9OdSWi5IJWhz7LShOUfTc20QRhP+8T/z5WpKDjIAlSZIkSZIkSZIkSZIkSZKknY0BsCRJO7Hq4t/rLppPesPk3+698hl3x0Dj3zrSeVhX1n3yBave/BhCYIURsLTDlN8n4zgmnU6TSqW4f2Yxvy1Mk4giIgKTL8jnwlNa1fVy1Qg0G9yTnA6t+eqxOUQE4tfehfatSPbce5MAGNzzJUmSJEmSJEmSJEmSJEmSpMbKAFiSpJ1UdfHvxLL4N9C9Vz5XG//Wuc7Dyk0CDjGfzlxEbsfmRsDSdhRCKHufnfybTqd5cV4xp09MUXo4cO05bTjjxy3qdK1qXPL67kfON9qy/tGXiIDw5Fz4VlcSnQqcBCxJkiRJkiRJkiRJkiRJkiTtJBJ1vQBJkrTjVR//LiC1If7t1iufq+8YYPxbT3zr9z9iv1P6AhGEwJtXPM6i+18nlUqRTqfJZDLEcVz2Zytp220c/y76qISfTUiTiRMEYOTw5vzqOONf1b4Wpx1Fi1+PKP0kjik+5feUvPvRJvu9JEmSJEmSJEmSJEmSJEmSpMYpCv6PYUmSdipVx7+f8buL5pMpm/zbhmtu72/8Ww89f+GD/HfaKxDHJBIRB10zjL1P6E2TJk1IJpMkk0kSiUSF6ZCStkx2n8zGv6lUitVrSxhyQTEfLAtEIXDIAU34103tSfprlbS9ZGKWD7uC4llzSYRAtHd7dnlqArltW5Xt+e73kiRJkiRJkiRJkiRJkiRJUuPkf1WXJGknUlX8O++1z/jdxQtIlwQCgW7Gv/Xaob//Efud0o8oighxYN6ox1h0zxxKSkrIZDJOApZqycbTf8dOLWHx8ggC7LVbDn/9XYHxr7avZIJ2D4ymyd4dAYjeX07xldOcAixJkiRJkiRJkiRJkiRJkiTtBPzv6pIk7SSqjH9fL41/UyWBAPTo15bxxr/13tcRMIQ48NbYf/H+n42ApdpQfvpvHMek02kWfZziz09FEAItmyd45Lq2tG7hP6e0/SVaNqPd368m0bIZAeCeWaTe+5h0Ol12j7rXS5IkSZIkSZIkSZIkSZIkSY2P/2NdkqSdQLXx70ULSZUECKXx77g/9jP+bSAOmfxj9j2lP6UVMLx9pRGwVFs2nv571d0Z0pkARFz1/7Vg3045db1E7URy9v8GLX/7cyKAOCbtFGBJkiRJkiRJkiRJkiRJkiSp0YuC/1NYkqRGrbL4N5VK8cacz7n2soWkSwIRgZ5987n6j31pkuvvB2loXrzgr7w77WUIgQTQ7aqj2PvkvuTm5pJMJkkmkyQSCaIoIoqiul6uaslnn31W10vYLpo2bUqzZs3q7PU33i9LSkqYM7+Yoy8v3Sv3KEgw/8/taJLjz5J2sEzMsm/+D/GST0kQiB4bR9MB3cjNzSUnJ4dkMuk+L0mSJEmSJEmSJEmSJEmSJDUijq2SJKkRqyr+nTvnc6699L+kU4EI6GH826ANnHwsAO8VvkQgMP/Kx4mAvTZEwFmJROmfr3FY47B48eJGOfWzXbt2dO7cuU7XsPH03//904bvc4AxP29h/Ku6kUzQ8qqfsea0SRACjCkk/fdxZb/kIfuLHiRJkiRJkiRJkiRJkiRJkiQ1DlY+kiQ1UtXFv7+99L+k06VBW89++Vxj/NvgDZx8LPuOHEBERAgw/8rHWXzPK5SUlJDJZMhkMsRxXHZPSNpU9ucjjuOyAPifr2R49b+lUeXeuyU5ZdgudbxK7cyajRxCcu/dgAheXkjm7y+X7e/u8ZIkSZIkSZIkSZIkSZIkSVLjYukjSVIjVG38e9m7ZNKlwwN79svnmlsONv5tJAZMPpZvjuwPUek9YAQsbbnyEXAmk2HqvwKlPy0R437RgqTbpepSIqLFhJ8DEAHxnf8inU6TyWTc2yVJkiRJkiRJkiRJkiRJkqRGxv++LklSI1Nd/Dvh0ndJp0qP9eyXz3jj30ZnwOTjSicBRxGBwIIrH+cDI2CpRjaOf9cXZ/j3vIgIaNUcThjUtK6XKLHL8YeTaNWcACSef4fM+mInAEuSJEmSJEmSJEmSJEmSJEmNkMWPJEmNSFXx73/mfM74y94jnS49r1e/fCbc0sf4t5HqP/k49hk5gNJsMbDgyseMgEUmk+Hpp59mwYIF23yt9evX89RTT7Fo0aJaWFn9kP1ZKB8A//vNDOlMggAM659HFNXtGuuzdDrNl19+SRzHADz55JM89thjdbyqRiqKyB3enwiIStLEs9+ssK8D7u2SJEmSJEmSJEmSJEmSJElSI5BT1wuQJEm1Y3Pxb5wGCPTsm8+EW3ob/zZy/ScfRxQCiwpfIoSYhVc+BgT2/Gl/cnNzy85LJErvg8iysdGL45jp06dz+OGH06VLl2261ldffcV9993H97//ffbZZ5/Nvu7nn3/OypUrSSQSFBQU0Lp16+1yz915550MHz6cjh07btXzy08AjuOYmXNLJ2kngGH9czf7/J3ZY489xtixY5kxYwZ77bUX06dPp7i4mKOPPnqzz02lUixfvpxdd92V1q1bb/UaVq5cybx587boOS1atODggw/e6tesK3nD+1E8fSZRBNHM/xAP61vhFzu4p0uSJEmSJEmSJEmSJEmSJEkNnwGwJEmNQPXx7yIyaSAEevXN57fGvzuNflOOB+D9whcJIbBwzGNEQGcj4EZnwYIF/Otf/2LRokW0a9eOPn36MGzYsC36M502bRoFBQU1CjZrYs2aNTzxxBPMnj2b4uLiCsd22WUXjjjiCAYPHkzLli1r5fUAHn74Yc4//3yuueYafv3rX5fd21siG/9mMhmenpudow3HDMyrtXXWxPPPP8/69eu36Dk9e/akoKCgwmOzZs3ioosuqvE1unXrRmFhYZXH77nnHp599ln++Mc/btHaqrNkyRJOPPFETj31VM4+++ytvs68efO26GuFqr/ek08+mYULF9b4Otdffz2HHXbYFr32tsg7uh9RFBHiQPT0G2UTgOM43qr7XpIkSZIkSZIkSZIkSZIkSVL9YwAsSVIDV3X8u5pryuJf6N0vn9/9oZfx706m35TjiSiNgAkxC8f8EzACbkxef/11br/9dtq3b8+3v/1tPvnkEx588EE++ugjfvGLX9T4OnPnzmXPPfeslTV98sknXHfddURRxNChQ+nRowft27cnk8mwatUqXn/9dZ555hmee+45LrnkEtq3b18rrwul4fE555zDnXfeye23306fPn02+5zy+2h2AvDHq2Le/SSHKAT67t+EglY7du+cOHEiH3744RY9p7IItXv37kyYMKFGz7/xxhs3e86SJUt47bXXtmhdm1NUVFTh/dY68sgjmTNnToXH1q5dy/DhwykqKuLMM8/k9NNPr9G1zjnnHNauXbvZ895++22mTZu2VevdFol2rcjpuz+Zl+cTLVpG+sMVxPt8gxACQNl793RJkiRJkiRJkiRJkiRJkiSp4TIAliSpAasu/r368g3xL4He/doY/+7E+k45Hgi8f/eLQOC/RsCNRjqdZvr06XTu3Jnzzz+fvLzSKbWPPfYYDz74IIcccgjdu3ff4Wu6+eabyc3N5ZJLLiE/P7/C8V133ZU999yTQw89lEmTJnHzzTdz1VVX1fp999prr9GvXz9+9atfMWHChBpNGi6/p85dVPpYFEX03m/H/7PpoYceAkpj6u9973ucccYZnHHGGWXHV69ezZAhQzY7Nbd9+/YcddRRNXrNqVOnbtOat9a7774LwHvvvVer143jmJtuuol0Ok2XLl34y1/+wuDBg9l77703+9xDDjmkRq+Rm5tbJwEwQJM++5F+eT4RwNxFhL13L7t/JUmSJEmSJEmSJEmSJEmSJDV8VkCSJDVQ1cW/4y5/n3QaAtC7bxuuNf7d6fWdcgL7/GwgUHrvvDvmHyy952VKSkrIZDJkMhniODYea2BeeeUVVq9ezfe///2y+BdgyJAhtGrViieffHKHr2nJkiWsXLmSH/zgB5vEv+W1b9+eESNGsHz5cj766KPtspY4jvnDH/5Aly5duPfee6s9d+MJwCvXbJikSmD3AvfPrDiOieO41q6XyWR44IEHAJgzZw7vv/9+rVx34cKF/OY3v+GBBx7gvPPO46abbiIvL49TTz2VBx54YJunDdcHiY75ZLv5sPKLCnu4+7gkSZIkSZIkSZIkSZIkSZLU8DkBWJKkBqiq+Pf1Oau5+vLFpNOBKGTj357GvwLg4CknALD47hdKI+DRfwcCe/x0gJOAG6ilS5eSm5tLt27dKjyek5PDQQcdxBtvvLHD15SNeTt37rzZc7PnfPjhh3Tq1Gm7rWnZsmWcfPLJ3HHHHdx2221885vfrPLc7N668ovSzyMrebF3AAAgAElEQVRgt/yGu4e+8MILnHPOOTU+f+N7aWOfffYZIQRWr15N69att3V53Hrrrbz11luMGzeOm266icsuu4y77rqLpk2bbvG1XnzxRV5//XXmzJnD3LlzKSgoYMqUKXz7298GYNq0afzud79jwoQJ3HLLLRxxxBF0796dQYMG0aZNmwrXOvXUU5k3b942f33bU2L3toQQiICwco3xryRJkiRJkiRJkiRJkiRJktTIGABLktTAVBf/jrt8MZl0gAC9+7Vm4s3Gv6ro4CknEBE2RMDw7uh/ABgBN1CrVq2iTZs2lf455efn88UXX1BcXFxhOvDy5ct56aWXAOjUqRPf+MY3anVNu+22G1AaJ2/u2kuXLgVg9913r9U1VGXmzJkccMABXHbZZVx++eUVvi9QcX9dtSEADtAoJgCfeuqp9OrVa7Pn7brrrtUeX758OVAaVc+bN4/zzjtvq9f00EMP8ac//YkjjjiCY445hry8PC699FJGjRrFuHHjaNas2RZd77nnnmPmzJl069aN8ePHM2jQIJo0acLEiRO57777eP755/nd737H4sWLeeihh3jttdeYNWsWQ4cOrfR6HTp04IILLqjRa3ft2nWL1lobErvlE5Xmv0Sr1hr/SpIkSZIkSZIkSZIkSZIkSY2MAbAkSQ1IVfHvKy9+zvgxS0rjX6BPvzZMvLmH8a8q1WfKiQAsvut5AN4b/XcioJMRcIOTSqXIyan8r/TJZLLsnPKh64IFC1iwYAEAI0aMqPUAuHPnzhQUFPDwww/TpUuXTSarZq1cuZK//e1vdOjQoUIAvHz5ct5///2tChlXrly52XOKi4u56qqrmDZtGrfddhuDBg0qO1Z+j/16AnBExwY8ATirW7duHHbYYdt0jbVr1/Luu+8C8NJLLzF8+HCuvvpqAF577TUefPDBGl3niy++4Le//S1PPPEE/fv3Z/z48QAMHjyYSy65hIkTJ3LyySdzzTXXcOCBB9Z4fRdccAEXXnjhZs/ba6+9ysLlEEKVe9yuu+7K4MGDa/z6O1py97ZlH0efra1w/xoCS5IkSZIkSZIkSZIkSZIkSQ2fAbAkSQ1EdfHv1aOXEGc2xL99W3Od8a82o8+UE4lC4IO7X4BQGgEToNMpRsANSdu2bVm8eHGlx9asWUNeXt4mE10PP/xwfvrTn263NeXm5nLmmWcyadIkxo8fz3e+8x169OhBQUEBIQRWrFjB3LlzmTVrFiEEzj///AoR8/33389111233daX9d577zF48GBOOukkJk+eTLt27cqOhRD4bG3pPR8I7F6Q3O7raQhmzpwJwIABA3j88cf5n//5H4YPHw5AJpPZbAD89ttvc8899zBr1ixKSko48cQTOffccysE6ieccAL5+flMnDiRU089lQMPPJARI0Zw3HHHVXvtOXPmsGbNmkqPZSdNz5w5kyZNmlR6zsEHH0zr1q2rfY36JrF7WzYMAIaVXxj9SpIkSZIkSZIkSZIkSZIkSY2MAbAkSQ1AdfHvuNFLiNOBiNL4d5Lxr2qo9/UnAfDB3c9DCCwa8zfACLghKSgoYN26daxYsaJCwArw/vvvb/LYjrLHHnswbtw4Hn30UZ544gkeeeSRCsebN29O//79GTFixCaB8o42Y8YMunbtyhVXXAFQFlGWpEvv9whoscuOv/dPPPFE3nvvvbLPb7vtNm677bZNzps6dSpTp04F4NZbb+Xggw+u9HqXXnppjV976tSpm0zeTafTTJ8+nSFDhnDKKadwyimn8OSTTzJkyJAaXzeVSjFr1iyOOOIIRo4cSbdu3So9b8iQIfTv35/CwkL++c9/snDhws1e++abb2bevHnVnjNq1Kgqj91xxx306tWrwmPvvfceffv23exrAxxyyCHcdNNNNTq3tkQtmxNC6T3K+mIAI2BJkiRJkiRJkiRJkiRJkiSpETEAliSpnqsq/n35xc+5evRSMmlIRBG9D27FpJsPMv7VFslGwEvufp4QAu+P/hsQ6HTKQCPgBqBv3748/PDDzJo1i+OPP77s8Q8++ID3339/s1NTt0Q6nebTTz+lQ4cONTq/VatWnHLKKfz0pz/l008/5YYbbqBJkyacddZZtG/fvsrn9e7dmzFjxmzVvTZ9+nQWLFhQ4/MPPfRQbr/9drp27Uocx2WPhxDIb5H9GJZ9FtOi2Y6dAnz++eezbt26LXrON7/5zU0e22+//ZgwYUKFx9atW8f48eM5/PDDOfroozd5TqdOnTZ5rLCwkP/+97+MGjWKrl27cvDBBzNp0iT69OlDfn5+jdbXs2dPnnrqKZo2bbrZc1u2bMlZZ53Fr3/9a0pKSjZ7fjaCri2/+tWvWLNmDQsXLmTq1Kn87Gc/o2vXrmXHZ8yYwRtvvMG4ceOA0mncO1r86WqyPyUhv0XpzVpOCME9W5IkSZIkSZIkSZIkSZIkSWrADIAlSarHqox/X1rNuNEfkslAFEHfAa2ZeP2Bxr/aKr2vP4lkXg6Lb3uGQGkEHAHfMAKu99q2bcvAgQN58sknad26NQMHDuTjjz/mzjvvZNddd+Wwww7bouutWrWKJ598kuLiYoqLiykqKmLVqlUsX76cVatWEccx48aNIyen5v+MiKKIDh06kJeXR15eXrXxL8C3vvUtfvKTn2zRurP+85//1CgAbtu2Lddeey2nnXYaURRViH+za27XKi77ePnnMft12rEB8MCBA2vlOgUFBRx11FEVHlu9ejXjx49nn3322eRYZf7xj39w6623csghh3DAAQcAcO6553L66adz2mmnbdHk25rEv+VFUUReXt4WPSeruLiYVatWsXr1aoqLi2ndujVt2rShdevWm33ugAEDAGjRogVTp06lT58+FX6enn/+eebNm1ej79/2Ei/7jEDpBODQrhUJ92ZJkiRJkiRJkiRJkiRJkiSpUTEAliSpnqou/r1q9FIymUAC6DegDdfdeCA5OYY/2no9rj2OKAQW3zEbQrxhErARcENw8sknU1RUxIwZM5gxYwYA+fn5XHzxxeyyyy5bdK2PP/6Yhx9+mNzc3LJgNz8/nx49etChQwc6duxI69at+fLLL7fHl7LdRVHEz3/+cyZOnFhhYmv5+zn7cUGL0gA4EPj084qB8M5k7ty5jBkzht13371s2i3AAQccwLhx4xg7diyLFy+uuwVWYtasWcyYMYNXX32VVCq1yfHOnTtz5JFHcvrpp9OsWbM6WGHtiJd9RhQBAWi/adTsPi1JkiRJkiRJkiRJkiRJkiQ1bAbAkiTVQ9XFv2NHf0icLp34129AayYZ/6qWHDTxeAAW3/4MEFg8+lHACLi+y8nJ4YwzzuDjjz9m0aJFtGvXjr333rvCn1lNXHfddTU+tyEGwN27d+f222/n0EMP3ey5URTRbkNPGQHLPtt5A+CePXty9tln84Mf/IA2bdpUODZ06FB69uxJ+/bt+dvf/lZHK6xo+vTpTJo0iWHDhjF58mT23XdfWrRoQU5ODl999RWffPIJc+bM4c4772T27Nn85S9/IZncsdOda0u87HNCCBsmALckiiL3ZUmSJEmSJEmSJEmSJEmSJKkRMQCWJKmeqSr+faks/g1EEfTrb/yr2nfQxOOJCCy+fTYhxHww+hEiArufcogRcD23++67s/vuu9fZ66dSKc4+++zNnvfLX/6yymM33nhjbS4JgObNmzNmzBguuOACcnKq/udPNp7MvhW0DEDpcNXlO3AC8AsvvMA555yz1c/v1q0bhYWFNbrO1KlTmTp1arXXATj11FOrvEb79u1rtK7a+ro254knnqBNmzaMHz9+k2MtW7akZcuWdOnShXQ6zU033cS7775Lly5dys459dRTmTdv3ibPPe+88yp9vb59+1b4/Prrr+ewww7b7DprQ7zsMyI2jABu1wqoeB9LkiRJkiRJkiRJkiRJkiRJatgMgCVJqkeqi3+vHP0RcaY07uk/oBW/v+EA419tFwdOPAGAD25/hhACH4wqnQRsBKzqJJNJTjvttG2+Rm0aMWIEt9xyC3vssUeNn5ONJ9u3Lr2vIyL+826qVtdVnX333ZexY8du9fNbtSoNQffbbz+uvvrqrb5Oy5Ytt/q5ldlR6xk6dCiTJk1i1KhRjBgxomwCcDKZZP369Sxbtow5c+Ywbdo09tprL/bdd98Kz//lL3/J6tWrt3qd+++//1Y/d0ul57739SftWxv+SpIkSZIkSZIkSZIkSZIkSY2MAbAkSfVEtfHvmI/JZAIJMP7VDpGNgJfc/gwhxCwZ9QhgBKyqJRIJBgwYUNfLAGCPPfbglltuYcSIEVv0vPLTU7t0CjTJgXQ6MOs/KYpTgbwm2/8+b9eu3RavuzIFBQUMHz68FlZU89fr378/TZs2rdP1nHTSSXTs2JH77ruP8847j3Q6vck5nTp1YsSIEZx++umbROeHHHLIdl9jrcjEFD/xKlEEISdJ6N6ZRCJhBCxJkiRJkiRJkiRJkiRJkiQ1IgbAkiTVA1XHv2sYM+ZjMulAgoh+A1ox+Ybuxr/aIQ6ceAIRsOS2WQQCS0Y9QgTsZgRc55YuXUomkyn73tdENtDda6+9tvn1c3Nz6dOnDx07dtzma9WmnJwcLr74YsaOHUuzZs226Lnl498oimiWF/Gtrilmz8vhy/WB2XNTDO2bu/kL7aQGDhzIwIEDyz7v169fpfHtjnDkkUdy5JFHUlRUxMqVK1m9ejWpVIqWLVvSpk0b8vPz62Rdtank6f/AV8WEAPGh3Yh2ydvkHpYkSZIkSZIkSZIkSZIkSZLUsEUhhFDXi5AkaWdWVfz74ob4N04HoggG9G/JFONf1YF3/ncGH9zyFITSe7HT6GP4xi8OJzc3l2QySTKZdPLkDvDll19y3333UVhYyDPPPMOzzz5LXl5eXS+r1rVr147OnTtv1XO/+OILWrZsucXP23gPLi4upqioiDsfT3PFXXkkCPzm2F34/VkttmpdUm1be9GtfDV5BokQKL7mFJKnDWOXXXYhLy+PnJwcksmke7IkSZIkSZIkSZIkSZIkSZLUwNV8ZJgkSap11cW/ozdM/iWC/v1bGf+qznSbcBydzzgSIiDAR+P+zifTnqekpIRMJkMmkyGO47J7WbXrn//8JyeccAItWrTgF7/4BbNmzfL7XIWtiX9h0+m/iUSCRCLB0QdniKKIADz2UkntLlbaBkX/eDm7JZMZ2nuTX8Rg/CtJkiRJkiRJkiRJkiRJkiQ1fDl1vQBJknZW1ce/n5DJlEZp/fu35Pobuhn/qk51n3gihMDS22cRAnx4xcNEATqOPJTc3Nyy8xKJ0t8vY3i2bV555RXuvfde7rnnHj799NNNjg8aNIgmTZrUwcoat40D4IJWCQ7aK8289xMs/DDNRysyfKNdsq6XqZ1c5uNVZOYvJQLiAzuT2C2/7J41/JUkSZIkSZIkSZIkSZIkSZIaDycAS5JUB6qLf0eN+YR0pnS654ABrbjB+Ff1RPfrTqLz/3fkhqmTgaWjHmJZYekk4HQ67STgbbR06VImTJhAt27d6N+/P1OmTKkQ/x544IFce+21fPLJJzz11FMkk4aota18/JtMJkkmkwzplab0bo64/v51dbxCCdZNeQAoHcqeHtqr7F4tHwFLkiRJkiRJkiRJkiRJkiRJavicACxJ0g5WXfx7xZXLyGQgEUUM6N+SG67vavyreqXbdSeRyE2y5OYnIQQ+HPUQoSTNbr84vEJ05iTgmlm7di333XcfhYWFzJ49e5NwumPHjpx88smMHDmSXr161dEqdy4bR8AnHZHij3+DklTglgfXc/aPm7NnR+Nr1Y3Mx6tYd+ODpb+IIa8J8U+/Q67xryRJkiRJkiRJkiRJkiRJktQoGQBLkrQDVRX/vvDSF1xx5TLidCCKYED/Vtx4fRfjX9VLXcYfTyjJsPS2mRACH1/1KIncJB1Gfovc3Nyy84yAK5dOp3n88ccpLCzk4YcfpqioqMLxZs2a8aMf/YiRI0cydOjQsu/jxpLJJHEc74gl71BVfb3bW/Y+jaKIKIpIJpPk5OTQMT/JaUcV8//+nksqHRh1+1oKR7eukzVKX1xyO6QzQKD4tMEkO7QhJyeHZDJZdu9m3yRJkiRJkiRJkiRJkiRJkiQ1bFHYeMyYJEnaLjYX/2Y2xL8D+7fkJuNfNQDzL76XD297GkJMgohvjP9hWQScTCZJbphKaYxWas6cORQWFnLvvfeyYsWKCscSiQSDBg1i5MiRHHvssTRv3ryOVrlzK79Hp1IpSkpKKCoq4rM1RRx+YVPWfgVRCLx4awG99m9S18vVTib1+nt82vcsEiFAq10ofu5amua3omnTpuTm5tKkSZMKIbAkSZIkSZIkSZIkSZIkSZKkhs0JwJIk7QDVxb//e+VyMhmMf9XgdL3uJ0TAh7fOBAIfX/EggJOAy1m6dCmFhYUUFhYyf/78TY4feOCB/OxnP2PkyJF07NixDlaoymQnAGenALdsnsM5Pyhh/J9ziYg4/8Y1PH1zQV0vUzuZz8+6mQgggpJzvktOy+Zl03+z4a8kSZIkSZIkSZIkSZIkSZKkxsMAWJKk7ay6+PfyscvJZAKJCAb2M/5Vw9Plup9ACHx029OEEPPJFQ8QAe134gh47dq13HfffRQWFjJ79mxCCBWO77bbbvzkJz9h5MiR9OrVq45Wqcpk789EIkEIoSwAzsnJ4ZTBRdz1r5iPV0a8+FYJU6Z/yfkn7VrHK9bOYu3kByh5aT4REHbPJ4z8Ttm9mZ227sR1SZIkSZIkSZIkSZIkSZIkqXGJwsZFgiRJqjVVxr8vf8FlV35KJl0a/x7SvwU3T9nf+FcN1sKL/sxHt82EEIgi2H38j2g/8jByc3PLplM25jgtnU7z2GOPUVhYyCOPPEJRUVGF482aNeNHP/oRI0eOZOjQoWVBtOqf7J4dxzGZTIaSkhJKSkooKirixbdK+J+JTcmkA8kI7p+Qz/BDmtb1ktXIrf/7y6z80TiiTIYoJ0HJvReQO6ArTZs2JTc3t2yfbcx7rCRJkiRJkiRJkiRJkiRJkrQzMgCWJGk7qSr+fb6S+PcPxr9qBBZe9Gc+vm0mhJgI6HDl9+l4+pE0adKkwpTKxhSovfLKKxQWFjJ9+nRWrFhR4VgikWDQoEGMHDmSY489lubNm9fRKrWlNt67S0pKKC4upqioiOlPZbjy7jyiEGieB0/f0p4Dv9mkrpesRqrkzfdZdugF8FUxiShQMuFkck46gqZNm5KXl0dubm7Z/tqY9lZJkiRJkiRJkiRJkiRJkiRJkFPXC5AkqTGqOv5dy6VXriDOQBRFDOzfgj9M2c/4V43C/pNOJgI+uvUpIPDpVY+UhsCnH1nhvOz024Yaqi1dupS7776badOmMX/+/E2OH3TQQYwcOZKRI0fSsWPHOlihaksikSCRSJCTk1M2Efj4IzO8vaSE+2fl8lVxzA8vXsFzd3SgQ36yrperRiaz7HOWDx9DWF9CIoKSk75FdPxhNGnSpOwXK2TvUUmSJEmSJEmSJEmSJEmSJEn/P3v3HR1Vnfdx/HPvZFIhHQjtEUUXG0UFRRAs9NV1gbWsaBQEC64VULFSxYAgrIWqUgIIll0XBEQBcSlGZBEVBUUQBKlJgDRSZu59/pjMOOkJBJLA+3VOTjJzy9wJ85vEc3zne+ZhAjAAAJWs1Ph3+GG5XZYMGWp3ZS1NJv7FGWj7kHnaN32lZHmmXNcddrPqDbi+Rk8CTk9P13vvvac5c+ZozZo1KvwrdP369dWnTx/Fx8erZcuWVXSVqEze93HLsnzv47m5ucrOzlZ2drb6jnXqm59NGbatFuc7tXhiXUWHE2KiclhHMrS/63PK+2aHDNmyrzhX7vlPKDg4WMHBwQoMDCwQAdek91MAAAAAAAAAAAAAAAAAAAAA5UMADABAJSot/n1q+GG5XbYMSe2urK0pE88n/sUZ65ch87Rv2grJlkzDVt1hf1XdGhYBu1wuffLJJ0pMTNSiRYuUnZ1dYHtYWJh69eql+Ph4de7cmSmcZyBvAOwfAefk5CgnJ0eHUnJ063CnDh8xJdvS/9V16P1xdXTRuYFVfdmo4XJ/2qsDNw2Xa9dBmbJl1w2X+z9PKzguRkFBQQoKCioyAbi6vo8CAAAAAAAAAAAAAAAAAAAAOHEEwAAAVJKS4t91G9L11PBkuV2eaahXt6mlqcS/OAv8MmSu9k9bKdm2DEOq++JfVfe+6h8Bf/3110pMTNSCBQt0+PDhAttM01SnTp0UHx+v3r17KywsrIquEqdDce/rubm5ys3NVU5OjrbsyNH9rziVlmHIkK3QQEPvDI9V9/ahVX3pqKEyP9mkA39PkDKzZciWER4iK/FhOS9t4pv8GxgY6HsP9b5/Vqf3UAAAAAAAAAAAAAAAAAAAAACVgwAYAIBKUFr8++TwZFnuPyb/Tn21KfEvzho7hszVvmkrZNiSIVt1hveslpOA9+zZozlz5igxMVE//fRTke3NmzdXfHy84uPjFRcXVwVXiKrifW+3LKvYCHjvwVw9NMGhXfsdMmxLAab0wn2RevTOyKq+dNQwqeP/rZTnEyW3S6Yh2efEyn57oIKa1FNQUFCR+Lc6vHcCAAAAAAAAAAAAAAAAAAAAOHUIgAEAOEmlxr8jUuR25ce/bWpp2kTiX5x9dgyeqwPTV8i2bZmS6gz7q+rcd0OVR8Dp6elauHChEhMTtWbNGhX+tbh+/frq06eP4uPj1bJly9N2Xah+yoqAj6Xl6KnJpr76wSHDtmXIVttLgzR2UKwuOT+oqi8f1VzOD7/pwD+mKvvLrTJsW6ZsWe0vkDGpn4KiavviX6fTKafTSfwLAAAAAAAAAAAAAAAAAAAAnCUIgAEAOAmlxb9DhqfInT/5t/2VtTXt1fOIf3HW2jF4rg5M+0yGPGsidljPKomAXS6Xli1bpsTERC1evFjZ2dkFtoeFhalXr16Kj49X586dZZrmKbsW1Cz+7/WWZSkvL095eXm+CDgnJ1dvfmgrcalThm3JNGyZtq2/96itZx6IUb2YgKp+CqhmXIeO6eBzc3Vs7ucyLUuybTlky7qngxxP3azAoKAC8a/3vdLhcBD/AgAAAAAAAAAAAAAAAAAAAGcBAmAAAE5QyfFvhgbnT/41Dc/k3+nEv4B2Dk7UgWkrJNuzNmJOYwS8YcMGJSYmasGCBUpOTi6wzTRNderUSfHx8erdu7fCwsIq9bFx5vB/z/d/3/cPgZd/6daotwPkcnkmuRq2rbBgQ//oE6WBfaIUEkxUfrazjufq8MRFSp7wkZSZ7ZsabQaYskf+Tc6eVxaZ+kv8CwAAAAAAAAAAAAAAAAAAAJx9CIABADgBJcW/a73xr1syZOsa4l+ggJ2DE3Vw2meSnT8JeHgvxZ6iCHjPnj2aM2eOEhMT9dNPPxXZ3qJFC8XHx+uuu+5SXFzcST0Wzh7e937LsoqNgHNzc7V7v0vT/2Vr1QZThi3JtuSQVDtUuqFtmLpeU0s3tKut2rWIgc8W7rQsHVu6SWlL/6f05d/ITsvyTIqWZBiS0b25HI92k7NJPQUGBhaJf03TJP4FAAAAAAAAAAAAAAAAAAAAzjIEwAAAVFBp8e+gEalyu22Zktq3qaUZr55L/AsU8uvgOTo4bYVkWzIkxQzvpdj7OlVKBJyenq6FCxcqMTFRa9asUeFfdRs0aKA+ffooPj5eLVq0qMRnhbNJ4QjY7XYrLy9PLpdLubm5viB4++48vfUvQ+s3G54Jr/mTXr1ft78iTNe3q6XLm4cqJipA0ZEO1QpzVPXTw0lypx9X3uF0uZLTlPHVdh1b9o3SV2/xTYT2fjZky7iumRyPdFXghQ19wW9gYKACAgLkdDp9U3+974mSCIABAAAAAAAAAAAAAAAAAACAswQBMAAAFVBa/PvEiFRZbsmQdM2VYZoxgfgXKMmvg+fo4NTP8mNIKfokImCXy6Vly5YpMTFRixcvVnZ2doHtYWFh6t27t+Lj49WpUyeZJlNXcfL8I2D/acD+E4G9H9t2ujXzI2nDd/JMfLWtP2JQQ5JlyTTkmwgbF+tQbHSAaoWaMiXJ9myXbZd8W/KtJ99t2/ZMl82P7Yu7Xdr5pOp3fs95TvH5LSv//vKf304/rrzDacrblyqj0L+ndwK0bFsOw5YsS45rLpDjoRvkbP5/vvDXf+Kv//tgZU1FBwAAAAAAAAAAAAAAAAAAAFCzEAADAFBOpca/I4/I7fKERNe0CdNbxL9AmXblR8DeuC56eG/FVCAC3rBhgxITE7VgwQIlJycX2Gaapjp16qT4+Hj17t1bYWFhp+tp4Szi/3PBfxqwNwT2/pzwfn3gsFtffefWNz/Y+narlJlZcCKsmT8d2DsdtvDEWE/EavntK5m25TvGu/2PScPFbPePj73nK2u773pK2p7/uKVsN+Uf7dq+ONYb35q2J7r1XbtfpOvd35D8pucW3e6LfE9me+HHL+bfocj2Qv9exU17NsOD5GjTRI6rzpWzYzMFNIj2hb7+0a/3va/w+x/xLwAAAAAAAAAAAAAAAAAAAHD2IQAGAKAcSot/Hx95tED8+/aEJsS/QDntGjxHh6Z+6pusGTWi9Ah4z549mj17thITE/Xzzz8XOV+LFi0UHx+vu+++W3Xr1j39TwhnHf+fDyWFwN6v/T9blqVtO9z6bqul5FRb6em20tMtZWZK6emWsjKl3Oyik2T/iGwLfTbKsd2y5Chpv7K2F9rP/7oKf5Zd+nl820s7Tzkfp8zrKO9+pTxeua43xCmjdqACIkNkhAfJERkqMyJYjrhwOVs3UUDzRjJNUw6Hw/fe5v+5tPCX+BcAAAAAAAAAAAAAAAAAAAA4OxEAAwBQhpLi3zXe+Ndty5Sh9m1C9Q7xL1BhuwfN1qFpngjYkDcC7uyLgLOysvTee+9p7ty5WrdunQr/+tqgQQP16dNH9957ryXJ9D4AACAASURBVC666KKqeRI4q3lfk/4RsPfDPwb2fu2937uP95jC5ynuMVB9FA5z/WNdwzB8Ia9pmr741/vZPwD23u/9KHweAAAAAAAAAAAAAAAAAAAAAGcnAmAAAEpRYvz7daYeG+GNfz2Tf9+ZcA7xL3CCdg+arUNTP5UhTwQcMaynNjR26f3339fSpUuVm5tbYP+wsDD17t1b8fHx6tSpk0zTrJoLB/z4h7v+Ya9/DFw4/vXuV/jD/5yo/vyD3cIf/nGvfwRcOPr1vo8x9RcAAAAAAAAAAAAAAAAAAACARAAMAECJSo1/Rx6T22XLMKRrWodqJvEvcNL2PDtfhyZ97JkEbEjjcv+nhe7tBfbp3Lmz7r77bt1yyy0KCQmpoisFSuY/xdf7uXAMXPjr4uJfIuCawT/ULU8EXNzXhaf9Ev8CAAAAAAAAAAAAAAAAAAAAkKSAqr4AAACqo9Li30f94982YZo5/v+If4FK0HhMHxmydXDSx5ItPe28XJL0w0VBuuOOOxQfH6/69esXCOaA6qbwa9MbgNq2LdM0iw1+mfx7ZigcA5f3o7jjAQAAAAAAAAAAAAAAAAAAAKBaTgCuhpdU4/E/k5/ZWDOnB+vo7FFS/PvfrzP16Mg0ud22THkm/86aQPwLVLa9z87zTQI2JUWM+Jui7u8ip9OpgIAAORwOXwTMezNqguKmAns/M/H3zFLaRODC9xXeHwAAAAAAAAAAAAAAAAAAAAD8VfkE4ML/czv/43vl8f+fyW3bLnYaGWqe0tZMcbdxclhHZ5/S4t9H8uNfQ57Jv7PGNyb+BU6BRmPulCHp0MTFsmXr2LAPJElR93cpsJ9pmpJ4L0b1V9rvD/z3z5mprN8Zed8CAAAAAAAAAAAAAAAAAAAAUJYqCYAL/0/upU3CKrw/ylbeqVMlHYPqp7j1wOS4U4t1dHYqNf4dlS6XWzJlqEObUOJf4BRrOOZOybZ1OH8ScBoRMM4AZb1OeR2fmfh3BQAAAAAAAAAAAAAAAAAAAHAiTlsAXFz0673PsqwC95UUBaNshaPF8nyUdDyqXkmxb2kfxR2HimEdnZ1Kjn+z9PCodLldkiGpQ5tQzSb+BU6Lhi/fJUk6PGmxZNtKH/a+DEmRRMA4g/C6BQAAAAAAAAAAAAAAAAAAAAAU55QHwCUFjN7o17Is39eZmS59/2OWjhxxKe2YW2lpLqUdcyk9zaX0Y25ZLkuGbcuULSP/w7Tzv/a/P/8+U/J9bdiW57b/Mf7H+Y4p+/jC+/ofU/B+v+NlybRV+uMWuV9+X1uFrqfo83WYhgJqB8kZHSpnZIgCo8MUEBWqwJhaCr2koYIaRMk0TZmmKcMwfJ+9X/sjRKhaxa0b/zXjv3ZSj7i07efjSj3iXS9uHctfN5npbtluS4Z0EmunpO355y20bk7sfIWPL3mtFNxfMv2uo/C5/fcrce0XWYeSs3aQAqJC5IwMlTM6TM78dRR8QT2FNK3nWzP+64l1VLOVFP9+4R//GlKH1mGaPb4R8S9wGjV8+S4Z8kTAtm0p/cX3JdmKvL9rgf2IgAEAAAAAAAAAAAAAAAAAAAAAwJnklAXAxU389YaLbrfbFy9mZLq0el2GVq/N0ldfZ8qd54ltHZJku+WQ8uPbP+73xbi2JYd/nFtg/+K2+902JMMqetv3ON7bhu3ZryK3C1yn//P54/EK3y7zest525Qts9Btz/MxFNqqkSJvaqXIv16uwPpRcjgcvoDRtm0CxmqgcPhbOPa1LEtut1uHU1xa8UW6Vq/L0ndbjsuw8v+9/V+Ptl3ia6SktaTiXru+13Yxr3m//Up+jarY17qZH+QWd3yB6yiyxkpfewWvo/jzl/68S15bhm0ppFmcwv/cQlG9Wyu4aZxM0/StJcuyCgTBXqyj6q20+Pcfo9Lldnv+DTu2CdGcV4h/garQIH8ScPLERbJlK+PF9yWJCBgAAAAAAAAAAAAAAAAAAAAAAJyxDNu/1K0kxU379Y8X3W63lqzM0GdfZGndhizfVE5PDOidlGvl32/5IkHfbXmmfpp+UzvNQiHiH7cLby/5tlEkSKz824Zt+4WFpVyPrGK+L+W87X0+vnMVvZ7glo0VcWMrRdx+tYLqRRaIGP2nA0tENKdLSdN+vcF86tE8LV6RoZVrsvT9jzmFJlAXE7z6Tbgt7jVTYC0ViWX9X7ueY/94rRbdzyh2TXkfv/TXaklroLQ1VZ616v/6N22/+yv4/SjpvcGwbQU1raPwmy5TxO1XK/i8egWiev8QmLVUfZUW/z40OkNul2cidcc2IUok/gWq3P5nEpU8abGU//terZG3KeL+rnI6nQoICCjwuwzvuQAAAAAAAAAAAAAAAAAAAAAAoCar1AC4cPjrP+3XG/4u/DhdM95NV2qqu0i8WDcmQJ2vjdA5jQIVHeVUdFSAoqMCFBXlVN26gZV1mWe03MPpyk32fOQdTpcrJV05e1J05NPvlLXltyKTlR3BAYrof52iH+0hZ2SYHA5HgYiRePHUKymY966dtIw8zf4wXbM/yFBuTtGJ1+edE6gbrolQ/XpOxUQFKCoqQNGRAQoNc6hB/aAqfW41VV5qpmcdHU5TXnK68pLT5Tp4TEdWfq/Mr37xmxru9ny2LYX3aa/owTcqqFEs66iGKC3+HTg6Q26XfPHv3FcaEv8C1cT+ZxKVMnGRJFuGiIABAAAAAAAAAAAAAAAAAAAAAMCZqdIC4MLTS/0jxrw8l5asztSU+Zna87urwHTapv8XqK4dw9XlunC1uCSsMi4FJcjenazURRuVuvh/yvzyJxmW5Zt26qgdrIiHuiji/s5y1g4tEDB6JwJLxIuVrbh1443lj2e7lPifDM38IEvH0ty+KbUOSZddEqyuHcPV9boIndOYyPd0yjucptSPN+nIoo1KX71FysnND7ItOYIcqhXfQVGD/yJnTLgCAgJ807X9pwGzjqpe6fFvptwuW4ZhqGPrYM19paGcxL9AtXLgmTlKmeiZBGwYUtiI2xTxQDciYAAAAAAAAAAAAAAAAAAAAAAAcMaolADYewrLsnwxlTeo+nT9cb2emKEdu11+k0st3dIjUvf1iVGzpsEn+/A4Aa6UdB16a6UOTlgkKz3LNxE4ILaWaj/aQxEPdFVAQIAvYPSPaAhpKod/gOiNf10ul9xut+Z9nKmpCzOVnGL5JmQHO6UBf4/WPbfEqG5sQFVfPiS5M7KVumCd9o35QNaBo/nvcbbMYKdqPdBZkQ/3kDOqdpGgnnVUtUqKf1d/fdwT/7o9U0WvbR2iua80IP4FqqkDz8xRyquLZORPAg4beZvCiYABAAAAAAAAAAAAAAAAAAAAAMAZ4qQD4MIRozf+zc7J01OvpmnJ6hyZsmXIlmnb6tYhTM8+VFfn/R9TS6sDV2qGDrzykVKmLpeyc2TmT2Z2XthAMe8+oaDGdXzxYuEppjhxxa0bl8ulw0dyNWBYmrZsd+X/W1gKdEh33hyhJ+6NVUwU4W91ZB3P1eHJn+jQ+P/IPpLuec+zLQXERSpq4RMKueScAjEaQVrVKS3+fdAX/xq6tnWw5hH/AtXegaFzlDrpP5Jty5QUOvJ2ImAAAAAAAAAAAAAAAAAAAAAAAHBGOKkAuKSIMflIru4bma5vt7l8IVzbFsEa8WhdtbiQib/VUd7+Izow8j0dm/O55MqTQ5IZW0tRCwcpuMW5cjqdRMCVpHCA6F03P+3KUd8X03Uo2TNF1iFLvbvU1tAHYtWwnrOqLxvl4E47rsOv/FspbyyRcTxHsi0FhAWp9vQHFdb1shKnauP0KC3+fWB0lm/yb5erQzVrTBzxL1BDHBw6R6kTP5IkGbIVOvLvRMAAAAAAAAAAAAAAAAAAAAAAAKDGO+EAuHD863K55HK5tP23HPV9MUP7DnkiRqdpa8TDsRpwa2RlXztOgaykn/Rb7wRZKcdkSjKDA1R76gMKu7EN8WIlKC5AdLlcWvvNcT3w0nEdP+5ZN+Ghht55KU4dW4dW9SXjBOTuOKDdfxkt1459MmxbDlMKGXabaj/05wIxPevo9Ck1/n0pSy6XZBpSl7Yhmv1ynAIc/JsANcnBobN1ZKJnErBheCYB136gOxEwAAAAAAAAAAAAAAAAAAAAAACosRzDhw8fXtGDvM1w4fh3/bfZuvOF40o+ask0pIgwQ4lj66tXl9qVfd04RZyNYhVxa3tlrfpe7kNHZbjcyvt3khTilKP1+cVO/yWkKZ+S4t/ZS7L0yCs5ynPZMg1D5zUM0H/ebKhWTMuusRzRtRR557XK3rRDrl2HJNuSe/UWufYlK6BLywLryLt+WEenTonx78bjuv+l43K7JcPwTP6dQ/wL1Ei1OreSlZmt40nbZNi2XJ9vkRUerIDLzuM9FwAAAAAAAAAAAAAAAAAAAAAA1EgVDoC98a9lWQXi3x93Zuvvzx9X1nFLpqTzGjq16A0ixprIERGmiPjrlfPtr8r7ZZ9MQ3Kt/l5qHCPHxY2JgE9A4QDRGyF+8uVxDZqUK8O2ZcpQu1bB+s9rDRQXG1DVl4yTZAYHKuKOjrKOZSp7w88ybMn+brfc6ZkKuPZS3yRKSQRpp1BJ8e/nG4/r/tHZnvhXhrq2DdWcl+sR/wI1WFjnVrIyc5Sd9JMkyU0EDAAAAAAAAAAAAAAAAAAAAAAAarATngBsWZYvpjqYkqvbns/WkTRLhmGow2VB+uif9YkYazDDGaDwOzrKzs7V8XU/ypQh99KNMts1k9m4ToF4hpCmdIUnZrvdbuXl5enb7Tm6Z1SO3C7P9NH+PWtr5si6Cgrk+3jGMA2FdbtcAY1ilfXxBkm27I07pIZRclx6DjH9KVZy/Jut+0Zny+22ZUjqenWIEol/gTNCWOdWsjOzlf3lNhmy8yPgECJgAAAAAAAAAAAAAAAAAAAAAABQ41QoAPaGVP7Tf7OO56rP8OPavscTUjU7x6klr9dXWIh56q4ap01op5Zy70tRzje/yDAMuZdtlKPnVTIjwopMMCWiKZl3zXgjxH2Hc3XLc7lKy/Csm79eG6rJz8ZW9WXiFAm+7DyZUbWUvfx/Mmxb1opvpXbN5GgUS5B2ipQa/76ULZdbMg1DXa4O0dwxxL/AmcQzCThb2V/+JNm2LCYBAwAAAAAAAAAAAAAAAAAAAACAGqjcAXBJMdUjk3L0xWZbpiHFRpj69M04RYUT/55Jwnq0VvbaH+X+9YCM3Dy5V30n85Z2MoMCZRhGkRAYf/BfN95oPi0jV7c8n6vfDnrWzeXNAvXe2LoEiGe44CubyfV7ivI275QsS/bSjTLzY/rCQRrr6OSUFv/2fylbLpdkGlLXtsS/wJnKOwk4J2mbZNtyr9oiOyJYDiJgAAAAAAAAAAAAAAAAAAAAAABQQ1So1PVGjN6g6o1/5eo/ay0ZkgKdhj58pa4a1HGcoktFlXGYivvwOQWcGyfZkrbvU3a/ScrLyZXb7Zbb7ZZt25Lk+wwV+J5449+8vDzdPz5X237zTP5tUMehD1+pqyAn4dHZoM7kfyio3UUyJNnHspRz+1jlHU2Xy+XyTYn2hqs4MSXFv6s2Zqv/SzlyuSXDkLq0DdHcMYT3wJksNqGvIp/omR/32sp5fr4ypy5TXl6eXC6X3G4377sAAAAAAAAAAAAAAAAAAAAAAKDaKlcAXDiocrvd2vl7nhLmWzIMQ7Ytvf18jC5rFniqrxdVxAwPVdySETLDQz2vhdVblJu4okC4aFlWVV9mtVM4mv/gizyt3GTLMAwFBxr6z/g6iolgYvZZw2Gq3kcvKqBJPU8E/PPvyn1pYZEQDSemXPGvDHVtG6J5TP4FzgqxY/sp4omekjzrPfeF+cp8bRERMAAAAAAAAAAAAAAAAAAAAAAAqPbKXR76h4x5eXkaleiSZXnuv61zqP56bcipvE5UA84/NVTU+Pt8k/TcCR8oLyPLF9D4x3dnO+/3wRtGu91u5eS6NPZdS4YM2batYQMi1OwcZ1VfKk4zM6qWYhOflGeVGHLPXKG83Qd9MT3r6MSUFv/eOyZXLrckQ+raNljzxtRVAMPqgbNG7Nh+ihzUS8r/+Zs36j1l/pMIGAAAAAAAAAAAAAAAAAAAAAAAVG9lBsD+IaM3qtqy06UlX0m2bAUFmhozMOJ0XCuqgVp9uyjgknM8EfChY3LN+MQXzjC9tKDCMWLipy7tOexZN/8XF6AHe4dV9SWiigRdfZFCe7eXZMtwueUa+x5TgE9CafFvvzG5crkkGYa6tQ3RfOJf4KwUM7afIgb1lGEYsm3JNfo9ZREBAwAAAAAAAAAAAAAAAAAAAACAaqxcE4ALh1XD59jyjK809PAtYaofS0111jANRf9zoGxbkiHZEz9S3rGMIuHM2RzPFI4R3W63MrLyNP59z7oxZOjlgeFyBhhVfamoQpHjBshwBkiyZby3Tq5te3yvF9ZR+ZUc/+ao35g8uVySYRjq1jZY81+qQ/wLnMVixt6riEG9ZBjKnwS8UFn//A8RMAAAAAAAAAAAAAAAAAAAAAAAqJZKDYALT/91u9368ke3/vu9JEOKqmXoqbtqn6ZLRXURdF0LBfdo7YlZM7LlnvSRXC6XbwowPLxrx+VyacZSS8nHDMmQrrzYqV7XhlT15aGKBTSpp7B/3CzJkG1Zsl5eWGAdEZ+VraT4d+XGHPUdkyuX+4/4913iXwCSosfeq/BBvSV5/giHa9RCHScCBgAAAAAAAAAAAAAAAAAAAAAA1VCZE4ALR8BTFlv5k9Ok4QPCVTuUKaZno8hXH5QcpmTbMhJXyZ0fzXhfK2e7wuH89KXytEa29M/HI6r68lBNhA+7S0btEBmSjKUb5Tp0hPisnEqPf/PkchuSvPFvLPEvAJ/osfcqYnAv3++zRMAAAAAAAAAAAAAAAAAAAAAAAKA6qtAE4OM5bq3+zlNRhQYb6vdnppierQL+1FBBXS73RK0p6XKv/aFIMHM2RjP+a8b7sXmHW4ePeZba1ZcGqtUFziq+SlQXZniowu7tLluSYduyFiUVWEeSzsp1VJbS4t97xrjkcnv26942SAuIfwEUI2psf9Ue1FuGIcm25R61gAgYAAAAAAAAAAAAAAAAAAAAAABUKyUGwP7xmTcAXvmNpexcz/03XR2kQCfTf0+HgwcPasOGDcrKyipwv8vl0vHjx33/VklJSVq0aNFpu66QXu1l2/JM0Fu6gVgmX+FwfumGP9bTX68JquKrQ3UT3LOddzi0jGUbfVOj/SNg/KHU+PdlT/xrGIa6tw2uUfHvqlWrtG7dujL3mzNnjl599dUSt7///vtavnx5pV2X9/vs9emnn2rFihUnfL6srCwtW7ZMv/zyS2VcXrWVnZ2tjIwMSZ7v4bvvvqtvvvmmiq/q1Js3b56WLFlS1ZdRbp4I+G+SYci2JWvUAmX/8yMiYAAAAAAAAAAAAAAAAAAAAAAAUC0ElLax8DTTpRtsGYYp27LVs2Pw6brGM8aQIUNkmqbGjRtXoeO++OILjRs3TvPnz9ef/vQn3/3vv/++JkyYoOXLlysmJkZLlizRhg0bdPPNN1f2pRcruPc1Shv4T9luS+byTXK/1Fdut1sOh0OmWepw6TNa4QD4k/8ZMgxDsmzdcj3rprzcbreuuuqqCh3z1VdfyeEoWHxW9DyBgYFav359hR73ZAR2uFRGTLiMlDRp3Y9yZxyX5XQWiM4Mgz+2IJUe/979sjs//pW6tQ3SwtExNSb+laTXXntNsbGxat++fan7JSUladeuXRo0aFCx22fOnKkmTZqoW7dulXJdn332mZ599lnfz5/58+crICBAnTt3PqHzpaam6oUXXtDAgQN1/vnnV8o1VkcJCQn68ssvtXz5clmWpQkTJuiuu+7SZZddVuaxGRkZOnr0qGJjYxUcfHp+Zuzdu1c9e/bUwIED1b9/f9/9W7du1b59+0o9Njg42Pe6nTdvnpo0aaIbb7zxlF5vZYoa11+GpIwJH3jeW0YuULYkPdazwH7e32t4PwYAAAAAAAAAAAAAAAAAAAAAAKdLiQFw4fjX5XLrs28csm1bwU5DN159eiaZbt68WQMGDChyv2maCg0NVdOmTdWzZ0/95S9/OenH2rt3rz744AOtX79e+/fvlyQ1bdpUN910k3r16lUkLKyoH374oVznyMnJ0aZNm3y3d+7cKUn69ttvlZKSIkmnLQoqjRkTLmf7S+Va852MPYfl/v5XWVc0KxDpSTUvlpkwYYIee+wxBQSU2scX4f+cvfHvrgNubdsTIMO21KJpgBrXPT1F4ltvvaWpU6cWuT8gIEC1a9fWpZdeqnvuuUetWrXybVuzZo2eeOIJSVLXrl01ZsyYEs//6quvav78+ZKkTz75RLGxsb5tycnJmjNnjtatW6cDBw7I6XSqUaNGuuGGG3THHXcoJCSkQs/lyiuvVM+ePcveUSo2PDdNU5MmTSrX8YmJifr+++8rdH0nzTAU3PsaZc9YIjPPkrV8o6zbrivweqqpEfD+/ftVv379SjlXSfHvio05uvtlSy63ZMpQ97aBeq8axL/ffvutjhw5UuL2xo0bq2nTpqWe49ChQ/rzn/9c7LbWrVsXuD158mRdeeWVZV7X7bffrjZt2mjIkCFauXJlqft26NChzPN55eXlae7cuVq1apV27dqlOnXqqEWLFnrwwQcVFxdX7vMU58CBA/rhhx8qdEx4eLjatGlT5P4+ffro559/Lvd5Jk2apGuuuabE7cOGDVNUVJQef/zxCl1faZYuXapx48bp9ddf19VXX10p59yxY4fWrFmjbt26VWhNfvjhh/roo49K3ad+/fpavHhxmef6/fffNXXqVCUlJSk9PV2xsbHq2LGj7r//fkVGRpb7mk6FyHH9JdnKfPVDybJkEQEDAAAAAAAAAAAAAAAAAAAAAIBqoNjC0T8680bAX261lJrukGkY6tzaqZCg0xs/REdHq0mTJr7blmUpPT1d3377rb799lvt3btXAwcOPOHzf/zxxxozZoxyc3PVoEEDtWzZUllZWfrpp5+UkJCg1atXa9KkSRWOQr127dqlw4cPS5J2796tc845p8R9U1NT9cgjjxS5f+zYsb6vGzVqpNtvv/2ErqUyBfdqr4z/fucZu7n0a1mXXeCbXFpTDRkyRO+8845mzJihdu3aVfh4/3B+yQbPbdMw1KvD6Ynm/Z1zzjmKiYnx3Xa5XDp06JDWrFmj9evXa+LEicU+x3Xr1ikvL09Op7PY837++efF3v/rr7+qf//+SktLU2RkpC644ALl5eVp165dmjx5sj7++GO9/fbbioqKKvdzaNy4sbp27Vru/QszDKPUgM/f8uXLT/hxTkZwz/bKmbFEki1j2Ua5/9bhjJgAfNFFFykhIUEPPPDAST2HEuPf/+Uq/mVLbrdkSOreNkjvj46u8vhXkqZNm6YNGzaUuP2RRx4pMwCOiorStGnTyvV4/tPhS5KcnKwdO3b4fr48/fTTpe5f3vWQk5Oj/v37a9u2berUqZM6deqk5ORkLV26VCtWrND06dN18cUXl+tcxfnmm2/0wgsvVOiYiy66SImJiUXuf+SRR5Senl7m8T/++KPmzp1b5n4//PCD6tatW6FrK0t2drYkz/e1svz888964403dPHFF1coAH7++ef1/PPP+24/88wzWr16tb788ssKPX5KSor69u2rI0eO6Oqrr1bTpk21ZcsWvffee1q/fr1mzpxZoZ8Lp0LkuAG+ScCSLXvku8qRLT3Wq8B+RMAAAAAAAAAAAAAAAAAAAAAAAOB0KfcE4E2/yBN52laVhIzt2rXT8OHDi9y/efNm/eMf/9CsWbPUu3dv1atXr8LnXrt2rYYPH67IyEiNGzeuQCyYnJys5557TklJSRo/fryGDh1a4fMfP35cw4cPV0REhEzT1LBhwzR58mSFhoYWu3/9+vW1cePGMs/77rvvVvhaKltwz/bKHDRFsiXjmx0FosWaHC7++OOPuuaaa9S3b1+98sorBSLa0vg/d8uytHmnIcMwZNuWenY4/VOb+/btW+x07Hnz5mnixImaMGFCkQA4Ojpaqamp+vrrr4uNg7du3ar9+/crJCREx48fL7Bt7NixSktL06BBg3Tbbbf5gvmMjAy98sorWrJkiV599VWNGjWqEp9l2dq1a6fc3Nxy7RsYGHiKr6aYx+x0mRQeKh3LlLl5p+99tyaH9JJ07NgxDRw4UPPnz9ebb76p5s2bV/gcJU/+zdVdCfnxryF1v6r6xL+SZyJvcbZu3ar4+Hg1aNCgzHM4nU5dccUVys7O1vz587VixQrt27dPbrdb9erVU8eOHXXXXXcpOjq6XNeUlJSkgIAAXX755ZJU4OfMs88+qw0bNmjFihXlOpe/GTNmaNu2bRo/fryuu+463/333nuv4uPj9fzzz+tf//pXhc/r1aNHD/Xo0UOSNHz4cH388cdFfkaOGzfOF5OWtobLO1E3MDCwXAHwqfDLL7/4Pvt/P6uD5ORk5eXlKS0tTeHh4eU+buLEiTpy5IieeOIJ3Xnnnb77X3vtNc2ZM0fTpk07od+vKlvEuAEywoKUMXKebNuSPXKBcmxJjxMBAwAAAAAAAAAAAAAAAAAAAACA088sawdvyLg/VZI8QWfrZsVPBa0KrVq1Uo8ePeR2u5WUlFTh4/Py8jR69GiZpqk33nijyKTQ2NhYTZgwQREREfroo4+UkpJSofOnpKRo8ODB2rJli4YPH66RI0dqy5YtGjRokJKTk0s9NjU1VQkJCbr55pvVvn173XLLLXrnnXeKTAVcs2aNVq5cqf3791fo2iqDo0k9GTHhnvGbB44UCBdrerxo27ZmzpypZs2a6a233pJlWeU6xj+c359qyJatQKeh5ued2PToU+HOO+9U48aNtXv3bu3du7fAto4dO0qSVq9eXeyxq1atUlhYmFq1alXgfpfLpU2bNunCCy9Unz59CkzLrlWrlp5/Z81kLQAAIABJREFU/nlFR0frs88+k8vlqtwnVA5t27bVrFmzyvyYPn36ab82IzBAzhbnyZYt4/cU3xo6U9bSmjVrdMUVV+jZZ5+t0FTT0ib/3plgyeWWZBjqcVWQPqhG8W9pfvjhB0mq0BTWp556SomJierVq5emTp2qd955R/3799eqVas0YMCAcsftX331lVq0aFHsH5/wvmediHXr1ql58+ZFYtXo6Gjdeeed+u2334q8z5wpTub7Vpzk5GTfhPXFixf7pgGfLO81nuy17tq1S5K0c+fOEvdJTk7WsmXLtGzZMu3fv1+WZWnt2rWKjY1Vnz59Cuw7cOBAOZ3OCk8UPpXCh8UrfNyA/D/eYUsj31XupH8rLy9PLpdLbrf7jHlvBgAAAAAAAAAAAAAAAAAAAAAA1VupRWLhkNGQZ5Jpvegyu+HTqmHDhpI80ya9cnJyNHv2bH3yySfat2+fateurbZt2+qBBx5Qo0aNfPslJSUpOTlZXbp00YUXXljs+WvVqqXHHntMR48eLXfskZycrI8//ljvvPOOLMvS6NGj1aFDB0lSQkKCRowYoV69eqlfv366+eabFRsbW+D43NxcPfzww0pLS9OAAQPUsGFD/fDDD3rrrbe0e/dujRgxwrfv6NGjfV+Xd1JtZTLrR8tKPirHgSNyFYpiavIUYK+UlBTdd999mjJlimbMmOGbnlkS/2jxwBHPuomLrn7fg4YNG2rPnj06duxYgTVRp04dXXrppfrvf/+rZ555psi/3+eff64OHToUmf4reZ57VlaWLMvyTUj0cjqdevLJJ3Xs2DG5XK4CgXBpPvzwQ3344Yfl2nfx4sUlhpVRUVG69NJLy3WeqmDGRcuQIbncslPSZDXwTFo/U9ZSXl6eXn75ZX3wwQd6++23fe+HJSkp/v3sf7m662VbLrfnL1j0uCpQH4yOqhHxr+QJgA3DUOPGjcu1f0ZGhtavX6/77rtPt956q+/+Cy64QE6nU0OHDtW2bdvUokWLMs+1YcMG3XbbbcVuO3LkiNLT0yu0Nr2Sk5PVsmXLYrfVqVNHknT48OEC7zNTpkzRlClTJEnLly8/bT+7+vbtqy1btlTa+VJTUyv8/SqJ2+3Ws88+K0kaP368nnzySY0bN04vvvjiSZ/74MGDBT6fiKSkJB05ckSS53258B+B8Nq5c6deeOEFSdKYMWMUExOjZ555RkFBQUXew5xOp8LCwk74mk6VWoNvkSRlPDVDtm1JI+crV2ISMAAAAAAAAAAAAAAAAAAAAAAAOK1KrFb84ytvyGjbtkzDUGxE9QqAd+zYIUmqW7euJE/8O3DgQH333Xe64IIL1Lt3b+3bt0/Lli3TunXrNH36dJ1//vmS5JsaXHjyb2E333xzua4lKytL9913n3766ScZhqFOnTrpwQcfVJMmTXz7dO7cWeeff76mTp2qKVOmaPLkyWrWrJlmzJjhm8z4/fff6+eff9b06dN9wWmbNm0kSW+++aaefvpp3/m88dQLL7ygDRs2lOs6K5NZL1r2ll+lIxmyc/NkBZ1Z4aLXpk2b1KZNGz344IMaOXJkgWCt8HrxxvO/pzhl27bioqtXnWhZlm+SozfQ83f99dfr9ddf15YtW9S8eXPf/Tt27NCuXbv00EMPacmSJQWOCQgIUPv27bV27VoNHTpUd999ty655JIC//ZdunQp9zWapqkxY8ZU6HlFRUWVuM07kbI8xowZo65du1bosU+WGRclKX/N7E+VXT/2jJwuuX37dl177bUaMGCAxowZU+SPH0ilx793+uJfQz3aBurDUZE1Jv7NyMjwTUOOiIgo1zG1atXSeeedp2XLlqlVq1Zq3ry5TNPUjh079O677yo8PLzAz5eSbN++XSkpKbrqqquK3X7o0CHZtq3k5GT99ttveuihh8r9vJo2bapt27bJ7XbL4Sj4j+GdeHzeeecVuL9Tp06+icG1atUq92NVhri4OA0dOrRc+1588cUlbsvMzFRGRoZvnU6aNElz5871ba9I1JyXl6exY8dq06ZNGjRokK677jrddtttWrhwoRo1aqR+/fqd1M/R3377TZK0e/fuEzre5XLpzTffVFxcnDp37qx58+bpr3/9q1q3bl1k3yuvvFKTJ08ucF+3bt2KPe/y5ct19OhR3XDDDSd0XadSrcG3yJCt9CdnSLLzI2Bberx3gf2IgAEAAAAAAAAAAAAAAAAAAAAAwKlSbADsH256P/anGjIMQ/VjDFWnxuG///2vPv30UwUFBalt27aSpHnz5um7775T79699fTTT/uCpNWrV2vIkCEaMWKEEhMTJf0xDa88AVV5hIaGqnPnzrr55pvVvn37AhMP/TVp0kQJCQnau3ev1q1bp6ysLF/8K8k3XbVwJBYZGSnbtpWdnV0p11sZHPWj5LIlQ5L9e4rsZmFnZLgoecLZyZMna+HChUpISFD//v2LRD/eNZOSZstteaKguKjqE827XC5NnTpVBw4c0MUXX+wL5/15A+DPP/+8QAD8+eefKzg4WO3atSsSAEvSc889p4cfflirVq3SqlWrFBkZqSuuuEKtW7dWhw4dFBcXV+7rNAyj0iLcV155pchrcty4cTJNU0OGDCmyf7NmzSrlcSvCrBet/FUk7UuRfdkf779nGtu2NWPGDP373//Wq6++qvj4+GL3sSzLFwCv2JSnPgmS2+15bfS4ylmj4l9Jmjt3ro4ePapevXqVvbOf119/Xa+//rqefPJJZWVlSZICAwPVunVrTZs2TeHh4WWe46uvvlLt2rWLDVqPHTumffv2SZK+/fZbtW7d2hfff/fdd1qwYEGp5+7cubMSEhI0c+ZMDRgwwHf/Tz/9pPfff19t2rQp8rPsT3/6k3r06FHmdZ8KYWFhZf7Rj/LYvHmzJE8IvGXLFnXv3t333vHhhx9qz5495TrPjh079MILL+jnn39Wv3791KdPH0nSoEGDdPToUU2ePFmbNm3SsGHDiv2DDWWxbdt3rUlJSXr00UcrdLzL5dLTTz+trVu3asyYMb4/9PD4448rISHhhL+X69ev1/DhwxUbG6sHH3zwhM5xqoUNvlWypcynpku2LWPkfOVJMp74mwzDKPBxpvyxEwAAAAAAAAAAAAAAAAAAAAAAUH0UCYCLi80sy9bBo6ZsVd0k0/Xr1+v+++/3uyZLBw4c0IEDByRJjzzyiCIjIyVJS5cuVWhoqAYNGlRgGuF1112na665RmvXrtUvv/yi888/XxkZGZI8QVBl6devX7n3bdSokW6//fYi97ds2VJRUVEaN26chg4dqvr16+vHH3/UW2+9pRYtWig6OrrSrvdkGfWifd3iD5/9V1mHzlFgYKACAgLkcDh8ccyZJCUlRffdd59mzpypGTNm6KKLLiqw3RPN//F1XHTVBMCzZs3S4sWLfbdzc3O1e/dupaenKzg4WE899VSxx/3f//2fmjZtqtWrVxeIxVauXKn27dsrODi42OPq1KmjxMRELVmyRMuXL9fmzZu1cuVKrVy5UmPHjlX37t01ZMgQ31otTm5urtq1a3eCz9jjq6++KrD227dvX2SfyZMny+FwVEoIWBnMuGjZsmVI2rluo1IiXL51ZJqmTNM84XVkmqYcDofvPMV9lLW9PPuEhIRU6LqSk5N19913a+7cuZo+fbrOOeecIlO03W63Vmxy6Y4EyZUf//75Kqf+VcPi38OHD2vevHlq2rRphSZhS1K9evU0evRoWZalBx54QHv27NHHH3+sgIBi/4ZHsZKSknTllVf6ppX6++KLL2QYhi688EJ99tln6tatW4H4vqwA+G9/+5tWr16tqVOnavPmzbr88su1b98+38/i5557rvxPtgZZvny5zjvvPGVlZemTTz7RkCFDdOGFF0ryvAeVFQCvWLFCH3zwgTZu3KhatWrp2WefVe/ef0yXdTgcGjVqlBo3bqxZs2bpL3/5i9q1a6fbbrvN9wdPymPNmjXau3evrrvuOq1evVpfffVViZOgC1u3bp3efPNN/fzzzxowYIDvdfHPf/5Tjz32mB5//HG1bdtWL730UrmnWkue78+gQYNUu3ZtTZkypVr9TlNY2JBbZUjK8EbAI+YpzzBkDrrF995H/AsAAAAAAAAAAAAAAAAAAAAAAE6FEush/wjr8LH8SaYyVK+KJpmmpqYqNTXVd9vhcCg8PNwXw3gjvry8PO3atUtXXHFFsZFiq1attHbtWm3fvl3nn3++L0RMT08/6Wu0LEsrVqw44eMNw/CFYbVr19akSZP08ssv69Zbb/Xt06FDBz377LMnfa2VyREXLeWH41OHjdG/dLCKr+j0Wb9+vVq2bKlHH33UN2XW+7EvxbOPYRiqV0UB8O7du7V7927fbafTqdjYWHXs2FHx8fE6//zzSzz2+uuv11tvvaVff/1V5557rvbu3avt27erb9++pT5mYGCgevXqpV69eik7O1ubN29WUlKSli1bpk8++US7du3SrFmzSowXAwICNGrUqBN6vl6macrtdmv16tUl7pOeni7TNLVy5coS97n++uuLDSZPBTMuSkZ+Sf/x9NkaO334aXnc6uDTTz/VJZdcopEjR+qxxx7zTdO0LEsrNuXp7y/bynNJprzxb0SNin+PHj2qhx9+WHl5eRo2bFi5X1Pbtm1TcnKyXC6X3G633G63jh07puzsbE2fPl2HDh3yfTRt2lRjx44t9jy5ubn65ptvNHjw4GK3L1q0SJ07d1aXLl309NNP+9Z8eRmGoddee00LFizQ8uXLNXPmTNWtW1c33nijHnroIUVFRZX7XMVZuXKlnn766QL3tW7duth9vX884IorrtC0adOK3WfHjh0lHl/Y1Vdfrddff73I/fv379eqVas0ZMgQZWZmasqUKerTp48aNGhQrvNK0m+//aadO3fqjjvu0D333KPY2Ngi+5imqQcffFDdu3fX7NmztWrVKnXr1q3cj2FZlmbNmqWYmBiNGjVKPXv21JQpU3T55ZfL6XSWeeyMGTOUmpqq0aNHq3v37r5tDRs21Jw5czRz5kzt2rWrQvFvVlaWnnvuOYWFhWnGjBlq0qRJuY+tKqFDPL+HZT41TbYtGcPnKs805Rh8qyzLOiP/0AkAAAAAAAAAAAAAAAAAAAAAAKh65R8fKOVPODtVl1K6m266ScOHDy9zv8zMTEklT/StU6eOJOn48eOS5It1du/erebNm5d43tTUVKWlpZUaqrhcrpOKcx0OR4HJkJdcconmzp2ro0ePKiUlRXFxcQWeV7t27RQTE6NatWqd8GNWCocpGYZk2wrQ2RfAuFwurV69utjp2VLxU7VPl2HDhukvf/nLCR3rDYBXr16tc889V6tWrZLT6Sx1Yq7L5fJNRJSk4OBgtW3bVm3bttWDDz6oxx9/XBs3btTKlStLjNhM01SPHj1O6Jr95ebmFokGi1PaPuvXr1dgYOBJX0t5GA5Tkue14jgL11FmZqYGDx6sefPmacOGDb4A2OW2lefyfF9s2aoXZdao+DctLU0PPfSQduzYoaFDh+riiy8u97FLlizRu+++K8MwFBAQoKCgIAUGBqpOnTrasmWL6tSpo4svvlgdO3bUeeedV+J5Nm/erJycnGKnxi5ZskSbN2/W22+/rebNmysuLk6jR4/WW2+9VaGg0TRN9enTR3369Cn3MeXVvHnzEuPmkpQUHQ8cOFDHjh0rcN+iRYuUlJSkESNGFIliY2Jiij3PSy+9pKCgIHXv3l0ul0vTp0/XmDFjNGnSpHJPZo6Pj9c999xTYFp5SZo0aaJhw4Zp6NChFXpPevPNN/Xdd99p6NChCgkJ0WOPPaYXX3xRY8eO1fPPP1/qsaZp6tVXX1VYWJiCgoKKbA8NDdU//vGPAvddccUVqlevXqnnXb9+vY4eParHH3+8RsS/PrYtBQXKyM6RJFnZubIsq8DPeCYBAwAAAAAAAAAAAAAAAAAAAACAylRmpWLbtmLD8/tOGTqYap2O6zphoaGhkqTk5ORit3sn/Xqn1bVt21Zz5szR+vXrddNNN5V43gULFuidd97RwIED1b9//2L3CQwM1MaNG0s8xy233KKYmJgSpxKWxDulePHixfriiy+0f/9+paamyu12KyoqSgsWLFC7du3Up08fPfbYYxU6d2WwDqR6u0Vd0/smndM0SgEBAXI4HL6peDUpiBkxYkS5942JiVFCQoL69etXZFtsuOebYhiGDh6p3uumOM2aNVODBg20evVq9evXT6tWrVLbtm1LjOvfeOMNzZo1S1OnTi12umZwcLDi4+O1ceNG/fLLL+WeYrl371598sknWr9+vQ4fPqwjR47IMAxFR0erbt26uuaaa9StWzfFxcUVOC4kJKTU9VjduA8ckfInAF907dUa0qa3bx2ZpnlS68g7PdayrBI/Knu7bdv64osvKnSdF154oUaPHl3gvhtaSu8+7VL8Kw65LUPvLDuulDRL7w+v/lOAk5KSlJCQoL1792rw4MG65ZZbKnT84MGDS5zaW5Krr77a94cuvL766is1atSoyHTa7du3a+LEibrooovUsmVLSdJ9992nYcOG6ZlnnqnQe6HkmWh74MABXX755eWOYMujbt266tSpU6Wc66qrripyn3dKeZcuXcqMay3L0oQJE5SUlKSHH35YwcHBkjxh8fjx4zV48GAlJCSU61rKmsBbnOJC3JIsWLBAs2fPVqtWrfS3v/1NkvTnP/9Za9eu1UcffSTDMDRo0CCFhISUeI7o6GhJ0tdff620tLQyH/O6667zHVOS33//XZJ8r7maIHPsAmUOfSv/d2HJeuY2BQzq7dtu2zbxLwAAAAAAAAAAAAAAAAAAAAAAqHRlFjqe6EyKrm0rJU06UM1DxsDAQDVp0kS//vqr0tLSFB4eXmD7N998I0m+aYmXX3654uLitGLFCvXt21d/+tOfipzzyJEjWrRokSRP3HK67dy5U4888oiysrLUpUsXde/eXZGRkXI4HDp27Ji2b9+ujz76SLNnz9bYsWMVGxt7Wq/POpDq7RbV+8F7FXTZBQoODlZgYGCBeLGmKE/0ZhiG+vbtq1deeUUxMTG+aaX+6ngac9myq304X5Lrr79e8+bN09atW7Vly5ZSp3B719TixYuLDYAl6cCBA5JUZiDmtXLlSr344ouKjIzU9ddfrwsuuEARERGybVvHjh3Ttm3bNH/+fM2cOVMJCQnFTjj93//+pwceeKBcj+e1YsUKX3h/ulgHU2XLliHp+tt7qdstHX3rKCAgoMatI0nlvt66detq1KhRuvfee+VwOHxryRs9X9dCeufxbPWfFCy3ZWjxuhzdOuyo3h8RWS0j4OTkZE2cOFHLly9X7dq1NXHiRHXo0OGEz3f8+HFt3ry5XPt27tzZ9wcuvJKSkoqsjR9//FEDBw6UbdsaNWqU7/4bb7xRW7du1YIFC3TppZeqbt265b7Of/3rX5o7d65Wr15d9ZPpT5FZs2Zp4cKF6tixo+655x7f/X//+9+1f/9+LVq0qMiE4dPN5XJp8ODBWrdunZo2barx48cXWIsjR46Uy+XSv//9b+3bt09vvvlmmed87bXXtHXr1nI9/pVXXqnJkyeXuL19+/aqU6dOjZn+mzl2gTKe+X/27jtMiiLvA/i3uyfs7mwOLFHFAKJ3AoKoKAIqiIAgxkMMqHh6ihn0wACG88RwCiL66pnOiKeiIibMioqi6Bkxk8Mum8OE7q73j0k9Pd0zs8uyM7t8P88zz25v99RU93bVVHfXr+qh4DEUAr6ZJ0CefhychmPa0QY6ISIiIiIiIiIiIiIiIiIiIiIiIiIiIiKijiHlKfrK8nVU1SmoqMn8QMaxY8di0aJFWLBgAWbPng1ZlgEAH330Ed5991307dsXvXv3BgA4HA5ceumlmDVrFqZPn46bb74ZQ4YMiaS1bt06XH/99aisrMT48eOx1157tfv+PPLII6ipqcHzzz8fN8tp2HnnnYfTTz8dCxYswNChQ9s1f/rWakAEZ7sVXQo6fSDMfvvthwcffDDuOJv3uSwUPyqhY84ADEQDgG+99VY4HA4cccQRttseffTRWLhwIZYtW4bc3FxMmzYNRUVFkfWffvopFi1aBJfLhVGjRiX9bCEEbr/9duy222546KGHIrN7m1100UU488wzcdddd2Hx4sVx6/faay/Mmzcvhb0NBi9/9NFHKW3b1vTNVZBCkfSirCDp9p2B2+3GJZdcguuuuw55eXkAEJlFM/ySZRmKomDEAQE8cHEj/npPDnQdWPqxD6fMqcGzGRgEvHbtWrz55psYM2YMLr74YpSXl+9Qelu3bsXFF1+c8vbGAMyamhqsWbMG5513Xsw2u+22G/r06YNLL700LhBzxowZ6N+/P0aOHIl33nlnh/JuFp5VPNlMu5nqlFNOgRACZ511Vlydf/nll2PKlCktCpreGRwOB3r37o28vDzMnDkzLiDc4XDgtttuw0svvYR99tknpTQff/zxlLYbO3Zs0m169OiB0tLSFs1mnC6N8xajftZDkABACDRdMRG4aDycocFNzAMzdOa2DxERERERERERERERERERERERERERERERtb+EAcDhQAZJklCSJyCEgF8Fqup1FOfJ7ZLB1jj99NPx4Ycf4sUXX8SPP/6IAw88EJs2bcL777+P3NxczJkzJ2b7UaNGYePGjVi4cCEuvPBC9OzZE7vvvju2b9+OX375BaqqYvDgwbj66qvTsj+1tbXweDwoKyuz3Sa8ft26de2YsyBtc1XoXBFAcV7Mus4UDJOfn4+bbroJF154IRwO66JjLDMuB1DgAWobRIcNAD7ggANQXFyM7777DoccckjcjNpGLpcLd955Jy666CIsXrwY//3vf7HbbrvB4/Fg8+bNqKqqgqIouOGGG1Kapdrv96OhoQH777+/bfAvAOTl5aG8vBy//fab5frCwkIcddRRyXcWSHmW1Z1B31oNIBhIj7KCmCDYzmjSpEm44447IjNHm4WDfx0OB3Rdh9PpxIgDNPzfRfW44N5c6JqEpR/7cOqcGizOsCDgQYMG4cUXX0SPHj3aJL099tgDq1atSmlbcwDmypUrIcty3Kzcubm5ePDBB23TSSVIvzVkWW7R7MBTp07Ft99+2+rPu/vuu3H44YenlE6iwTPC6eTm5uLcc8+13S7V4N+FCxfi0UcfTWlbK6effjouu+wy2/WXXnpp0rpj4sSJrf78HXHXXXfhhRdewJw5c3DcccelJQ+paJi3GA2zHgJCAzM0XT4B+kXjkOV0wuFwQLEJAiYiIiIiIiIiIiIiIiIiIiIiIiIiIiIiImorcVGMkiRFZmAML0uShLKC0N+Ejq1VmR0A7HK5cN999+HRRx/F66+/jmeffRaFhYUYP348pk2bZhmUNXXqVBx00EF45pln8N133+GLL76AJEno168fjjvuOEycOBGKkp4IsxNOOAFXX301zj//fEyePBl/+tOfUFBQAEVRUFtbi59//hkvvfQSvvzyS1x44YXtnj+xtRpCAKKsAFIoEKazBS6eeuqpuPvuu21nYDYy7ntJnoa6RgUbKztmALAsyxg+fDiWLFmSUhBtv3798Nxzz+Gpp57CihUrsHnzZmzYsAElJSUYP348Tj/9dOy9994pfbbb7cYJJ5yAp556Ctdffz3Gjh2LvffeG/n5+RBCoK6uDmvWrMHSpUuxatWqtJz7bUnfXIVwoBm6FHb4MjR37lzLv/fv3x/z58/H8OHDLdeH91mWZQghoChKJAhY13WM6O/D/Rc14G8Lc4MzAa/w4tQ51Vh8Q1FGBQG3VfDvjlq5ciX233//FgXdZpJp06ahpqam1e8Pz3B7/vnn71A6ffr0afV7rYwaNQp77bVXq9/fu3fvhOs7ct2RCRrmLUbdrIcgh9q9TZcfB3HReLjdbrhcLjgNQcAdva4mIiIiIiIiIiIiIiIiIiIiIiIiIiIiIqLMlXQG4PCrNF+HgIAsSfjyJxX9dk/41jYzYMCAlGc+NMrKysIFF1yACy64IOX37L///rjpppta/Fk724gRI3DvvffiiSeewLXXXotAIBCzXpIk9O/fHzfffDPGjBnTrnnTN1dB21IFWQJEWX6nC4TZa6+98MADD+DII49M+T3hYyDLMkrzBX7bLBBQgTXrVPTdrX3KzbRp0zBt2rQWvWfYsGGWZe2aa67BNddcE/f3O++80zKd4uJiTJ8+HdOnT2/R51u54oorsOeee+Kll16yTE+WZQwYMAD/+Mc/cMwxx+zw56WNpkP96lcICEgOBVJ+TtwgDB2N1+uNWe7ZsyduueUWTJkyBbKcfACJcBkCACGCM9CHjejvw33TG3DhQg80XcIrK3z4y5xqLL6xCErmjk2RFtdff/0Ovb+kpASHHnpowlm4zUaMGJHSdosWLcKQIUMSbnP44Yen/LmJHHrooW2STqr23HPPuDJg1LdvX/Tt27cdc5Q5Zs+ejdmzZ6c7G7bq5y1G/eyHIwPieC8/DvqF4+B2ueKCf42z/3bEepqIiIiIiIiIiIiIiIiIiIiIiIiIiIiIiDKbZTSiMeAs/PsBvXVIkCCEjlc/9WHKqKx2zWhncNhhhyEvL69V7x08eDAGDx4Mr9eLyspK1NTUQFVVFBUVobS0FB6Pp41zmxrv0k+B0Ax5+gG9I8EwHTVoMSwnJwfXXXcdLr/8crjd7qTb282cfcAeOj7/yQEhdCz71N9uAcCdyfHHH4/jjz8e9fX1qKysRHV1NSRJQlFREcrKytr03D/qqKPQq1cvZGdnt1maqfCv+A56XSNkSNAG7tkpylA4+DEnJwczZszA1VdfnXIQqbE8ybIMhyNabsKBwCP6+7BoeiMuWpgDTZewdIUXZ9xYjcev75hBwEOHDm3194PRoYceirKysjbIUdCgQYMwaNCgyPLBBx9sG8B97LHHYr/99ks57R2ZATfTnXnmmZHfJUkFmBscAAAgAElEQVTC6NGjMzrg1+VyYcCAASgvL9+hdIYMGYIuXbq0Ua7aX/28Z1E3Kxj8i0jw71i43e642X87S3uHiIiIiIiIiIiIiIiIiIiIiIiIiIiIiIgylySM0yqGCCGg6zpUVYXf74fX60VFtRcHXJQNoQsU5ghse6lLhwyyorZVPXEO/C9/DFkS8D50CVxjD0Z2djZcLldkhryOFhhz3HHHYdGiRejVq1eL3ieEgKZpMeXmg//5cPItWVAkYPgBCt6+q3gn5Zo6svqrHkTzHc9CEjp8s0+B4+KJyMrKgtvthtPpjAk06yguv/xybNu2DfPmzUPPnj1blUZ45l/jd1IgEIDf74ff74fP58N7X+mYfm8ONC34nhOHZ+E/HTQImIjSp37es6id/TAkABIEvJeNh0gQ/NsR62UiIiIiIiIiIiIiIiIiIiIiIiIiIiIiIupYbEOkwkEN4SCH/BwJQ/sFACFQ1yjw0f/87ZlPykDCr8L3xueQJABuJ3DEnzvFjHhLly5tcfBvmHHfZVnGkD5AUW4wgHHFNypqG+Pi7YngW7YSwTNDgj7uoJjgMgAdsjzdcMMNePLJJ1sd/AvElyeHwwGn0wmXywWXywW3240RA2TcO70JiiwgAXjhvWaceWMVNL3t9oWIOre6ec+iZvYjkBCsZxn8S0REREREREREREREREREREREREREREREmSDhHInGwCtFUTB6oApJkiAE8OqnvvbKI2Uo3/IvgYAGIQQCRx4Aye2MC1zc1ZgD5xVFxqiBAUiSBE0TeGMlyw3F0v7YisAP6yABUPt2h9SrrFMEmOXn57dJOqkEAQ/vHwoCVgQgAUvea8ZZNzAImIiSq5v3X9TOfhQSAAEB72XjGPxLREREREREREREREREREREREREREREREQZwTIA2DjrZDj4V5ZljB8SmqNSApZ97G2/XFJG8i1bCQgBSBK00QOhKAoURenwMwDvqNgAYAWjBwaDpCEByz5huaFY3pc/CQWeAeqogZH6dlcPpjdKKQh4gIKFFzXBIQfrpCXvN+MszgRMRAnU3fZfVM9+BJCCdbDvsvEAg3+JiIiIiIiIiIiIiIiIiIiIiIiIiIiIiChD2M4AbA64UhQFJfkSBuypAQB+3qDhw6/97ZZRyix6dQOannwbkADIMvSjB8QELu6KQcDGfTYGAQ8/AMh2BbdZ8oEPmyu19GaUMoemo/HelyEQLEri2MFxgfQUlGoQ8D3Tm4NBwABefK8JU2/YziBgIopTe9t/UT37UUgSACHgv2wccOGxDP4lIiIiIiIiIiIiIiIiIiIiIiIiIiIiIqKMYRsADMTPZOpwOHDWUcGgXyGAS+6qhRDtkk/KMHXXPQbR0AwhgMDJQ6EU5MYFAO+qjEHziqIg261g8ggfAMDnF7jmgfo055AyRcN9r0D9ZSMkAGr/3pD+vMcuH0ifSEuCgBUlGFa95L0mnM0gYCIyCAf/AgAE4GPwLxERERERERERERERERERERERERERERERZaCEAcBAfDDjxKFAv14qJAn4YW0ADy1tbI98UgZRf9mExgdeBQSAbBfUGSfA4XBw5tIQ88zZDocDl0zUkJ+jAxLw1PImfP1zIN3ZpDQT9c2om/sfABIEAP+Np8WUo109kN5OKkHARwxQcM90LxRFQJLCQcCVDAImItTc9hyqZj8WWfZfNg4Sg3+JiIiIiIiIiIiIiIiIiIiIiIiIiIiIiCgD2QYAm4OswoGMDocD108JQAhAgoTrH6xDfSOjqnYl1ZfdD6FpgCTBf/4xULoURgIXd/VZS41lxhg4X5TnwMUT/ECo3Fx6d026s0ppVjv3CejVjQAE1AkHQe6/Z1w5ImupBgEvmO6FIgtIEvDie004h0HARLu0YPDvowhXr4HLxkK6cAyDf4mIiIiIiIiIiIiIiIiIiIiIiIiIiIiIKCOlNAOwOQj4oL4SjhkUgIBATYPA7U/Ut0deKQN4P/wWza+tgiRJ0MvyoZ8/Bk6nk7OWmlgFzp9xtMDu5ToEBD77PoAl7zenO5uUJuq6CtQvWgpAAC4nAlefaDn7LwPP7KUaBDz/Yi8UGYAkBYOA51YwCJhoF1Rz23OouuYxSJIEIYDAhaMh/Y3Bv0RERERERERERERERERERERERERERERElLkSBgDbzQDsdDpx1SkqHAoAITB/cQM++cbXTlmmdNGrG1B55h2QJASDZ66YAKcnO3JeMFgmliRJkYBOh8MBt8uBGSf5ICF4AC+/qwZbtmvpzia1MxFQUXHqLRB+FYAE/9lHwtGjNBJ4xkD61KUWBOzA3RcHZwIGgjMBn3sDg4CJdiU1C17G9mseAwAIIaCeOxLypeMZ/EtERERERERERERERERERERERERERERERBkt6QzAQPxspk6nE3t0c+DKk/yQJAmqLvCX2ZXYuI3BjJ2VCGjYcvyN0DZUQggBbfh+kE4+LCZoUVEUzlqK2MB5Y1Ci0+nEMQfJOPagYLmpqNFw0t8r4QuIdGeZ2lHltPnwf/4TJAnQ9+kGcelxlsG/u3o5SlWqQcDzL/bBoQhIoZmAz51bAZ1BwESdXs2Cl1F55b8BBOtT9dyRkK86nsG/RERERERERERERERERERERERERERERESU8ZIGAJuDq4xBwFOPERg5IAAJQFWdjpOu2gavj8GMnVHFefPh+/gHQAiIXqXQ5p8Ll9sdmf3XGPxLUeFgIkVRIkHAt0zTsFd3DRKAr3/y44Jbtqc7m9ROaue/hIYn3wUA6J4sBB64AE5PNmf/3UGpBAEPG+DAXRf7ocgCEoCX3mvE326pZBAwUSdWs2ApKq78d6hOFVDPGQmFwb9ERERERERERERERERERERERERERERERNRBKHPnzp3b2jcLIXD4n/x4d7WEmgYJldUq1vwewAlHedowi5Rutfe/itrbnoMkBJDlgvr4xXD16hIJnrGaAXhXZz4GkiRBCAEhBBQZGLq/Hy9+qEDVgB9/9yPHLeOQP7vTlFtqD83vfYOtZ90JGYAkCQTu+ytcA/dKGIRGqTMeL2NAcPjvkiShR5lAv90DWP5ZcOyL73/144+NAYwd5gEPN1HnUr1gKSpnhIJ/hYB+zkgoV01k8C8REREREREREREREREREREREREREREREXUYKQUAmwOrgGDwLwA4ZIEh+/qxdIUDARX4Za0fXq+OEQdl75wcU7tqfONLbD3zTkAEgxa1O86A87D94oJnOHNpPLtjIYSAJ0vHPj38ePVTByQA769qwr57OLFvb1f7ZpLahe/btdg45npIvgAAAXX6GDhOHRZTjsxB9CxLLZd6ELCK5Z/JEJBCQcAqg4CJOpHqe5Zi24yHIEECBKCfOwIOBv8SEREREREREREREREREREREREREREREVEH06IZgK0CgQEgL0egTy8/XvtEgSQBn33jxU9/BDDmsBw4FAZTdFTVC5dh67QFgKZBBqBPHQ7l3KMTBv8yeCYxYwB9zzIBITR8sUaGJAFL322AU5FwaP+sNOeS2lLj619gw9i5QKMXgIA4oh/km0+LK0fhQDSWox2TahDwvrsH8NZnMoQAfvjNx5mAiTqJ6gVLsW3Gw5AASBDQzx0Ox0wG/1LnFB6QidoP6woiIiKi9sd2b+fB9jQRERERERERERERERF1RHxmmRn4vJHaCst057Kr1A2SaMGZK4SAEAK6rkPTNKiqCp/PB7/fD6/Xi8de1XD3MwpkCEhCYFA/F56c1w2lRcrO3AfaCTZfeB9qH1oOWeiQISCG9YXy4AXIysqyDKBh8Iw9Y7lRVRWBQAB+vx8+nw8+nw9XLRJ46zMFstAhCYGTjvbg/jnl6c42tYHtd76IilmPQYaADAH06Qrp6cuQVZyfMBCNdly43FmVvXD5++irAK6c74CuS4AQOHl0Lu69pgtkOd25J6LWqLrnFWy78iFIEiAJAXHOcDhmTmDwL3V45su1ZMvU9sz1RLJlIiIiImo5q3Yt274dn1Vbme1pIiIiIiIiIiIiIiIiykTsq5d52HePdgT7IXReu2JfhBYFAAPWwYyBQAA+nw9erxdvfabi+gccUAMCktDRvdSBZ+7shn33dO+sfaA2pFU3Yu2kW+D79EdIeij4d8pQOK85Ee5s6+BfBi0mFy4zdkHA97+g46GlCmQBQOgY1M+NJxg832EJv4qNZ89H3XMroACQhAaM2A/Kv86EuzDPdhZtoPN9yaRTqkHAM+Y7oOuIBAEvvKacQcBEHUzVPa9g64yHIYUGoRHnDIeTwb/UQdndXLD6yRsRO4/VjYDw3+x+2r2XiIiIiKwZ26+J2r1221LmMraJk7Wj2Z4mIiIiIiIiIiIiIiKidODzyszV2ueNfNZILNed265cN7Q4ABiID2ZUVTUmmPGbXwKYOV9Gda0EWejIcgHnnVSIS6eWIDeHUVUZSRfY/ug72Db3aejbaiAJAVkBcNNJcE06OBI8w6DF1gkXs/Ds2ZqmxQUBv/WZihsedCDgF5AgUJovYcY5JTjj+AI4FB7fjqLulVXYMus/CPy0MTIbOs4bAecV42PKkcvlYiBaO0g1CHjmfCU0E7COk0bnMQiYqAOpuucVbJnxMGQAEAI45wgG/1KHlCjAV9f1mL8ZX8b3mH+n1rG7QWB+AYi5HkoWyEBERERE8W1Xc/s3WZvXqg1MmcXcnk7UpjavM76f7WkiIiIiIiIiIiIiIiJqa3bBgcmeVfJ5ZftJFMyX6GXc1vw7dW470g+B/W87jl29L0KrA4ABWAYBhwOqtlb6cfmdwG8bZEhChwKB0gIZV04rxWkTC6HIHfOAdUb1H/6ADZf8G/4f1kOWAEnXoBTmQJp/OlxD9rEM/mUATcsZvyw0TYubQdvv9+PbXwKYOV9CTa0ESeiQAezdy4E5F3fBkUNz070LlID3+/VYP/1BNH/yY6jOAySnDOkfJ8M57sCEQfQsRztXSkHAqwO4aoECTQMkCJw0Kg/3XMsgYKJMt/2eV7B1xiOQEGrOnn0EXDOPY/AvdRhWNx3ML13XY37W1gZQWRlAZUUAFdv8qK4KoKFOhbdZg7dJg7dZh69ZhSQASQhIEiAJHRKCy7IEINTOhBChn3ro74blYK5iliWIUDrR9OzSjyy3Iv3IskX6cZ8X2j7498Tpx31eKL3o5wOObAccHlfk5SzIgqtLHrK6FsDdvQDurgVwFXkgSVKkTjHWLVY3EICOe8OAiIiIqK3YDXhjbu+GfwohsH6DDxUVAVSE2r91tSq8zTqaQ+3e5iYNQg8OwBdtL0aXEWmf2rVLW7N9tD0a+bttuzOUL7R0++AAkZF8tXB7c7vauF927Wopsp+i9dsDcGQ7oXhccOa6IXuccBZkw12eD1e3wmBbunshnAU5bE8TERERERERERERERFRu0r2vNLqmeWWLX5UVPhRWeFHZaWK+joVTQ0amhs1eJs1NDeo0G2eV0af5wVf5ueHMctCQJZEzHPJ8HLSfnjJloN7a+gvKOKXU3hOmtp2qfXbi6YTuyzLEhy5LjhyXHDkueHIcwefN3bNh7tbPrK6FSJrtxLbZ43mPsIdPdiPkjOX6/BkOyn1Qwi9Guo1NDdpaG4K9kHweXXoqh7fN8B0rhufzcc+qzeUZYuyEL89LMtqpB9AyttH+yakvL2pz4S5T23L+g4gpk5os+1D++HwuKB4XHB43FByXXAWZMNVng93twK4uhbA3bMYjtysTt0XoVUBwIB1QFU4qCoczNjQ6Mf1iwQ++Sr8pRN89dndiWsuLseIQ/Paen+oBbw/b8b6qx5H/RurI8GmstAh7VEC5wPnwL1bl5iARQbQ7DirIGBj8Lzf78fWSj+u/JeEX9cBMnTIocr70AHZmHtZV/TbJyvdu0EGgW212DT3WWx/5O1gHReq66TCbDgWTYVrYO+YWX+dTicURWHwbztLJQh4xerg7PW6HvzOOnF0PoOAiTLY9nuWYcuMhyMXAhKDf6kDsbqZaHXDQdd11DcE8NlnDfhsVQNWf9GMigp/pH0oRzr5i8j1VsxPKcn6yA2C6E3H4HWBYRl6JI1E62VDcLBsSk9CsF0bvRkpItcfkfUxQbzG9aHPjqQT3ifz+vhjEvP7Dqw3b+fulo/8YXujcHhfFI7cF878nJh6xvwT4M1EIiIi2jXZDXhjbvPquo5AQMNX3zRj5apGfP5FE3791R+81osZLMbcDkVcuzDp+pg2n+HBkaFNaG4/R9ZHHtQZA26FxecnWG/ZjkfM9ok+37xNws+PaZen/vnm9bHtdEM6kd/D1wGIPT4W1wUSBNw9C5F/RB/kj+yHvGF94MyLtqetHsQBbE8TERERERERERERERFR69jNBBp+Tmn8fc1PzVj5eQNWfdGI77/zBoMA4/qt2fTbs+mDZt8Pz9RPbofSN/9u1c8vcb+7VNI3Ph8M9udL/Hw2vH9td/wAWQFyB/RE/rA+KDxyX+T23x2KQ4l5zmgV9AfwWWNn0ZJ+CH6/hq++acLKVU34bFUTfv/dHw2ubcmz/1SfrSNB34NI2WzB58f1AW5F34KYvgIt6FvQms+XWrh/LezbkOz4uncrRv7wvsgbsS/yD+8LR25Wp+qL0OoAYCC+sGiaFpnR1BhY9d7nATyyBFi7IdrZQ4FA755OHD0sH0cdnodB/XMZZNUOmn7YiOpXv0TNsi/R+NnPkHUdkdlKC7PgOHsY3KcfBqcnOy74NxywyACaHWMOArYqN03Nfrz0joonX5FQVSOghBo/igQc0NeNUcPycdSwPPTdOzvdu7NL8m+qRtXLq1Cz7As0fvgDhM8PJTTShJzlhPyXIXBNGwF3aQGcTieD6DNEakHAflw1XzEEAedhwbVd+f1ElGG237MMm2c+ErpZIICzh8HN4F/qAKxGGzPfcNB1HZXb/XjznTq8/2EDvvvOG3MhHQ46UGAIPhDBUbYkXY+M/KcAoVG4zOuDf4+uj3bWl0SK6/Vgu9Ryfeh9Ka0P5ce83vg5tuvD+Uu23pCe/frY4xs9zqb1evz/QYaAZ9DuKBr7ZxRPGgR3eWHMDQPjTQOgY90sICIiItoRiWb6DT9L0HUdb7xbj7feb8TnXzbD541vl8a32xDXzowsQ8S3A8PLkSBWU7qScTth+fkx62NGv7VKX8SnoydZbw6etd1PY3u0BfuhW61P/jkx6aSyn6ZBfCLpx31+7P8z5+DeKBg/AIXHD4arJI/taSIiIiIiIiIiIiIiItphVoG/5n56mqbh8y8bsfzdeqz4pAl1tWpK/dciz80s+5MZ+qvp1s8dU0/f6vmcITBPt37e1/L0o88JI/0Sk6UfSidZP8HYz7fZD6vjB6vnkPHpO/OzkD9qPxRNGIiCo/aPiXmyCgYG+KyxI0ulH0KzV8N7Kxrw1vsNWLmqGWoAtn0I7J+JJ+tDYDhnEz3btylDO/pMPuW+BabPN9ddO7tvQ4v3z+bzrf8vyT/fM3RvFIwbgIKJB8JV3PH7IuxQADBgHQRsnA3Y7/dHAhuXr1Dx2BId2yqiUdfhGU4LcmUccWgeRo0sxG493CgqcqC8i6ut9nOX5K+oR6CyHr6NVah+6xtULVsN/+9bER0pJPQ/yHXBcdZQuE8fCle+JxKoaAxYDM9YajXlNbWcVRCwXblZ/JqKxcuAhgYER0QJVVYyBHqUO3HU4fk4YmgeunZxobjYgZJiZ7p3r1MJVDUgUFkP/9Za1Lz7Papf/RLN366LjjAT+fLQ4Zg8BK7zR8JVVhApPy6XCw6Hg0H0GSLVIOCrQzMBQwRnAmYQMFHmqLxnGTbPeCRy4SWdcwTcM8Yz+JcyXvj7B4gP/NU0DU3NKt58tx6vv1WP1V9740avioxYJQS6lrvQvasL5V1c6NbdhfxcBzweBZ5cBbm5CnJyHEBotLAwCaHLPoHQ30Xo75EcRn6Xghm2Xd/S9IDgBXn0vW2QHkR4kzbdH7Xea3g1Q61uQvO67fBtqoZv/XZ4N1Qh0YiDnkP3QtGkQSg64SA4PVlx7T/jzQLWS0RERNQZWT1wMz9E/3hVI157pxHvrWiGt9kwMrRp9NjiQgd6dnehrMSJruVOlJW64MmR4fEoyPUoyMt3REZ4DbNr70WWI23I5O8xtiOj25nblbFpQbQgP4a3JU3b1E5O+p6kaSdrr7cuP2p9M9R6L7S64E+1phHePypD7elK+DdVx7SfzaMde47oi4ITD0LhSQdHnklYjcYLZPaDNyIiIiIiIiIiIiIiIkqPRIG/4UGK1/zixctv1OLdD5qwfbtqeH4VitdAMJAsz6Oga7kT3cpd6FruQlmZC7m5wWeVntDzSiXYmRVAas/VWtK/znJ72+edLX8+avec0+55od1zSLtnp8Hnoan3Q4QQCFQ3RZ851jfDt7kG3o3Bvnu+jVXQahpjBms2Pnd0FmUjf1x/FP/lEHgO7G35vJGBwB1TKv0QPvq8Ca+/04D3VjTD59NNz6SDZVsSQHGRgl6RfggulJY44fHI0XKd54jMZBtm/wzdcD6nWNaD68z9X622M5dh67Rjl1OpS1qb71TyE/++He2LEO63EenTWxesG8x9EQKbqxGeWMw80IAkAbkj+yF/0mAUnjgkrm6wmxU40+xwADBg/eUYDmYMB1eFX6qqYtm7ATz5okBNjYgPRjUt53lkFBcqKCtxwqGI+Gjt8D/GMPJ9KiNTGEeMgB7//siXgmRKD4jplBI3AoVxO8OXv2R8X0ynFvNMU4Z8231uTDS84ThoOtSqBgS21UKrakB4puXwDF7h4xqZ8dclw33aELjPPgzOory4oN/wK3xiM/i3bVkFz4cDgc1lpq4hgOdfV/HC64C3OXw+aIb/a+z/t6jAgdwcGV27OOCQpci5aD3ihMW5axhZIXY6dT2uYWtZJmFRFg3pmrePTvduLjPhshRfViRTPuNHgzF9rnn/48pQdL1aVQ+1sh7+rTXRYywJSLqhLEmApGuQJcA5oT/cfxsBZ/fihAH0DKLPDKkGAf99vgxdA4DQTMDXdQP/bUTpVXnPMmye+Wj0psHZw5DF4F/KcHY3HsI3ExsaAlj8ch2eXlKHmmotrk1TkKdg4AEeDBqYi4H987DffrlwOnlOp4sIaKj98g/UfPIzaj/+GXWf/gK1uiGmDSrpOpylHhT/dQRKzh4BZ34OZFm2HQyGdRQRERF1BnYP0sPt3kBAxdsrGvHQM/VY84s/bvRWt1PCn/bNwqD+uRg0IPjKzVXSu1PU5nSfirpVv6Huk59Ru2INGlb+DK2uKe45iqtbAQouOBJFZw6PG1iH7WkiIiIiIiIiIiIiIiKyYnxWae6rp2kavvmhGQ8+WYuPP2uOmyFXkYB99nRj0IA8HDggFwcNykdJCSdmyzT+ynpUf/QTaj/5GbUf/4Smb9YDmhoX25I7dG+UXHoM8o7ox0DgDiyVfgjLP2zEg0/X4dc/1Li4IbcT+HO/HAzq78GgAbk4cEAucj3sh9AZ6d4A6j7/Ndiv9+M1aPjsF+j1zTFxaRA6XD2KUHjh0SiacjgcOR2rL0KbBAADsQXL/EUZDq4yBgX7/AH8+LOK1d9q+OpbHb/8pgOaKQA4FARsXJaEgJxs2TBLqvVy9D3h9ZIITlcfDTDU45btgpSTLUuGz4tbNu1DZEbRZMsw5F8ISDDk12ZZhoBj9yK4Dt4DzkP2hHvInnDmZccE+yYLWMy0E7ijMzcyw2XGrtw0Nav4+gcVX32j4evvdKzbEKyIZKEbzg2r8y96nicuO3bnsv1nxJYd+88wz/odnTUtmr5xFrX4z7Mvq1ZlK7ash4KWheHvMH+eRV1jUxcoXfPgHLIHXIf0hvuwfeAo9MSVIXMAPYPoM0sqQcAfr/bj6vkSdC3Y8XDy+ALc/veuDAImSpPKha9i44xHIEMCoENm8C91AFY3FMNtvfqGAJ5+qQ6PP1ePhoZoGyrc/hlzVCFOnFiKoQfnp3s3KImqt7/Dlsc+QOWSz2JmapYhoBRko/CcI1BywSi4Cj2RtiGvs4iIiKgzsXo2YGz7Lnu3AQ88VY8/1quRmV7D9xwP6p+DkycUY/TIQuRky2ndD0qPqte+wrbH3kf10i8i92rDA1MqJR4UXjQahWePjAQCWw1YyvY0ERERERERERERERHRrstqko5wgKCqqvjif8247/FafPk/X9zEZHvv4cbxY4tx3LEl6FLGgN+OJlDdiIrnP8PWxz5A4+rf4543Zg3YDaVXHYe8kfvHxUiFnzkCmRfoR4n7IaiqiqVvN+DBZxqxbkMgZtJDQODQAz2YNLYIY44sRDb7IeyyqpatxrZH30P1q1+G6oboJJmOsjwUXjwaRecdHVM3ZHJfhDYLAA6zGzFDVdXIT+Pv4U5ATc06vv42gN9+11FTo6GxQaCxXkdjg47Geh0NdXp05lrDrJ6KIUDRakbU2PWG5dDMTOblSIBfZObg0KyfLVm2mXEXhs83LyfNb4rLznw35HwXlHw3HAVZUAqyoBRmwbl7MdzD9oazS36kw3k4ONEcrGgVwQ7wS21nMX8xWQUCW5UZTdNQXavhy69VbNioobZWoLEhWFaaGkWk7JjPkZhZoE3nkuVs0cZZtM3nvGE7+3MUlue6VZCxZT7iyljishebD+v0E+83IOc44ChwB8tRUTbkPBeUwmw4ehXBffAecO5RGlPJG8uPOYCe5ShzpRoEPGs+oGkSJCHwl/H5uP3vnAmYqL1VLHwVm2Y+CkkAgIBy9uEM/qWMlqh9p6oqlrxRjwWP1KOmRgu1aQRkSWC37k5Mm9IFxx1bzOCHDkhr9KHimY+x8e5X4f99a8xMzs6yXBRfczwKTx0ad92VySOGERERESWT6HnAj795ccOCOnzzY2jG39ADt9xs4OxTS3HKhCL06OpK9y5QhtDqmlDx5EfYfNcrUDdujz6gFTocXQtQNPck5B8/hO1pIiIiIiIiIiIiIiIiirCakC3cL3xLhUiqj+kAACAASURBVB93PliL199vDsUMiEgMwanHF+OUCSX483456d4FaiNNazZhywNvY8v9b0YC/YIxJgI5R++PsptPRVbv8qQzAlP6JeqH8P0vPsxdUIMfflZjynSeR8bUU4rxl4kl6FbOYH6KUmsaUfnEh8G+CFuqI3FmEALOHkUouvFk5I8fbBsIDGRGX4Q2DwAGrGe6Mo74b34ZR9gwdpIPv8Jpmj+DgownkvHkMr6MAb3Gk9J8gmZ6xHpnZjdDXLKyE36Z3x9O05g+2TOf5+YyYC5HycpSR5gCnloQBHw3oOsAQjMB38YgYKJ2U7HwVWyc8RgkKXQxfvbhyJ4xjsG/lLHCbS6rgV1++t2L6/5Vg+9/DhgGKhHo1c2J6ed0wfFji6DIPHc7OqHpqHh6BTb+cwn8f2yLHVHwwD1QOm8Kcg7Y3XJEQYBtRiIiIuoYrEbbjQ5aGMC/HqnD8294IfToCNq52RLOOqkYF5xRivxcJc17QJlKBDRUPPYetty6BIFN2yNtaRmA+9B9UDxvCrL37RkJBOYAjERERERERERERERERLseu1l/NU2D1xvAw8/V49+LG+H1hiY8g4AiAcePLsCl55WjZ3cOVNxZ+TdVY+OtL6LyP+8BfjU6O6xLQf7fjkbJ5ePh8GTFPG9kzEdmSNQPYXu1H3c+Uo8ly72ALiKzPXuyJJxzSjHOm8J+CJSY8KvY9tDb2HLbS1C3VkMO9UWQAGQdsS+Kbz8DWb3LM7Yvwk4JAAbiv1DN024bgxvDvxuDf3Vdj3m/MU2yZj6pjEGLVkHA5t+N22bKCbqrSVZuzAHzxuBfYxCwOS1KnV05sgoANpclBv52TKkGAc++W0DXAEDgL+MLGQRM1A62LXwVG2c+BgnB4F+Fwb+U4awGcwmPOvZ/z9Thnv80hkaN0iEDKM6Xcdm0LjjjpJJ0Z512kq33L8fGm5+DXlUfGlEQkHQdBbMnovjScbazl7EeIyIiokxmN+iNqqr45KtmXDGvDjW10XavJASmnVqM6WeVoriQD9wodVvvfgVb/vk8RF1z8HwKDQ5WePOpyD9vFBwOh+U9AbaniYiIiIiIiIiIiIiIOi+7IEFVVbF2ow+X3FyDn/9QIenRGWDHDM/DzL+VY8/d3GnOPbUX3x8V2HjDs6havCIy26cMAefupSj99/nI6d87YwP9dkWJ+iF8+EUTZtzWgNp6LTLjrwTg3JOLcMnZZSgqYD8ESp3e7Me2Ra9j660vQDR4g+eTBMhOBQU3nYL8qUfC6XRm3EzhOy0AOMwqoNEc6GuewTT8u/n95jQpyGrm0vBPqyBgYyCjOeiXX1iZwS4Q2FhmzH/jrNk7JpVylKgMsRx1bKkFAftwzd0CuiYhHAQ8j0HARDvNtoWvYcPMxxCcD1NAmXoYchj8SxnM+F1inPV3e7UfV8yrwaerA5GRBN0OYOpJRbjs3C7w5MjpzjrtZFq9F5vnLUHFwlcBXyAyomD2yP1Qcu80uLsUxs0GzPqMiIiIMpXdoDc+XwALn27A/YubAR2RNs+Rh+TghsvK0bsXR9Cm1tGqG7D5xmex/cHlkFQtNAKvQPbYgSiafw5cRXmWo3OzPU1ERERERERERERERNT52AUJBgIBvLGiCbP/1QCvV4cUmtmxb28Xbr6yKw4e6ElzzildGj//BesuexjeL3+LzBoruRzBQYfPHBE36LAsB/t08nlj+0nUD+HuJxrw7+e8EHp0APLRh3tw3fQu7IdAO0TdXo/Nc55B1SNvQ9JCweUQyJo4GMULzoXTk51RfRF2egBwmFVAr1Vwo3md+f2UXKIZTM2BjMb1xvdQZjCXifDv5oBfu+2o9VItR+aX8T3UsaQaBHzt3QKaFvxyP3VcIebN6s4gYKI2Fgz+/Q8kCAACjqmHI2fGWAb/UsYyfn+Ebz4EAgGs+rYZl93agMoqLXjTSAiMGZaL6y7pgt2688bDrsb3+zZsmvUEal9cCVkCIHQ4ygtQ/MD5yDm0r+2IYURERESZwuqhm6qq2Lbdhwv/0YDV3wci7Zw+u7vwj8u74PDBOenONnUSvjUbsfHyh9H4ztfBwcKEgLNXCQoe+htyDtw78uCNg+oQERERERERERERERF1TsbgX2OQYGOTHzfdX4/n3vBFZnotLZQxc1opTptYBJlzdJAQqHrmI2y59ikENm6PzCKbPX4gihacC1dBbkYF+u1K7PohbN7mw8W31mP1DxokoUOWgL17OXDLFeXsh0Btyvv9emyc/gCaPv4h0hfBtW93FP3nYrj37JYxfRHaLQA4zCqo1ypokcG/rWc8kayCGMM/rbajzGQuD3blheWm7bAc7ZpSCQL+ZLUP19ylQ9clQOj4y/gi3MogYKI2szUc/CsBEAKOqYfBw+BfymDm4N/wd8drHzbjyjsaoKvBkQSznMD8a7viuKPy051lSrOa5z7G+nPvBXz+4IiCioyCe89F7qRDWL91ILze2nWwDHY+LL+Zj+UuMxnvmYQfpKuqil/WeXHGtQ3YVqlHZv09c2IBbrmiDA6F/0tqe9v/7w1sufJhSAE1eM65FBQ8dBE8Yw6MG52b7enMxe9jaiss450P6weijo91c+fDupkyDeuZzof1DHVErIs6J9ZHRBTGej4zWQX/qqqKmjo/zrqmFt/+okEOzfp7SP8sPHRLDxQVKGnONWUara4Za6fchcblqyPPt539eqDk2Svh6lYcM4kHg4B3vkT9EE6b1YDt1aF+CADOnpSPmy5lPwTaeSrnL8XWWY9D0rRg3968LBQ+cwWyh/SJ1A3pDAJu9wBgI/NHM3ix7SUKTuQXUcfEctP+WI52LakGAV97lw49NBPwKeMLceusHgwCJtpBWxe+hvVXPR66qAb+o/+Ibw4vxqRJkzBhwgQUFBQwOI4yil3w77NvNOLahc2ALiBLAt1LFTx+ew/st7c73VmmDNH8v7X4Y9I/oW/cDoRGp8v7x2TkTRsVc6OA9Vxmsbv2SnSNRh1Homs9DvzUsdmVUauyyvLbvuzKHe+9ZB6rh26BQADf/uLFGdc1obYu2J5xKQJ3/70LTjomL91Zpk6u+bOfsG7SP6FX1kISArJTgeeec5F74lDeN8hQLXmuwe9jssL2eueVanuddQNR5mHd3HmxbqZMwXtHnRfrGepI2Obp3Pj8l4hYz3ccVsG/gUAAWyv9OOu6evy8VgvN/KvjrycXYc7FZVA46y/ZEQLb/vFfbLv52dBsnzqcvUpQuOQqZO3RNWbQYQYB7zx2/RC+WuPF1DmNqG8Izuad5ZTwr6tLcfIxnHyHdr6mFT9g/Um3QlQ1BPv2ZjmR/8hFyBk1MO0Dkqc1ANgsg7LSKfFLp3NiuWlfLEe7hlSDgK+7S4OuSQB0nDq+CP9kEDBRq21d+DrWXfUfSAAkIbC8vBaz1r4WWZ+Tk4Nx48Zh8uTJGDNmDNxuNy+qKa2M3xPhmw9+vx+Lnm3EXU/4gp3QIdC/jwtP/6sHijmaIJmolXVYO+Ef8H3xS2iUOgHP3ych7/IJkaAFBgGnn7nTifFn+GX8u/l36jjMD++MncnMy1bvocxjV26tfjf+pPZjLldWZc+43vw7tQ+7h26rvvfirDlNaGoOtnsLPBKevbMbDtwvK91Zpl1EYON2rB9/I/zfr4cUGlQn546zkHvmkQwCziAt/T42/04UxvZ652JV5tleJ+p4WDd3LqybKRPx3lHnkmo9w+tDyjRWdYxde8duoALKLInqI96vItr18Nq2YzAH/6qqClVVsW6zD5NnNWDztuAMoQ5ZYP6sLjh5DIMEKTW1z3+CjWfPh+QLQIIOuUs+ipZcjay+vRgEvJPZ9UP49H9enH1jE7ze4OzMxXkynrmjK/shULsKrKvAprPuQvPHPwT7gjtkeO44C54pI9LaFyGjAoCJiIgyRapBwNffpUHXAEDgFAYBE7XKloWvY/1VjwMIzqrtnDoUz5duw9KlS/HVV1/FbV9QUICTTz4Zp512GkaOHNne2SWyDP4NBAJY8HQD5j/lD476BOCYodl44IZuyM7iFwNZ05v92HDGv9C49PNg0AKArMvHIX/WSQwCTiPzw1yrl67rfBDcSdh1IjO/rG7osyNH5mH57RhSKXfmMsdylx62D92+8eKsuc3w+YLtlx5lMl64uzv26uVMd5ZpF6PXN2PDybfC++7/Itdh2TecitwLxzEIOI34fUxtie31ziXR4Fp2dQPrB6LMw7q5c2HdTJmI9446l0T1jF0dwwEHKBMkC/y1q4vM96BYH2UOu/rIXBeFl43bmNMgoo6P17Ydhzn4N/y8csMWH066uhFbKjTIEuBxA4/+oytGDMlJc46po2le+RPWTbgZoqYBktChFOci/+VZyO63W9xsnwDLfluw64fw0WovTruuCbIUnEhq754OLL69K/bowX4IlB4bTr4VTS+vBPTggOTZ885A7jmj0tYXgQHARERENlIJAv50tQ/X/UuF0AEIgVOOK8Its3oyCJgoRVsWvo61Vz0OWQIgBFxThyL3ymPhdrvhdruxadMmPP/883j22WexZs2auPf36NEDp556KiZPnozBgwe3/w7QLsd88yH83fDMG02YtdAHCcEZ0M4cn4c7Zpbx+4CSEwJbZz6C6nuWRmaOzr55MvLOPzYmCJgjCbaPRB1Qwg8TdF1Hda2Ktz5sxB/rAqit01BXp6G2VkV9vY66WhVNjXokqDvyE8GRCSWE/x78f7fZeiFC20S3t1ovCx1SeH34b5G0o+tj/hb6PXY7EZm92rzeuJ0kBGQpyXoI2/wkWx+TjwTrZav0QsuuLnlQCrPhLMqBUpQDZ5EHzvJ8eIbtC88h+0Ru1oVv2CXrXEbtz6rThlXZFUJg81Y/3v6gEZu3+FFbq6GuTkV9nYa6WhUN9Rq8TTpk6JFzxe78Nm4TOcdM7wmX12C5Cm4Tm064vOox74+es7Hvj6RvKK+J32+TX9NP4zb2+2usT3TL9yfaX2N+lSwFjqIcOEPlzlmUA0exB+7uhSgY2x/uPctjyp2xzJkfqrHc7TxWI2kHAgF896sPJ81qRlNT8PtiYF8n/ntHVxQXKOnNMO26NB2bz5mPhqffD9Y3EpCz4FzkTB7O9nQ7swv8tfpO3l6j4vX3m7BuY7A9XVunh76XNdTX68H2NELt1tD3CQzfc8G/m9rBMe3X4PpIuzeufQnT9rHrJQkx34PG9iYi6ce3L2PSt2gvG9cjQbvXdr9j9i++vZ3y/lkdl0TpJ1qfKH1T2pHtpBakLwRcXQugFGbDUeyBUhhsNzi6FiJ35H7IOnBP2/Y62w2ZI9X2uq7rWLtJxesf+7B5m4bqOh01dTpq68M/BbzeYNmGoSwFz5XgeQcg7lwEELMsQQACkKXgT2PZR8x20XMxmm44zdDnm7aH6bPDaQCm7VqQ//D2xrLT8vyHl035N3z2juXf8P7w50rR4x6ffxF6JhD9n0S2S5j/6Ockzr/F8WvL/Nv9/3cw/5FtU0o3Pv8x57vpfJEk42fZpxv9X1vk35BfpWsh5MIcKCW5oZ95ULoWInvkn+EatBfr5g6gJXXzuk0qlq9oxuatKmrqtOD90Ho9dF9Uh88bKhfGtpJFOyNcbsxtF2P9bNWWMZ6PsW0fU1vQ+Dnm/Fi09ezaYMnaRvHvD32eeX8s9j9+v2LbrDAeJ5jzYm7jmfe/5fsV38aO/7z4Nini0kr1OFkdF6vPkbOcUIpy4CjyQCnKgVLkgaMkF84exfCMHQjXXl1576gDMNczxgA7cz3zzU8+fLTKh62VKmrrddTV66ipDf6srdUQ8Cc41yW7smM+983nrkXZiynL1nWUVVmEqSxa1j9W5SxBfYIUyk3MckuORdyxia8XLOvPVI6FXf3bgv23qjdam15428T1mP25oeRnB+uhwhwoxbnB69IiD1x9usEzfjAcxblJnyEBrIvSLdFAJ8bnR7quY/mnPqz+MYDtNcHr0MirXkdNbeh8Qux1m9V1BKyWDdtZtbHNf7O6DmvJdaL5usV8HRKzHM5vZNmYL5vrTvNyzP4lv6aUWrR/Fvtre/xSuY41L4ePXzRv0evWFPJpXDbVJebzxXabBOdLNB3767TWnC/G68To+WJ9/sTun2k58jfjsnX5SOU6OvH5En/8Uj9f4o+fUl4AudADpTgXclEO5OI8KOUFyBq+P9yH9GU/gQxgF/y7vcaPSTMasHZz8Du7S5GMJfO7oe8erjTnmDoq/29bsH7cDdB+3YLgTMAFyH9jDrJ26wKn0xmZwINBwDvOrh/C/37y4dRrm9HUHKznB+/nwrO3d0VhnpzmHNMuTRfYct49qH/8HUhChyxLyHl4OrLHD0lLXwSJAcBERET2UgoC/tIbnAlYD94kOPm4Ivxzds90Z50o421Z+DrWXv1E5Maba+qhyDME/7pcrphRcr7++ms8/fTTeOaZZ7Bx48a49PbZZx9MnjwZU6ZMQZ8+fdp9f6jzswv+ffmDZlxyhy/SoWLmWQW4+tzidGeXOpjt857D9uufhKTrkCWB7EXnw3Py4QxaaCd2Iz2HHyDouo7K6gDe+qgJyz9sxupv/dA1gbgg39BPCD00GqH9ekUKbWe3viXp6Am2S7be+Dk228GUXtL8RtKJDRqMT8e8XkCBMOx3bPBhzHpEO7RYbRdZlgQkPXa7VNYroZ+u8nx4xvZH7vgD4RnaF3Lopr55dm4+4Esfq/JrfGmahk1bA3jt3Qa8u6IZP6zxQYk73+3Lc0ywqyQg6dFyFy7HCkTc+WxdHoVlOQuXH8Vw/tmV5/D3RCr5DZcXxfL9KeQ3vD70PuN+m4OAU95vw/7b7be7TznyxvZH/oRByO7XM+ZhmvkBO8Ayt7MYy5OqqlBVFb+u9+LEWV5U1gT/v0P/7MLzd3ZFlpv/A0q/iqsfRe1dSyL1UtbjlyHn2MEx7Wk+lN957NrT4ba0ruvYtj2A1z9oxvIVXqz+zh/sTBbXfhYwtxslCZH2WqQDtOX7jB2dY79vY9t/sekbA1FSTT+SL7v0dYvPN3wPwpy+bpev6OdLKeYrNh3D+gT7bf78yHawSV/f8eMe7nCXbL+triMQOY4Czh5FyBk3ELkTBiP7oL1j2uoMNssMyQLLNE3DrxsCeOUDH15f4cdPa/VIJ01Ezs3YTrfBc0QynLPRTqTWy9Htwx1FjWXTKl0JUuRctE83eg7HbR+TrtV2ifNvl26q+ZdD72vRcRF2xzvBfrYi/zGdr+Pynzjd2M68rcl/bKfj5PmPTy8+/6kfl/j8G7ZL4XxPLf/257u5M3Tr8q8H61HdlH/DdkqvErjHHYjsiQfDfdA+rJszUCp1828bAnj1/Wa8ucKHn39X49pKVt/lkfPKpi0Us104Havt9NjzMbqdddvDrq0S30aJbVtYvT/a9kyyXYr7b7tdTL4SHaf4tpTVfknG/U9lO4v9atFxstyvFm4XOs72+29o05r2y9W3G7LHDYRn4hC4ee8oIxlnzDTXM+HrxK9/9OH1j7x4c4UPm7bqtmUgcj2VpE6xO6eTl/FU0hOR7+DY4GPE11lJ6inJspzFXpPGL0fLg2W9ac47Eh8byVQOEx4Lm3KZSv2dqJ6JrY9a9j8xvt/6+8Hi+NmcCykdT7v3KxKyDuuL7PGDkDN+MJyl+XHPj8wzQbE+al92Az8b66Nmn4Z3P/fjtRV+vLtKRUOjfTs3lesIEb4eQ/CnSLGdndp1mKGdb94eidO3vo6KvQ5o0f4ihfRM+QweH/PxSnQdadjfJPuX6PpIkpIfv7jrrITXrQmOn+G6LrV8xp4vya/jUz1/kpwvInE+jeeLJEmhdp3pOLbqfLG/Dk2Wz9TLxw6c18b/iyRBLi+Ae/xguCcchKxD94WsKLZ1POv5ncfcd1tVVdTW+zH52kZ883Nw5t+eZTJeXdQdPbo40p1d6uC0yjqsO+oaqD+sD/Zn2Kcb8pddB1dpQSQI2Nh/j1rHqh/CT2u9OHFWM2rqgu3tIw/KxvN3lqc7q0QR2y75P9Td/2rk+jHnvzORNbI/XC5XpG5oj74IDAAmIiJKItUg4Dl3qdA1ABA4/YQSzJ3ZI91ZJ8pYm+99A2uvejxyY849dSjyrhxjG/xrvGkmhMD777+Pp556Cs899xyqq6vj0h84cCBOO+00nHbaaejevXu77x91PnYjj32w2oupN3qhBoIPFs+ZmIs7rixNc26po9p26QOovW9Z8EG1Q0bO01cg58gBcfUhwAcHbcXuwW+4A4qmaViyvBFLljfhi2/80Y4Rxp/QERzRVrdeL8Iz6oY7PJnXi1DHert0wp1LzDP3mteH0wn/brM+9NO4bdKZeVuxvsUz87YinZ0yk7DFfoXXK8UeeCYMQuH0MXDtVha5eRe+wc9OZe0rUeCvpmnQNA2PPl+PV99pwk+/BSLlKFq+4s//6LmhQ46UR6tyYpOOqXwaZ8I1/7RMx/Y812PzZ5lOsvfH5zfRLMH2+23xd+N+i3B9Z5VPU37CMxfH7Vv0+Dn3KEX+SQej8K9Hw1nosew4znLX9qzugWyu8GPS35uxfmvw/9NvDweW39cVuTlyurNLFLF16l1oePLd4He6y4GcF2ch++B9Le8vUNuwak8bg35VVcUzrzXhpbe9+OqHQGx7K9Rhy6rdFm0fmjpXI7ou3GE6dvvYwV7s0o+04+3Sj2mXW32+RZBrXL7sZyCWkCR9q883tk3N+y3iP986Xzt4XBB7nRJ/3BPvd+z1U4rHJWb/Ep8Pji75yJ40BAUXjYGzW3HMA3e219tfsvZ6faOGh19uwovvBfDrej3yP4bhHI3O7iJMfzdvFz03EP5bku0Rt02idEPbG94D03rrGWdakm5oPxOla3x/6H1tflyEQKozxbY+/4n/r8bOwS3Lf/yMV6kfl2j+ZYvt48+XVPKf4nGRYvMjozX5j+Yz8vm2MzLZp5tS/iXYlAPr4yd3KYD7hEPguWgcHN1j62Ze07W/5HWzisdeasTL7/nw2zot+n80ftcbvsvN5TLZrJnh8yv2u916BtzYetT0OSJ6vpnrW/s2jDEt8+dZvz8+XxZlqTX7n8J28fvVwuMUyq/9cdJjtrPefxH6vGTH2WK/LI5Ti/Y/Li2r/0cwH449SpFz6lDk/XU0HIW5lsHArGfaj109E75fW1Gl4t8vNGHp+z5s267blKHEdU3csoieq7ZlOkEZtz9HE7w/QZmTQu2RlNKIKyep1W+pHIvEeW/NsdAN25mXW1L/2O+/VTmP/95IlF78udCa42ncf+v61nrZfVhf5EwZBs/Jh8U8P7IbTJZ2LrvZfsP3rVav8ePfL3qxfKUKr894HiA+CNJ0zkbbwdbt/ciyIb2k1zkSkl4HJF22zWcq70u0v/HXTS3Kl+k6A0CkfLV8/xJdz8VfHxmvY1p8/Rz62fb5jD/e8edHS/4vqe1fKte55r/B7vyJKx8p7G+rzuvUr/NbXj5adr7IpXlwH38wsi8cC+fuXdhPoJ2Y+/AEAgE0ewM47fpGfPadBhlASb6ENxZ1w169nOnOLnUS6uYqrDvkSuibqyAJHY4BvZH38jVw5XliZgJmu651jM8Sw+V6c4Uf42c0Ycv2YF19wF4uvLmoK7KzeHwpgwiBLafdjsbnPoIEATnHhZyXZiPrwH3atS+CxABgIiKi5FINAp5rCAKeckIx5s7kTMBEZpvvfQN/XPVE5EaZ66xDkZ9i8K+Z3+/Ha6+9hqeeegpLly5Fc3NzzHpJkjBs2DBMnjwZp5xyCoqLOSsrtY75oVAgEMCvG7w49gofmpqCNxUnHJGNR2/sAt7boVYTAptPux1Nz68AhA4lNwued25C1t49Ym4iMmihbZhnujB3RHn1gybc/Z9GrN+kIW6mW+g4cP9sDDsoF11KHSguVFBa5EBxkQNFhcEXdRy+9dsRqKxHoKIOamUd1Io6NP+wETUvfw69piHY4UNCzMypuWcNR/7MCXCVF9l2XmU53Xnsyq+qqtA0DU+83IAHn2lAVU2wE5l5JtzDD87DkAE5KC0OlteSSPl1Ii9PSe/O7QK0Bi/8FfXBcldZh0BF8NX4+a+oWf41JG8AMUHLEqDkupB/4WgUXDAaztzsuIAelru2Y/Uw3ecL4LirmvDNL8H/xx5dZbx1X1eUFbG8UIbRdGyeeCO8b3wR7FhWnAvP+7fA3bOMI3PvBIna06qqYsk7zbjnySZs3BodYAKhdhWEjiEHZGPYYA/KisNtaQUlhQ4UFzpQWMD6haJ86yqhVtQhUBlqr2+rg/fbtahdugqivinSXjfOtuf52zHIu3Q8XGUFcR3y2G7Y+axmewtfa2uahvtfaMa9//WjrkHEztgSmvFm1CFZOPiALJQUKCgrUlBSGHyVFinI83DwEaJMEFhXAXVbLdTKOmgVddAqauD7Zi0alq4E6psjnaWNMy9lXXgsci6bAGdZIevmNEhWNz/4QhMWLW5GQ2Ows6VxpkcIgVFDPRj85yyUFQXvhZaE2m4lRQ7ksm6mNqY1eEN1TPCerVYRrG+aVv6E+uVfQfIGEJ3hNDSQXF4WPJeOQ+55o+HgvaO0MAfbGQdaraoN4P7nmvDYy374/fGz3ubnyBh1WA7+tE9WpO0Xfu7SsxuDOSh91O31CGyrgxa5Hq2FuqUaDW9+heYvfgkFixkHaQDkvbog77qTkTPuoEhdxACx9pNoIAJVVfHjHwHMe9yHtz4LBK9DhfG6FOhVrmDcMA927+ZAaZGC0kI5cj1aXsLnv0SdTWB9JdRttdCr66FuqYFWUQvf9+vQ+PJK6NX1sJrJ23n2kci5aByce3bjIFc7kbldGQgEEAgEMPu+JjzxugoZQI4beHNRV/xpb1e6s0udjP+njdhwxFXA9npA6HBOHILcf18Ml8sFh8PBIOBWsgvqn3BVE777Ldinp08vB95c1BXF+bzXRJlHqBo2j50D37tfA0JA6ZIPz/v/hKtrcUzMRWog5wAAIABJREFUw86sGxgATERElKJUgoBXfunF3H8FoOsAhMCUE0swh0HARBFb/v0Ofrv00cgNdPdZQ5F/5TGtCv41a2howAsvvICnnnoKb731FjRNi1nvcDgwevRoTJ48GZMmTYLH49lJe/n/7N13fI3XH8Dxz3NH9k6MoKVGVRe1ipaiZo1SiqT0p6UpGq09qkZtSqVtSimtkaBKjapVWkUFNWrV3iSxVyR3POP3x5UrubmJJBIJOe/Xy8sr9z73uceV59zznPP9nq/wuHE2+XAn0UyzfkkcPWMLhqlTyZWlXxbGoBeTOsKD0WSFuFajMK3dZUtae64EnmtH4urlIXYSzEHOAlGS/2z8J4mIeXc4eFxOUQEBXPQatV7yoEkdLxq/5kMhscj72NMUlYSYo9xcsYObK/7BeuZSqqoYOlcDnu/Xw7d3SwwB3vbxi2NikbhWc5azHdtt92YKSzfcYer8RGIvyqmq23q5SdSt4Umj13yo/4o3Xp4iqSi/UhMt3Nywn+sr/uHmqt22xfXk/0tNw1DIG+9eb+DTuT4GN5d0gzmF7EkZEJ5yMX3U7CSmL1OQ0Cjsp2PTjKIULyyuIyF/0kwW4poMxfL3Qdv3drWyeP46DBc3VzGezkHpVVCRZZl1MSYiopM4ckq2B8LqJHA1wGtVPWhSx5PGdbwJEEm+wgPSZIWETf9xa8U/3FqxHSX2WqrAa72nK+5hDfH+uDlGX0+n4wYQ4/Wclt543WxRmL/WxFeLzFy6mrpSqK+XjkY13GlW24OGNT3wEDv7C8IjS5MVkv46QMLybdxZsR0l9mrqCn5ebrh0b4JneAsMom9+aDLqmxesSeTbRSkrcdr++HnpaFjTgya1Palf0xMPNxF4KeQPaqKZhN/3cmvFDhJ++wf1ekKKyn0q+iK+ePRqjmfnBmLu6CFy7GeS11sS7sjMWJrIrGUWbt9R7VX1JE2jSICOpq960rSOJ69W8cBoEP8vwqPFGned28u3c2v5dpI2HQBZSVFNUsNYsRReo0Jxe+VZp4nAIMY8Oc3ZZnXJ/dHJCxbGzzXx298KmkNlzxfKGmle24NmtT14roxIIhMEAVBUkrb8R8KKbdxZvg35zKVUlawlowGX7k3w6PcWBm8Pp4nAIPr57HJcr0yO0175dxLdJlqRNDDqNZZPLsyrL7nlcWuFx5X535PE1h0Id0xImorrF51xf69hmiRgENd6ZjhL6rdYLAyfZeKHlQqSplEsSM/G6UUIDhLrh0L+pd0xEVt3INZ/T9hie1+tgOcvn2K8m/uQ27EIIgFYEARBELIgs0nAn0+xoigakgahbwUyfIBIAhaE+Jl/cLLX7Lu7vmu4/a9mjiX/Orpy5QoLFixg/vz5bNu2Lc3z7u7utGjRgtDQUJo2bYqLi5jEF5xzlgRhsVgY+r2J2atsOwqWLKIj5sdgvDxEAIyQM9Q7Js5XCkc9fdG2k2CXBniM72zvJ8Uk4oNJLxDFarUyIOI2y/6w2qsGSJpKoK+ePu8F8HYTX7y9xHVekCXuOsHlycu5+UvM3YqytuRSXaAXfj+G41GrAnq9Ps1YBsS1mlOcVZCQZZlrN62Ej7nJjv1yqsqxTxU30q9rEG828s3rpgvZdHP1HuJH/0zSrhN3K3Db/n+Nz5UgcN7HuDxRKNUCm7juHoxjMLjFYmHjbhOhI2XbYrpOZf23RahSQdw/Cfmbej2B8y90R4u/hoSGoXdLPIZ0wGg0ivF0DnA2npZlGVmW+fiLBH7bLNuTftFUigbo6d8lgLcaeuPpLsbTQu5JjDnM5XFLuLN2V4qKYqAv6ovPvF64vVRGjBtyWXobbV28auV/oxPZe1RFSlExpfyTBoZ/6Mcbr3rkddMFQcglpq2HuD52EYlrd95Nzrub+FXUD8/5/XCtJPrm3ORYAS9l33zhkoWwMQnsP66lqPSr8kwpFz4LC6BJbbGJrvBouL1qJ1eGz8e895T9HkQH6F94Ep+5vXB5srDoZ3JResl2sixz8KSFrqMTuXBRsSf96oA6lV3p914ANSuKZA3h8aFcT+Dm3D+5Ou5n1Gu37lUol8Clc328J3a2z0mJTQlyR8q4Dsf+KGqNiQFTLfZYpeRKnt3aePNRO2+eLCo2fRYEIWPmnce4Pn4Ricu32e9r0TT0wf64ju6IW+ta9jGn2OzhwTnew1osFk6cN9Okr4XEJNt68Ze9/enayjuvmyo85u78spWL7caik0DnYsBt7QjcXixtj3F2LA4gpM9ZHMLa7Um8N86W/GvUw1/TC/OiqOgtPAKU+OtcqPQR2tVbSKqK8dO2uPd966FsECASgAVBEAQhizKdBPylBVW1LWSEtglimKgELBRg8TP/4HivOfbgO7fONfDtkzvJv45OnTpFdHQ08+fP59ChQ2me9/Pzo02bNoSEhFCvXj37wFsQIL3JBxPvjZXRoWHUafw1owgviMkHIYeZ/z1JXM3eSFYZCQ2XWT1xb1XLPlHgGKgiZI6zYGRZlrl41cIHoxPYf1S1J5f5eECPEH+6dfDDXVS4EFJI2nWC+EFzSNp00F4VRafX4fVlZzxD6mAwGFJdp2Jx78FlFEj23wkTH4xM4OLle9dvsUI6+r4fSLtmfujF5ftYuLlsO/HDF2A5cgHd3f9nnZ87fvM+xr3GM2muOxHImXXO5jkuXDJTv5eFm7dtfd2Irj706+iT100VhEwxbT7AxfqD7NVAXRYNwO31l8R4+gGlN54+F2/h/VGJHD2j2CvdBHjr6NXRj65tfXExis9ZeHgStx7m0oAfMf9z9F4lQ6Mer2ndcH/z5VRB1yIYL2c4G68nbwyw+4iF98eauXT97v+FBqWL6xnyvi9tX/dEfOyCUDAkbTrAtcE/Ytlxr2/GzYjb1O64vVnDaUIMiL75QWTUN+85bKbzqCRu3Lq3wd1TxQx82tWf1q97ib5ZePRoGreXxnBlWDTWoxds87WahuTvgVdUH9zE3FGucOxnUm62unabiY+/tGAyqfYNIF56xoWhH/hTt5p73jZcEHKRejuJ6xHLuT5lGSQk2Tc/MrxcFq85vTEW9kuTICaSRh5cepvVmS0yQ6YnMW+tYq/4q5OgQ0MPhnbxpUQRkfgrCELWmHcc4drg2Vh2H4fbiYCtbzG0qYXHt90xurulqQYMYsyZFY79udVq5U6imab9TRw9Y/u8G7/syuIJhfK6qUIBcSXsaxJ+WIsE6EoVwmPjOFz9vB9Kpc/HhbM4hFMXTDTqa+X2Hds84bgevvRsJ5L6hUdH0oZ/udR4iG3dS5JwWTkU95rP5voGAfoRI0aMyNEzCoIgCMJjLuWXccrJ2JSLREULS5QtpbJ5m4KmwYFDd7h2Tea1V0TlKaHgiZv5Byd6zbVPqD/M5F8Af39/6tSpw0cffUSrVq3w9vbm7Nmz3Lp1CwCTycSePXuYO3cuM2bM4Pz58/j7+1OihEjaL+gcA5ttFQYttBsuY7ICmsao7n60rCOqlAg5z1DUH8nLnaR1u5GQUDfuQ9exLjp3V3uAsghQyZqUE4opFwv2HzPTbvAdTsfaAt7cXXWEve3DD6ODqfeyJ0aD+HyF1IzFAvB/tx7utZ7Bcug8Suw1JE3DumoXcvw1DHWfB13ae4SUfwuZl2Eg2dYkOg+/w80EDdAI8NUz8INAIocHU6mCu20Xd+Gx4PZMCQLDGuFSshCmPadQb91BMlkxL9oCPu4YKj0FpH+PLmQs5XWWcjftHlPMHDpjO+aVF1yZOjBABIILjwxDycKgqpj+2o8kgbpxH/r/vY7kYkgz7yD6icxxHE8nJ5DsOGim3aeJxF7WQANPdx0fh/gya2QRXq3sjl4vPl/h4TI+EYTf+w1xe6k0loNnUS7dQKdqWJdvR0lIQv9qBSSd83G66A+yztl4Pbl/+OUvM++NtXAr0Rb0XsRfz6hufkwdFMgLZV3EuEIQChBjycL4dGmMa6XSWA6cRrl8E52soizbhnrHhO7VZ+19czLRN2dfRn3zovUmPhhvIjEJ0DSCg/SM6ObPN4ML8VxZV9E3C48mScK1whP4f9gUw5NBWPacRL2ViGSyYvlpM5q/J/qKYu4oJzlW2rw3n2Rlwrwkhn1vxWrVkJAo94SBKX2DGNszgFLFjXncckHIXZKrEY/Xnsf3/UZoFhnr3pNoigIXrmFZvAVdneeQgnzSxJ2l/FvIGmdFPGRZ5vJ1K++MNLFqm4pOktA0aP6qBwvHBPG/5l74eIndYwVByDpD8SC8/9cA784NkeOvI+8/DYB26BzWzQfRNa2C5ObiNO5R9POZ55gAHLHIzMqtABolCun59ctCuLmIz1N4ONwbvkTi4r/Rrt6C6wloCYno6r+Yaq1RJACnz9nGwhaLhS4TrBy/AJIE9Sq78lUf/7xuqiBkibF0UbQEE5ath9AB6paDSO/WQ2/M3VgEkQAsCIIgCNmQ+SRgjc3bFTRN4sB/iVy/LpKAhYIlbuafHO81F0kCCXAPqY5v/yYPLfnXUdGiRWnUqBG9e/emXr16GI1GTp06hclkAiAhIYHt27czc+ZM5s2bx+XLlwkODqZQIbFrXEHluPvY5z9a2H4IJA0qlzcyfXBAXjfRKUVRWLx4MUlJSRQrVuyBzmW1WlmyZAlWq5WiRYvmUAtz3j///MP27dupUKFCjp87ISGBRYsWIUkSRYoUyfHzp8etxjOY1u9BOXcZyWxFS0hC36BSmv5STCLen7NkBavVyrKNJt4fnURCIqBplAw2sjKyGG0aeuPmKhZ+hYy5lC6Kf5eGoKgkbT5oSy7aexr5z/3oG1VE5+kmkoBziGPAqsViZcKcREZ8b0ZVbN/LLz/vxm/TSlC7qodINHpMSToJ90pP4d+lIeZ9p7Eei0WngrxhL/LJOAyvv4hk0Ke61sR1l3mOi+kb91j5YqEtmNPTVWLNV4Xw8RTfjY6S+yW9Xg/AgQMH2LhxI+XLl7fv7J5bjh8/zk8//USRIkXw9XU+17RmzRqOHz9O2bJlH+i9cuo8zpw4cYJVq1ZRtGhRPD09c/TcbrWfJ2nZVtSL15HumFE1BX3t58SifDY47rqf3FfMWpFEz8lmksy248qUMLLuu2Cav+aJqwjAEfKYy9PF8evaGPXGHUw7jtg21/rnKNaYw+ibvITkahTj9QeUXoKZyWzl0xkmxkYpqKrt2HpVXPn9m8LUfNGVXP6KFAQhHzOWL4FPWFPU6wm2Su0SaDuOIsf8h9Skiuibc0CGffP0JL6ItqJqts+zXlU3Vn9TlBovuqETu6gJjwOdhNtLZfDp2hjLvlPIxy8gaRrK7//a5o4aVULS68Tc0QNylvwryzI3E6x0Hp3E4j9V0GyxAR2berL4iyJUKC0Sf4WCRefpimfjyni+WYPEFdtRbyciJZiQF/wFZYoilQsWY54c4CyhRJZl/j1mpvUQM0fOgk4CN6PE7GEBDO3iQ6CvuCEVBOHB6bzc8WxdC0PZYphW7gBVhfNXkFduR2pcGcnbHSDNGoTo5zPm2K9brVbOX7Tw4WQFRdHQIfHT2ECeflKMLTNj3bp1nDhxgjJlyuT4uc+fP89vv/2Gv78/Pj4+OX7+/EQy6HGt8QwJs9agA9h7CumNKugK+YprPJMc4xBWxViIXKahk8DLzRaH4OX+cMdomqZx8+ZNAAwGA4qiMHfuXDRNIzg4+KG2xZn9+/ezb9++XLl+c0piYiIrVqxAkqQM4+sfZkyDM7kai1D3RRIXbES9dhvdzUQ0Fz36ms/kaiyCpCXPygiCIAiCkGXOdhK0Wq1YLBYsFgtms5kdu5MY9aUtMB1NI6RNEEMHPJnXTReEXBc780+O956LpGlIaLiHVMNvUNM8S/5Nj9VqZfXq1URHR/Prr7+SlJSU5pgXX3yR0NBQQkNDeeKJJx5q+4S84Vj512q1cvCkiYb9VBRZwaiHbTML8+xT+XNS0WKxUKtWLdq0acPgwYMf6FwJCQnUrVuXkJAQ+vbte9/jZVlmy5YtWX6f2rVr2xMnsmPo0KGsW7eO7du33/dYi8XCrl27MjymYsWKeHjYqjvHxcXRokULunfvTpcuXbLdxuywHjlP/IvdQZbRGXQYN4zB7cXS9v5Tr9eLpIX7SC/5d8TMRGatsKIDJE3llUpuzB1ViADf7P8eCgXX7UWbiX9nEjpJQ9I09EX88FjYF7eKZTAajej1evt4B8TEf2Y5JhvJsszN2xa6TUhk0y7Z9nmrKh2befPVILFhS0FzeVg018b/bO/HjVVK4xXVB9eiARgMBvt9hviezJizOY07iRZqf2zh3EXbwtvYbj70au+V103NElVV2bRpU6aPd3V1pWbNmll+n6ioKCIiIli7di2BgYFMmzaNWbNmsXnzZtzd3TN87dWrV4mNjUWn01GsWDH8/bO2s/G6dev49NNP+eabb9Jte2hoKADz58/P0rkdderUCUVRMnWeK1eucOzYsXSfNxgMVKtWzf7zypUrGTFiBDNnzqRSpUoP1E5nLLuOcenlT0BT0bkYMGz9ArcyxXFxcUGv14vxdCY4+z62Wq30jzSx4HcrOsnWDzd82Z0fhwfhLTYLEPKhW7PWcbnbN7YAHU3FUKowHgsH4PrME/Z7azFezzpn/cOVGxbeHWNmxyHN1vdKEN7GkwnhfnndXEEQ8pmE79dwrdvXtoqzmoq+VBFcFw3Ctbzomx+E0775upnOY8z8c0hBwjZ269nOmzEfieoqwuPt2mdzuTF+0d17Fg19lTJ4RPfDpWhAqjlbcU+Yeekl/56KtRAyPInTcdjHgBPC/eje1jtvGywI+YBy6SYX3xqFeZutMhRouPRsjseId/JFvMyjylnyr9Vq5de/zYR/JWMyaUgSBAfq+GVcIBXL5c+4DkEQHn2mTfu52nok6o0EdBIQ6I3r4k9xrVQm1XqluLe9P8ckQbPZTJcJZlZvt61Xtq3rxtzhD6dQh9VqJS4ujtjYWHx8fChWrBh+fvef39y9eze3bt3K0ntVrlw5V5Jos7JGeOfOHf755590n/fx8aFy5cr2nzdu3Ei/fv2YNGkSdevWve/5b9y4QY8ePWjUqBGdO3e+7/H50bXwqSRM+xWdBLrq5XD9dTiurq6pxnMgrvGUnMUh3L5jpla4lYtXAU1lck9ferR5+HEIyfGwvXr1omPHjvZY2y5dutC9e/dUx54+fZoTJ05k+txlypShVKlSD9S+jOJgH1Z7Tp48yb59+6hduzaBgYFpnk+Opw0LCyMsLCzd8+R0TEN+i0UwbdzHlQaDbHMh7i4Ytk3G7ckiuLi45ErMkiFHziIIgiAIBVTKL2SdTofBkPartXplGNoHRk02oakSC5dcRgI+E0nAwmMsduafHOs1l+QNw91Dq+E3MP8l/wIYjUZatmxJy5YtSUhIYOnSpURHR7N+/XoURQFg37597Nu3j8GDB1OzZk1CQ0Np3749QUFBD729wsPjOLHY7zsVWdHQSRIftfXM8+TfSZMmcfToUWbMmJGl1yUnKdzP9u3bs5WQazKZ6NevX5Zf55gkERUVxbJly5g5c2aaSdTBgwdjMpmYMmVKlt8HbBOLPXv2zPCYn376KV/somYsXwKvT1px58slICvIA37A+utwe9+Z3H8KzqW3WcvEqERmrpCRkACVd97wJqJ/AAZRNVTIJu92tXF5ujhxb45Ejb2KGn+dxDbj0a0fBaVSV0/P7YqQjwtnAasWi5XuExPZuFuxLazoYGSPQHq0d75LpPB4KzTyHdwqluJi5wgkkxll1wkSOkxEWjkMvDzs349ise3+HK+3aSusnL0kIUlQ7gk9Pd/OnUW3AQMG8McffxAdHU358uWJiIggKioqU699++23GThwYLrPy7KcpTFp4cKFWbVqVarH4uPjOXXqlNPjy5Url637wUuXLrFgwQKWLl1KQkJCqud8fHxo06ZNuvea165dY9++ffaf//vvPwD27t2L2Wy2P161alW8vDL/f3bs2DE++eQTwsLCaNWqVVb/SWn8888/DB06NN3n/fz8WL9+/QO/T2a5VCmHx/uNSZy1Bs1iRRk0G3nBQHugt6Zpon/IQHqVfz/7Pon56xV0kgSaRs/2Pozs5i+qegr5lk+XRrg8+wQXW41Cu3YL9fQlEt8ag7RhDATfC1wQwdaZ52y8nmSy8O4YE9sPgYSG0SDxbV8/OjX1yOvmCoKQD3l90ATj8yW50mI42vXbqKcvYm41Cv6aAIXvJaaKvjnz0uubO481seOQhgQY9DB9UBDtGoq+WXj8BYx+F9dKpbny7iSwWFF3HSex/Xj4bQSS972qL2LuKGscN1G+etNC++FmzsTZxoA+njoWjQ3i1Uqued1UQcgX9IV9Cf5jPFe6RpA4/08kJOSvfyXJ0xX6twVsQeop+yDRH2UseTMCx3iOmAMWPpisoCogSVClvJFfxgVSyF9MWAmCkHvc6rxAka1TuNx0CMqZi0hXbmF5awzSX+PhicJp4osF55zdz8YclFm1w1bN3dMNvuiZ+zEBhw8fZvbs2fzxxx+oqprqueLFi9OpUydatGiBq6vzse7XX3/NgQMHsvSes2fP5vnnn8/wmEOHDtGpU6f7nmvq1KlUr149S+8PtjXRjNZVa9asmSoBOKtu377N0aNHefrpp7N9jmTJGxYvXbqUy5cvU758eXr16nXfz/BB+Y3+H0k/b0K7cgO2H0VeuhV9W1uxE1VVxfxVOhwLdnzzi5W4axISGs+XNtL9rdyJQ9i8eTMWiyXN44UKFeLFF1/M0rk2bNjAtGnTMn18eHh4mkT3DRs22GPR02MwGKhfv/5DaU9m7Ny5k4kTJzJz5kynCcDpya2YhmT5LRbBre6LuHeoi2nBn5BkQR4yB/nHPrm26ZxIABYEQRCEB5TpJOC+MHqyCVWxJQGDSAIWHk+xM//kWO953I0BxSO0Gn4Dm+TL5F9HXl5edOrUiU6dOnHlyhUWLlxIdHQ027ZtA2w3pFu3bmXr1q188sknNGjQgJCQEN566y28vcUOxo8Lx2qhiqKwfpfMziMaOqCIv45h7+f8zntZFR8fz5kzZ7L8uldffZXChQvbf163bh0bN26kf//+qaqOZXfi2cvLi507d6Z5PDw8nG3btlG3bl0mTZp03/PcuHGD06dPO538iIuLc1qtO6ucVfRdtGgREydOfOBz5yS/zzuRtOgvtHOXbZOI63ZjeKN6qklEEIvBjlIu/qasVLZsk4mIn5OTFVQmfhJA2FuiDxcenGul0jyxfQpxLT9H3nMC7eptkkK/QFr9OZKf7XdMkiT776a4ZtOXXuXu8fOS+GOXik6S8HCF+WMKU7dqxhU2hcebd5tXcClVhNiWn6NduoH672mSPp6BNP0jpwvq4rpLzVmVhOu3rHy9FJAATWPGQD/0DykeoUSJEmkWj/fu3YumaWl2Y33yyYznU1xcXJyOSZ0JDw93muj7999/M27cOKevGTVqFE2bNs3U+ZMdP36crl274ubmRufOnXnllVcIDg5G0zRiY2PZtGkTP//8M0uXLmXmzJlpduI9cuSI08X3mTNnpvp5/vz5WVpAl2WZS5cu5cj42rFdjv9vAwcOZNeuXTn6PpnhN7ErpuVb4cpNtN/3YP3nCPoaz6aZjxB9RGqOm+kkB1POXWPmh99s38eaqjJ9cAChTTzvf0JByGNuNStQfEcEF5sPRz58Fu3CNZI6ToLVnwP3EszEuOH+0qsMPnC6he2Hbffaft46lo0P4OXnXPK6uYIg5GOuNStQZOc3XHnjM5Sj59EuXMUSOhFpleibsyrdvnmamW3/2aol+XvpWDI+iOqibxYKEM+2r2IoVYRLLYfDpZto/57C9Ml0pO/CUx0n+pn7S6+f6TrBzOl425z3U8UMrPgiiNLFRUiqIKQkuRgoNLcftyqV5nr/mUiShDxuMeani8Ob96pg6fV6+zqS6I8ylnL9SJZlTpy30GmsjKLYYjra1XdnzlD/+55HEAQhJxjKl6DItq+40mQI1r0n4NptLO3GIa0djeRrS24ScQL35zjWHPajYvvcVI3PP/ClSEDWi1hkRXKVylKlSvHpp59SsWJFgoODuX37NmfPnmX58uVMmjSJNWvW8O233zpNAp49ezaQfmXMGzdu0KBBAzp27EivXr0y3bbixYszduxY+8/Hjx/nhx9+oG3btqnWVrNb6KJMmTJO11UvX75M06ZNeeKJJ7J13mTJ1YV37tyJLMtOY+wza+rUqcyZM4fq1atTq1YtVq5cSffu3VmwYAElSpR4oHZmROfnid+UD7nx7kQ0VUUZvRD5zRqpKnzq9XoxjrvL2Rrj1Zsy363UgaYiAd8P8ie3PqrRo0dz9erVNI9nNm41pS5duqSJL3Xm9OnTtG3b1unv94gRI+67Fu/l5ZWpBOCcaE9mJCdQW63WLL0ut2IanJ0vv8Qi+Ed0I25lDNxOgl93IO87if6lcrkSiyBmWwRBEAQhB2Q2CfizvjBmchKqAgsXXwJEErDweImduZGjvefZYsUBz9Cq+D8iyb+OgoKCCA8PJzw8nDNnzhAVFUV0dDSHDh0CbLuJrV27lrVr19KtWzeaNWtGaGgozZo1S3eXN+HR4Tip+O1yDdu+1RrDuvjg7pr/fmczq1SpUqmSCZJ3HqxWrRqlS5fOlfc8f/48O3fuxNXVlZiYGC5evEiRIkVy5b0eR5K7C77DO3Kj65egaaiRvyI3qmzfKUxUAU5fykR+WZbZe9xM72/uVf4d2tVPJP8KOUpf1J9ia0cTW/0TlFPxqIfOkxT2DVKUbXJTVCS9P8ed25ODN5ZvNhH5iy15X0Ilekxh6lZ1y+PWCvmBa5WyFFs1kthX+iKZLci/xJBUvhhS37fs9xqiekL6HJPt56xTuGOSkDSVN2u7P9SknbZt29K2bdtUj73++usoisKMGTNy7X0tFgtGozHd53/99VeCg4MBOHHiBO3bt8/ye1itVsLDwwm9R9xiAAAgAElEQVQKCuL7779PtfEOQPny5SlfvjytWrWia9eu9OzZk2XLlqHX3wtmqFmzZqrF9xUrVjBy5EgmT57Ma6+9luU2FSQ6P098BrXnZr8Z6CQJ9avlyFWfRq/Xi8X4dDirpCLLMtsOmPn0+7tBN5rKd4NE8q/waDGULEzRdWOIqxyOevkG6s7jmD6MRJrRU2wekknpbQ4wfYWZqPUaaBouRkkk/wqCkGmGUkUotHYsl6qFo16+ibbjKOYPv0Ga8bHomzMpvb75u+UmojfYNm4x6jUWi+RfoYByrVqOIqtHc7FWbzBbUBf/jfnpYkh924i5o0xylvwryzKDppvZst92TIC3jt++LETJormbmCEIjzKfPm+hJZi49fk8AKzdv0V6shBS5XKp+iJRITJ9jpta2iuRj5K5cQd0SLxa0cgPQ0TyryAID5eusB9Byfe25y7BoXNYukYgRQ9w2seLMec9zgp1bNlvZf9pCUnTKFXUQLdWubsOcfLkSYYPH06NGjWIiIhIFf/t5uZGoUKFqFKlCg0aNKB///5MmjSJIUOG5GqbUvLx8aFRo0b2n5NjU8uUKZPq8Zy2ceNGAGrVqpXtc5w+fZqpU6dSsmRJzp49y+TJkxk4cGC2ziXLMvPnz6dChQpMnToVgIoVKzJ48GDWrFlD165ds93OzPAMrUfChJ9QDpxGOnsF+dftyG+9ao/dE+uNqTnGIfy4RuGOCSQk2tZz5aWn01+fzwnVq1e3/548DMkJs87iDjZv3pzq57Zt2+Li4sL8+fNzrT3JibsZxUFk5Pz58wCcO3eOatWqZfp1BTGmQRfkg0//dtweNhtJklC+XoEysxeKouR4LIK4UxQEQRCEHJJycSg5CdhoNOLi4oKLiwuurq5Ur+zOkL5u6PW2439afIkxE7JevVEQ8qMLMzdypPc8bKWiwCPk0U3+dVSyZEmGDBnCf//9x549e+jfv3+qHcNMJhNLliyhTZs2FC5cmM6dO7Nu3TqnlUuF/M3ZpOLuozLbDtnS2oMD9XRq4pHXzQRsN+lZ3WHLmZMnT6b6G+DgwYNs2LCBDRs22CfzsuvcuXN069YNPz8/5s2bh7u7O2FhYcTGxj7QeQsaz06voy8WaOszYw4j7zyKoij239Xk313Bxtnib+xlKx1HK5ittmT+N+t40L9T3lfzFh4/On8viqwaieTlBkioa/dg+ny+PSgq+ZoFxHWbDsfk/V2HLXz8lWJL3tc0Pu/mRz2R/Cuk4FrxKQrP7mObOAeUcYsx/74bq9Vq/74U11tajsGbZovCzNW260ySJAZ19MrrJj4UVqv1gXaazoyDBw9y5coVunXrlib5N6VChQrxwQcfEBcXx9GjRzM8Z/L4PeVx8fHx9nH8hg0buH379n3bZjabU/39uPLs1hy9vxeapqFbtwf5yDl75WsxnnbOMbj75AVbJRVVtVUq+LC1F52aiuRf4dGjDw6g8K8jkFyMSJKE+stWzBHLnI4bRL/gnGOC2aa9FkbMBU2zrXt8P9BPJP8KgpAl+icKEbhyFJKLwTb/ueRvLF8vF31zFjj2zX/stvL5HA0J29htxiCxMYNQsLlULE3gnH5wd7yijP0Z88ptYu4oE9LbIGreWjNz1oGGhkEn8cv4QJH8KwiZ4DssFI+36wAamKxYOkzAEncVWZZRFCXVGqeQmrPNCMwWmU7jZE7HgyRBmRJ6lowNQC8i4wVByAO6Qr4ErhqD5O6KpgHr9mAevQCr1SriBO7DsX+fugL72L1PB09ye2+MzZs3Y7Va+eyzzzJcM6xTpw4NGjTgjz/+yNP/w1OnTgG2jYuTxcbGZnmNMCO3bt0iKiqKkiVLEhwcTNWqVe1/nFX3dObIkSN89NFHqKrKt99+S+fOnfn555+ZPHlyttYlb9y4gdVqJSAgwP5Y8eLFAbhz506Wz5cdPkNC0dBAAu3rFfZrO/mP4HyjuiSzbItDuFtaavC7j1+xjlu3bgG2hP38ILkPyG57Dh8+DMD+/fsfqB05FdOQ33n2aIHk7WGLRVixA/lknD0WISfv8cRtjiAIgiDkoMwlAXswpK8bOp2GJMFPSy7xxZSzed10QXggF2bZkn9tubwaHiFVCXhMkn8dVapUiYkTJ3L27Fk2btxIWFhYqkmFW7duMWfOHBo3bkyxYsXo2bMnW7duzcMWC1nlmDT4zfK7N1+SRO/2nhjyydr1hQsXuHXrFgkJCdk+R0JCgr0C8Jo1a+yPL1y4kIEDBzJw4EBGjBiRrXPHx8czadIk2rVrh6qqTJkyhdKlSzN58mRMJhNvv/02ERERXLp0KdvtL1AMerz6tbVNIoKtapnDQrBg42zx906SlQ4jrVy+YXu+cnkXZg0NuP/JBCGbjOWKU2jRENDZpq/VyJWYf9liv27F5L9zzpL3z8Zb6DjGilWxJe+3a+jJJx3yx4S5kL94tn0V/2HvkPyNKHf5GuvBMyJwKh3Oqm3/tFEh/jogSdSr7JLru+7mF7dv38bLK3eTnY8fPw5AqVKl7nts8jHJr3FGlmX++usvwLZrblJSEgB79uyxj+MHDhxIXFzcfd8veffe5L8BNm3alGrRLXnB8lEmubvg2fNNW+VaVUOL/FUk/6bDcWMsWZa5dstK+5FWbiXavo9rV3Lli55+ed1UQcg2l6pPEzi3n33zEHXMT1jW7RLj9ftwNl4/ctZK54mgqLb1jp5tPOjQwD2vmyoIwiPIperT+M8beHf+U0IbtQCr6Jvvy1nffPSslfe/UGwB52h80s6bdqJvFgQ82tbGZ0jIvQ3kwiKxHjwt5o4ywXHNZdNeCwO+5+5nKfFtP1+xyYAgZEHAnH4YK5UBQLp8E2vIBKx3klKNe0R/5JxjfzToewvbDgGShJ+XxKovAvDxePTikARBeHwYn30S//mfIulsmzERsRzLEhEnkB5niYJHzyv8+a8EkkSgj8R7zXO/UMexY8fw8/OjaNGi9z32mWee4ebNm3ka7xYTEwPAX3/9hclkAmDHjh1ZXiNMj6qqfPbZZ1y4cIH+/ftTpEgRRo0aZf8TEhKS4etPnz7N6NGj6dixI3q9nmnTplG0aFG6d+9O586dWbBgAW3btmX16tUkJiZmul1BQUGUKlWKmJgYDh48CMCiRYsAqFu3brb/vVnh3rY2hlJFbQnq+04jb9qfKsFfjOHuSRmHEL1e4dptQNNoWsONZ0vl7ubceeHMGVsxuCeffPK+xyYmJmbpdz87zp615aWULFkyy6/dv38/Bw4cIDg4mNWrV2e7P8nJmIb8TufvheeHzWybMaoq6tSVaYr75Mj75MhZBEEQBEGwy0wScLXKHgzp545OZzs+asFFkQQsPLLOz9rIkd5RtiBajbvJv40fy+TflCRJ4rXXXmP69OnEx8ezfPly2rdvj7v7vSCKS5cuERkZySuvvMJTTz3F4MGDH3hHJCH3OE4qqqrK1ZsKa3fafmd9PSU+aJk/qv+qqsqFCxeAe5MH2TF79mwSExNp1aoVGzduZMeOHQCMGjWKnTt3snPnzixXAN6yZQutW7emefPm/PLLL7Ro0YLo6GgqVKgAQMWKFYmOjqZJkyb89NNPvPHGG7Rp04bt27c7PV/jxo1T7SJYtWpVe9Lygzp79iwxMTGp/qSshJzfeIY1Q+dv2wFPt3Y3Svy1NBWAxSSijePi76SfrBw+Z3u8eGEDyyYG4Wp8tL+HhPzPvVFl/Cd+cDcZUUL5eAbWS9dFQNl9OF6//abJXL9tWyB9+TlXvhuUfuVMQfAbFopHi5dt19UdM5awr+2VXJKvOxC7aidLOe5VFIW5v2OvDjXwnYJR/VfTNC5cuEBwcPADnWfjxo2sW7cu1U7bKSUv9O3ateu+50o+JqPFwejoaM6dO8egQYOIj49nwoQJKIpC06ZN7eP4nTt38vTTT9/3/c6dOwfYFuOTjRw5MtWiW/K9R1YcOHAgzVj76tWrWT5PTvL8uDW43Q1I/nkL8o3bIqgyHY7fx5/PsXD6ooQGlC1h4OcxgaKSivDI82hbG59B7bmbG4Xc/VusNxPS9Auib7BJOY5KHlvJskz3r1RuJdqS9V6v4sKEHmKzHkEQss+9bW28BrQHNNA0lG6Rom/OgLO+2Wq10i1CJslsG7u9XtWNsd1E3ywIyXw/74R7y5poaEhmK9a7c0cp52xBzB0lc1w3VRSFhEQrH05RURRb8u9HbTx5t2n+WD8VhEeF5GokaOUo9MGBoAF7T2H58hex+XMGnG0A/fd+K7PX2ea0dZLG8nEBohK5IAj5glvLGniP7myPjdQ+mS7iBDLgON78YY2KhgSaRu/2XrgYcj+2p1SpUty4cYOLFy/e99gjR47g5eVFoUKF0jzXo0cPqlatSosWLQCYMWNGqni3Bg0aABAVFWV/LOX6XGZs27aNXbt28dZbb3H58mV+/PFHAFq1apXlNUJnLl68SPfu3dm6dSu9evWiRo0aeHl50bRpU/ufKlWqOH3tgQMHaNasGW3btmXNmjW88847REVFUb58eQB0Oh3h4eFERkYSEBDA0KFDqV+/fpaKk/Tr1w9VVRkwYAC9evVi5cqVfPTRR1SsWDFb/94s00l4De5gqwSAhjTvjzRVPoXU64yKojBvg862FiNJ9A/1zOvm2R07dowNGzbwxx9/PPC5kq/l+yXcJiYmcunSJWJjY7FYLA/8vulJTgDOTEJySrIs8/XXX+Pn58fUqVORJInRo0djtVqz3IacjGlwlB9jEbz6vQ0uBlv/sGgzismc47EIj1/qvCAIgiDkAykTG5OTgB1Vqwyf9oNxkxLRFIieH48E9OudtcGWIOSl87P+4nDvKHRIaJqKV0gVAgtA8q8jo9FIy5YtadmyJQkJCSxdupT58+ezfv16ZFkGbDd448ePZ/z48Tz33HOEhIQQGhrKU089lcetFxylnFRcsllFUXVIQKfG7ri75o/f3e3bt9tvqtevX89zzz3n9LglS5awZMkSAMLCwggLC7M/9/vvvzNv3jyaNWtGv379+Pfff+nXrx9fffUVL730Urbb9uyzz1KlShW6dOnCK6+8gr9/2kStoKAghg4dSo8ePfj777/Zu3evPUHY0ciRI/HxSR2gNGXKlGy3L6XffvuN3377LUfO9TBI7i64/68hSVOWgKahLt2K8lFL+++sTici8B0T+WVZ5vINKzNX2Z7TSfDDED8CfcVnJTwc3r1akbRkM9atByHJjDzxZ/QTu6LX61FV9bEcF2VXesEbf+61zY26u0hEfx6A8SEs8AmPtsA5/Ygr8x7atZtIh85jXbwFffvX0Ol09h21C/p3prPgzXOXFPaelJDQKFvCQN2XCkbVlkuXLmG1WjO1o3dGxo0bl+Hz1apV45lnniEyMpJy5cpRuXJlp8fFxMQwffp0nn/++XQXqhcvXkxkZCRvvPEGbdu25ebNm0ybNo0rV64waNAgSpQokaW2b9iwAaPRyL59+4iLiyM4OJj169enOqZTp04oipKl80ZERDh93M8v76rG6vy9cO9QF9OPa5EUFfW3HSgdG6TadVfTtAL93exsPH3igpUFf9iCbSQgapg/Pp4F9zMSHi++o/6HeeU25AOnkK7fwRqxDP3Q0FRzmAW5T3DkWB18ZYzFNn6QwNtDInqYHzrxcQmC8IB8xryH5bfttr75RgLy18vRDwkRfXM60vbNMvtP2cZuvp465g3zo4DfAgtCapKE/5z+XCzzP7Srt9D9dw7rz5vRd6hrn7MFMXeUkmOV8e9/k7l8EyQJShfTiw1gBCGb9MEB+E3/mGsth4GmwdTfsHZtjD44yD7uSZ6vKuhjn+TPIeV8ttVqZegc1bahJRp92ntS4zljHrdUEAThHq9BHTCv3IZ163+QaEKZtAR5/PsiTsBB2hgBheUxEqCh10t0ae5+33PkhNdee42ZM2cyZswYvvzyS6fx3mArirF+/XqaNWvm9J7hgw8+oE2bNll6b2eJxOk5efIkw4YN48knn2TAgAFYLBZmzZqFj48P77zzTpbe11FiYiIrV65k2rRptkILkyZluapu+fLlqVOnDi+++CK1atXC19fX6XE1atSgRo0aHDhwgG3btmUpfvaZZ56hTJkynDhxgosXL2arnQ/K45363P5kKiSZYe0ulDtJqEajPXavIK81OsYhqKrKyTiFg2ckdECFknpeeSH/xCFkFDsaGRnJ7Nmzs3zO5N/Hjh070qtXrzTPHzt2DLCNbY8ePcrzzz+fqfPmVntSUlWV4cOHs2fPHkaMGMETTzxB7969mThxIgMHDuTzzz/H29s7U++b0zENjvJlLEIhX9xbv4Lpp41IiWaU33agtK2To7EIIgFYEARBEHJJZpOAB/eF8ZMTUe8mAaNp9OuT8Q4wgpAfJCf/StgmXTwLaPKvIy8vLzp16kSnTp24cuUKCxcuZP78+cTExNiPOXjwIJ999hmfffYZL7/8MqGhoXTo0IHChQvnYcsFSL2IrSj3JhUloF39hzOpmBmLFi2iaNGiVKpUiWXLlvHhhx/i5uaW5rhKlSrRtGlTwJaYC5CUlER0dDQzZsygVKlS9O/fHzc3NyIiIvjwww/p1q0bb775Jt26dSMgICDLbQsICOCzzz7L1LGBgYH25Pn0vPzyywQGBqZ6bObMmSQlJWW5bckKFy7Mzp07s/36vOTRoR6JU5bY+t5lMcgfvoHBYECv1xfoCcSUHHcRnLBQIdEEOkmiUTUXald0zesmCgWM31fduVwt3LaL+7w/sX7UAn3pYvbxkQjguCdl8IYsy4yYa/te1gE923oRHCR2bhfuT+fjge+od7kZHgmqijr2J+RWNVPdk4jrLu2C+s+bNGx1WyTa1087rnxUqKqaJnk1I8k73169epV169YhSRINGzbM8vuuXbuWwMBApk2bxqxZs9I8L0kSkyZNom/fvoSFhVGjRg1q1qxJcHAwmqYRFxfHpk2b2L17N88++yyTJk1Kc47Dhw/z3XffsWXLFqpWrcqQIUMA6NKlCwEBAUydOpXWrVvTt29fOnTokKl279y5k9OnT9OvXz8iIiJYtGgRn3zySZb//Skl7/6dX7l3qIdp9lpQQVq2DSWkXqoNdQpyv5DMcUOO8QtVZMW2mU67eu5ULCeCKYXHiE7CN6I7VxsMBFSk6auxftgUXdFAMV5PwdnmIRarzKjou4UOgEHveOLvLRJlBEHIAToJn696cK1BfzQNdNN+w/pBE9E3O0ivbx6zQLN9bhIM7ugl+mZBcELn44H38I7c/mQqmgaMW4TcupaYO3KQcoOo5PWWa7dkIn6xF7tiYg8f9KKbEYRsc2v2Mi51KyJv3AuJJtSIZchjOheo+JrMctyw7tcYmX2ndIBKgLeOQR298rqJgiAIafh8Hc7Vqt0BCX78Hbl7MxEnkELKZKjke9uN+1Su3rIlCjaoanxo97TlypVj0KBBjBkzhtDQUDp27EjFihUpUqQICQkJnDt3jhUrVrB69WrKli1L//79nZ7nQQpuZETTNNatW8ekSZMwmUxMnToVg8HA4MGDiY+PZ8qUKcTExNCzZ097td2snPuLL75g5cqVJCYmUqVKFQYMGECZMmWy3E6j0cjAgQMzffzzzz+f6eRHgB07djBo0CASExMpVaoUp0+fZvPmzfYER0VR0OtzP6ZEcnfFrU1tTFG/I5mstg2HO9QTGw7f5RiHsGiThiTZ+ryQ1/NP/C1Ar1696NixIxaLhVq1aqV6rnHjxtmupA3pVwJesmQJfn5+6HQ6oqOj77vReG63J9n+/fuZMGEChw8fJiQkhObNmwPQrl07bty4wYwZM3jzzTcZMWIEderUSfc8uRHTkFJ+j0Vw61AX008bQQNp+TaU1q/kaCyCSAAWBEEQhFyUqSTgKneTgCfdQVUhekE8kgR9e4skYCH/Oj/rLw71jrb9jmu25N+gAY0KfPKvo6CgIMLDwwkPD+fMmTNERUUxf/58/vvvP/sx27dvZ/v27fTp04d69eoREhJCmzZt0t0BLaedPXvWXqX4QTz55JPp7n73KHCscqSqKucuKfxzVIeERolCEi8/mz+CnPfv38+WLVv44IMPeOWVV1izZg2RkZH069cvzbFlypRJs7Ng37592bFjB1WrVmXChAl4eHgAUKJECaKiopgwYQLr1q1LVS04syIiIoiKisrePwzo3Lkz4eHh2X59Thk0aBClSpWiW7dugG2CskKFCgQFBeVxy8BY7Wn0TxRCO3cJ3e4TqOcuo5Ypbp9ELMgLBI7XsaIonL0oE7VBAgl0ksaXHz+cvlUQUnKpXBaPTg1Imvc7WGTUcT8hT+uJXq8vsGMkR86qDa79R2bvSdAh4ecNg97N3C6SggDg9UFTEr5ainr0HJy9jDxnPfoPmqIoiqjgkkLK78xlMbq7WztpdGqUvxbeskKWZT799NMsv27VqlWsWrUKvV6frQTgzChatCgRERE0bdqUbdu2sX37djRNw9PTkyJFipCYmAjAl19+6XTcefjwYXbt2kXXrl3p2rVrqvuv1q1b07hxY+bNm5fhgltKsiwzdepUfH19ad26NYcOHWLRokW88cYblCtXLmf+0Q7i4uIYO3YsrVq14vXXXwfA19eXChUq2O9Lcptr/Uro/LzQrt9G+ms/6rVbKEVs8xfJ30UF9Xs57U77MofPyiz9W0IngYtRY0IP8X0sPH5c61XE9Y3qWFZtR0s0o0xagjKhi33cIMbr96Ss/PbzXzIn4mxbQxYP1NPrbc+8bp4gCI8Rl3oVcW1SDcvqf9ASzWhf/oIy7n3RNzuRsm/+6U+ZE7ESkqTxZBE9PduKvlkQ0uPVvQWJkctRj55HOnsJee569F3F3JEjx3vEb5Yp3E6y1dt8rZILzWuJDVcF4UH5fdWDy5W6IWkSzFqL/FFz9E8Usa8hFeS135RSVf+VFcYutG3WICHx+Xue+HgU7M9HEIT8yVi5LG4d6mFe+CeSrKBO/Bk58iMRJ5CC47rE0i0a3F2x7PD6w92wuFWrVlSoUIHIyEjGjRuH1WpN9XxwcDCffPIJb7/9dpoYyeTk2+yqXr06U6dOTff5H374gWnTplG0aFEiIyMpW7YsAK6urkRGRjJjxgzmz5/P5cuXs5wALEkSN2/epH79+oSEhGTq9a6urhQuXBhX13v3A1euXGH37t1Zeu+UAgICqFq1arrPHz9+nF69euHh4cGPP/5IcHAw77zzDsuXL6dSpUo0bNiQRo0aUatWLcaPH5/tdmSWe4e6mKLW28Zqy2JQ3q4jNhxOIeV1vXizzr7xf6fGj85G5OXKlcvxNfO4uDjWrl1Lp06dcHNzY/r06XTu3DlT111utCelv//+mzNnztCnTx9CQ0NTPRcWFsaLL77IjBkzKF26dIbnyemYhqzID7EIbm9UR/J2h9uJSGt3o966g2LMuViERzdCXxAEQRAeEZlJAq5aBQb105gwKdGWBDw/DjToKyoBC/nQuVl/cajPfCSJu8m/lUXybyaULFmSIUOGMGTIEPbu3Ut0dDQLFy7k3LlzgG0HsvXr17N+/Xp69OhB06ZNCQkJoWXLlk4ru+aUa9euoSjKA5+nRIkSOdCavJdy4WjdLu3unKJGh9cfzg3g/dy4cYPBgwcTEBBAaGgoXl5eNGvWjIULF/LCCy/QuHHj+54jPDyc+Ph46tWrl+a69Pf3Z/z48dy+fRtv76wHdjdt2tReadhRbGwskZGRvPnmm7z88stOj3nqqaey/J65YefOnZhMJvvPQUFBzJs3Lw9blJr7uw1JHDMfNBVt3S6UsKKpJhELMsdglNHRKooiIWkq77fwoExxMQ0i5A2fMe9hWrQRzBakJX+jfNIK5fmnRABHCo7Vu8fMtwVugMbnXX3xcCu4n42QDXodfpPDuNZ8qK1qyxeLkUProtfr0ev1SJJUYBfenG18E3dV4ch5PaDxwlNGyhR/dKttu7i4sHPnznSfb9GiBcWKFWP69OkPsVX3JI/VunTpQvfu3VM9FxkZyezZs9P9vXzzzTepX78+Pj4+Tp/38PDgww8/TPVYq1at0m3Ld999x759+xg0aBCurq707NmTjRs30r9/f+bNm5et+4H7SUxMJCYmJtX9QO3ataldu3aOv1e69Drc3nmdpG+WIakayoZ/UcWu3HaOwTafz7N9H2safNzWk+DAR7d/EISM+E7+kMtrdiApGsxej9yjOfrSxcR4PYWUc2Zmi8zYhbbPQpJgYncvjOJ2WxCEHOY9pTtX1+5EUjX4YR1yt2aib3aQsm82mRXG/XTvuXEfeou+WRAyotfhMymM6y2H2eYgJy5GDkk9d/QwKkflZ473h1duykxfZZuv1UnwTS/n8xOCIGSN4flSeLzbkKTZa5Csim0T2a97iOSwuxyrkds2PVE4Hgs6CcoW0xPWMn/EcgiCIDjj/UUYliWb0SxWdIs2I/dujaH8k+LeFtKsVyqKwtrdtvVKo0HizVcffqJg+fLl+eabb5BlmX///Zdu3brRpEkT+vbti7+/f7qve/rpp5kwYUK23zcgICDD59u3b4+npyetWrVKE0dqMBjo0aMHnTp1yvba3pgxYwAwm83ExMRk6jVDhw5NlbR47NixbG3SnKx69eoZJgDPnDkTi8XCF198QYUKFQCYOHEiXbt2Zfz48Zw+fZrExEQKFSqU7TZkhWvjqkj+XkjJGw5brKguLqnGLgXtunZWuONErMLZS3p0ElQrb6B4oYJ7n221WhkyZAiurq60a9cODw8Pli5dSp8+fZgzZ06mC9NERUURERHB4sWLKVWqVLrHnT59mrZt29qrHN9Ply5dePvttwkMDHT6fI0aNahRo8Z9z5PTMQ1ZkS9iEYwG3N9+jaRZq5EUBeWvfaitXs2xWAQx3SsIgiAID0Fmk4AH9oMJk+6gKRLzF8QhodGnT6mH2FJByNi5WX/xX5/56AA08AqpQqEBDUXyb9jm70wAACAASURBVBZVrFiRihUrMmHCBDZv3kx0dDSLFy/m2rVrgG0yZdmyZSxbtgwvLy9atWpFaGgoDRs2fKSr7OZ3jpMQ249IoAFINK3hktfNIzY2lkGDBhEfH8/EiRPx8vICoE+fPhw4cIBhw4Zx/vx53nvvvQzP8+yzz9qTdI8fP47VarVPjCXL7oRg+fLl092R7OjRo0RGRvLss8/SqFGjbJ0/p50/fz7dCYQtW7akmVgMDAxk7dq1D6NpGXJ742USx0SDBNK2w6hdmxboCcRkjpOINxIUlm/ToaHi6aZjxHteed1EoQDTFw/Eq9/bJIyORtI01JlrkCd9IAI4cL6wt+WAzJHzOiQ0yhY30KW5CN4Qss7tjeq41quE5c896K7cQl4egyG0fqoNMwr692byNbf5AGga6IA38sG4N7/ZtWuXfaErNjY2z9ohSVKqhbIrV66wZs0aNm3aRHx8PNeuXUOSJAIDAwkODqZu3bo0btwYPz+/VOdRVZXvv/+e2bNnU6VKFd566y3AtunN0KFDGTx4MB07dmTMmDE8//zz2W7vsmXLGD16tNPnIiIiiIiISPVYo0aNGDt2bLbfLytcm1YnKXKZbZEt5pDYlRvni/IXLsus36NDQiXAR8fAd8R4Wnh8GZ4ujseHzUmauhydrKDOXY8y9J1UC/IFlbP+Yc0/KrFXbdXBK5XV077+o7NrvyAIjw7D0yVwD2tG0rRfbX3zvPUon4m+GZz3zav/kYm/Zhu71XjWSNu6om8WhPtxa14D13qVsP65B+nKLZQVMSgh9+aOCnoyRvLfyf3M3N9VzBYJCYlOjdyoUFKsWQtCTvEa9T9MC/9EM5mRFm1BGfseisGQKjmsIPZFyRzXkGattfXNmqYxqYcX+oK9P7YgCPmcvngQHr3bkDjxJzRFRft+NfL4LgU+TiDleDO5nz92QeXGHT064LWKRrzc8+5zMRgM9iq7RYsWzTD5F2zxZMnVJnODl5cXHTp0ACA+Pp74+Hiee+45jEaj/Zic2Nj32rVrWapkPGnSJOrWrQtAzZo1092k+erVqzRu3JiwsDDCwsKy1bbDhw+j0+moWbOm/bHnnnuO/v37M3bsWObMmYMkSbRu3Tpb588yvQ7XxlUxL/wTnVlG3nUM5dUXxIbD3NuwTlVVYg7ZCvBomkbTl13v/+IcdOXKFZYvX47JZMJkMnH58mXOnj1L4cKF6dWrV6bPExERQVRUVKaP79y5M+Hh4akeUxSFsWPHsm/fPgYOHEjhwoUBGDlyJB999BE9evRg9OjRPP3005l+n5xmNBrtMRE7duzAw8MjW7ECORXTcD/5ORbBpWk1kn5YjaYBMYdRW9ay9w2iArAgCIIgPCKykgQ8cVICqgLzF8QBiCRgIV84O2sTh/osuFuHTcMnpLJI/n1AkiRRp04d6tSpQ2RkJGvWrCE6Oppff/2VxMREABISEoiKiiIqKoqgoCDefvttQkJCePXVV8Vnm4OcVULbclACCQw6qPaM8f4nyUU3btzgnXfe4fbt2/Tu3Zv69evbn/P19eXbb7/l448/5vv/s/feYVFd3/v2PcNQRYOKikbFrw0LCZZojGLJx95ijyUajTUoRlQsyWvBGkXsKKLYQhQwGrGjP40d0WBFsFEsINgRUdrMnPePcSYMDDBDR+a+rlyRU/acM3D22Xuv9axnyxbat29PzZo1tWp3xYoVPHv2DH9//2yPMzc3x9hY+0WY/fv3c+TIEZYtW6Z1dbKsyMrVuE6dOnlqFxQih40bN6ptS0hIYPbs2VSqVIkFCxao7Uu/cFqUGLaoj8jECJJSEF++h0wmU1skKI0LiJqSUQ4HKdx/xYj4obMJlhb66K+eoqXMlH68X7obZAKiY8HIlo9WExuVxmdXSaak1SuKGhxiYMqgMvrkDT25pszU/qSduQGCgCggGNng9shkMgwMDEr9M6ccOygCb/8lTNl/UTzGO8UJFxeXor6ETNy+fVsVmOzYsSM9evTAwsICQRCIj48nNDSUTZs2sXPnTtatW6dKUgBYt24df/75J3Xr1sXNzU0liAfo1KkTycnJLF26FA8PDzZs2JDra2zTpk2msfbVq1fZunUrbdq04YcfflDbl1N18/zEyN4WRCJECIiv3Fe9j5Xvo9JM+vfxgUtyQIwIEWN7mlDOrHT2mXpKD+bOg0jeeBBBkCvGDb8NUY0bSmtxACXp3ZZkMhlH/xVUY4cZQ8oU9eXp0aPnE6bMzMEkbzqEIIAo4BqyX/V9s5KMffOxfwEU/fOUgfpCanr0aEsZp/7En76BIMjhWDCy7/VrR0rSzw8V/czHuL8gZ8ogfT+jR09+YvC5JSbftyfljxOQJkUeEKwqWFeaBSSaip48fSnjZpQYBDm1qhjQ65vCFZLo0aNHT24wm9Kf965+iEUihICryJaM0sckyFwo/NIdAUXkRqDNFyWzYPHdu3eZMmUKkydPplevXgXyGQcPHmTz5s0cPXpUJSLUhJlZ7sfsjo6OjBo1Ksv9Fy5c0ElAmR+YmJggl8t5/Pixmutp//79OXXqFJcvX6Z69epa50zmB0b2tqT6ngY+Gni0blyqc/cg8/gt6K4YBEUuQptCzkOIjIxk8eLFGBoaYmZmhpWVFdWrV891zumyZcsyOXCnJzExkTlz5mTaHhMTw5w5cwgJCWHgwIEMGjRIta958+a4ubkxc+ZMfvzxR9auXavmXpsdAwcO1P0mtMTFxYVatWplivWnRyQSYW5ujpFR1v11XnIacqJY5yJ0sFP93Yuv/JfbK5fLMTDImwu2XgCsR48ePXr0FCLaioBnOsOKFYnI5SJ8dsciAqbqRcB6ipDHW88RNm03IpHCGarcEL34N78xNDSkd+/e9O7dm/fv37N//3527dpFQECA6piXL1/i4eGBh4cHNWrUoH///vTs2ZPOnTsXyjW+ffsWIyMjTE1NefDgAREREXTu3DnPk5KiRlNVwUfP5LxMkCASBFo2NMTEqGj/li0sLBgxYgT169fH3t4+034rKyu8vb0JDQ2lbt26pKam5ttnm5ubc+bMGZ3OiYuL48aNG6SlpaltNzAw0Lpf6Ny5c7YLLkoH5LxgYmJCy5Yt1bbt2LEDgBcvXmBsbIydnV2ePyffkRggadkA6blbiOLeIH/4DLlNTbXgQGlcSMxY/flYMPAxGaVP25Id/D179ixhYWGMGzdO4/gxLS2NvXv3YmNjQ7NmzXL1GTKZjH379lG7du1M7tcZuXHjBvfv36dPnz4aiwMcPXqUatWq0aRJk1xdS06EhoYSFRVFt27dNH4f2vLPP/8QFhaWqfJiQSGuWA7DNrZIz9+CuDfIr4cja9kQiURS6p/djMlkR/8VofwW+rYtfMcaQRDYsmULjRs3pk2bNhqPefnyJbdv38bW1jZPxS6ePn3KpUuX+Oabb6hWrVqu2oiLi+PcuXO0atWqwAJa586dA6Bdu3bFoh1tMe7SHEyMICkZ0ckbyJJSkBsalnrhfcaA+pX7YgQEREA7u5IZUC8IBgwYwIABA4r6MjTi7u6ORCLB19dXYzXcfv36MX78eAYNGsSWLVtYvny5at+wYcNITU1l8uTJmJqaZjq3V69eNGrUKM+VwitVqkSlSpVUPwuCwK5duwC4c+cONjY2fPbZZ3n6jNwiKmuKoV1tpNfDEd+LRvYqAXlVI7X3MZQ+l6dMyd3BYvgo8CuK9zEo3rd///03bdq0oXHjxpn2379/n5CQEDp37qxWTbo4oEzgMjAwQCaTsWfPHho3bsyXX36Zq/aio6MJCQmhVatWOboNFDU3b97kyZMn9OzZM9fPUVHcr0GtKhjY1kJ+OwrRnWikkbEY2tRUvS+V91Ia+4b04wapVMbJ62IEAYwNRfRurR87ZIVUKiU5ORlTU1MMDAzYt28flStXpm3btkV9abkmKSmJkJAQatasiZWVlWq7XC4nJSVFFSOIjIwkODiY7t2754v7SHFDEATev3+PsbExhoaG3Lp1i9DQUAYNGpSndYrizt27dzl37hzfffed2u+/IDGoVQWDRtbIwh4iCnuELCoOef0a+r45Q9+cmiYjIFgEIhGGBgI9i7EQ5vz588jlctq3b5+r89+9e8fx48dp0qSJTkmBehQJp+fOnaNt27ZUr149X9s+ffo0ERERjB07Ns9tFfbakVHXr8DUCFFSin7t6COaiia/iJdyPdIABAHrKgZ8Ubv4ve8ePHhAVFQU7du316mocX7z4cMHkpKSKF++vFrRNSX5Ec8BRXL5jh07aNmyZaZYp56SiUm/NiT/cUIR2jx6BfkAe7UisqWtL0pP+vjv4csCyqInAzsU3zFPceDDhw+IRCJMTU0JDw8nKCiI3r17F9mabGHw7t07jh07hq2tLY0aNSrqy/kkCAkJISIigp49e+apYH5+xPcfPnzIlStXaNeuXZ7npIWeJ1C1AkbfNCItMBTxk5fIbkUia26jNuaE0je3BfX5bdDd/+KVhS0UzC+kUimvXr0iJSWlqC8FLy+vor6EfOXbb78lPDycVatW4ebmphIdHj16VOU8/OTJE37//XfmzJlTKM+TUdsvEFCkpomC7qoVHC6tZMpDuCcGEYhEAq1tC++5Pn78eLb7ExMTdW6zTZs2GmPrSuLj4zVuT0lJUa2ZTJgwIdN+e3t7fH192b17t05zxDlz5lClSpUs9z979ixLh9z8wMrKKsec4rzkNOREcc5FEFcsh8SmOrJ7TxCHPEKalIJgbJwvBQKK32qMHj169OjR84mjtQh4BqxY8Q65HHx2PwUEpk77v0K8Uj16FDz2Okeosw8ihfUv5X5oTuXpHfXi3wKkTJkyDB8+nOHDh/Py5Uv8/PzYtWsXly5dUh3z5MkT1q5dy9q1a/nss8/o1q0b3333HT179iyQiYtMJmPmzJl07tyZgQMHEhYWxtGjR/n2229LvAA4PcrFh1tRShEWxcYFbfTo0dnuNzY2zlOguKCpX78+ly9f1vp4GxsbbGxsCvCK1BEEgd27d+Pu7k6fPn24d+8eU6ZMwdXVtVgGzo3sbZGevQmI4FYk8nrVkcvlRX1ZRUb6BRKZTEZyqpyzIQYgyClrJqZj86INAL969YqnT58iFoupVq2azgnsgYGB7Nu3jzFjxmjcn5KSwsqVKxk6dGieBMCurq4MGDAgRwHwqVOn8PHxoUuXLhoTadzd3XOsBJgXAgIC8PHxoUOHDnkqBhAYGIi/v3+hBfYATPq3IfH8LUQiEfJj/yJrXl+tum9pGz9pKsJx+6GMmFcSQE6rxoZUqVD49r9yuZzNmzfz/fffZykAvn37Ns7Ozri5udGhQwfV9gcPHhATE5Nl2/b29mpzwPv37/P777/j5uaWawFwVFQUrq6uLF26NFcC4NevXxMeHk79+vU1LroDbNq0Cch78mV+taMtIiMJJr1bkeJ3BlFyKrIzN5H1bFWqnRPS37dcLic5Vc6DpxLECHxZW4K5aen5LgqD1NRUWrdunWn71q1b2bp1q8Zzunbtqvbz+fPnMwUT4+PjKV++fJbPLIClpSXlypXj9evXatsrV67MzJkzs73u2rVrZ7tfV5KTk1m0aBEXL17EwcEBb29vxo0bx5o1a3Ld9+UVQ/svkN2IULyDQqKQV6lQaqvta0rujk+UceWeYjxtVUFMy4ZFMy9+8eIFmzdvxsLCQqMA+MqVK6xZs4YmTZpkEgCHh4cTHR2t0+fVqFEj15W/M7J8+XKOHz/OmTNnkMlkrFy5kjFjxuRaABwcHMzixYvx8vIq9gLgQ4cO4e/vT/fu3XO9ZlRU92vS3573IVGKddCjV5DV/Vw/Xke9QMDFUDmv3xkgFkGn5kaYGpeu70QXLly4gLOzM15eXjRp0oStW7fSpEmTYiEA3rp1K6dOncLT01Mnge7Tp0+ZOHEi06dPZ+jQoart4eHhDBs2jKVLl9KlSxdu3bqlWlP7FAXAcXFx9O7dm19//ZUBAwZw8eJFtm7dSt++fbVKZI6JiUEikWSboJXfzJ07lxMnTqitzyYnJ3Px4sUcz23UqBFVq1bl7t27bN68mZYtWxaaABjApJ8970MfKpzHj/2LrE61Up1MmVXfnJgsQSTI6dLSuFj1zWfPnmX58uWsWrWKBg0asHPnTqRSqUYBsNLJJzw8nCpVqlCvXr1Mzipv375l2bJlODg4FIkAOCEhgRcvXvD5559n6/oCij5TKpUWqvtQdkRFRbFy5UqqVq2aowA4Li6O0NDQHNts06YNJiYm/PPPP5w4cSJHAfCrV6+4c+cOjRo1ytJ5pUjWjnq1ImXPGUhORX7uFrLuX5fqtSMl6QV3B4NAkCtyXQa1L5oCUTlx/PhxduzYwfHjxzXGLR4+fEhERITW7dWpU0fNWUxbdu7cydatW7N0ZMuPeA4ohH07duzAyMioWMYx9eiOUfeWiEyN4UMyBv/cQpaahtzQUO8il2HN6lgwgAhBkNO/hBeALmjGjh2LhYUFGzdu5Pbt26xZswZ7e/tCFUIEBwfrLLD54osvqFixYq4+79WrV7i6uuLg4KCTAPjhw4cYGRnluFadnJxMTEwMVapUyZeC9UXB8+fPSUhIyDSWTk5OJi4uDktLS7V7O3HiBD4+PnTq1ClPAuD8iO/fvn0bV1dXatSokec5aVHkCRj3s0d6KVThvHIsGHnTeqV63REy9/G3H4oAEWKRwDeNCycmcenSJSZPnpztMTt27FCZSWSkYcOGeHt7F8CV6cnIyJEjOXfuHIGBgQwaNIjGjRsTGRlJeHg4lpaWLFy4kAULFnDgwAFq1qzJyJEjC/yaJF/8H+KyZggJiYhvP1J7pkvjulXGNat3H+Q8fK4w4GlWv+gNeIqK2rVrc/jw4WwLGdesWZPZs2fr1G6TJk2ynbM+fPhQp/YKgrzkNOhC8cxFsEV+/wmCXA43I5G3/TJfzH30AmA9evTo0aOnCNBGBNy8Ocz4KAIW5CJ8dj9FBDjpRcB6CpHHW89x29kHMYAAZYc01Yt/CxlLS0smTZrEpEmTePToEbt27WL37t1qgfe3b9/i5+eHn58fEomEtm3b8t1339GvXz+sra21+hxBEDh06BCXL18mLS2NNm3a0KtXrxIl7l25ciVTpkzJVbXIjAnPEbEf+2pBoEld/bTpU+bt27dcunSJHTt2EB4eznfffcevv/5KfHw8zs7OTJw4kTZt2vDDDz9gZ2dXpFXD0yOxqwOij4sB4bGZFhFLYj+c22c44wKiXC7n5DU5yakKB9FerY0wKHz9IM+fP8fHx4f9+/dnCmyWK1eOAQMGMHjwYI3OoZGRkTx+/Fj1s1JMeO7cOdX3I5FINDqCZ4ebmxv3799n8+bNOp0XFBSktjgdGxsLwL///qsWoKtRo0au3CPatm1LUlJStseMGTMGBweHbI9Zs2YNf/75Z5b7u3TpwtKlS3W+vvzE9PsOJE71QBAExAHXkP82tMQnrc6dO5evv/6aXr165er8jA7AR6+AgIAY6GNfOH3umzdvuHnzpupnZUGFmJgYtYqVlpaW2NraZtvW/v372bNnT5b7z5w5k6vA9k8//YSdnR1OTk46n5sT169fZ9asWaxfv55vvvlG6/Pu3LnDiBEjcjxu48aNRZqEZtLPnpQ9ZxAEEB0LRtatRYkPqI8ePRpHR0edkwQziu4FQSD86cdtoB/3FgASiYRFixblqQ1NSTWDBw9myZIlTJ48mYEDB9KoUSNV0DA+Pp7Q0FB8fX159uwZv/zyS54+Py/ExsZy4sQJ/vzzTxITE5k9ezYDBw6kefPmzJ49m/79+9O3b1/69etHvXr1NDrjFBSSpnUV72NAeBCD0LFZie8b8jInhv/6BplMxpHLAjK5gAgR/dsVjzmQrhw4cAAfHx+dzhk+fHiO79r4+HiuXr2a5f4yZcrQqlUrrT/z1atXeHp6cu3aNeLi4rC2tsbe3p6ffvopR1GJNrx7947169dz/vx5UlJSaNmyJc7OzhrnIVnx6NEjoqKistxftmxZmjdvrlVbBX2/ecWknz0fFnqDAOKAq8gmfVfix+vTp0+nZ8+e/O9//8vV+ZmTrRVrv4Ig0K+QxutKAgMDc5w7ZsTOzi7T3/uZM2dwdnbWug1NiXx9+/bNtsiALkXwbt++zahRo7Q+3tbWNsukQ22Jiori/v37vHv3LkeB7rVr11SuJU+fPlWdn75YZV5FvsXpd5ue4OBgtmzZwowZM/JVaDhy5EiqV6+e599jevbt24eZmRndu3fX+pyEhARmzZqV43EuLi65nvPnB8b97fmw5E8EZd/s0KvEj9sKom9WzOpE9LUvXs7sKSkpPH/+HKlUmu1x4eHhuLi4cPfuXdW2smXLMn369Hz5+5PJZOzevZv9+/fz4sULbGxscHJyynGdJyP//POPqkhJkyZNsj12wYIFPHv2DH9//0z77t27p1OxGm3GmC4uLoSGhvLXX39p3W5WXL9+nblz5+Z43KFDh6hatarW7YaEhODs7KwSIBUXjPvZk/LXWRAERMeCkXctvWtHSjLGTQOCFa5NCAJ9C0lw9+7dO7XxRlbY2tpqldB76tQpPDw8tP58R0dHncZoeSUpKSnHQjF79+7NlSg5PRcuXMDT05OoqCisrKz46aef6Nmzp9bnu7m54evry+rVqzVe7/Xr13F0dEQqlbJ8+XI6dOiAt7c3a9euZd26dRoL5WVFbs/LDQkJCSxZsoRLly4hEokYOXIkAwcOVG2rW7cu27ZtK9BrEBlJMO7xNSn7zsK7DwjnQpB1+arEFyTIzxyO+EQZgXcMAIGqFQz4uhAL1mlbHCM95cqVo0WLFpm2Dxs2jPv372vdTsb35rFjx7J9T2sTU03P5MmTtepvlegSS1q1apVO9wqZ79fd3T3buVPHjh11covTxMSJE7Uqbh0aGsqECRNYtGiRxrlXUFAQ79+/1/pzP//8cxo0aKD18fmxzrdy5UrOnz9PYGCg2vac7i0j/v7+2boK/vDDD0ydOlWr68lpDXfHjh05jttLQp6A8cC2JM7wRIQIcUAwslnfl/h1x7zkCWgqFB71TAIINLCWFJpQsF69enmK42Un6NOTv5iYmODp6YmXlxcnT57kn3/+wdLSkqFDhzJmzBgsLCzw8PBg5syZWRZ5LwgkzeohPXMD0fN45MmpyD+6fELJHLsNGzaMOXPm6FRIAzTnITyI+di/ifR5CKW1ryjonIbinItg2LQeycIxRS5CRCzyNrZ6B2A9evTo0aOnJKOLCNhtRQKCTCECRgCn6XoRsJ6C59HW84RO90WECAGBz4Y0pcrMTnrxbxFibW3Nb7/9xm+//UZkZCR///03Bw8eJDAwEJlMBoBUKuX06dOcPn2aqVOn0rhxY7777ju+++47vv766yx/P3///TcnTpzAzs6O1NRUjh49iiAI9O3btzBvMU84Ozuzbds21q9fn6vEmfQTrIhYhfhIJIJ61T/taVN0dHSObp9KNLmPZUfv3r21Oq558+Z4enpq3W5+sXTpUv7++29AkTSYPphkaWnJ1q1b+euvv9i1axcTJ07E0NCQJUuW5DoxKz+R1PschI/jicjYT6KCoPIZ3rJli86B/KyqP4NAv7aFn0QeHh7O2LFjMTExYdSoUbRp04aqVasiCAJPnz7l3Llz/PXXX+zfvx8vL69MCRtHjx7VGMhMX+3P3NxcTZioDXFxcTx69Ejn+5kyZYrqPZOeX3/9Ve1nBweHLF2Ks8PFxUXVvkwmY+7cuTRt2pRBgwapjtHGibB79+5ZLkL/9ttvOl9XQSCuWgFJ07rIrz+Au0+QRcUhq19DLaEMKFHjqSdPnrB48WJ69erFxo0bqVGjhs5tpH9+A66KUaatfv9t4Ty/Dx480JgkfvHiRTU3pA4dOuDm5pZtWzNnztTorJk+8Hz9+nXevn0LKJL9tSEqKkqnhMrC4PPPP1cLlj948IDt27czYMAANRFQfjkp5hbj71qBoQRRWhqigGDkMpnq760wF/jzk2vXrtGiRQscHBxYunSpzgGj9O/NcIWGAxEi6lYv3OI/rq6uOR5z6tSpQriS3GNhYUH9+vWzLJwkFot1EmFoS79+/ahYsSI+Pj7MmDFDVbhAiUQioWXLlri7uxeJAF8ulzNkyBAiIyMxMDDg22+/Zfz48ar3eZMmTfDz82Pbtm34+/uzd+9ezM3N8fPzKzQnPIM6VflY8wlR5LNM7+KSSH6OpwOuKirtg5x+heimkpUIztXVVa3PGD9+POPHj8+2renTpzN9+nS1bUFBQSpXB21EG5qIiIjIVixVq1Yt9u7dq1Vbjx49YuTIkchkMnr06EHVqlWJiIhgx44dnDhxAm9v7zy5ichkMpycnAgJCaFHjx4IgsDRo0d5/Pgxf/zxh9bJtydPnsw2Ub5169ZaCYAL+n7zA4ldbcTWVRAexSG+cg/pi3jkn1cu0QW3IiIi6NixI0OGDGH16tW5ckjJOF4XBAEDMfRtW7giM1dXV52dvTUJjBo1aqR10ue6des0bnd2dubDhw+AYl315s2bLFiwQLU/N+PM3r17a5VEnVe3JqlUyvXr1wGFk3pO67/z589XFQJT8vfff6vW1EDxPeeF4vS7Tc/r16+5evWqzo5VOZGcnKwSVecX3t7eWFpa6jT2rFy5MsHBwaqfHz58yMCBAwtd8JQTkqZ1EVtXQf7oGeIr95DFJyKvbFTq++b0zpyHL4sBEQZiOd+1Kbyxm4eHB1u3btW4z9PTU+sCIS9evGD8+PGYmZmxatUqmjVrRkxMDB4eHri4uGBgYJDpb/vBgwecOHECgP/97385jms2btzIzp07admyJa1bt+bw4cM4ODjg4+OTq4KGeeXAgQPZFpDLiDZjzPj4eF68eJHXSwMU66zpv/O9e/eybNkytm/fzhdffJHrdpVz15wE4YWNcY+WYCiBtDTER/9F5jYOuaFhqV07St+/ZTWHGAAAIABJREFUymQy3ifJuHjHAAQBq4oGtGpUOIK72NhYrdb1XVxctBIAjxkzRqv4hfJ9qO18KSoqSi3uovx3YGCgmstRu3btsv17MjQ0zHIcc+rUqXxZI7t48SJOTk7UqlWLgQMHcu7cOebPn4+xsTGdOnXKc/t3797FycmJtLQ0lixZQocOHfLcZmHh4eHBqVOnqFGjBtbW1lhbW6tta9iwYaFch3G/NqTsPasounT0CvJOJb9gXW5zODQVgD4eLCCTKb6HvvZGFObXoW1xjPRkVXBo8uTJvHv3Lsfzw8LCNAoamzRpouov3r59y/Lly+nWrRvt2rUDtIupZsTMzIw5c+ZodWy9evW0bnf37t2ZtikFvWXKlOHYsWOYmZll20bnzp01xplevXrFmjVrcu0WXBCsXr1aJ7f5AQMGZIq3Z0V+rfPlF1999ZXG91ZkZCReXl5ai5J79OiRZXz/6tWrGovpaKIk5AkY1LLC0K420psRiEMfI3v6CnmtqqUyT0CT+PfJC4FUKYgRUada4cUrdV1L0Zbff/+d33//PcfjTE1NOX/+fK4+o0ePHlodl5sCTO7u7ri7u+fmsgoUc3NznJycsizkWrNmTXbv3l2o8ziDutVIO3MDEcC9aIQWDfLF5bOoCAwMxM7OjqlTpzJnzpxczyWVBjyKHVD38+JlQiSRSOjSpYvW5kpAjgWbCpuBAwcWaPtXrlzJc05xQeU0lIRcBHGdqqpiuqLIONVzkddchE87k12PHj169Ogp5mgrAnaeIbByRQJyGfjujsHYWISDY61CvFI9pY1H284TMt0H8Ud3yc+GNKXKDL3zb3Gidu3aODs74+zszJs3bzh8+DAHDx7k+PHjasGC0NBQQkND+f3337GwsODrr7+mVatWfPPNN6pq4e/evePUqVP873//Y/DgwQBs3bqVkydP0qlTpyJPvtSFsLAwOnbsyPfff8/atWu1TpzJuAARFSdCpLBXpV4hCyHyA7FYTMeOHbGxscn2uHHjxjFgwACt29XkPqaJrIIwWVGhQgWtj82Khg0bkpycrNM5vXr1omHDhjRt2lRjxWwDAwOGDBnCoEGDCAkJ4caNG0XqYJgeg4Y1USgW5Igi4jI5AJdUwsLCsLe3Z9SoUaxYsUKngF36hJQbkWJAwMhQRLeWhZuQnJaWhqOjI5aWlmzZsoXy5cur7bexscHGxoa+ffsyduxYJk+ejL+/v5pwyNHRUSVMAEWy7ZEjR3LtHJpX0jsXSaVS4uLiSExMpFq1avlSpbBjx46qfysTfsViMV26dNGpHeV3q4niEtgDMOnflvfXHiAGuPoAoV71Ev/sAhw+fJjTp08zb948pk2bplWgOeP7NzVNTuhjRTLZl7Ul1KhcOO/gli1bqiU9JyQkEB0dTdmyZalatarqXl68eKFKtNK10nt6NmzYwI0bN/J20flIfHw8gEqUrC3lypVTe06Vjl0VK1bU+fktSESmxhh3aU7q4SDErxORPX6OvF4NtaAblKyAOiiCGhs2bGDfvn2sWrWKoUOHanVexqB6VNzH7QjU/fzTDxe0aNEiX8aeSnr16qVW2VzpZFkYgeV27drRrl073r9/z4sXL3jz5g0ikYjy5ctTuXJlnQr35ETz5s0zBeSyQywWM2bMGMRiMc2aNdM4pvvss8+YOnUqEyZM4Nq1a0RHRxdawA1AUvdzhYscIIp4mikYX1LJ7Xg6fTKlXC7nZpRiPF3WTEw7u8IbT1evXl0tcezevXvs3LmTTp06qSWJ5qa4REJCAh4eHlhZWZGamoq7uztr1qzReXzdvHlztXFD165dadKkSa6cRubPn49YLObPP/9UE57079+fn3/+mTVr1midfKmJmzdvcvPmTTVnY1NTU/bu3UtISAhNmzbVqp2sEuUFQaBDhw5aJdtDwd9vfmEyoC1JKz86592MRF7VssQ7LgH4+vpy7NgxFi9ezMSJE3N8V2UcqwuCwIt4GdEvJYhE0PYLCRXKFq4gRpn0GRsbS+/evTMVA4iPj6dTp06MGjVKbU6dkcqVK2s9Xs3KZSh90tzZs2cRBIGOHTtmWRREGxo2bFgo4+jVq1fz7NkzatWqhbu7O3Z2dvzf/2VddPbQoUM5tqmro1NGitPvtqCJjo4mOTmZJ0+ekJKSgrFx4TppZ8fLly/V/l+cMO5nT9LqvSATEK4+UHPnhNLZNyv/ex4v5/lbCSIE2tkZFWrfrCkOcPXqVfbt26fTvGvDhg0kJyezbds21Tq9jY0Nq1atYsyYMbi6utK5c2e1taaTJ09y8uRJgBzXTKVSKbt376Zhw4YqVzc7Ozt+/fVXAgICGDt2rNbXml9kVUBOEyNHjtTJSa4gUPYLr169ylM7Sif59EUfbty4wfPnz1U/JyQkFLozjqicGUadm5F25DKi14nIo18ir/N5qVw70iS4ux4hkCZVhKT6tCk8wV39+vU1FqpwcnJi+PDhBfa5qampgPYx0YCAAI3FEDK6IgYGBmJklPX8WpmAromHDx/miwDY29sbQ0NDvLy8sLCwYPjw4XTv3p29e/fmWQD88OFDHB0d+fDhAy4uLnTu3Fm1b9CgQXTv3j3PhWwKknv37mFgYMDu3btVa2q7du3KtK2gMe7VCpHEAEEqRXwj6pMoWAd5z+FQ9kc3IkWKzgihUAvWgXpxDBcXFw4fPqzWR4GisNGePXtyfN61dc81MjLSKACuWrWqqmCssuiAtbV1nuaTRkZGhTIfvXv3Lvv27aNRo0bcvXsXd3d3nJ2dsx0HZxX/Vc4jtV3fKgz8/Py0Oi45ORl7e3udxhb5tc6XE3PnztVK7F69enWNhXQ2bdoEwNq1a1m7dm2O7TRs2DDLIgvK3LfsniclJSVPwKifPdKbkYCAcOUe8ppVPol+Pjd5ApDZqAMU8cqSmKenJGOMIydys5bYsWNHjTluWZFT7mB6ypcvr1Oso3HjxlodZ2xsTJcuXQqlcHhhF3EyqFNNOTyBiFjkzeuX6KJ1oFhHWbFiBd7e3jrlIShR3nvkxzwERBS759rExETtWVUW9dZU6CS7IhOayG6tXVsaN25MWlqaxn329vZUrlxZ67bq16+v8+fPmjVLpwKW2c2fCyKnoeTkIgiK3MDI2HwR/4JeAKxHjx49evQUOdqKgKfPgFUrEpDLRPyxXREU04uA9RQED7ed5/Z0X1X1GYshTbHSi3+LNeXLl2fEiBGMGDGCtLQ0Tp8+zcGDBzl06BCPHz9WHRcfH8/x48c5fvw4oOh//vnnH/79919kMplaIK5r165cuXIlk1tOSWHPnj0EBASwcOFCJk2alO3iYvqJlUoI8cwAQRCoUl6MuWnJ+9uWSCRaLchpW6VLV+rWrUvdunULpO2sGDZsGMOGDdPpnC+//JIvv/wyx+MMDAxo0qRJrtyhCgqRsSHiyhbw7A3iBzHIMoh/S+oiIiiuffv27Rw8eJBly5YxevTobBdoNSUlx71RuF7Y/p8YU+PC/R5CQ0N5+fIlzs7OmcS/6alUqRLjxo3DxcWF+/fvZ1s9XFkp+P79+zRr1gyAO3fuqBKmlKK7nEhLS8tygTAnZDIZmzdvxtfXVy3hrFmzZkybNo0GDRqoHf/y5UuOHTsGKCrraetcqnRDDQsLIzExEXNzcxITE0tUpficMPyqvmqcxdNXqsSFkhwAUPL+/XtmzZrFzp07c3QfzChCFASB2NeCQowlEvGVTeEvWz5//pxly5Zx7tw51TYLCwvGjx/P999/T2hoaLaOfwAxMTHExcVl2v7s2TPVv728vFT/PnPmjEb34YxIpdJcP7858fDhQ0BRlVvJrFmzMiWV5RQYUD6/V65cUSXra7q/3AQY8oqkeX3SjgSBAMLTVwh1Pw3hPSjc3YcNG4aXlxebN2/WKnCqHlBX9Dkiil/l3YJg3rx5Bdp+jx49tK64nV+UKVOGMmXK6BTs15WsKmlnR9euXbU6zszMTOfK4/mBuGoFxGbGCB+SEUc9Q/aJJFRC7sbTyv8rCurIiXuteA+3aCDBoBBzJSwsLNSSDZXvVLlcnuskREEQuHjxIitXruT58+d4enqSkpKicjecNm0a33zzTa7HYMqxnK4kJCSoHI8zJss1bdoUe3t7AgMDc3VNSpRCivQCnM8//xwgX0Qkjx494v3791ol7hbG/eYXkq/q87EmHELMq0wFt0ryeP3t27dMnjyZ7du3s2XLFtX8MjvSz7djXv7XX7RoUDjObyWBx48fI5VKiY6OxtramtatW6uEI8WJ1NRUNm7ciJ+fHyNGjGDYsGEMHTqUSZMm4ebmlm0SU1paGr6+vhw8eJDY2FjKly/P119/zYQJE6hUqZLquJCQEAwMDLhz505h3FKBo+zf83N8oHTwTE5O5siRI/Tv3z9f2lU+p3lB09xQE0FBQcTGxlKmTBmVy1hBI/nKRrWWIjx9lUkEq++bAQp/LUVTHCAsLAxQCBQiIyMJCQnJsZ3r16/TrFmzTHMasVhM3759WbRoEeHh4Wrrjw4ODlo5eYIiNpaWlpavYyJtRcP54S6clpamlRAxNTW1wN4/yv4hIiIiy3VauVyuWg+uUaMGtra2mY5RFoy4ceOGSsDp4+OTaQ2qsAXAAIbN65N29LJi7SjmJULtap/MHDE3a0fwX1/z9JWgcLMSoIXNpz8GTEhIALT/O3RwcMDBwUH1s9Id/fjx48XKlRIUc0RDQ0PVvVWsWBETExM+fPiQp3ZjY2OZOHEi8fHxzJkzh549e6rtNzExwcTEJE+fUdCkpqZibm6ulnyuaVtBIypnhoFNdeShjyD2dab4UUlHlxwOJenHPU8/1qEQIeKrUtAfacOTJ0+A/97VO3bsUHNsLC7FzRMTE/H392fTpk1YWVmxceNG/P39WbNmDY8fP2bixIk6CWtAUYDB3Nxca0F1TujicpdXpFIpgE6uvfm5zpeamprlvQ4aNEhNTHz48GGt1+ykUimnTp2iWrVqTJkyRW3foUOHuHDhgk7XqXw/lSTTipww/MoGEEAkQoh5+UmtO+qSJwCZC8+onEIRleh4ZcYYR0FQp06dAhPSmpiYqBXwzy/Mzc11EkaXJCR1FHNHEUCGgsMlnbzkIcjlciI/5iEgQJ1i/lxLJBIWLVqkcV92RSYKiiFDhjBkyBCN+2rVqlWgeQEA7du3z/c28zunobjnIhjUqoLI0AAhTYr4owNwfpj76AXAevTo0aNHTzFAJxGw61vkcvhj+xNEwM96EbCefOThtvOETPdFhAhBkFN+SBO9+LeEYWhoSJcuXejSpQvu7u7cvHmTgwcPcvDgQa5evZpJ7CqTyXjy5AlVqlRRWyiuXr065ubmVKtWjXbt2iEIgsbqxcWZhIQEnJyc2Lx5M+vXr1dzC1KiSfwrCAIvE0QggioV9H/beoov4moVkT17jSgxGSElDeFj8PxTEAGDwk1g3LhxeHh4ZJn8pklA+D5ZTsIHA0QIVK1Q+AuI4eHhAFotWCmPCQ8Pz1IA/PjxYx48eAAoAuPK72Hfvn2qysbaEhMTQ0JCgkpYqwvu7u54e3vz888/06dPH8qWLcudO3dYvnw5jo6O+Pn5qSWzREZGqqoDL126VCsBsCAI/PHHH9SrV49Hjx7h5eWFk5MTJiYmagutR44cISgoSKfrL06IrSr8V+XvYwLHpxQEgP/cB3/66SdcXV1zTHT6L3njY3I1AlZF8PxOmzaN169fq1yw3r17x+7du3F1dVUF65QV3bMS7u7fvz/fnaRev35NcnKySvSfn8hkMs6fPw/A8ePHGT9+PBKJhCFDhqgldG7YsCHbdl68eMHRo0extbXlxo0bXLhwAXt7exo2bKj2/ObUTkFhYFUBQVCIXHn6+pMKqCv5559/aNy4MbNnz+bXX3/N0kkss1uU6ON2sKpQuBWR9egpUkQiRFXKQ1QsPI/PFHD7FPqG3Iyn5XI5cW8EBECEUKT9glQq5ciRI0gkEi5evMjjx4+pWbOm1ueeOHGCsLAwLly4QHR0NI0aNWL16tWqMbi3tzfz58/nl19+wdramjZt2tCoUSM6d+6sddV9mUzG27dvefPmjc73p3RPs7S01Li/UqVKXLx4EblcribgVopNatWqpRKRZUXTpk2RSCTs2bOH/v37IxaLOXz4MBYWFvlS4EpZ/EObuU9h3G9+IbaqoMjDA4h99cmN1QGuXbtGixYtcHBwYOnSpdmKG9QL9ii2iUQirMqX3D7y0qVLTJ48WevjsyvYFR0dzd27dwFFMqujoyMLFy5ELpcTFham0a0pK1xdXXF1dc3xuDlz5tC3b1+t201KSuLs2bN4eHgQExPD8OHDcXR0xMDAgE2bNuHs7MyPP/5I7969GTFiBLVr187UxsqVKzl48CBjxozhyy+/5OnTp3h5eXHjxg21e/Tx8cHHx0fra8tv8vN3C4q5GOTd8VJJUFAQu3btYujQocTExLBq1SqaNm2aZ1cIuVzOixcvVEnkueXIkSMABAcH8/Dhwyz7d2VRq1q1ahWaAFhsVf6/OV26tZRPidz0zXK5XNU3U8RjNyXKPjGj82V2qArlaUC5PS8OPpaWltSqVYtLly4RGhpK48aN2bNnD0Cuiw6OHz8+xzHQli1b8qWYW1pamlbis+joaFJTU3nx4gWVKlUiOjqae/fuqfbntjhDfHy8SvRx4MABRo4cqTGXQRAE1XrwgAEDMgmA4+Li+H//7/9haWnJmTNnCAsLo1GjRpmK2epa6DW/UI4BAeRPP60iMEpys3akFNwJKEw3i7KfURZCzatYNSeUbprazj8zonRJ0sUtqbBo0aIF+/btw8fHhx9++IHDhw+TlJTEt99+m+s2X758iYODA8+fP2fmzJkax6ne3t6sXbuWdevWqYmBTp06hY+PD/fv38fY2BhbW1scHByyLSAZGRnJmDFjEIlEbN68OceC1EePHsXPz48HDx4gkUiwtbVl9OjRKuFbxnX+r776SlWYNv22r776SuVqWdCIrSoiC32I6GUCQmoagrGx2voNlDxH8vSkz+HQppCs+pqVYrvEACzMS+53MGrUKNWaSl45efIkAGfPnuXt27e0b9+eatWqAbBu3Tqt24mPj9dK/Fq5cmWOHj2qVZsvXrwgICCA0NBQLl68SGpqKn369MHJyQkzMzOGDx9O7dq1+f333/nxxx9p2LAhzZs356uvvspRpOHn50dwcDDjxo3TGPP28PDAw8MDQOuCDHXq1MmxwExkZKRakd/cohwjaus2D/m7zieRSFi9erXatgcPHrBu3Tq+/PJLNfFiSEiI1gLgtWvXEhUVxfLlyzMJCG/cuJHj+ePHj6d27drMnj0bgKdPnyIWizO5HF65coX4+HjKli1bJIKevCC2Ko+q8mCGQg+fCrrkCaR/vz1TLbELVC0Gc1s9erRFXLUCIj5aAD/LHG/8FMh1HsLbj+M1EfrnWk/pQ2KAqEI5ePYanr9Fnk+5CHoBsB49evTo0VNM0EYE3Kw5TJsJq13fIpcpRMAIAj9PzltygB49AA+3XeDWdD/VhNRCL/79JLCzs8POzo65c+fy9u1bAgMDCQoKIigoiCtXrgCKCvMWFhaZzrWwsKBMmTK0aNECmUxW4gTASsLCwujYsSPff/89a9eu1ehMk37x4d0H5QKMQDkz/eKDnuKLyNxU0QcLAsL7JIRy5p/UAqISZfLbzz//zMKFC7MMEGhyvahSBAuIyqSQq1ev5ph4cPXqVbVzMiIIAqtWraJs2bIMGzZMVQ25b9++zJkzhzlz5gBo5ZArl8uJiYkBFAksjRs31uW2OHbsGO3bt1dzt2jatCkuLi4MHz6coKAgtaruLVu2ZOPGjTp9xp9//sn9+/dZuXIlV69eZffu3dSvX58ePXrQvXt31XFhYWEaBcBRUVGq5JzijNiqPB8fXYh9nWmB71NBEAS2bdvGgQMHcHV15aeffso0bswYAPivejtYFXIRjidPnnD37l3mzJlDq1atADA1NcXJyYmLFy9y4sQJnar1njx5UuP4ChTJ1G/fvgUUruE58fjxY0Dx7OZ3wuHRo0eJjo7G0dERd3d3fHx8GDFihFp1b1AkaWWFTCZj2bJlCIKAm5sbTk5OuLi44OHhQb169dSe3+zaKUiUzx0anrtPiZSUFBYsWMCff/7J5s2bNRbAUaIqnPExF1EkElHWTD+301O6EJczQwqIktM0vo8/lSRvXcbT6d/HICrS5G5PT08iIiJYvXo1ixYtYu7cuaxbt47PPvssx3MlEgm7d+8mJSWFZs2aMW/ePJUAevDgwZiamrJjxw527dpFcHCwyskiLCyMbt26aX2Nr1+/Vomu4D+nJyXZFd2pUaMGEokky7HA7du3qVWrViaxy9ixY7G2tqZMmTI5Xl+VKlX48ccf2bZtG87Ozrx8+ZK4uDhWrVqVL84ZAQEBmJiYqMZO2VEY95tfiK0qoMzXEcXFf5IFe0AxR9ywYQP79u1j1apVDBkyRON4Xfn/9G5LgiBgVbF4V+zXhlGjRmmVJJvd87J9+3YqVKhA9+7d2bNnDz179qRTp04AGBkZ6SQA7tOnT47uKJCzaDU9Li4uBAQEIJVKVUla6d2R6tati7e3N9u2beOvv/7i0KFDVK5cGVdXV5VwKy0tjQMHDjB69Gi1ZOg6deowatQorl69qnIBXrp0KV26dMHf318n8V9+kx+/W4Bnz54BCtFaUlISbdu2zfU13b59mzlz5lC5cmUmTJhAQkICQ4YMwdnZmbVr1+bJJTQuLo7U1FSePXtGUlJSrlzqTp8+TUhICA4ODvzxxx+4ubmxZs0ajbFKLy+vfCkkoQvp++b0c7rS3jcXp7EbKJ6ZGzduqP62AU6cOMFvv/2W7XlNmzYlICAgk/BcLpfj7+9PuXLlMhUnSC/qOHPmTI7Ps7OzM46OjsycOZN69epx4cIFJk2ahJ2dXS7uVLH2mdNzsG/fPlU/khfS0tIoW7ZsjsfExcUBCgfASpUqERgYqFVhiZzw8vIiKSmJ6dOns3LlSrZv3864ceMyHWdgYMDly5c1tiGVSlm+fDkikYgtW7YwYcIEfvvtNzZs2KByritqxFbl040B33ySfQxov3aUvp+Ne/Ofa1NRxFyUKN0tlf8v6M+xtrbO1flKN87Hjx+rRHgXL14kOTkZ+E/InBFBEDh79my215RXxo0bx6lTp1i/fj0REREcOnSItm3bqhy5dSUhIQFHR0eio6NxcnLi+++/1/rcbdu2sXHjRiwtLenWrRuCIHDs2DGuXr3K9u3bNbqLxcXF4ejoiEwmw8PDI8cY3OrVq9m1axeWlpb06NGD5ORkzp8/j4ODAwsWLKBHjx7Uq1ePGTNm4O3tTXx8PJMnTyY5ORkTExO1bVWqVNH5+8ktirXsj/HfZ/EI5mU+yT5JKRAbOXIkv//+e6YcDk1FoGPfGAAC1SxL/nzUyspKJXLMiayccaOjozl+/DijR49m7969rF+/njlz5qgKDOlSrNbMzIz58+fneFxWgp+sjt27dy+1atVi7Nix9OzZM1NhuNatW3PgwAECAwM5ffo0ly9fxsLCIltR56VLl1i9ejUNGjRg9OjRGo/59ttvVc512q6BVaxYMcc44NWrV/NVAKyLA3B+rvOJxeJMzslGRkaAIm6p/Df8917Lid27d+Pj40OnTp1o2bIlp06dUtuvTTuPHj3CzMxM7ZzKlStn+p6Uscb69eur/lZKTp5ABZRVZz7lMac2eQLpj1UU+lf8LEJE2TIlPy6jp/QgKvtfv8X75E/2uc5pLqnJhOd98n9zyXL651pPKURczkxh7vMhRWO/kJtcBL0AWI8ePXr06ClGaCsCnjoTVrvGI8jA+6MT8AS9CFhPHni47QI3p/shVop/Bzeh6oz/6cW/nxifffYZ3bt3V4kwBEHg2rVrvH//XmMCrampqSoYmRPjx4+ncuXK1K1blzp16lCnTh1q1qyZp6rs+c2ePXsICAhg4cKFTJo0KcsK5ekXFc1N9X/jeoov4nJmyJSLAx8XET9V5HI5GzduxM/Pj2XLlqmqeyvRJCAsKteLFi1a0KBBA9zd3alXr55GpzVQBCc9PT2xtbXVmGgmk8lYuHAhFy5cYO7cufTs2ZPr16+zePFiHj58yNixY3UK5l2+fFkVTDx58mSWAuB9+/axb98+QNG3jx8/HlD8DjS995X9fF7//vz8/Fi7di0dOnSgffv2fP3111y9epX58+fz6NEjRo4cqRbw00RAQECJKFYhrmyBgAgxglpg71N9hl+9esWYMWPYunUrW7ZsyZSooMlRTIBCdwBWJkgrhblKpFIp79+/x8zMTKukVW3YtGmTVpWulVy4cAGA5ORkLl68mGXiw2+//aa6Pk9PT5o3b55tu7dv38bV1ZWvvvqKUaNGqap7ly9fnl69eml1bampqSxcuJCzZ88yffp0LC0tWbJkCT/++CM///wz06ZNo0ePHkU+bxCndwBO5+T3qT53ERERdOzYkSFDhuDq6kqNGjUAzUlTH5I/9uMIlNMLgPWUNsqaofqrT0wCU9NPtl/IbjydUfxc1C5yiYmJrFmzBn9/f4YMGULbtm1ZunQpv/zyCz/++COzZ8+mVatWOb5bvL29tXr/KJ18QPcxbVhYGAAxMTG8ePGCzp07q5KU/f39Vfs1IZFI6NChA8ePH6dPnz5qLit///03d+/e5eeff850XqtWrXQSXXXs2JE///yT4OBgypcvz65du3KdyJ6ef//9l6CgIPr374+JiUmOxxfW/eYHBlblVe5vogwis0+xj4iLi2PYsGG4u7vnPF7/6MQhEomoUoIdgJU0bNgwT04xhw4d4sCBA8yePZtevXpx/Phxpk6dypo1a7Ryxs6IjY1NJoecvNK2bVuqV69Oq1atMjkxKilbtixTpkxh1KhRBAYGcuvWLWxsbFT709LSkEqlmdaPlQWPshKxFCV5/d1SAUhjAAAgAElEQVQqUc7brly5wpAhQ1i0aBEAb968YdWqVVq1IZVK+eOPP/D09KRSpUps2rQJc3NzzM3NcXd355dffmHYsGHMmDGD3r175+o6r1+/rvr35cuXdXY0DQ4OZu7cudSrV4+RI0dSoUIFlixZwowZM1i8eHGhFmHICoUz58ck6XQOwPq+OePYrWjFMN7e3kilUvr166fTeZMmTeLcuXMqgW6zZs2IjY1lw4YN3L59m8WLF2eK56QXdWgzFmnQoAF16tQhIiKCZ8+e4ebmlmv334IgNTWVlStX0qJFC1UhCSXv3r3Lcfx25swZ5HI5hoaGHD9+nBYtWvD999+rifEuXLiAk5OTTte1c+dOfH19GThwIEOHDiU0NBRPT09EIhGjR4/WKgaYmJjIvHnzOH/+PL/99hs1atRg5cqVTJgwgTFjxuDo6Ei3bt10EsAUBOkdgHlaeteOIHPRxtjX/7k2FWWhAaWjdWhoaLZJsl27dlX9Ozg4GHd3d51EcEqUfcTw4cN1enYiIiIAheu2sljSsmXLiI2NzfY8uVyu5kRbEFhYWNC6dWuOHj3KwYMH+eGHH5gyZUqu4vlJSUn88ssvhIeHIxaLc1yLTk90dDSbN2+mXr16eHh4qMaVvXv3ZvTo0WzZsoVly5apnRMfH8+kSZN4+/Yt7u7uORa5vXXrFrt27aJx48ZqxcQeP37M6NGjWbp0Kd988w2ff/45gwcP5tChQyQlJTF48GBVG5q2FQaKtWxBkbnz9BVC7WqfbH8kCAI7duzg77//Vsvh0FSkTy4XeB4PIMKqfPHJQcktZcqUydOc5f3790yfPp2KFSsyduxYKlSogJubG5aWlowfP17n59rIyCjf56PlypXjwIEDOR4nFouxt7fP8fuQSqV4enqyY8cO7OzscHNzy9JBt0GDBlrHuQqS8PBw/vrrLwYMGKDmbp6QkACQY5GXjBTUOl96fH198fX11fr4ly9fsnDhQgIDA+nQoQOLFy8mMjKSWbNm5flafvrpJ41rDuvXr88kYC4xeQLVKqKsFF4a1h21zRMA+JDyMV6BQFnTkt/P6yk9iMqZ/VdM6qPI71N+rtPPJVevXq2xiEtGAbBYDEaSkh9P0KNHV0TKXITkVIQ0KYJJ3vsGvQBYjx49evToKWboIgJe4xqP/KMIWCYTmOhUO9OxevTkRNS2C9xy3vNxHipQfrCdXvxbShCJRBgYGGBubq5x0fTDhw9UrlxZq7YCAgI0VjI3MTHBzMwMU1NTtf+y26ZNskZuSUhIwMnJic2bN7N+/Xq+/fZb1T7lxErpgiYIgt4FTU/xpowJylXE7Rs2kVClLAYGBhgYGKiCep9aX/3q1SvGjRvH9u3b2bJlCw0bNswkZlJVoy+iALBIJMLNzY3p06czfvx4WrVqxTfffEPVqlUVyTKxsZw7d45r167RqFEj3NzcMrVx+vRpPD09CQ8PZ9SoUfTp0weAFStWsGnTJvz8/Pj777/ZsGEDX3zxhVbXtWfPHqysrGjSpAn+/v5MmDBBY3/bpEkTVaGI9AGYrl274uPjw44dO+jVqxfm5ubcu3cPV1dXypUrp5XrlyaePHnCkiVLCA4OpmHDhsybNw9QvD82bNiAs7MzW7du5f79+6xevVqrNv39/fPknFPgiEQYWJVHHvuK9w+esHHFCiQSier5LWnjLG2FrIGBgdjZ2TFt2jTmz5+v5kiU8fkVFcHza2lpSefOndmyZQtyuRw7OzsSEhLYs2cPb968YeDAgVSuXJmlS5cCCsFPdm5eFy5coEyZMkilUlJSUoiPjycuLo5nz56xfPlylfvimTNnsk3sSk1Nxd/fn65du3Lr1i18fX2zTILo06eP6rnNLuCvdFNYsWIFpqamLFy4EIA5c+YQExODi4sLgYGBTJo0KVsXlqCgIJYtW0Z0dDR9+/Zl6NChqs/29PRk6tSpzJ8/nzdv3uTaRSK/SO8A/ODsZQ65vlQ9dyVxfqN09ckJX19fDh06xLx585g6dSoGBurJ4OkdgM1NSs7969GTX4g/K6NwAAY2rVpLymemamsfUDrG00oyi0gK/318/Phxli5dyocPHxg5ciSOjo6AQqTr6enJvHnzmDx5Ml27dmXJkiUa25DL5Zw+fTrLz0hMTCQ1NTWTC4USkUiUrYN6ev755x9q167N8+fPOXXqFEOGDFE5EF29ejVbATDAjBkzCAkJYdKkSXTv3h1ra2tu377N2bNnsbW1ZdSoUVpdR1b88ccfbNiwgXLlymFubs7r168JDQ3F2tpaVeAnN3/jMpmM9evXY2homKXTiiYK+n7zC5GFOSJjQ4SUVF6G3Gf7x/G6sn8oaeOGu3fvanWccrw+depUXFxcNI/XX//3c1G7TBYlqampbNiwgd27d1O/fn369u2LRCJh0aJFzJo1i2HDhrFt27aivkwAnRK4MxaPVGJmZkbLli3Zvn07tWvXxtbWlri4OJYvX07ZsmVp1qwZL1++zO9LL3Kio6MJDQ2lTZs2BAUFkZiYqPpuYmNjcxQAv3z5kp07d3L8+HFev35Nq1atmDNnjlpS3JdffsmWLVtwcXFhwYIFeHl50a1bN0aMGKFT0TcfHx9q166NVCrF29tba1FjfHw8O3bswM/Pj4oVK7Jq1SokEgn9+vXjzZs3eHh48N133zF16tQiT54XVyj7sW9O42XIA3bo+2aNa6FFWZzh0aNH7N+/nw4dOmh0bcwOS0tL1bMwbdo01fZy5cqxaNEiunXrlukcXUQdV65cYfbs2Xz48IFatWrx8OFDzp8/r3pWZDJZpvlyTgQHB/Pq1atsj3nz5o3W7clkMvbt24eRkZGaADgtLY23b9+q1pGyYs+ePVhbW9OmTRv27duHo6OjSlCXGyIjI9m4cSNnzpyhZcuWTJ8+HYB58+aRnJzMpk2bCAgIYNGiRdk60+/fv5+1a9fy4cMHpkyZQv/+/QFFoYY9e/awZs0aXFxcEIvF9OjRI9fXmx+kdxq/fzaIw64vSt3a0bRp09Sehf/6GcXPIqBqEY0Bk5OTOXz4MDY2Nty7d4+zZ89m+b5zdnZWe4927dpVTXSlK7oIq4KDg4mOjsba2pq9e/cyYsQIJBIJhw4dUh2TmJiY7bu6e/fuqqIj+UlcXBxTpkwhIiKCunXrEh4ezuXLl0lNTcXExETnvnDFihW8efOG1q1bExgYyNy5c9m1a5dW7qAnT55EKpUyfvx4tb7qyy+/ZPLkyZQvX17t+KSkJKZMmUJMTAyrV6+madOmOX7GkSNHAJg6dapaIZuaNWsyatQo1qxZw4kTJwpd3KsNYqvyiD52SIc37yT8gqWqP1L2RSWpP9KG9DkcW7ZsURP2Kfui5/ECMrnivq0qlt75KEBISAjz5s3jyZMnLFu2DCMjIwYOHMjNmzfx8vLi4cOHmUT0hc2lS5eYPHlyrs9v2bIlGzduBBSOgwEBAezevZuIiAh69erF//f//X9Zin9zy+vXr7NcL1QSGRmpU5txcXHs27ePb775Ru1dpJxD5zTGS09+rvPJ5XLOnDmjtk1ZwGLRokVq6wIrV67Ex8cnUxt37txh7969BAQEIAgCkyZNUr336tevT3BwsNrxWbWjEPjL1cQw7969Iz4+HhMTE5KSkvD398/R9V1JScgTEFUsBy8TSLj/CM9SnCeQ0S30vcqfRKR3CtVTohCVM1MVb3l85z57SviaVXx8vFbH+fr6cvToURYvXszEiRM13qNS2F+hbMm5fz168hPRZ2UQ+GhUkJQKutV+0YheAKxHjx49evQUQ3QSAS9/g1wOPt5PAIGJTroFVfWUbqK2XeDm9D2K4nJAhcF2VNOLf0sdFhYWmRJO5HI58fHxlClThn///TfXVYeSk5O1dhEuTMLCwujYsSODBg1izZo1VKpUCVAsKiYmfXQSEIkoq3cA1lOMEZc1Q0CxiPjXzj+5ybuivqRCQxkg+OWXX3B1dVXbF/ta2V8JRRYAtrKyYs2aNXTv3p2goCAuX76MIAiUKVOGKlWq8OHDBwBWrVqFpaVlpvNPnTpFYmIiS5cupUuXLqrtJiYmODk5MXjwYPbs2ZNtclV6QkJCuHDhAuPGjaNNmzYEBATg7u6uUXRYp04dBgwYkGn7lClTMDAwwMvLC3d3d9V2W1tb1q1bp/E+tMHY2Jg7d+7Qt29fpk+frpbIaGFhgaenJ4cOHcpTgk5xRFSlPKLYV5i+S2HVypV8enU/NSOVSnF1dcXHx4cNGzaoEvsyukkICFQpgmSyBQsW4Ovry5EjR9i6dSvm5uY0bNiQLVu2qNyylMnaRkZG2QqAXVxcAIXbnbGxMWXLlqVKlSpUrlxZ5catDb6+vsTHx9O/f39sbGxYt24dp0+fVitiouTrr79W6zOywsPDg23btmFtbc3atWtVBV9MTU3x9PRk9erVHDhwgCFDhmQrAE5OTubNmzc4OTllEvg2aNCAv/76Cx8fH52dfwoCcTVLlQNw4oPHuLntL+pLKjTev3/PrFmz2LFjB5s3b+brr79W268MvJnrx716SiEic1OVA7C3pxcPKX4OhgVFxvF01i5yhfs+trOzo3379gwdOpSGDRsSFRXFvHnz+PHHH+ncuTN79uzh1KlT1KxZM8s2pFKpVg4TWR1jYGDA5cuXczw/Pj6es2fP4uTkRGRkJH5+fvTr10+rZGclFStWxM/Pj02bNnH58mVOnTqFtbU1Dg4OjBw5Mk8uaPv372fdunXY2tqyatUqHj9+zM8//8zSpUuxsbHh1atXzJw5k7Fjx+pUqEMulzN//nzCwsJwdnbOVN09OwryfvMbkVUFeBSH4ct3rFy5sqgvp9CQSqWsWLECX19fNmzYQPfu3dUdwt/8VxyhKATAgwcPViWk8v+zd95hUVxdHH5nWbrSESzYEHshYIyFWGJPjNFEjSYxdmOLYq9RNMZeiLFhAwu2mEQTNcaST2M31kSJBQ1GVFQ6glJ25/tj3ZWFBXZh6fM+j4+w0+4Me8/ce+75nQOsW7eOdevWZdovKChIU+UtICAgy2pkhlSjCQoK0qqg+8cff1CvXj2NYBJUyQqCg4PZuHEjNWvW1Ft4o2bRokWZfBy6sLS05OTJkznud/78eeLi4gxqQ3qaNGmiEWR8/fXXzJ8/X6tSd40aNVi+fDkODg55FgAXpb+tmm3btuHq6sqCBQvo2rUra9euZcqUKXqf19LSkl9//ZUaNWowadKkTBU91Xh4eLBlyxZ++ukn9u7dy7Fjxxg6dKje1zlz5gw3b95k0qRJKJVKlixZwokTJzSVUbPj+vXrbNu2jTZt2jB9+nQtAc7AgQNp1KgRa9euzXZeWJAI5ezhwVPkz+Ik25zeNheBCsBq0Y6JiQkTJ07MVbXN6tWrs3nzZh48eEBoaCguLi7UqFHDoLGVLkJDQ/H19cXKyorAwEDKly/Pp59+yr59+/D09KR9+/Z06NCB5s2bGySUWbt2rV775VV88PDhQ4Bsx1ynTp3iypUrjBkzhlatWrFr1y6WLFnC3Llzc33dX375hbNnz9K/f3+GDRumedeZmZmxePFi9u3bx969e6lQoUK256lWrRqenp4MGTIkU7VOtY29efMmtWvXznVbjYWsopOmAvDz2/dLpe9o8+bNBAQEaCX7VAmAVbbFyVZGYYUI7Nu3j9jYWFatWsWsWbNYv349LVq00Cn+at++vZagysPDAw8PjwJp59atW6lUqRKzZs1i4MCB/Pjjj1qVuAuL5ORkhg0bxsOHD/nqq680CT5OnTrFggUL8PPzY9iwYcTGxhIYGKhXIpKYmBj69u3LmDFjmDBhAsePH2flypWahAHZcefOHQCdY7B+/fpl+mzx4sVERkbi4OCgd1LcO3fuIJfLdV7D09NTqx1FDZmrg2b99/KBowQceFDYTSowQkJC8PHx4fPPP2fevHlaMRyP0uXdKIwE0MeOHcs0z2jcuLHOfZs3bw6At7c3AQEBOve5e/dulsdnpFmzZnz33Xea3//9918iIiKYNm2aZp4hl8uZP38+jRo1ytX4IzY2Vu/26FoTyoiHh4cmoW5GEhMT+eabb2jZsqXORC8ADg4OgMrW9OzZk9jYWOrXr8/ChQuNXqlYTWhoqFGq1uqDPmO89Bjbz5eWlpanqvNPnz6lf//+yGQy2rZty9ChQ7P112bFwoUL+f7777U+O3XqlGYN1MLCgnLlyuHs7Fwk1hqNhYmrA4rIOMrEJZe6uW36OAG10FxTrEMTWihKsXoSxQqZfVlN8pbo/x6ydOnPhd2kAiM+Pp7Ro0cTGBjIunXraNSokdb2pGTVmK2sVelO3iJRekkfi0DiS6NUBS86K6kSEhISEhISWugjAn7DG3wniXz7qhLwzi3hAJIIWEIv7gef4+qE719VwlJV/q0wsY0k/i2F1KhRg1OnTvHw4UNNME9oaCiJiYncvn2b27dv53iO3377jcePH3P37l3CwsIICwvjyZMnxMbGEh8fT0JCAtHR0Tmep6BRV3VKP7mSv4qRERFRKAujVRISeqK2yUZwDhR30ge9oXGdCBSmqlJtXwYNGsTw4cO1tqmD4LJ6p06dOhVzc/MsA+DLly/PmDFjNL+bmpoyaNAgnYEPsbGxTJ06FQcHBz755BPKlCnDe++9x86dO2nQoAEdO3bU637kcjm+vr4MHz6cx48fk5iYiKurq0GZiXVRrlw59u/fT9myutPcmZiY0K1bN63P2rVrR9WqVfMcAFiYCHITRMCU0j2uSp/NOT2F9VTMzMz4/PPP+fzzz3Pct3Xr1pmyVwOMGjVKU61QH2xsbKhfvz42NjaZtl27do3Vq1fTvHlzvL29adCgAXv37sXPz4/q1asbVH0iPX369MHe3p6PPvoIMzMzrW3m5uZMmTKF4cOHa1VG0EXr1q2z7b9lypRhyJAhWp8ZUiXQmAgCmgrA8lLe7zJiIlO9O5XScEKiNKIUST96lFDzejxd0KbB1dVVU5keVMkm/vnnH031NFNT0ywDA9WYmZnpfEcbmxUrVgDQqVMnoqKi2LFjBxs2bGDkyJEGnadMmTJ5CrjLijVr1mBpacmyZctwcHDAwcEBX19flixZwqRJk6hVqxbPnz83KChUFEXmzJnDoUOH6NChA7179za4Xfl1v8ZGMJG9Gq9LgSnavJ57F4YrYuzYsSQmJhp0jK4qlLoCkXMKQE7fV8zMzFi1ahUuLi6ZqqS5uroyffp0AFxcXOjcubOmgln16tUpX758pnO7ubmxcOFCve9J38psa9as4fr163qfNyMbNmzQiCMcHBxYvHgxSUlJREREYGdnpwnIBpWfYt68eTRs2DBX1yoqf1s1V69eZc+ePYwZMwZLS0t69uzJ+vXrad++fZai44xYW1uzf/9+LCwsctzXxMSEHj160KNHD16+fKn33zgiIoKZM2dSoUIFunbtikwm44cffmDmzJkEBQVRrVq1bI/38fFh//79WQade3t7s379es3vLi4uNGvWLMs5YH4jyCTbrDNITEg/div40e3z58+ZOHEi4eHhzJ8/HxcXF61qm3/99Rc7d+7U61yCIFC5cuVsxQNOTk74+/vr7RPZsGEDKSkpLF68WJNMcdGiRQwePJgFCxYQFhZGUlKSRmCUE926dcvkq4yNjaVdu3b079/fIJ+QPvz7778AVK1aVef2p0+f4ufnR/ny5enZsycWFhb06dOHbdu20aBBg1xXthw+fDifffaZTt+vIAiZnoOHhwfx8fGZ9vX09MTf3z/T5y9fvuTZs2dERUUhCALh4eE4OTlhYWGRJ+FyXhAENBWA5aXYzqjR9tuqbEthLUXdvXuXlStX4uPjQ61atRg9ejSjR49m4cKFzJgxo3AapYM9e/Zw+vRppk2bRsOGDXn77bdZtmwZNWvW1IypCotffvmF8PBwPv/8cz744AMA5syZQ9++fTVjgWvXrlGjRg29xL8A3bt316xTTZkyhUuXLrFjxw5atWqVo4hQbS/0vVZkZCQ+Pj6cOnWKVatW6SXQS0xMzHKdTZ3Q9sWLIpoIzkSmWf+VfNk6xj+FZIwaNGhg0LwNyFTNWs3w4cMzJWv6+eefOXfuHLNnz86U3CDj+/j999/Hy8tL51wmva+mRYsWWFtbA2Bra0vNmjUzrQmBai074/gmO/SpxOrk5JRlwtrY2Fi++eYbqlevnmNSW3t7e3r37o2XlxdeXl56t9FQDh48mOmzRYsWsXv3bs6cOaPzueWFnMZ4GTGmn8/Q77EuypUrx9KlS6lfv75WIimlUklkZCRRUVEkJibi6OiIs7MzZcqUoXnz5pQtW1brWfbo0QMvLy8EQUAul2NhYYG5uTn29vY4OTllek/s378/z20vEshUtl2OZvhZ6tA1tzWVq56LgECqojQ+FYniipim0HhjSnOYafoCQer5pIlMCchITZP6tEQpRXztrRWN9MaXBMASEhISEhJFGL1EwI1hzCT4dlEMyjSRXVsekJqsZMzkgsliKlE8uR98nkujd2iWC+x7N6LiBEn8W1rx9vZm9+7dbN26lYEDB6JQKAgODsbFxYXp06djbm6OQqFgxIgRWZ6jTp06mbJ46eLFixckJCRoRMHp/1f/bGiwl5rZs2frva+7uzvr1q2jTZs2iKJIWlqaZputlep/AYHohNLsmpEo6ihjEjSLnN0Hfk4HRyvkcjkmJiYam12c7LYhfbh58+asX7+eOnXqoFSq+ql6kcDJRt1vRZ7EFs8+rF6MVRMaGsqhQ4c4f/48UVFRxMTEYGlpiYODA+7u7rRt25YhQ4ZkGis+evSIKVOmEBERwaJFizSLZOPGjeP69evMnDmT8PBwBgwYoHfbzM3NqVq1KmlpaURGRhISEkJKSgoODg44OjpibW3NwoUL9QpwVZM+cDQ5OZn//e9/HD16lLCwMKKiokhOTsbBwQEnJyeaN29O586ddVYpVqNQKHj58iWpqakkJydrAsqePHnC06dPMTMzy5VYwZgoH0cjAImWJowdPg65XK417gKKTf/du3cv165d02tfuVzOuHHjmDVrFpaWligUCs02URRxslELCuBpjBKPSgVfuSY8PJxRo0bRv3//bAMeLl68yNy5c5k6dWqmiqqg6rf379/X65p9+/bFzc0t0/mnTZuGpaUlkyZNAlRCgzlz5jBs2DAGDhzIrFmzaNmypQF3p8Le3p4+ffoAEBYWxtOnT/H29tYKMs9J/Ksmff+Njo7m0KFDnDhxgoiICE0Qp6OjIxUqVKBNmzZ06NBB73MbE0VEjKYCsHX1iozv3kqr3xW3d+batWt58uSJXvtaW1vz1VdfMW7cOExMTDT9Tv3etLUSiYiByLji+c6UkMgLyuh4jV+kz/DBKMpaYmJigomJSbF7H0Pex9Nq0o+nn8aUHNvw/PlzoqOjiYmJQSaTacRrGcfe+vDrr7/y888/89lnn2FhYUHFihV5//33CQoKwtbW1qCKuoBGoKerMlFuePr0KdHR0Xh7e2sJ9Hr37s3169c5dOgQ9+/fx9XVlRYtWuh1zv/++4/58+fz559/0q5dOy2htqEY+37zA8WDpwhAir0V4waMw9TUVGMbipt92LlzJ7du3dJrX7lcztixY/Hz89Mar7+eb6v+FwSBJzFKnGwLVhyTvhpdXtAViGxIADKgqXgYFxeXbdKB1q1bExoaSmhoKN27d8fFxSXTPra2tvlSwSi76pvz58/nhx9+MDhhgpWVFZUrV+bYsWP8/vvv3L17l5iYGBITEzV21cvLi7fffpuDBw9q2aDsKEp/21u3bjFlyhQcHR01c8I+ffpw4MABxowZw4IFC3SKj3VhiG/E0GMeP37M+PHjiYuLY+7cuZrj5syZw5AhQxg5ciRz5szJUYDj6upKZGSk3vP6bt265TkZXG5RPIrUaZvVvlAo+bbZwsIisy+0rBIwAUSexIg4FKA++/bt20yaNInw8HBmzJihqUCXsdqmPgLgFy9e8Pbbb+t97eHDhzNo0KAc97t58yYymYxmzZppPqtXrx4TJ05k3rx5bN68GUEQimxFsWrVquHr66szwcLdu3eZPHky8fHxWnZg2LBhXL16lcWLF/Pw4UNGjRplsGjFzMwMR0dHvf1bFStW1EtwcuHCBbZv3865c+e01uVAleynRYsW9O3bV6/1RmOjeBSlUV+Uca/E+G6l13eUfo6o9tk+ioaoBKXKv1aAj+HZs2eaBEJTpkwBVPPZDz/8kB9//BELCwtGjx6t13fc39+fbdu26X1tQ0T9p06dYsmSJTRq1EhjT6ZPn84nn3yi8Ye3atVKr3Op161TUlJISUkhOTmZuLg4nj59ypMnT3j27BmdOnXCyspK73u5efMmgNb8z8bGhsWLFzNgwAA2bNgAkO26S0bS+6WdnJwYP348fn5++Pn5sXPnzmzFveq2JyYmYmlpqbXt5cuXmcZDI0eOpG/fvnz66afs2bOHLl26ZKoqrusaiYmJvHjxItM1nj9/DujvAy9olBExiKKqAvAbHdswoYGzZv23ONojQ/xVdevWZf369TRr1kwrhkMURZzVGsNX89GCply5ckabt+laU7p69Srnzp2jffv2Odo0QRA0792rV68SFRWlc7/atWsDqurFoBL66vreF0SSgkuXLnHw4EFu3rxJeLiquMnWrVs5cuQIbm5utG7dmk6dOum0HYMHDwbgxIkT/P333wwZMqRYJ4kGla/AyclJr7lVfvj5QOXPePDgAVWqVMlVkicfHx/Nz9HR0WzatInDhw/rLAzRqFEjPvroI4YOHar1ubu7u97za30pFnECEapkl8+tTRn7RemME0g/t1VjY6ma24qIRMeLVC6XDw2WkMgHxMg4TSJy+2qVGP9ha83YLX38XnHB398/U6KSrLCxsWHu3LmMGDECQRC04n8AbK0hKgGiEyQBsETpRBn1OhYBe+M4bSUBsISEhISERBFHX91y3qMAACAASURBVBHwcF+RtctjUCrhx13hgMiYyTULsKUSxYWw4PNcHr1Ds4hp/3FDSfxbyjEzM2PIkCGsXr2ar776ClAttE+cONHojnNLS0ssLS0pV874njp9Fo/UDsU5c+Zgbm6uM6ugrfXraiYxkgNCogijjIxDnSNs8PjRWLg4YmFhobHhxc1269OHHR0dWbBgAYMGDUIQBJ192FmzbikQEVX8BQs//fQTCxYs0Cx+Vq1aFRsbG5KTk4mKiuLSpUvMmDEDT09Pli1bplkYjY2N5dNPPyUhIYGxY8fyzjvvaM5pa2vLqlWrGD16NOvXr6dVq1bZVtZIz82bNwkKCuL06dOZsqMLgkDDhg3p3r07Xbp0MfheY2Nj8fX15ebNm7Rp04aePXvi6OiIqakpCQkJ3L17l4MHDxIUFMScOXM0QYUZySpIxcTEBGdnZxo2bFi4C3uiiPJZLACWVcozfvx4LC0tsbCwyCTiLw6EhYXptbCnFhrVrVsXyJzZVxAELUFBRHTh9N+0tDTCw8M1QUBZ8fLlS8LDw7OsErB//36DAsqWLFlC69atATh37hxffvkl5ubmrFy5UiuAsn79+ixbtozJkyezdOnSPAfK7969m927d3Py5MlMgVCGEBISgq+vL0qlkrZt29K5c2fs7OwQRZHY2Fhu3LjBqlWr2Lx5MytWrKB69ep5arehKCOiNQtv1Zt6M2HCECwtLTVVINIvqhcH9u7dq1cQZ5cuXVi9ejVubm6ZKm6rbYztK92bKEJ8koiNVfGwPRISxkCMTlBl3RUERk6bhKWVlcYvUtzex2C88bT6fQwF+z5OSkri1KlTiKKIUqkkLS2NBw8eAHDy5Enu3bvHs2fPNP/69euX4zkVCgU7duzg0KFDmoDn9AiCQL169Xjvvffo0aOHXn/vH374gfnz51OjRg2GDRum+XzSpEncu3cPf39/vatDqlm4cCEKhYLt27cbdFxWqH05Dx48QKFQaCX5mD59OqdPnyYhIYHGjRtnqiqTkZSUFIKCgggMDEShUDB8+HAGDhyYp75h7Ps1NmJ8ErzK2m/rUYUJEyZoxg2mpqbFzld69epVvURmOY3XgXQJe0QiokXqVTVqU4slDx480KsCmZoOHTpkqlBbnEhMTGTcuHFcuXKFd955h169euHoqPJHPX/+nAcPHnDixAl27tzJsGHDNIHaxYWkpCRGjBjBixcvWL16tSYIumzZsixbtozRo0dz8eJFowcoG8qZM2eYOnUqiYmJTJ06VWteWKdOHb799lvGjh3LsGHDtCo5Z8XNmzcN+h7rc05jI8Y+R3hlm+1rVSu1tjljgDSAk236sZuCOpULJplaVFQUAwcORC6Xs2jRIi3fY24wNTXVyz5GRUWxdOlSvc+rDiz/77//tCqsffjhhxw7dozz589TqVIlvX2jBU3VqlV1VoaLioqiX79+JCcnM23aNC07YGFhwbfffsu4cePYsWMH77zzTq77rCH+LRMTE86fP5/l9iNHjjB9+nQaNmzI119/TYMGDTQV46Kjo7l27RrBwcEMGzaMJUuWGCRgMQbKiBhNCbbqTb2YOHGopgpdSfYd9e7dm0WLFmmSE2a0M2qfrQCISngcraSCY8E8h5MnTzJ79myeP3/O8uXLtSrWT548mYSEBHbu3Mm9e/dYvXq13uddsGBBtgk3nj9/blBlYbWwuHLlyixevFjzLnJyciIgIIDhw4czfvx4Zs6cSdeuXXM836FDhzh06JDObWXKlMHV1RVvb2+9K6HD6wQjYWFhWvPVmjVrMmjQIM3zy4uvuUuXLhw5coTTp0+zePHibH0U7u7uHDt2jJCQkEwJLn19fblz547WM6hVqxZyuZzJkyczdOhQ5s2bx5YtW7TmuhmpWbMmf//9N9euXct0X5cvXwYocB+1vigjohFeGaROn/ema3tvLC0ttWJ4isuYB/TzV9nY2DBnzhxGjhyJXC7Pdv0IIKIEJazLKxs3buTs2bN6779nz55cJcPLCwsWLGDPnj3Ur1+fNm3aUKlSJcqWLUtKSgrR0dH8/fff+Pv7s2XLFlavXp1lUpHz58+ze/du+vfvn2Uck6mpKe7u7llWXy4qNG7cOMdkTWqM6edLz8WLF5k8eTL+/v5aYl5DiYyMZNCgQSQmJjJgwACaNm2Ki4sL5ubmxMXFERoayv79+5k5cyb//vsvI0eO1Hme1q1b07hxY5YsWZLrtkDxiRMQBAGrqhWYMGECFhYWpT5OAF7H6oFAjFSsQ6IYoYyK1yRvqepZnwkTRmFpaamJwS5uc8mgoCC9BMC9e/fWzNN0xSEIgvBK2C8j6aXIyxQRC7PiYdskJIyFGB2vikWwMAMz40h3JQGwhISEhIREMUAfEfBbzW0AkYDlsSgV8NOuhwjAaEkELJGOsODzXBq9U5NVxuHjhlSa0FoS/0pQt25dZs2aRUhICKmpqbzxxhuFlsk/v8joUExP+goBVuYgE0CJQFS85FSUKLqIMc8REVWB+zavM32XRJstk8kYNmwYc+bMydI2qd9XzpqgN7FQMkAbk+TkZJYuXcpbb73FsmXLdI4Be/fuzcmTJxk7diwHDx6kV69eANjZ2dG3b19q1qypc9HO1dWVrVu3cuPGDWrUqEFKSkqO7bl+/TpDhw6lQYMGzJ07l9q1a2Nra4tcLuf58+eEhYVx9OhRZs+eTXh4uJYgQh/27NnD9evXsw0kHTZsGCNGjNAEFqZ3lLdt25aqVasik8k0YxozMzOsrKxwdnbGyckp24CQgkIZFY+YkoYMSHOyKfFjLUdHRxYtWsSAAQN03mf6z5xtX1WxKQL919/fH39//1wf7+vri6+vb477HT9+XFPFQk3jxo3p1q0bn376qc4gzyZNmrB7927i4+MNruCSW3Kq8vfdd98hk8nYtWuXzsCK7t27M3ToUHr27Mm6detYsGBBfjVVJ8p0FYBFZxtkGb6LJa0Puru74+/vrzMZQ8Z71WTUFiE6XomNVeHbSQmJgkKddVe0sdSUMCpp9kCNPuNpNeXUFVUK4X08bdo0QNVe9VjO2dmZuLg4zM3NcXFxoUGDBpQrV44GDRpw4sSJbM83ZcoUTp8+zSeffMLEiROpUqUK1tbWiKKoGb/+8ccfLF26lNu3bzN9+vQc21i3bl0aN27MN998oxU0bmFhQUBAAKdOnaJOnTrs3bs3bw8jA++99x7t2rXTK2GHra0tXl5eXL58mU2bNjFkyBBAlehk5cqVJCQkACpBR+PGjbNN3pOUlMTu3bupVasWEyZMKLCqvYbcr7FRRkRDunFDScfR0ZGFCxdmK+xWf66eb6sqACsA/QNLSyr169fXu4quOuFPcebIkSNcunSJhQsXZln9atCgQXz11VcEBATQo0cPjbirOGBlZaV5X9SpU0drm7u7O8HBwVhbWxMZGVlILVRRvXp1ypUrx8iRI3V+r7y9vdm9ezcHDx7US/Tn4+Oj1/d47969zJ07NzdNzjPac7qiWa3PmLi6urJs2TJ69+6tZZt1/VxO8zhEnsYUXEJTR0dHJk+ejLe3t6Yqel6Qy+V6VekODw83SADcpk0bQkNDWbZsGUuWLNH4UQ4ePKj53j948ID58+czY8aMfJ8PREZGaoRn6VH7Zu/fv8/hw4ezPN7BwYHGjRvj6OjIkCFDqF27ts4qgra2tqxbt47Lly/nSbCvr3/rq6++yrbdANu2baNSpUoEBARk8tFWqFCBChUq0K5dO7p06cLOnTsLQQAcrUmercvOlLS5oru7O+vWrdNLvO9sK75KngVPYgpOAPzkyRNMTExYvny5VhVvUIl45s2bh7e3N+XLlzfovC1atMh2nhEbG2vQ+aysrHj77beZMWOGVmVGUFXx3rlzJ0FBQTlWDpXJZHz99deASsCmnhObmZlhb2+Pi4uLlmjv6dOnerexdevW7Ny5k8DAQHx8fHBxcQHgn3/+4fvvv9fsN2nSJNauXZurSpCgmtP36tWLAwcO0KpVqyy/Xx06dGD9+vVs3LgRLy8vTWLb69evc+XKFXx8fHSK2Ly8vOjUqROHDh1i9+7d9OnTJ8u2vPvuu/zwww+sXLmSevXqae4pPDycwMBALCwsiuz4XBkRrVr/BShnqxXHUNIQBIF+/foxf/58LZF/+u3q+zaTg62VSFySwJNCSiBbFPnuu+/02m/Hjh0GjaGMxZ07d9izZw8fffQRU6dO1bnPRx99RL9+/fj444/ZvHmzXv65rKhYsSK7du3K9fG55c6dO/z777+ZPlcnJLx69Wq2a/E1atTIMimBMf18uWHEiBEMGjQoS+H44cOHefjwIZs3b85Und3JyQknJydNIobt27czaNCgbBNxZEezZs0ICAjAw8Mj07ZiEycQEfNqzClqxpwl2c7nFCcA6RMWv47zkaqFShQnlNEJmuQt2L22lSWxT0P2c8mM96xORI4AMQki5R1L5jORkMgKZVQCAqC0tcpxX32RBMASEhISEhLFBP1EwLYIwNrlMYgKkZ92hgOSCFhCxb/B57k0ZpdquimCoyT+lciAs7MzrVq1KuxmGB19HIqg7VS1LysSFY9UAbiEoa4kpXbsHz58GJlMlmUV0ZxISkrixIkTeHh4UKNGDWM2VS+UkXEIgoDSxlJjr0uizfby8mL9+vV4eXlluY+2gFDzaYEKFlJSUmjevHmmzzdu3MjGjRt1HtOxY0et3zNW4Hzx4gXJyclUrlxZ59hPjXpBMDo6WuvzgQMHZttmc3PzbJ9rRk6cOEFKSgrffPMNTk5OWtvs7Ozw9PTE09OTv//+myNHjhgsAI6JicHExESn4DF9m93c3Pjnn39ISUnRWiCsWbMmNWsW/XGvMiIGQVCNxwRnW9K/aUrSAp8gCAwYMIBFixZlK9xX/68S8L/6HApdANy9e3fat2+f5fa///6bNWvW5Mu15XJ5jgEOzs7OODs758v1dZHTey4mJgYHB4dss6o7Oztja2tLVFSUsZuXI+krAItOKiFPSehnGTE3N2fKlClMnTo1UwZ8XZU+BUHQLKgLgkB0gkjVzHFWRYrAwEDc3Nx0jt9iYmL4/fff8fT0LPSqbNlx7do1QkND6dq1q0EZ+TMSFhbG4cOH6dChQ7bvTl1cuXKFH3/8kcGDB+usGDN8+HCqVKnClClTct0+NX/88QdApoouRQF1BWDRpmCrXhQ0+o6n1f/SVwAuyPexlZWV3iI6fUhOTubEiRO88847jBo1KtN2BwcHHBwc8PLy4t69e5qKZDlRp04d1q5dq3Obubl5jkHduUUdAK4vkydPZvDgwQQEBHDy5EkqVarElStXePbsGV5eXnzyySdMmTIFPz8/zMzMshTc2NnZsWXLFsqXL1+g705D79eYKCKiNdXfRCdbZDrm2yVhHCGTyRg+fDizZ8/OMdGW+mf1eF0UC1ZkdvbsWb788stcH1+nTh22bt2q13mCgoIICgrK9jzGwlj3VZCoqz9kV3FOEATc3NwQRZG4uLhsBcBF8W/bqVOnLM+hr5g5Kx+RIWT0EaXH1dWV3bt3Z2uLXF1dc/QLFSe0bbNNibfN8+bNw8Ym6yQU6W2z1tgtWlEArXzN+++/X6DXyw39+vXjjz/+4MyZM/Ts2ZN69epx7949QkNDcXJyYs6cOcyePZt9+/Zhamqa5RzIWHbmzp07mqQ3ujhz5gxnzpzJcnuTJk001eL69euXbXtMTEx48803s92nIFEoFDlWrVT3a4WiYL/L8EoAXMp9R+lJb2OdbF7NC0V4WoBzxB49etCpUyeNODQjgiDQo0ePAmtPVgwePDjbil52dnZ6CekFQaBz587GbJqGxo0b0717d3766Sf69OmDt7c3CQkJXLp0CRMTE7755ht++eUXzp07x5AhQ9i2bVu2a1JZ4eLigq+vL9988w3z5s2jUaNGOucaVatWZfDgwaxfv57evXvz9ttvk5yczG+//YaVlRXjx4/P8hq+vr6cPHmSNWvW0LZtW8qVK6dzv0aNGvHpp58SHBysucbLly85fvw4iYmJzJw5M9M6V1FBtYakWkRSOpXcpFR169Zl/fr1Bo2bHW2UxCXJeBhVsOtH/fv35/r167k+Xl1hVZ/zZPc88lqpNSPGuq/seP78OYCm0nxWuLq6Ym5urtm/oDDW3+S3337LchwIqkQo2TF8+PBsq5Iby8+XGywtLbNNnKFUqvpjQVS3dHR0zNKHVXziBKJRZ51ROmVOWAwlYwyqT5xAxv3VQkEBgWipWEeuSUpK4unTp7i6umJhYcH3339PuXLlSmQ8aFFBjIp//bOtdYlNRG5oHAKokrcAIEJ0gpLyBZRMqrSQlJSEIAhYWloSGhrKuXPneP/997G1LXrJE5OTk7lz5w4uLi4FGudU2IjRr+yDrbXR4nolAbCEhISEhEQxQh8RcJPmqsHbuuUxKBQie3eGI4giX06pVWDtlCh6/Bt8gYtjdiGIIogijh83wE0S/0qUcAx1KKqPEQQBWyuR6HgZz2Ilp2JJ4siRI0ybNo3t27dTs2ZNtm/fjlwuz7UAODo6mq+++orhw4cXigBYjIpX2XW7MiXSZjs6OrJgwQIGDhyY7YJRRgGho2YtvGArlsnlck129tySMcDdzs6OTp06sWvXLhQKBR06dKBatWqUKVOGlJQUIiMjuXTpEps2bcLW1jbfgkPUtGzZkm3btjFjxgw++eQTTQVgExMTEhMTNRWAQ0JCGDRokMHnf//999m/fz9Dhgyhf//+eHp64uDggKmpKQkJCdy7d4/ffvuN/fv307t371xnBy5slBHRiCLIAKWzbkFBcSc3gRvwWsAvQqFncK9SpQpNmjTJcrs+VbNLE71792bu3Ln4+vrSo0cPateujY2NjSboPyQkhJ07dxIREcHo0aMLvH3qfqeqmmCnJXQrKX3vnXfeYd26dXoJX9Pft1oALCISUwwW1Ddt2kTz5s11jt8iIiKYP38+kyZNyvQcQkNDCQ8PN+habm5u+SIkPnr0KDt27KBjx45a7/6rV6/mKJC3tbXVBHuHhYWxbt06atasabAA+OHDh/z666989NFHOgU89+7dy1Wgpy7UQsmiJgAWU9JQPn+heh/bGW/RrSih73g6PSqB3+tM+08KUOBnbMzNzWnZsiV//PEHa9aswcfHBzc3N8qUKYMoiprx64kTJ7hw4YLRq2MUNu7u7mzZsoU1a9Zw/vx5QkNDqVy5Mp999hkff/wxcrmcxYsXs2rVKp1V49JjjKp+xYnXlThATFdtSU1JsBX6JAZIT6aEPYJARAGO12vUqIGfn1+uj1cHvHh4eORp3p6dGC83FLX26EO7du3YunUrY8aMYdCgQXh7e+Pk5KQJ1A4PD+d///sfwcHBvPXWW9kKhaHk/m3zw0eUkZJgiwxBjIhWZVIDzZwuPSXheehrmzMnU3s9dosoxmO3/MLCwoKAgAA2bNjA0aNH+f3333FycqJPnz4MGjQIOzs71qxZw6RJk7IdDxrLzjRr1syoSW+KE3369MHPz49hw4bRu3dv6tWrh52dHaIoEhsby19//UVwcDAxMTH06tWrwNuXfgxYmn1HGRMrpB8DIlCgY0AgS/FvUaIgBE/GYNq0aXh4ePDjjz9y6tQprK2tadu2LYMHD6ZGjRq0bNmSqVOn0qRJkzz5hLp3786RI0e4cOECc+fOZfny5Tr3++KLL3Bzc2PHjh2aJAxNmzZl1KhR2c5BnZycGDp0KMuXL2fJkiUsWrQoy33Hjh2Lh4cHu3bt4ueff8bc3JyGDRvSv39/g5LjFjTKJ9GIoqjqg442mRIzFXdsbGyYM2cOI0eO1Ou7ljFp3b0IgZRUkYQkkbJWBfM8Bg8ebHB18PSoq5V+8cUXeTqPscWNBdGehg0bUqdOHVatWkVsbCytWrXS+OdSUlKIjo7m2rVrbN26FYVCwYcffpjr9uQGYz2DUaNG6UxAaCyM6eczNh07dmTnzp18+eWXDBo0iKZNm+Ls7IyFhQXx8fGEhoayf/9+Dh06RN++fYvt+r6xUAmAX2WdcbYtceNN0D9OION9qwunisW4AvDevXuZO3cuGzZswNPTM8f9U1NTefLkCWXKlNEr6VxYWBh3797Vuc3b2xs7OzsuXLjAhAkTNG0IDAzE09NTEgDnI8rohNfJpF59kUtSn4bcxSGohP2v5o+CVIQnPxg8eDB2dnasXr2a69evaxKTFIYAODk5mYcPH5KamoqbmxtWVtoVbx8/fkz//v0ZNWoU/fv3L/D2FQZi7HNEpYgMUKSrAJxX+yAJgCUkJCQkJIoZBomAl0WjVIrs3aUKcpVEwKUTtfhXvWjp8HFD3Ca0ksS/EgYhCAKenp7FJugzN8Kj9N95GytRVS0WeP5CpIxlwfeH8PBw9uzZw5kzZ3j8+DGgcux36dKF7t27a6rYlmREUWTv3r20b98+x0X+Y8eOZbv97bff1vu6qampbNu2jd9//52wsDCcnZ1p2LAhw4YNw9W1aJTFE5OSEZNTERAQjegkKAoIgkD//v1ZvHixweJ9QRAwNxWwtVISnyTj+r00UtJEzOT5/1xkMlm+CHBnz55NrVq12L9/P99//32m7WXKlKFVq1YMGTKESpUqGf366WnQoAGBgYEEBgYyffp0Xrx4obVdEAQaNGjAzJkzc1UBpHbt2gQFBbFx40YWLlxIUlJSpn3q1avHtGnTCnwB2JikXr6jyYApplvYU1Oc+7G1tTUzZ85k3LhxegcJpe+/rysAC1y+k5qPLc0Zf39//P39C7UNBYm+78mgoCDq16+f6fNu3brh5OTEjh07GD9+fKZKLXK5nKZNm7J69WqNeLEgUfU7VHMiHcHixRlXV1eWLVtGnz59ctxXVxCn3ashlgDFdkFdH/bt28eOHTsMOuazzz7Tq0LL4cOHs63g9M4772QbjKgmKCiIU6dOZbuPp6cnGzZsyPFcGZk8ebLO8fLgwYO1fh86dChDhw7N8jz//PMPffv2zfF6q1evzjaJQlFAjIp/nZHa1qpEBXcbOp7OKCJxKCvw6hMu3U5VJVAopo9k4cKFbN++nUOHDrFx48ZM2wVBoG7duowbN46ePXsa9drVqlUzqB/cvn1b73fk+fPn9fIJuLm5MW/evCy3v/3227Ro0aJQAtbz436NRdrlO6AqtoRQwsQftra2zJ07lxEjRhiUGCCjyEwURS7fScvPpmrh7OxsFJG+k5NTvifOMoSi1h59qFixIlu2bGH9+vWsXLmS+Pj4TPuoK7rpE8hTXP+2ZmZmNGnSJMuKc/nlIyrNZOVLKQm22cbGhrlz5zJy5Mhc2mbNp1y+Xbi+FF04OjrSrFmzQhXxlSlTBl9f3yznd5UrV2b79u3ZPv/iaLOLGu+99x62trYEBwczZcoUTbU4NSYmJrz11lusWrWq0HxHZPAdFXf7osYQ3xGQycZq7IwIl++k0a9j/rW1IDBkvbAkIQgCvXr1ylJgb2lpybJly3J8F02YMIEJEyZku8/q1au1fu/bt69Of9K7777Lu+++m+V5sjru008/5dNPP822DWq6dOmi13hTV3XOnCp25gfii2TS/vkPGQJKZxuEdLE7JcEm9erVi2+//TbH9Xb1uC+jz8rJRu2/Frh8J41WjbJPmmMsjFV1t1mzZkY5j7EoiPaYmJiwfv16Nm3axNGjR3VWybW0tKRFixbMnDmTunXr5njO1q1b63XtgIAAvL29s92nqP1NsiO//Hz6rIEAWQp2nJ2dCQwMJCAggICAAJYuXZppn5o1a+q1vn/8+HG9xoFVq1Zlz549erW7qJF2ORTVgFPQJB4szXECkK5Qh/VrG19UKwCfPn2aO3fu0K9fP6P8rf777z8+/vhjjSguJ44fP87KlSt1btNXdKwPERERbNu2jXPnzhEREYG5uTlubm507NiRrl27Ym1tbZTrlBTE6HjVuAW0qnyWhPFb5cqVWbFiBR988EGO++pK1qeu7I1Ike3XaiIiIrhx44ZBx9jY2PDmm29m+vyTTz7h9u3bep9HLdxV8+uvv/LVV19luf+gQYMYPny43uf/8ssvOXv2rN77f/fdd3qPkRISEli5ciX79u0jLe31mlG7du0YM2YM5cuX1+s8z58/13uMp+bkyZNYWloadExBooyKR3i11ihmqACcF9sgCYAlJCQkJCSKIYaIgNcvi0apULJvVzgg8uWU2gXVTIkiwL/BF7gwZhcq956IY68GVJbEvxK5QCaTaU0cK1WqxFtvvVXkshpbW1sza9Ysxo4dq3fG2IyLRzKZjCrOSq7dMwFR5E64gjc8CnbqtH//fubNm0dKSgoVKlSgUaNGJCUlcevWLRYsWMDx48fx9/c3WlWuosry5cvZvn07bdq0yXHfyZMnZ7v9t99+0+uaycnJDBo0iJs3b9K2bVvatm1LZGQkBw8e5OjRo6xbt06vhaf8RnE7/FVAsoiySjmdToLiaMtzWzVUjfo5NKiq5HSIQFKyyPErqXR408zILS04ZDIZn332GZ999hmxsbFERkYSGxuLhYUFDg4OlCtXzii2QCaT0bZtW2rVyj5hTO3atVm4cCGpqak8e/aMmJgYUlNTsbOzw8nJKc/BfNWqVWPu3Lmkpqby9OlToqOjSU5Oxt7eHmdnZ6NW5alRo4bRFu0NIeXAeURRleVPbFRNa/xVHPutmi5durB69Wrc3Nz0Pibj+7eCo4CdtUhcIly+nUZknBIn24Ida7i4uBgk/K1Tp06erufk5ETr1q1xcnLK9TkcHBxo27ZtlsHn2dG1a1eDFgOzSzTg4+ODj48PSUlJPH36lJiYGJWQ7JWtKqys3mJKGimHL4EIgqkcsX6VEjHvUY/P582bZ5BtzDhmqOKsrgAMt8PTAPN8aG3uad68eaaK28eOHdMKAvH29iYgICDb84wfP57x48drfXbu3DnNgnpeFsYbNmyoM/AmNjaWRYsW6Z2gI6PtDDSGnAAAIABJREFUGTBgAE+fPuXAgQO5ald6vvjiC70qKOWU8KlixYpa93rnzh0CAwP56KOPtIKp8qNysrFJux2ueR8rqpRDpuNdXBxtRG7H0+nHIiYmMhpUTePvMBOi4uDPm6k0qVMwAZWGUrFiRXx8fLIMODExMdEEDCckJBAVFUVsbCwymQxbW1scHR3zTYzSu3dvevfuDahsdocOHahRo4bOfUeOHKlTRJcVxvTF5Idfp3bt2rRt2zbLPlSY96sPyQfOq8YNgKJhNUyL+ZhBTe/evVm+fLlBic0yBlt7VBSwMIPkFIH/XU0hKVnEyrz4P5uColmzZjnOuQuKOnXq0KFDh1wdW6FCBWbNmoVCoeDZs2fExsaSlJSEra0tDg4O2NvbG7m1RQ9HR0ctYUuNGjXo0KFDkU7YWKVKFRo1apSnc7i6uuLj41Mo1adVvpRX2rxG1Yr9fE6NMWxzLTe1bRY5cS21yNlmb29vrbnCm2++mUn4aQiWlpZ07tzZ6HOOorbWlR84ODjk2QeVFbVq1SIxMTHH/dS+o+fPn/PkyRNiYmIAlV0tV65coQWSiylppB5V+Y5EUxPEepVLte9Ijdpn61n9lRhDgB//eMm3o4pmVV53d3fatm2LmZnu9aDOnTsbtL5XrVo1YzVNC7lcTtu2bfNcydPMzAwfHx8qV65spJaVDltY1Ek5fAlS0xARUTSoWiJsEaj8Vd999x3vvPOO3sdkHPPIZDIaVk3j4EUAkQPnkgtMAFwSqFChAj4+PoUikrCwsGDEiBGMGDGCmJgYoqOjiYuLw8LCAnt7e5ycnDA1zflvaeh6VvXq1fPS7GKJIXa8fv362QqKM6KuZK0LZ2dnZsyYweTJk3n48CGRkZG8ePECe3t7XFxccHZ2zvH8M2fO1BIOZUfGqoK5obDiBJL3n0WddUbZsJqWX7442/rcxAmA9rpEVRf1p6o4vaLI//73P/bu3Uvfvn2N4gN6+fKl1v/68ttvv+ldTMFQjhw5gp+fH8nJyTg4ONCoUSNevHhBaGgoS5cuJTg4mOXLl2drE0obabfCEdTZpKq5Fuu+rEYulzN27Fj8/PwMsrkZbVqVcq/nkreLaL9Wc+XKlWxFt7qoU6cOW7duzfT5l19+SUJCQo7Hh4SE6Ew65OnpqXlHx8XFsXDhQjp16kTLli2B3I1xrKysmDFjhl77GtK/J06cyK1bt/Dz86Np06bI5XKuXbvG4sWLGTVqFFu3btXrO2RhYaH3uGT//v2cOXNG7zYWForb4YgiqtjAqsaLRSjZ0eISEhISEhIlmIwiYF2TyibNbRGAdUujEJUi+3aGIwCjJBFwqeBe8AX+9N2tml6KIo7d60riXwmjkTFooyiQF4ei+n/1P8/qCvadFxEEOH09pUAFwKdOncLPzw87OzsWLVqk5XSOjIxk+vTpnDt3jiVLljBlypQCa1dhEB0drfe+Fy9e1Pw8bdo0Lly4wNGjRw2+5vr167l58yZLlizRyiw2cOBA+vbty4wZM/jxxx8NPq+xSTlzQxWQLAgoPKtjmsGGF0dbvmTJEsaMGWNwNlC1iF+9+CuTyejwRhqnQ+SoF4CLswA4PXZ2dtjZ2eXLueVyOQsXLtR7f1NTUypUqJBvleFNTU2pWLEiFStWzJfzg7Yoo6AQ45NIOfk3MgGUNlaIb9Uq9ot6bm5u/PLLL7mu2pT+/mUygc7eqez6wxQR+Pl0MgPfLdhgBEtLywJd8K1fvz5LlizJ0zlq1aplUP9NT+3atald27jzQysrK6pWrUrVqlWNet7ckvK/q4hJycgESGleG8HSXPPOKK59z8vLi02bNuHl5ZXrc6jv/Q13VeC1gMDp60WvWtScOXM0weEpKSn4+flRvXp1rcq1Dg4OBp83Pj6eNWvW4OrqSkpKCitXrsTf3z9XQkBXV1edAftq4e6WLVvYsmWLwecNDw8nLi6Oly9f5llAr14IPHv2LNu3b+fOnTvExcXh6OiIp6cn/fr102sxz8bGRkss9OLFC0AVrJ1bEVFhkXr6+uusu2+4lwjxb27G02oyLsp3eCONv8PkgJID51KKrAC4TZs2eiWMAihbtixly5bN5xbpRi6XZ7tw3bRp0wJsTf7To0cPevTokeX2ony/ysfRpF3/VzVeL++AULeylt+0OOLu7s6xY8cMCrROT/r5trmpQJsGqfx6UY5SCYfOp/Bhy6KVPKQoM3/+/MJugoZu3brRrVu3PJ3DxMQky3FQaaN9+/a0b9++sJuRLYMHD9YaQ+eGpk2bFooNV4Q9IS3kPsIr20xtN8k2Z7DNreqlcPiKGSmpSg7/mUI3n6Jrm7/44os8He/o6MjXX39tpNaULurWrZtnH1RWqBNY6kuZMmUKtSp0RlKOXUH5yneU1qKOxndUnP22efEdZbz3yuWgZkUFd8JlPI4SCbmfRt0qRS/ktHPnztlW6q5Vq1aRSMZiYWGRa19ueuzs7AxKZClRPNAkpBIEFB29kOvwYxc3m2QMf5X6GXRpomTB9yIIAvvPprAob8OKUkWrVq1o1apVYTcDe3v7XCeNyo/1rNKMi4uL0X36pqamuV4fzO3cKLcURpyAMiqetAs3ARHR1hoaexTr8SbkLU4gY6xedVcoaymS+KJorlfmB6GhoQDcvXu3kFui4sKFC0ybNg0rKyumT59O586dNX+n58+fExQURFBQEEOGDGH37t25Sk5eEkk9c0NV11tugtiwarHv182bN2fGjBl5Ko6ivn+vGq8EwCKcuZ4KHxupkflA+vmkn58f+/fv14pFBVi0aBG7d+/mzJkzWSaeAvSunmtmZqZTAFy+fHlN5dz79+8DquSOeXlvm5mZGf29HxYWxsWLF5k+fTqdOnXSfN6iRQusrKwYMmQIf/75p15jULlcrnf7/v7772IhAE45fUMT16p8wx0TI8UiFD1vjISEhISEhITepB8AZJVV6s3mtqSliQR+G42oVLJv5wNAEgGXdO5t/5MLvrsRRFUwq1P3ulSd2iaT+NfExEQS/0qUGH755ZdcH5vRsehZXanKziaKnL2Ryqjuxmpl9qSmpjJ37lxkMhkrV67MtIDh5OTE0qVL+eCDD9i7dy9DhgzJt6x+xRmlUpnrKgKnT5+mQYMGWuJfUAlLPv30U5YtW0Z4eLjeldzyi9TTN1ApFpSQQbBQXG15xqp8+qIrA3QnbyWzglULwD/9kcy3XxZOoL+EREZe7j8HqMZnae3fQFYCxmJ5DbpM33dNTEzo4JXMzhOmyIADZwteACxR8kg+cJ5XwzoUHb0wfdXvimN/U7Np06Y8HZ++31V1US2oP38BZ28UvQX1du3aaX6+ceMGoEoSk9sFKlEUOX36NEuXLuXp06cEBASQnJzMqFGj6N+/P+PGjaNZs2ZG+X78/vvvODs7M3bsWK3P9clK++jRI00lpCtXrmgWCvv378/169dz1Z4//viD8ePH07ZtW77++mscHBwIDw8nMDCQwYMHs3nzZoMDc9RtuXDhAkOHDgXg+PHjTJgwQWu/vFa1yQ9Sz4Zosu4qPatrvYuLq33IzXg640Kj+n3c0TuVpT+pxtMHziYze0DhVOKSkChoXv5wUtUvRJHUzt6ZxurF0T4sXbo0T8drJ+yR0eGNVA5dMkVE5MA5SQAsISGR/yT/fOZVgSSR1PfelGwzmW1zR+80Dl95PXYrygJgCYmiSPL+c5oxYFpHb8l3hLbvSJ109c5DM0RR5ODZlCIpAJaQKAkk/3RK5csGlB28Mo15iqNdyu36r5r09qhyOahRQcndxzJuPVDw72MF1crnvQKjhISEREGQsv8colJEQFD5HaU4gUzvOM/qCk7dMCEyTiQ0XEGNSkXLxqvj0ERRzPO5FAqFpvjExYsX+ffff6lWrZpex3bs2FHr9/79+/Po0SMOHz6cp/Z8/fXXyGQyVqxYQaNGjbS2lylThlGjRmFpacmaNWtYtGhRviWYKk4oo+JJu/lAlUyqdkUEM1OtuWRx7Nfbt2/P0/Hp+7RHBRELU5HkVEqNsN/YPHig0nuEhYUBEBQUxMqVKzXbmzRpUhjNAlSJAQCdCd7Un6n3KY2oYhFEVQVgI8YiSN4YCQkJCQmJYo4+IuBmLe0QgE3fRoFS5OedDxCAkZIIuERyb/ufnB+jEv+CiGP3OlmKf03SLWAWxwmnhIQxSb941LAamMhElEo483fBOSDOnTtHZGQk7du3zzJ7aZkyZRgzZgyxsbGZnIoHDx5k165d3LlzB7lcTv369Rk4cCCNGzfW7LN161a+/fZbdu/eza5duzh+/Djx8fFUr16dAQMGaIksANLS0ggODubAgQM8fPgQe3t7fHx8GDp0qFa1tdjYWNatW8eJEyeIiorCxcWFTp06MWDAAK2KZb6+voSFheHn58eKFSu4desWZcuWpWXLlowYMUJT3bRDhw6aCsDt2rXDw8ODHTt26PUcY2JiSEhIIC0tzeBswpGRkZkcmWqcnZ0BePbsmZYAeM2aNaxZswaA3377rUBE2alnbqiUTDIZYqNqpd6Wpw9EkclkuDoINKqm4K97rzLSh6VRt6rkApEofJJfCYDV2dtLQjBZbkm/6JG+/7ZqAGUt4fkLOHophZQ0ETN56Xs+Esbj5Y+nVFUTZALiu7qDxUtTH8x43zKZjDeqp3Hqhpz4RJEb/6ZRr1rRfGfu3bsXuVxObGwsv/76a7ZVXdKTlpbG4cOHCQkJ4dSpU4SHh1O3bl2WL1+uEbxu3bqVWbNmMXr0aKpUqUKLFi2oW7cu7du3z9LXkh2///47J06cYPLkyZnEyvpkpQ0MDMTa2hpXV1dWr15N06ZNEQSBL774gtjYWABCQkL0Hh8DHDp0CEdHR+bPn6/5zru7u1O7dm3ee+89Tpw4oSUAPnv2rGYesWTJkkwJcp49e8bBgwepX78+V69e5dSpU/j4+FCnTh2toI9Vq1bp3caCJOXEX6qsu+ZyqFmxVNqD9GS0C7UqCVR0VPIoUuBaaBqPopRUcJQVdjMlJPKd5P3nEFX6KRQdvTAr5kF4eUFXggCZTEZ7LxGZTERUwv6zyYhiWUrZo5GQkChgUvaf06qEJ9nm1z9rhHleSkxkAkqFkl/OpGjeZRISEvqRvPc0iKLKd9S5can3HUHmpI2dvJNZ9Quvqm4mM6G3VWE3UUKixJF68TZiVDyIoGjigczRRiuepzSS0RaZmJjQ4Y1U1j62QBSV/HI2hdEfSklkJSQkigfJv5xVzdNEkbQOb2BWym28mvRz20ZVFZy6IQdEztxILXIC4CdPngAQERGR56IRAQEB3Lhxgzlz5vDdd98xZcoUNm/erBVflxVz587F1tZW83uFChWIi4ujdevWhISE6KwomhMnT57k8ePHdOzYMcuYOYB+/fqxd+9eTpw4QWRkJE5OToSEhPD5558zY8YM7t+/z6+//srz5881cYht2rTJdJ7jx4+zdetWbt26hUwmo0GDBgwdOlTr2urzfv311zx79oyffvqJx48f4+zszAcffMCAAQNytYZrTFLPhKhqd4giykbVS/UcEnTHAHlWT+P8TTlR8SJ3whV4FLF+nR/kJaF3Ro4ePQrAiRMniIuLo1WrVlSoUAGAFStW6H2e2NhYrfjhrChXrhwHDx7U65y1atWiUqVKrFmzBnd3d6pXrw7A06dPWbx4MWXKlOGtt97SOubWrVv8+uuvALRv314T15uSkkLz5s31vp8ij1Ik9cwNBAGUdmXAzdlotqFoRvJISEhISEhIGIQ+IuCmLe1AFAlcEYWoEPl5538gioycWqegmilRANxVi39f/e7YrS7VprbWEv5K4l8JicykXzwSBAEzU4HabgpCwkx48EzJw0glFZ3yP9j53DmVMMzHxyfb/bp27Zrps+XLlxMcHIyTkxPvvvsuL1++5OTJkwwfPpzZs2fz7rvvau0/duxYypYty4ABA1AqlQQHBzNlyhTWr1/PG2+8AagcVL6+vpw7dw4PDw8+/PBDHj9+zJ49e7h69SqBgYFYWloSExPDgAEDCA8Pp2nTpnTs2JE7d+6wceNGLl26xJo1azA1NdVcOyoqihEjRtC9e3d8fX25d+8e/v7+XL58mc2bN2Ntbc2oUaPYs2cPISEhjBo1SuO80IenT58iiiKRkZH8999/jBgxQu9j3d3duXnzJgqFItM7VV11Tu2wUNO2bVuNIEJXVjNjo4yKR3H/CYIAaXUqIZiZan1/S6NN17UA3M4zlb/umSMisv9MsiQAlih8FEqSD14AQDQ3RWzdUAome0X6BQBTuYyW9VP49U9Tkl6K/O9SCh3fkirXSOSOtOthKB5FIRMg1bMagkPZYp9N21ikF943qqbk5HVVJdQzN1KLpAD4zJkz/PTTTwwbNoy//vqLxYsX4+7urldlWblczvbt20lOTsbLy4uZM2fi5eUFwMcff4ylpSVBQUEEBwdz8eJFTYXekJAQOnXqZHBbHz16xNy5c6lQoQLdunUz+PiLFy/y888/06dPHxo2bMikSZNYunQpEyZM0FQCBrC0tDRIAFyjRg2OHTvGgQMH8PHxoUyZMkRHR7Nnzx5ANQ7OuH+/fv0AqFNH23ekUChYsGABoiiyZMkSfH198fPzY82aNXh4eGiJs7du3WrwM8hv0v75D/H5CxBFFK8y7hb3jNx5JWN1J5lMxruNU9lwyBwRJftPJzO0qxRQKVGyEV8kk3L8mmpB3sYKmtTS+E9lMpVPqDSOH9LbBhMTE2ytZTSvrUoeEhUvcuGfVN6qa5rziSQkJCRygfgimZTfr762zY09JNtM5mRqttYy3qqZytl/5ETGKbh4K5U3a0u2WUJCH9L+uofycRSCIJD6RvVS7zvKKmljg6rgbKskMk7g9PVU4hJFbK1L17ORkMhvkg+cR0SVxCO1vScm6fpgabRHajKuAXf0SmPNQRFBENh/JlkSAEtISBQPFEqSf72gSm5lYQZv1y/VcQLpx5zp7bynexogIgBnrqfwececxbAFyf379zX/50UAvHfvXjZt2kSrVq149913MTc3Z/LkycyYMYM5c+ZgZZV9sp0333xTZ2GKhg0bYmZmlisB8MWLFwFo2bJltvvJ5XJat27Njh07OHXqlNY66MqVK7G2tmbixInY2dmxY8cOJk6cyPTp0+nevbtmv23btuHv74+joyPvvfcecrmcI0eOMHToUBYtWkSrVq20rrl27VpevnxJr169cHR0ZN++faxduxaAwYMHG3yvxiTl7A1EQIaAwrM6pjrGbqWlX6vJ1K+rKzl/SxWDevZGaqkQAAO4uroyZcoUvfatW7euzs/Dw8P57bffGDhwIHv27OG7775jxowZmmrhQUFBerfHysqKWbNm5bifubn+sVmmpqYsXbqUKVOm0KtXLypUqICJiQmPHj3C3t6eJUuW4OTkpHXMkSNHOHLkCABvv/12pjjbZs2a6R1fYWZmpndbC5rUK6GIyamq5E4ZYhGkCsASEhISEhISgJ4i4Fb2AAR9G4WYrhLwCEkEXCK4u/1Pzvt+r/pFFHHsVkdL/Kv+J4l/JSR0kzHg2bOagpD7JiCKnPk7hZ5t8t+xqM4WmL7ylj789ddfBAcHU69ePVasWKHJ9Pfff/8xcOBA5s2bR7NmzbC3t9ccY29vz8aNGzXvjDfeeIO+ffvy008/aQTABw4c4Ny5c7z33nt89dVXmqxbQUFBrFy5kgMHDtCjRw++/fZbwsPDmTx5Mj179tRcY8uWLaxYsYIdO3bw+eefaz5/8eIFXbt2ZeLEiYDKCeni4sKXX37J1q1bGTZsGF27duXChQuEhITQrVs3TWXgnIiLi+PRo0cAXLt2jcaNGzNv3jzNc9q5c2e2x7dr144FCxYQGBio5Si8desW33//PW+++aZWJkWAmjVr6l2Bzhik/H4VEFSChVfVfyWbnjkouXPjNJb9CAIC635OYmwva0wlL4hEIZK05ShiwgsEEdJa10dmYaYVtFpa+68uAX8n7zQO/qkSI678MVESAEvkmuff7VX1LVFE2dFLay5UGvtdVgvqb7inqSqhiiJnr6cypEvRCZpSKBT8+OOPLF26lPr16/PZZ5+RkJDA4MGDGThwIL6+vrz//vs5LkZt3bpVr79348aNNdlvRVE0uL2XL19m8uTJiKKIv78/iYmJXLp0SWufBw8eZHn81atXGTt2LM7OzgwaNIiyZcvSqVMndu7cSWJiImPGjNF7XJyRAQMGYGZmxoYNG/Dz8wNU3wUPDw/mz5+fKQmRs7OzzjFuSkoKc+bM4cSJ/7N339FRVG8Dx7+zNY2WELqEIggI0iEq0quogBQBQUEC0kQsP0EURIlSFAVBFAUbSC92gwjSRPClBJEmPXRSSdlsm7nvH5tdUzYhgYQEcj/n5ADJ7GayZO7eufcpW3nppZcoW7Ysb7/9Nk899RQjR47kxRdf5OGHHy7S15dj56G0LnKuTTd9Pm243e7Sz6Vd78d2FkUIFBTmr09h+KO+spOcdEezLPgB7E6EEDi7NEFvMMg1VLKul+n1ejo3cfLHYQNCCOatT5UJwJIkFRjL/O9A0xACnN2ayrE5jbe1lC5NVP48okdRFOattfD1a6Wu/0SSJJEy71tAQQgNVa4dZZB5nOnWzMHSzWaE0Ji/zsJrg/0L+xQl6Y4hbA4sn/7kKvQvQOsR6ukMWVzHouwKEjSqCcGlBNEJ8Pt+B4fPOqkXIjeAJUkq2lIX/4Kw2NApCvb293niBGSn94zrjo1ruvYjBIKd/zgK+/QyuHTpEpcvXwZczT0efPDBPD9HYmIi06dPZ+PGjbRo0YK3334bcDWdeOWVV5g1axYDBw4kPDyc+vXrZ/s8QghUVcVqtXLt2jXOnz9PVFTUDRUldnMnN2duiOGNu6DwhQsXMnw+OTmZL7/80pMc3bhxY8LCwpg7dy4dO3akRIkSREVFMW/ePKpVq8bixYs98XdhYWEMHjyYadOm0bJlywydkBMSEli7dq0nkbBbt250796d9evXF34C8I5DnkZNNKlZrJN/3bEGmedujWuqaXuySpFM7C8o/v7+120AlJOUlBReeuklgoKCCAsLIzAw0JNQO2LECE9hxNwymUx06NDhhs8nOzVr1mT58uXs2bOH999/n/Pnz/Puu+/SokULrx3Nx44dy5AhQ7J9vrvuuqtAzvNW+y8WQUFtVD1DcaebVfAtrCRJkiRJumXSByu6FwmMRqMn8dNsNtOydWmGPh+Eax7h6gS8YPrhwj516SadXPZ/7Hp+NQhAQNledakhk38lKU+yJADXEK5rCoWdh27NwmJycjLgWgTIi59++glwdfVNn5xatWpVhgwZgtVq5ddff83wmEceeSRDwYi6detiMpmIioryfG7Dhg3odDpeeOEFT/IvQL9+/Xj66acJCQnBarUSERFBjRo1MiT/AgwcOJBSpUrx448/Zjlndzcxt/vvv58qVaqwYcOGPP3smW3duhVFUahTpw4bN24kKCiIzp0707lzZ+67777rPr53796EhobyySefMHbsWD7//HPCw8MZOnQovr6+vPbaazd1fvnB/udh3BkLmpcqYcVN5oqo7ve6WpUVWtVzVQiNuqry4ZqUwj5VqRgTFhtJry4GIUABx/AuGNKCVvV6vbx+070HGwwGujYTVAnSEMCvf9nZfsBe2Kcq3YYch6OwLI5ACIEI8EXr3xqDwVCsg6bcMs97W9wDwjXxZeehonO9nTp1ih49ejBz5kxatmzJ3Llz8fHxITg4mEWLFtGoUSNmzJhBnz59cDi8z9c1TWPTpk1s3ryZTZs2ZflITk7m2rVrXr+2efNmNm/enKtzTUlJ4fPPP2fUqFEIIfjggw+oUaMGZ86cYcKECRk+duzYkeXxqamphIeHM3z4cAwGAzNnzqREiRIATJ48mY4dO/LDDz/Qv39/bDbbDb2eiqIwaNAgvv32W8+c9uOPP2bZsmV06tQpV8+xa9cu+vXrR0REBD179mTAgAEAhISEsHDhQkwmE2+88QbffPPNDZ3jrWLfedhdTwca18ywEV1cN+W9Jfg1q61Qr6qKAI6eVVn8k6WwT1WSCowWn0zSW0td3ZZ0OpxhnbMkfhSnccEtc8C1+/6l1wOCkn4aACs2WYk84SzM05Qk6Q6lxSeTEv6N605Fp+B8ppMcm8l+bH68lUYpf4EQsHyTlcjjRStYWpKKIufhs6R+vgEQUMIX7YmHPGu2cu0oY6EBg8HAUx3UtBgThVnLUohO0Ar7NCXpjpEyayXapTgE4OjYEH3FoCz7R8V17gNkGY+e6WRDURQ0IXhuTlJhn54kSVKOhMVG8uQvPMlxzmGds8w5i+v4DhnnneVK66gUqAJw5KyTREveC/UWlBUrVqDX62nVqhXffvstiYmJuX7s4cOHee211+jWrRu//fYbTzzxBB988EGG5Lh+/foxY8YMLBYLQ4YMYciQIaxZs8br83Xt2pWWLVvSpk0bHnvsMUaPHs3HH39MbGzsDf98eYlXdMclJiQkZPh8hw4dMnRG1ul09OnTh+TkZP744w8Afv75Z1RVZeTIkRniG8uUKcOAAQNISEjIso96//33Z+giajabqVOnDleuXLnhPdN84VRx7vnXFa5dwgdqVfa631iceNtvbFZLS9uTdXUAlq7v4MGDDBo0iJMnTzJ+/HhMJhN9+vShU6dOLFq0iEmTJhX2KWZgMBgIDQ2latWqmEwmWrdunWF807Tit3Zg33kIJe33XjTOWBzgZu/tZOkjSZIkSbrD5KYTcIvWrm4xX86NBg1+WBGF064x7o3sK0dJRdeJZXvYNX4NCq6g7eBedagxUSb/SrkTGBiYbbB8XuRHdaLCkv5aSB/s3L6hHZ0OV8f0HTZmjymBroAvG3c3r6SkvG1UHT9+HIPB4LUCYKNGjTzHpFexYsUsx/r6+mK3/5f0cfz4cSpXrpyly5ifnx/PPfeZEYHKAAAgAElEQVQc4FqodDpdXeMWLlyY5TlNJhOnTp3C4XBgNLo6wpjNZkJCQrIcW7NmTbZu3YrVavVaBSw3vv/+ezp27EinTp2YMGECp0+fpnr16rl+vKIofPjhh6xYsYINGzbwxRdfUK5cObp3787o0aMzdFEuFEJgXbsdUEARiE6NPZu/7uuwuI7xmRMWDAYDrz5ho8ebfghVMHNpMs9096VMidt3vJJuX0kzV6FeTUAHODo1Qte8tte5WXG8diFr0KqPWc9Lj9t4+TPXe8Hzc67xf4uD0cvLV8qDhDHzQHNVmbWN7II+sKS87tJJ/75Zyl+hYXWVv0/pOHlB4/AZJ/WqFf7WQUhICC1atKBVq1a0b98ecFWAvu+++xg3bhzz589nz549JCQkeOaZmTmdTiZMmHDd75XdMXq9nt27d2f7uNTUVD7//HNWr15NcnIybdq0YdKkSQQFBQGuufiePXsyPGb27NksX748w+fMZjOHDh2iXr16vPHGGxkqbJvNZqZPn06bNm1ISEi4brfjnDidThwOB06nK1Hr/PnzJCcnc/HiRc9HeHh4to+3Wq3Ex8czfvx4Bg0alOFrderUYfXq1SxfvpxevXrd8DkWOKeK7budrmJPZiNa6/pZkkiK67gAeArquAOQpgy0MXCGH0LA1M+TGdjRFz+f4vv6SHeupClfIZIs6ADb46Ho6tzlNRCvOI4P3goElA7Q80IPG28u80FRYOwHiez4KLCwT1WSpDtM8utfoCVa0Clg7/MAihybPbIbm8c9ZiN8uWstZdzcJLbNl2OzJOXk2uh5rg5FKNjGPIwube2ouN8jun/e9MHrrqKrOga0sfHNZiOpNpj0aRKfvSK7jUvSzdKir5E8axUgUPR6HJP6YpbdyD0yz3n0ej3DOjtYulnlUpyOrQfs/LzLxsOhN75mKkmSVJCSpy1Fi04EIXB2ayrjBNLJfG+r0+lo39DJ0s1GQGH9VitPd/Mt7NMkNjaWb7/9lrZt2xIWFsaAAQNYtGgRL774Yq4e73A42LJlC23atGHw4MHUrVvX63EdO3akRYsWLFmyhF9++YV///03w9fbtm3LXXfd5XnNfHx8KF26NJUrV/YUFT5y5MgN/Yzux6ePGcyOxeIqFps5lrBWrVpZjnV3Cz527Bhdu3bl6NGjAOzbt4+TJ09mOPbcuXMA/Pvvv3Ts2NHz+UqVKmV5Xj8/P8D12t7MvunNsP7yF8Jqc8UAtZF7jemlv67LldZR7y6Vo+f0HDrj5OQFlZqVvec1FKZNmzZliRdo1qyZ12MfeOABAJo2beo1Vhbg5MmT2T4+s/vvv5958+Z5/n369GkuX77MpEmTPNeCwWBg+vTpNGzYMEOifW4lJCTk+ny8xQFkFhcXx759+9A0DafTid1u5/z589jtdubMmcPly5c9H1WqVOH111/P1fdetWoVq1atytWx1+smXFiEzYH9l/9z9QfxMyPur5uveRuFH8UjSZIkSVK+y0sS8Ndzo9FUiFh3HkAmAd9mTizbw5+e5F8o17MuNSe2kcm/Uq5VrVq1sE+hyMi8sBhcWkfbBnZ+P2Ak6qrKL3/a6P5AwS4auRetzp49S4MGDbI9Li4ujsTERKpVqwa4Oo6ZzeYMXXrd3FXwUlNTM3ze27HgqjzllpiYSHBwcI7n7E5WPnnyZJbFufRSUlI8i3/ZJdGaTCbAVVnwRhKAf/rpJyIjI1m8eDENGjSgQoUKhIeHs2jRojyNezqdjoEDBzJw4MA8n0NBs/78f2jnolEQONs2QFe2VLHvepFe5grQ9UIcPP6AjbU7TFxL0XhjURIfviADUqRbS70UR/K7q1xVLfV6HK/3w8dg8HQildeu944SPR5wsijCybFzeg6fcfLFjymEPXb9irOSBJD681/Yth1EpyhowSUQsut2Bpmr7+r1evo86ODgKTMgWLDewvwXShb2abqSD6dMyfC5Y8eOeZJrIfuNNzeTyZQlATc/GY1Gtm/fTmhoKP369aNJkyY39Dw6nY6PPvqIMmXKeP3dVBSFbt26ZfhcpUqV6N27t9eN7/RSUlJo06aN16+Fh4ej0+kICgqiXLlyBAcH57i537ZtW3788UdPIEBmAQEBDB8+PMPnnnnmmRzP71ZLXb0NLS4JRQFHt6boS/jJYMo03grqtKzjpHMTOxv3GYmO15i+JJlpw73//0vS7cp54iIpC39CQUHzMeCc0AefdPMGOT78N3dwjw0Gg4En2zv4apPG2Ss6dh9xsPp3K33b3VgxN0mSpMzUExexfPoTigKa2Yjjf73l2JxJ+rHZPT4P7uBg6SaVqKs6dh2ys3aLld5t5dgsSd5Yf9zlWjsC1Epl0J7phEmuHWWQuWijwWBgfE8r3/1pJCUVvo5I5cUn/KkbIsNPJelmJE5YhEixuooRDHgIXc1Ksht5GvfPnnn/yNfHwCu9bYz/1BcdCi99lESXFmZZRFaSpCJHuxSHZc46QIBRj/3VPjJOIJPM+5X9WrsKzoDg4+8shZ4A7C40bLVaCQsLo1atWvTo0YNly5ZRt27dLHt33jRs2JBNmzblKg6uZMmSjBkzhtGjR2fZr6tWrZonTjA7oaGh/PDDD5691HfeeYeAgIDrfl/3XuPp06ev+z1OnTqV4TFu6fdv3dzJue4Ow+4Yw5wS/DI3TckuvhEyxjjeapYFPwAKAoH6RGtMsngL4D0OoW8rB28t06EDFqy3MHts0dtnbNCgATNnzszTY7KLfx01ahTXrl3L8Lnvv/+eXbt28eabb2YpbJ752nn00Udp0qSJ10Tf/v37e/7+4IMPerp2lypVitq1a3tib9MbNmwYPXv2zN0PBdx9993XPSY+Pp6JEyd61iZNJhNms5kKFSpw9OhRypcvT/PmzSlfvrzXJkGZGQwG3nnnHQAiIiLYtm0bU6dOzfDzzJo1i+DgYIYOHQp4LzpQFKQu/Q0t0YKigP2xFuh9zfk6NsgVGEmSJEm6Q10vCVgIQYvWpXE6BMsXxCA0wYa15xCaYNzUBhTje5DbxslV+9iZlvyLgOCedWTyryTdhPQLEO7rZmhnB78fMIIQzFubUuAJwKGhoXz99dfs3LmTRx55JNvjVqxYweeff86oUaMYNmwYfn5+pKSkkJqaiq9vxsVP9yJaqVJ5T3r08/PzVO7LzP293FX1evfuzauvvpqr53WfU2YJCQmAa0Ezr44fP84HH3xA3bp1adiwIQDDhw/njTfe4NVXX+XNN9/M0/NFRUVx+fJlmjRpkuNi4q2WMnc9AlAAx9COWRYQi+sYn90GsMFg4KXeNiL2GLGkwqIfLIx4zI/6Nb13CZSkghA/eh7C5kAB7INaow8p73mfkQEcWTtKpL9+pw6yM2C6631t8meJ9GrjS1ApGcEh5UzYHMSPnu/5t31SHwy+PrJTVBpv75l6vZ4nWtuZuVpgscIXv6Qy/dkSlPC7c1+f5ORk4uLiiI+PR6fTUbp0aQIDAz2bZLllMBj45ptv0Ov1aJpGcnKy5148rwIDXd25Tpw4wdmzZ3P1mBYtWmS7uejm7+/Pe++95+pqpCie8/P19SU4OJigoKAs60YhISFUrFjR6/OlT/6Ni4sjIiKCrVu3cvnyZWJjY1EUhaCgICpVqkS7du3o3LnzDd2LFJSUD9Z5/u4c2iFDR5XiOi5AzvPpiU9Y2fq3EYcD5qxK4ZnuflSvVPSqc0vSjYof+h6oKgD2EV0wlC/jdd5QXGU3PphNBqYMSGXYHNd757i5iXRtab6j5w+SJN06CUPeBVUDwDayq2dslkHSLpnHZoPBgKqqmE0GJvS1MuYj15r9S/MT6RZqxs+n+L5WkuSNsDm4NvYjVzyEANuExzHKtSOv0o8zBoOBsqUMjH7YyrtrfRBA2IwE/vi4bGGfpiTdtuw7D2P56ldXwf8Svjhf7IGP0SjHo0y8rVc9Gurg81+d/HPGwIkLKh+sSuHl/rKIrCRJRUv8oBmeOAHbU+3Rh5TPULC4OMcJZL6vdY/z91VXaFrLyb7jevb962TnP3YeqJ/3Pbf8YLVaCQ8PJzIykmeeecaTbPbCCy8QGRnJtGnTSEpKom/fvtf9f8xrEwxFUXLsbNuyZUvUtDXt6+ncubMnsS47bdq0Yc2aNWzatIl27dple5wQgs2bN6MoCg899FCGr3mLBXTHAbr3Cd0xjRs2bPCaMHy7cJ66hG3DXhRAq1IWWteXnb1x/d6696PTxyH0b2Nn1hqw22HRjxbChwfgay5ar025cuXo0KFDvjxXy5Yts3wuMjKSXbt20alTp+vGESiK4kn+jYyMJDY21utxderUAVzdi8GV6OttT75Ro0Z5Ov/cqFmzZp6KsJ85cybHr+t0Ojp37gy4uoBv27aNDh06ZIiDnjdvHmXLlvUcV1QlT18BuGJ7nSO74ZPPsb1FJ4pZkiRJkqR8l5tOwA90KIOCYNmCWIQq2PjteRCCcW/eJ5OAi7CTq/bxx3Or05J/BcE963D3xNYy+VeSblB2C4sP1LUTVEIlPknH7/ttXI3XKFem4BKPmjRpQoUKFfjtt98YMmQItWvXznJMfHw833//PeDqwAVQu3ZtDh48yIEDBwgNDc1w/L59+wCoUaNGns+nZs2aREZGkpiYmCEp1+Fw0KlTJ5o3b+7pGhYZGelZxEnP3cksfTfd5ORkzp49m6HCl81m48iRI9SqVcuz0JHbMevw4cOMGjUKIQTTpk3zfL579+4cOXKEFStWUL9+fcqVK5frn33dunUsXbqULVu25Koa4q2gXU3AvuUAACKoJLSqJxcQM8m8iGg0GilXxsmo7lbeX+uDpmkMnBrPtgVlKV1CJhFKBS/ly42kfr8LHSBK+6O90BMfoxGj0Siv3UwyB3AYjUaa1nbySAsbP+82cS1J48k34vjp/bKyiruUo9iwOTjPRaNXFNRG1eCxlhgzBU3pdPKXKPO818esp2tTB+v/MGF3aHy73crgLoVbVXvr1q1YrVaEEDidTs/HqVOneO+994iJiSEmJobo6Gjq1q3L008/nePzqarK8uXLiYiI4OjRo1m+rigK9957L927d6dPnz65Hpfd6y1RUVH06dPHU6TnRkVERPDll1/m+vj33nvPc1+QHffXd+/ejaZpOBwOHA4HiYmJnDx5MsvxQ4cOpXTp0jk+5+HDhxk/fjyaptGhQwe6detG6dKlEUKQkJDAoUOH+Oijj/jqq6/48MMPb+h+JL+ppy5h33MMHa4NeaVRzQzjgnxP9h5QGVLewNDOVj792YzDKXhiShy/zy+Lv0wkke4ASTNXYdt5GB0KWoWSaKO6YUr73c+cZFacxwZwBWAIITLcb7e5z0mbBg62HTQQmyh4KjyBdW+XkfsKkiTdlOTpK7DvPIQCqBVKZxib5VpKRt7G5k5NnYTWcbD7qIFLsSrDpiewbKocmyUpvfiwD3BGXUWngLNJDZRH5dpRZjkViRrWzcbKbSrnrurYe8zJW58nMeWZotfBSZKKOi0mkbgB00G4rjXrC49iCCrludaKe2KYW3bjkdFoZNpgG72mudZmp36RTLvGJpreI4tAS5JUNKTM+xbHlgOAQAsuhfpiT1nkIRuZ9ywfbeFk33EDCI3Vm62FkgB86dIlxowZQ1RUFF27dmXkyJGerwUEBPDJJ58watQoZs2aRXJyMs8888wtP8emTZvSr1+/HI/JbbOM5s2bExISwq+//srjjz9OkyZNvB63bNkyzp07R+vWrSlbNmMhoH/++SfL8fv37wegfv36gCu+cdeuXezfv5+OHTtmOHbfvn3s3LmTjh07ehIbiyrL17+5svuEwNH3AZnUn07mDsA6nQ5/Xz2dG9v5YbeRVDt8v8PKEx0KNw7hdrF48WL+/PPPXB+/Zs2aPBc8v1nr168nMTHxurEaxYHj4BnUU5dQFHDeUwVd9QoZxof8yOOQCcCSJEmSdIfLTRLw/R1cXWaWfxSD0DQ2fnseBXhOJgEXSSdX7WfHc2tQBAignEz+laR8k3lR0WDQ81ioypcbdShCYe6qZN5+Nu/daXPLYDDw/PPP8+qrrzJ27FjCw8Np0aKF5+tRUVFMmTKFmJgYHnnkEWrWrAnAww8/zNq1a5k/fz733nuvpyvX+fPn+eKLL/Dx8bluUoA3Xbt2Ze/evXz00UdMnDjRM46sXLkSq9VK8+bN8ff3p23btmzevJkVK1YwYMAAz+O/++47vvjiC6+Vtz788ENmzpzp6a67cOFCkpOTefTRRzO8HgApKSk5JiBUrVqV2rVr8/zzz1OtWrUMX3v55Zdp2LAh7dq1Y/PmzXl+DXJSqVIltmzZckMd3m5E0pz1CFVFBzgeaYY+UzBKcR/ns+t8YTQaGdrFxqqtKheidZw45+DxibFsmFsWo6F4v2ZSwbJuO0jss3Nxh4rZJ/TCUDpAVvX1InMX4PTX78T+VrZEClJtCtsjrTz3bhwLJgQW8hlLRVXC9JWkLN+CTlEQCjjeGYQ5bTPdfe3Ja84l88abXq+nR6id9X+4Crp8sDKFJzv7oivEl2vRokUcOXIERVFcnQbNZkqUKIFerycqKopy5cpRo0YNz5/XM3HiRP744w8GDhzI//73P0JCQvD390cIQXJyMmfOnGHbtm3Mnj2bf//9l9dee61Afq6BAwfSpUuXDBVr0xs7dixjx4697vNs2bKFl19+OU/f++WXXyY1NTVXx95///3Mmzcv26/PmzcPnU7HypUrvXYh7tWrFyNGjKBv3758+umnzJgxI0/nWhCS3lvjGgOEwNkr1PN+7B4bivv44C2g0mg0oqoqYx5LZd0OjdhrCgdPOuj/ehzfzQqimMfES7e51J/+IuG1L9Pm6wL7lP4Y/X09yR/yXjsrb/P11/rb2XnYgKoKft5lY8riJKaFyQQQSZJujPWn3SRO/hLFFUWJ7Y0BGP3k2JwTb2uhbw62032yHk2Fb7el8tbnet4YVnD7GpJ0O0l8ezmWZZs9a0f2dwbLtaMcpF87cifcmVWVN560EzbHByEE05ckc9/dBnq2lgHckpRbwuYgpvvrqOejURRQa1eCpztkKUYgE8P+k77wiXs8alDDSb/WdlZtM2F3wKMT4vm/z4KoHOw9Nk6SJOlWsW3cR+KLC0EIFBRs/+uFoYSfLPLgRea9Sr1ez6OhDsKXCzQNvvrFwpShAZS5xQX+g4ODKVu2LN27d2fIkCFZCgQFBwezdOlSlixZct0k3IJSsWLF63YsnT59eq6ey2AwMHnyZEaMGMH48eOZNGkSXbp08fyOOhwOli5dyoIFCwgICGDChAlZnmPTpk307dvX02308uXLfPPNN5QtW9bTzKRbt258/fXXLFiwgCZNmhAY6Ir7SElJYcaMGZw6dYpHHnkk169BYRAWG5ZPfnQFbqMg+jyYr8l9dwJv13WP+x38uBtA8MGqFJkAnEs57dWnt3z5cmbPnl3AZ+NdREQEFy9ezDEBOCAggJ49e3o6qd+pkt9fA2mxCOpjLQokNlAmAEuSJElSMZCXJOAVH0UjtLROwAiee7OhTAIuQk6s2s+OtM6/QgjK97yHWjL5V5Lyjft6cV9DBoOBx0KtfLXRCAjmrbEwooc/IRUKbtOoU6dOXLhwgfnz5zN69GiqVKlCSEgIsbGxnDhxAqfTSbNmzTIspjVs2JAnn3ySb775hv79+/PQQw9htVrZsmULKSkpTJkyJUvlvdx47LHH2LBhA2vXruXIkSM0btyYqKgotm/fTv369T2LmC+99BIHDx5k9uzZbN26lTp16nD+/Hm2bt1K2bJlGTduXJbnjoyMZNCgQYSGhnL8+HF2795N48aNMyyMli9fHoAxY8bQoEGDDN190wsICOCzzz7L8TUtCDqd7pZ1B1YvxpIyZz2gIBBoPUMxp0silGP9f7wFpPj6qHw4xs6T75iw2RV2H7IxckY8i1+XSYRSwXCcuMjVnm+BqiEAZ7fGKP0ewpjW/Vd2E/POWwX3CkEqM4fbGDffhILCkp9TaFDTyKg+MqlAyihl3U4SpixxddwWAsfUJzDUuctrB5fift0pioIQIsM1p9fraVVfIaiEIC4RDp9xsuQXC08/7Fdo57lkyZI8HX/kyJFsv2az2di6dSvt27f3mlwbGBhIYGAgTZo04dSpU2zcuLHAEoArVqxIxYoVC+S5r2f79u25Oq5Lly7XPSY+Pp7AwECvyb9uwcHBlCpVitjY2FyfY0FxnriIZdEvKEKAAlrvBzDKccErb+/HAX4qc0fbGPquGacTNu2xMunja8wYU6qwT1eSboj94Glinngn7Q4bnH0fRNetaYZ5Q/p77eI+PqT/+TMXCLi7ssrUJ1OZ/LUvQgjeXZbCvdUM9O8oA3gkScobx9+niev3tmu+hsDe70F0XeXYnJ30xdQyJ8PUrKwydbCNyV+aUVCYsSSJuiFG+smxWSrmLOv+4NqUr9GhINCwT+0v145ykL5IlF6vR9M0zzjTpqHKkI42vt5oRqAxNDyBqvP0NLnn1ndnk6TbUdzgWdj3HEdBQfibsX/0LCaTyWsCsJRx3uOe86iqislkYlJ/KwdOGTh2TiE2UfDw/+LY+UlZ/H3kaydJUuFwHokirvdbruL+ioK9ayPo86BnnJdFHv7jrSipXq8nsKSOVvc62fa3HosN3liUxIcv3Nq9CIPBwMKFC3P8//Hx8WH48OE5Ps+ff/7Jc889d8PnUbdu3Tzvl96oRo0a8f777/Pqq6/y+uuvM3fuXGrVqoWqqhw+fJikpCQqVKjAu+++64nnS8/f35/Ro0fTsWNHSpYsSUREBMnJybz77rv4+PgAUKtWLcLCwli0aBH9+vWjbdu2+Pr68vvvv3P58mWGDRuWpfFHUZM0YyVqdAI6BdT7qqGrEizvJ9PJLg6hzX0OSvhqJKfq2P+vg+UbUxnQqWisUw0ZMsRrB+vcmjNnDq1atcrV8zzwwAPXfZ78kl8/V34oW7Ysr7/+epbP2+32bF+Thx56KMvnLl26RLNmzTJ8bvv27dkWXr+VHIejSP36N1fxD0VB7dESk5fiTjdLJgBLkiRJUjGRpyTg+dEgNH5b7+oEPFYmARcJJ1btZ/tza1AAhKCcTP6VpHyV3cJio7v1NK3lZN9xPXanYPKniXw9Jfsg9/wwZMgQmjdvzooVKzh06BB79+5FURTq1q3Lo48+So8ePbKM5S+88AK1atVi5cqVfP/995jNZu677z6GDBlCkyZNbug89Ho9c+fO5csvv+SXX35h5cqVlCpVij59+jBmzBhPh97y5cuzZMkSPvvsM7Zv305kZCTBwcH06NGDsLAwKlSokOW5Fy9ezPTp01m9ejWBgYGEhYUxdOhQz3MC9OvXj8jISA4cOIDNZvMsEBVHCa8sQtjsKAjUJjXQNbnb63hfXF8ft8wBKUIINE1D0zTqV9eYM8rKmLlmQGHVbyncW93Ai0/K7hdS/tLik7ncdTIi0YICaA1DUGcPxVcGb+Qoc+CqwWBA0zRUVaVTM40Xe9v4YI0JRVF49aN46lQz0q6ZTyGftVRU2Pae4OpT76X1iAJ1cBt0g9pmGzQlr72MHYDdQVMGg57h3ezMXGVGCMHkz5Lo0973jgiWMpvNtG7dmm3btvHxxx/TqlUr7rrrLgICAhBCkJKSwpkzZ9i6dSt//fVXka8uXRT079+f8PBwxo8fT58+fahTpw4lS5ZECMG1a9c4fPgwK1as4PLly14LAt1qCeM/RqgqiqLg7NQQXfUKckPei5wCvJvfozJjmJX/LfRBURTmrU7i3hoGBnfzL+SzlqS8US/Hc7XbZITVDgK01vXQ3h6EOV2xHlloK6vMAdeapmE0GtE0jSfaWjkXbeWzX1xziOEzE6heUU/Le2UCiCRJuaOejyGm22uesdnZ+l7UtwfLsfk6vCXDuNdC+7WxcvayjcURJnSKwogZcYRUDJZjs1Rs2fceJ3bwLAAEAsfT7VAGtZNrR7mQef3IPc5M7G/lQoydzfuNWB2Cnq/Esn1huQItoixJd4Jrb36DZe0OVwyWXof142cx3l3JMxbJArLZSz8eue9HSwWofPa8hcen+RF7TeHYWZV+k+P5fmYg+lvbLFKSJAktJpGYrpMQKakoioKjaQ3UD8IwyziBHGXuFmowGBjzqI1tBw0IofH5jxae6+NPrbtubdpTfvwf1apVK9tmF7lRsuStjWdq1aoV69evZ+XKlZ74P4PBQEhICJ06daJHjx7ZNsro3bs3AQEBLFu2DIvFQv369Xn22Wdp2LBhhuNGjhxJjRo1WLFiBRERERgMBqpVq8bYsWPp2rXrrfgxb5h6MZak99ag4Orw6RzZFWNa7J573UryHodgMuoZ0c3B+2tNoCi8/mkivdr44GMq/NcsLCyMhISEG368u6vts88+e1PPU7t27Rt+rDdF7Xy8MRgMNzVGAhiNxnw6m5uTMHY+AAoKjkeboa8SnCG2N7/WmxQhhMiPE5YkSZIk6fYghPB8qKqKqqo4HA7sdjs2mw2bzcaOiBjWLIxBaBo6RaFjzyoyCbiQnVi1n23PrUEHIDTK97yH2hMeksm/kpTP3MmC6cdGq9XKwZNWHpvigyIAofHnp+VoVLto3DzebsaPH8+OHTvYtWtXhmTfW2Hv3r18+eWXTJgwgSpVqjBkyBAMBgOLFi3KcuycOXNYunRprp97wYIFtGjRIj9P18MeeZIrTceiAxQd2H6ejE/96vj4+HitElrcpZ/rOJ1OnE6nZ55jtVpZ9bvGm1+ZXK+n0Jgxtgyj+8pOolL+UK9e49KjU3HuOw5CQLWyOFe+hE/5QMxmM2azWQau5sB97Xp7L7bZbLz1Faz53YAO8PcRLJ0WTPsWhV/JUSpctn0nufjoVLiaAEJDtK8PnzyL2WzO8F6ZOXCquEu/LuB+r7RaraRYrHSaYOB8jB5FaLz+VAleH3p7vE8eOXKEwYMH88orr9CvX78sX+fy8JQAACAASURBVFdVlWXLlhEREcGxY8eyfF1RFOrVq0f37t3p27dvnn9Pzpw5Q58+fXJ9/LBhwxg1alSevkd6W7Zs4eWXX+a9996jbdu2N/w83nTp0oXatWszb968HI/bsWMHy5cvZ8+ePaiqmuFrBoOB0NBQBg0alKUS761m23aQ6Hb/c62pGHXYNk3Dp0YlfHx8PO/N8n35P97m0+41Q5vNxqc/aMxZa/asUX36aiADu8okYOn24DwXw5XuU3AePosiBKJuZZwrXsRcuoRn3pB+jVWOCxl5m6+7xwar1coLH+vZsNcMQiOwhI41bwfyQAOZaCZJUs7Uc9FEP/w66uEoQEOrVwX78pfl2JxL1xubX/rEQMRfenQKlPFXWDujLC3ry7FZKl7s+05w5eHJiJhrKEKgdroPbcGznntCuXaUM2+xJe5x5lqSlSGzTPxzWg9CUKuKgfUzg6hRWfakkSRvEj9YT/z/PvPsUdrffQrd4w9kGY/c+76QP8lHd4r0cx6n0+kZj6xWK3+fdPDkDD+sdlCAfu19+HpywRZ1lyRJSs+d/OvYfwIFUGuUw77qf5iDy8g4getwF5hJH9uTmprKc/Nhwx4TaBoPh5pZNyOosE81R99++y3h4eEsWrSIRo0aFej3atmyZZZ9uex07tyZd955p8DO5fDhwzz11FM888wzjB49usC+T1EQ+/R7WL/ZBJqGuP8e1GUv4evr61m/kveULtnFIaSmptLhFRPnoxV0wJvDAnhl0O0Rh1DULV++nNmzZ7NmzZpb3kX72WefZe/evbk+fsOGDQQFFe3xPK9Sf9hFbM+p6ABhNuD4PRxz1fL4+vpmuMfLj7FBrrZIkiRJUjGTm07ArbqWBWDtJ9EIIfht/TkUYIxMAi4Ux1ftZ/u4tYCrInEFmfwrSQUqcwdgg8FAnap6Brazs2yzq1r+Sx8msGl+cGGfqpRHTZs2pWnTpp5/t2zZ0rN5mlm3bt2oV69erp+7Zs2aN31+2Ykb85Frp1II7ANbo7+nimdTQCb+ZpV5rpO+k6imafRtayPqsp2vIoyAwqT5cRw+aWfuK0GyErR0U+yHznLx4TfQLsaiCFDK+ONYNBpzcGnZSSKXvHUBdgd0CCF4bZCNK7EqO/7WYbEK+k24wrRRZRjVr1Qhn7lUWJLW/sGVIXNQrDYUgHpVEB8MxZx2j+RtI11edy7pr7f01XfNJgNvDHYw/H0doDB7eTLP9vQnuEzRf5MMCAigVatWVKpUyevX9Xo9gwcPZvDgwSQlJREbG0tCQgI6nY5SpUoRFBSUbdXq3AgODs7TBnqNGjVu+HsBBAUF0apVqwLZIHvooYeoWLHidY9r1aoVrVq1wmKxcPXqVeLj41EUhcDAQMqVK4ePTxHo1C4E8WPmo6C4ujwN74ShajlZaT8H3ubTRqPRs2Ef1t3KhWg7a7YZ0SkKI6fHcfSMgzefLS3XDaUizfrnEa70nIaIS3TdYpcv6ZqvlwrIkvQh5+vepe8Snr7rknvOPmu4nUtxTv4+pSc+SaPrCzF8OrE0/Tv6FfKZS5JUVNn+PEJMj6mI2ERAIMqVwrZ4rByb8+B6Y/M7w2xcilE4eEpHQrJG1+evsnBiIP06ybFZKh5S1uwgZshssNpRAK1eFdTZQz1d2OTa0fV5W7N1r9eW8Nf45Hkbfd/y4XKswsnzDloNv8Kqd8rSqpG5kM9ckooO4VSJHTmPlC83pnWM07CPfRil1/3ZFiIAmfzrjaIonvUq93xH0zQa1BDMHWVh1Dw/hAarN6dy+oKTddODbou1bUmSbm+Ow1HEdJ+MGnXFte5Y2h/bF89hLlvaE9cp4wSy561bqMFgYFJ/G1sOaNjtChG7rGzbb6N146I7xwwKCqJRo0Y3tdeYW+Hh4eS2B2SFChUK+GyKB3vkSSzfbHbFAul1ON5+EnM2MUDF/frOLg7BYDAw8QkbY+f7IhDM+iaZod1vjziEoq5SpUq0atUKX99b30Bh+PDh9O7dO9fH34ox8pZSNRJe/sx1n4eGY+zD6CsFFVgsguwALEmSJEnFVG47Aa/7JBohNHQodOhVhTFvNpLBfLfQ8VWRbBu3xhXMrmlU6HkP90xoJZN/JakAZdd5MCbeSpeJZuITBTpg6dQy9Gorg2TyqjA7AN+OLOv+IKbfOyhCQynhg33b2/iULZ2lW5lMXMgq/aavt85ls5bBso0GT5Xthxr78HV4OUqXkAuLUt4lr/+Ty0M+QEm1oggBZfxQF43E3Khmhnmb3NjLnfTvxaqqYrfbPfcpCYk2Xv5Ix66DOnSKQBGCQQ8HMHeiLMxR3ES/sYy46avQAwgN7q0Mnz6LuWKQ10rasmNCVjlV3x01V8/v+11dogZ38WXhRNktQbo9JX++gYQRc13jRHBJ7FvC8S1VwjOflonA2cs8n868bjh5scJ3OwzoFFCEoEuoD19MLYu/r5xPS0VP0lebuBo2J61ztUCpVBrnolGY6tyVYd6QuQq3HBeycocWZO665B4fouNtjPnQxP4TBtdahqIwtrcfM8eWLuQzlySpqEn+4lfiwuagpM0lRKUy2BaPxlSnqhyb8+i6Y3Oclec+NLH/uC5t7qYx7omShI+WY7N0Z4ubspSEd1Z47llEg7tQPxuFqXygXDvKo8yxJe51JPda0qkLDkbPMRJ1RQ9CQ6fAe+NKM+Jx2c1JktTYJK72eRvr9n/QKYCmoQ7vAK/0yrbzr1ynyl76xF9vcW4/7dJ4eaEvQgh0ClQM0rFuehANaxkL+9QlSbpDWTfuI7bf22iJFnSAVsYP2xfPYWpYQ8YJ5FL6sT1zF+AP12nM/9aEToF7q+nZvbg82fR5kApJcekAfKXVS9j+PIwOcA5pizKlv6f7r3v9Sl7f/8l8/+ieq6WmpvL0LD1/HTGA0Ah71J95L8n1Ken2lfTRDyQ8/zGK0KBKEPaNU/EtEVBgsQj6qVOnTr3505YkSZIk6XaTfiKRvnpk+huQytXNBJRWOLLXAghOH00k9nIqzdtWkEnAt8DxVZFsHbfWlfwrBBVl8q8kFQr3goRBr+FncrDtbwMKsO+ogxE9/dHr5DWXFxEREURFRREWFpZt913JRTicXO3xJuJaMooCjkmPYwyt63UjWI7/3mWe76R/nULrqQSXdvLHQVeHw3OXHHy3OYXO9/tRpqS+kM5Yuh3FTFvB1XGfgsMJAqhTGW3Jc5hqV/EasCqv2dzzdp9iNEDn5k5SUlUOntShAP/8a2Pb/1no9pA/vj7yveVOp1lsnB/wHtcW/+pK4kEgOjdA+WQ45rKlM7xPujfa5HWXPfdrkj6QUwhBg2p2VmwxoKpw6JSDnq19CS4j3x+l24uw2Fwd5VKsKCjY3x6I8b4aMuAmD7zNp91/b32fE1+zyl9H9CDg1HkHP22z8HArP0r6y/djqYjQBNGvfEHspK/Sqm8LRKMQ1CXjMIeUl0F4NyCn+2wAsxG6t7BzMUbj3wsGFCH4v8MO/jxoo0drP0xG+bpKUrGnCeJe+oyE17/yJP+qjaphXzoec0gFOTbfgNyMzQ+3dBB1RXDyguu1/OsfG7sPWnlUjs3SHUhYbFzpP5OkxRtc14MQqJ3vQ/t0FObAklnGGbl2dH3eXpf094cl/QQPt7Bz8BRcitWjCNi4O5XzV5x0fcAPuZUqFVf2Y+e51GYC9n9Ou64Dgw7HOwPQhXXy7B9l7v4rixHkLHN35Mx/1qio8VB9G5v3G0i1KaSkaiz/1UK96gZqV5VJwJIk5a/kRRHEDpqFsNpRAPXu8tiWvyjjBPIo8+uRfr/y3hAH3/2hIyUVYhM0qpbX07CWqZDOVPImOjqa9evX07hxY5o3b17Yp1MgLN/vInH2Otd8row/6scjMZfw9zqPk9f3fxRFydCp2n1d1w+xs3KrAYTCgeN2GYcg3ba0RAsxj78FqTZ0KNhnDcZUL8Rzn1cQa9syAViSJEmSirHcJAFXSksCPrrXAkJw+ug1Yi9ZaN6uokwCLkDHV0eyxZP8CxV71KaOTP6VpFvC23XkXoCoXdnJb3shLknHtSSVhCSNLqG+hXCWt6+uXbsyYsQImfybC3EvfoZ14z4UFETtijB9MKZ07wOyCnTOspvnpP/znqqCJrXsbN2nw+FQSExSWfZTEja7oFEdswx+k3KU+tdxLvSdSeKKbSgIFAG0uxfx2QjM5cp47SKRvmONlL3Mr0/6exTXB7Soq1KprMqOA65jL151sOqXJPzMCvVrm9HJqLI7jxAkrNjBuf7vYv3rX9fviQJidEcMU/th9vPNEjAl75VyltO8199HIyXVyf4TeoSAnX/bGNjFX743SreVmMHvYfs/13ihNa6OMvmJDO/Pcj6dM2/z6fR/VxSFBtVV6ld38Pt+PaoKsQkqS39MQmjQuI4Zg0G+rlLhsWw7xMXH3ybl+92uuQAC0bM5Yv4wzKVLZCkaIucNuZddAoj7Q6dA24ZO/E0Odh81IoTg7CWVZRtSCCypo34Nk9xbkKRiKnXjfqKfeAfL97vSurKDs1cL1I+Gy7H5JuVmbG7fOK2Ay2EFBYUzF52s+tU1Nt9bU47N0h1ACBJXbONyvxlY/zqGklYCxvlcF5SpT2D29ZFrRzfBWzxJ+s+ZjNCthYOEJI3DZ13B2/+ccPDjthRCKhqoUUUm3knFh5ZoIXbqMqKHf4gam4gOBUr54fxiFIYODbMk/2beP5Lj0fXllAhctpSgazMbu4/qiL2mQ3XCms0Wjp110LSOiVIBMk5BkqSb4zhxkZghs0n+YD1oGooCztBaOL4ah0nGCeQbIQQKGuXLOPh1jxEQ7Ii007udL6VLyLG8qAgODmbEiBF3bPKveimO6F7TIDkVhMA5uS/GFvfI5h3XkXmOBv/FIZT007iW7CTyhB4F2HnAxqBu/hjlnqJ0m4npPwNH5Cl0ioKz5d0orzyebZGn/BobZAKwJEmSJBVzuU8CJi0JGM4cvUbs5VSaySTgAvHv6ki2jFuHAigCKvaoJZN/JakQuSuRuRchalV2sG6bAZ0C+47YqVhWT6N7ZHVBKX8lf7OF+Elf4upNK3B+8iymquULtELYneh68xxFUagQBO2aOPjjgEKSRcHp1Nh9wMqyH6/h56PQQCYSSpnYjl/i4siPuTrxK5yX4lzdahQF8Wx7dNOewMffT27q5QNvGwKZr9+7qwga13awPVKHw66Qmqqy+U8L329KpFI5A3eHmAvr9KV8lrz9MGf6vUfcwg2IhGRXwJTZALOfxPTkQ167Jcj3ydzJKQm4fnUn67bpSLUpxCSoHDzhoF9HP7kOIN0Wrs1eR9KH37p+XxVQPx+DqUKQnE/n0fWLcihULito3dDO9gM6LFYFh0OwY18qy39OonQJHffebZbjhnRL2Q5FcXHoXGLfXIZ6NcEzDmgvdUf3Ss9sEz/kfD1vsrvHVhTFU/StQQ2NBtUc/L7fgEOFZIvGT9tT+XFHKtUq6qlRWSaBSFJxYT90lisDZnLtnZVol+NdxW91Co5XHoNXesmxOZ/kdmyuX93pKeCSlKLxy/YUftqeQrXKRqrLsVm6TVm2HeJC3+lc++QXtGspriIDPgYcc4dgGCDXjvJLTuOMu3DjA/VVypV28sdBPQhBTILGml+T2bonlYa1zZQLkp2dpDuXcKgkfPQTl/rNxLo5EuFQ0aGg1SyHumQcprpVZfJvPsgp+df94e8Dj7S0c/y8wpkrroIQR884+Gx9CnGJKk3rmvE1y9dakqS8cRy/QMzwucS98BnqsfMAKAo4BrZCe38o5gA/fHx8ZJzADchpv7JaeZW9xwQXY3TYHRqb/rIyqFuALFosFThhc3Cp4yScJy4AAu6pjDJ9cIY4bllsOHs5XdcNqjlZt12HNS0O4cQ5J4+38yuEs5SkG5MQvpzkT3927UHqdTi/eA5zuTKesSFz8q9MAJYkSZIkKd/kPglY4egeCwIhk4ALyL+rD7Bl3HpXB7m05N+6MvlXkm657DodCSEILqVhdzjZ968ORYGNu1Jp09SHKuUNhXGq0h3IuvMIl/u+jU5zvRmoIztj6PNgloRCuYCYOzklD7o/SvorPPqgik6ncuyMDqcqsFoFm/9M5vvfkqgYbKBWNZlIWNw5YxK5NHEJ50cuwHHUtcCvANStjDLvaYy9WuYYSCav17y7fkCZQoUghYcfcJKYIjh5TkEIQUKixg+/JbJ1dzJ1a5ipUE4Gr96urEcvcDbsYy6/sdyVwINwJdx3rId+wVDMTWt6rrvMm+nyXunmCCHQ6wT1Quz88KceIRROnXegqtCmiU9hn54k5Sj1131ED/sARbjeq53/64GhW9Mcgyul7OUUTOn+KFNCoUcrJ06nyrGzOjQVLKmCiB3J/LwtmaoVDVSvIgtnSQXLcSmOyy8s5tJzC3GevAQCFEA0DIGPh2Ho0hgfHx9MJpMcD/KJt3HBPQdz/1klWNCthY24RMHJC3pQ4GqcyuqNFrbvT6VJHTPBZWQSiCTdqZwX44h5fiHRYz9GO3PF1b1HAa1RNZyfjEAvx+Z8l7uxGbq2cBCboHH6oh6BICZeY/WGRHbut9KojpmycmyWbhO2o+e59MyHxEz5Bu1qAgiBTgG1cwPEgjBMjWtmGGfk2tHNu16xAUVRuKeqoE1DB2cuwaUYV2LwhctOvv4hiVPnHDSua6akv+zaJt1BhCBx9R9c7DeTpJXbINUOAnQBPjifbY9u1lOYgkvL5N98lN3+r/vfOp0Oo0GhSzMHVcs5+ee0QopVh6YJ9h6x88V3SSgoNK5jwqCXr7skSTlTo68R+/JiYkbMw37kHEpaIwmqBGJ7/2n0T7fH7OO9sJWME7g57mTBFvc4+O4PBZtdR9w1lX+OO+jTwV/GLUsF6urg90jdfMA1twjwQf1yLKbygZ57S9n998YIITDoBbUr2/lplwEE/HvWiaIIWjWScQhS0Wf5YTcxo+a7rnshcEzrj7FN/Vuyvq0IdzsrSZIkSZKKPfcNsxACVVVRVRWHw4Hdbsdms2Gz2dgZEc36j6+AECgIOvSqysi3msib6Xzw7+oD/D5unSv5F0Glx+6m7oQHZfKvJBUiTdMQQuB0OnE6nZ6x0Gq1MuYDhR0H9CgIAkso7Pi8IpXLySRg6eY4z8dwrsk4RHwSCgLRui7KZ6Pw8fX1bAobDAYMBkOGzg3S9Xmb5zidThwOh2e+43A4uBTtYOEa2LjLVZ1eh4YCVA7W0/5+f9q29OfBZgEEyOCUYiH18DkSfz1A4oZILDuPgM2BDtc8WFehJIzthLFHM88CXvoNvcyBZOC9wqV0fe5rV9M0NE3z3Kdkvn6Pn3Xy4TLBgaMKurT7FR2C2tVMtAsNoM39ATRv6I9RVgMusoSqkbz7BNc2uq4764HTKJrm+r8UAqV2OfRTemJqVM3rdSfvlW5c+mss/TqA1Wpl3VYnkz83uxKwhWB5eFm6PyQr8EpFk+P4BS60GI9ITkURAtG9Ccx5Bh8fH0/Qd+YNeSl3cjufjrrkYMEaHb/v0aEAihDoFEFIBQPtQ/1oH+rPA0398POR82np5qUeOEPSr5Ekb9iPZddRFIfT9XuHgCplUF7shqFLI08wTk7zdTke3LjM83X3Olrm8eHvkyqzVxg5eFIPCFdnPiFocLeJji196RTqS/P6Zhl8LUm3OVvkKVJ+3Y8lYi/WXUch3dgs7gpCfak7ui6N5dhcwHI7Nh88oTJnhZ5/TioowvX/pOAamzukzd2a1veRY7NUZAhVw7L7X5I37Cd5wz5skadRhJZ276EhaleAN/tgaOh97aigOrAUR+nHmfSxJZnHmW37NeatNhB12RUYqyhgUATN7jXTIdSPDqH+1K9llvEm0m1HvWYhZdMBkn/dT/KG/agXY9OK0QkUnYLo0QTGP4yxfBnPOOT+8NYRUo5HNyb9epV7PHLPe9zjkN1uJyXVwVcRCks2+GCxCs/8tKSfjrbNzHRq6UvHlr5UDJbxHpIkudj+OYtlwz7Xve3Owyh2J6TdL2Ey4Hy2I2JkZ088Z+ZxXqfTecZ5kHECuZV+D8J9D+ver9x71M4zM004HaCgMb5/Sd4cVaawT1m6Q8W/u5a4SV+61rAVgfrlGEyt7vV0+fbW4VPyLvM8LX0cwvLfnIQvMafF9sCyaUEyDkEq0uxHznGhxXgUqw1FCNSBD6J7a2CGsaEgYxFkArAkSZIkSRnkKgn4l2i+/eQyaK4NmvYyCfimHVt9gN/HrXctEglBpR61qPfKAzL5V5IKWfrNovQLizabjYREK0+/beD4OdAB9aoZ+PWTivj7yiBm6caIVDtRoS/iPHIOhAa1KsDql/ApXcJr91/5PpB3OW0Cpw9McTgcHD3tZN4y+Oe4DkVo6HAFEOkUQNMIbezP/U38CKlsonJFE1UqmqhQXnYZvV1pqXasp65iOxuN7Ww0qYfPc+3nfTgvxXmSVhTN9ScmPfqwNhiHtMbg75NtsKpM/s1f3u5TMgeVuT+27XGycJXClauuubUeAUJDD/ia4f6mATRr6EeVSq7rt3JFE0GB8vq91RyxyVjPxmCLcn0k/3WCa5sOIhItnvFW0TR0ikAX5I9+XEfMPZthMBgybKRnDhKX75E3Jv015n5fTL/5NvMbwTcbjegU8DUKfl1QgftqyW6eUtGiJVo41/R5tDOXQQhoFIL2zfP4BPhnSP6V8+kbl5f5dOQxJ/NW6Dl2RgHPfNrVjQuh8VAzf+5v7EvViiaqVDRSpaKR8sHy/VjyTrPYsZ68jP1sNLazV7H+fZbEX/ahRidmuE/TKaD4GlFGtUc/pE2GwLv0Ffll4kf+81a0J7vxIWIXzF9n4kosnjFBwTVWlPTX0bqJDy0a+HBXBQNVKxi5q6KBoNKyE6UkFTWaxYb9xCUcZ6/iOHMV29+nSfllL1r0tbQiwrjmAIoCfkbUUZ1gaDs5Nt9CeRmbN+wSfLxGR3S8krYGhmcOF+Cr0Lq5H83q+1ClgmvedldFI4GlZYKMVLCcsUnYz0anfVzFsvs4yZv/RiRa/pv7pY03Sll/xPNdMPRqIdeObqHsxhlva7arfoPF3xtITvmvEIx7rClbWk+HUD/q13bNAe+qaKRaFRN+cs9VKiLs52L+G49OXyFl899Ydh71FB9w3ZO6fqe15tVQJvXEULtSljlPdgVP5Hh0c9wh8O6xKH3xk/SJwA6Hg6txTuatM/DTTmPG+WrafWmdagbat/ClVlUjIRVd96M1qsj1Kkm6k2mpdhwnL+G4EIvj5GVsf5/GErEP58UYT4FLRcF1n+tjxBnWDvF4SwyVgnIs8CDjBG5cTsmCP/7h5NWFxrT5pMYXU4Pp1d6/sE9ZusNYft3PxUemohOuOBN12hMYBzzkNcFPNu+4vsz7ipnjEMK/Fqz+3QRCw9+ssHlhBepWl/MvqejR4pM512Qc2vloVyxC8xqIr8dh9vP1xCK48zwKau1JJgBLkvT/7d15nBx1nf/xd1VfM5NJQg5yTO4DkAAhgCByCwoBhBVQ1FXXH667LPtzfwIi/lxW1/XcdX+uqxBh1fX4/VZdJQEEBOSSMwiEcCWBHGCuyZ3Jncx0T9f390d1dVdVV3X3JDPTPZPX8/Hox0x3V9fVVd/+Vn0/n+8XAMrUkgT83INbdM8dmyXH7VH3/Cun6FqSgA/K8jtf1eOfvdvtWdsYtf3ZTJJ/gQYS7iXfXxau39ylj381pY5d7vn7vnc16b+/PY6yED1njNqv+pb23/+824AwulXmrpuUmXhkMfmX3gN7h7+eEx69zAtM8f998+28nnzR0ZMvGm3eagWTgeX2LOqOjuE+n9zmJi4krFLv0cUevyXf/74gFxlJRraR+7f4mdKoG4HnMfOrZf6R8+uN+RtT2B8Da/7O/i51vb1Z+Y69xc8WR/j1zytlK/HuGUq8b5ZS5x+n1PAhSiaTkUEbBJL1nXDSUTiII3z+vrysW0+/6OiZRdLu3SZ0/vq+b2PUkrHUNi6l0SOTxeMjcPyEjis79Lr/eC07LmOmDx6fvmXEHe/Fcqf69KXl1TZ98byImj7i9fhyJWL7Qq/ntu1Wdt12OXsPlEZqDvx1t9NuTStx/jFKXzBL6XPfUTzPvHOu0qi/nHcHJ6rzm2w2q87OTh040KnrvmPr+WUJ2ZLGjbT1zE/HazTJOGgUeUftc7+szidec8ucthHK33WTMmNGFBvk/cm/1KcPXtTvcVQyifd8ycpuPfWS9OQiS5u2KfD769Xf/PWuqRPTGjs6Wfgt835nFKjXlup1/t8h3/+F6S3/PMrqi8HPqmxa//PStF69NLge4fqmf3pFrHfcuvjXO247C9P56h+Vpy+Mhls2ffTyvfULTh9XDw9OX9pP1bbT3S/R9fTg9M7+LnW9tUnOzr3B6cL1rkxS1nnHKPHe45U85x1KtjaX1RnCI75RX+99UZ0EVCofnnvd6PGXLD2xOKE9+yzfORA6PmTUnLE0eZybCFwc5VkKnBP+v1YhBCIwbfHY8013UPMprWft84mYNmo+/qBS/3x851dgPqHtCZeR4dej59Pz7QnOJ1yG1TIf//r7XovZ/tL3EP15/3cUtR61HRc9mU/ENvq+D/9rPZqPUWD7q38Pvu+wl77PWo5zs79L2VUb5OzcFyibw78dyiRl3nOs9L7Zss+dpQRlc130tGx+/nVHTyySnnzJ0t59lry6WunenFP8zW9psjRpXKrQSUP0b3qwXC/VrRQq58PHZ3zdodbpo+oslZcbVfeJrrOEp+/BeoX2UXydq1SHK5/PoS83sg7cF8sN778al5vftlvZNVtl9nUGlhM+HjU0I+uCWbIvPF7Js48N3Duq1Fkj5UzvqtRRVPie7f4D3Vr4mqMnFll69pWEurqC323pu3bLmmGttqZNTKmlyQpeh0UeS6r5GI0ts6p8Lm45UWVdpfLjYM7DWsvHyutcuVxVaBviPmfXuK/C23rI2xVeQQD7ewAAIABJREFU5xq3q+IxUGG/yzHKrd+m3JqtMdf+vvJ82mhZFx4v+4LjlJw1KfI+dtyov5RHvcMLg690v8r/d+O2vB5dZOmJxbZeXZkoP66s4PEyblRCk8cllU5ZNdXvFZ5fxPT+4/Vgp5eq1/PdaYPTB5YXnmf4utm4L5SWEywzy6YvW07l64zK12uV9oe3PP+ya91/vm2pch1evk5x31NwfwT2kRTxPdW6/ypPX3n/1TZ9YNmh69LKx3mh/Kwwfe3Hefj30/daH+0/Hcgq+9ZGOR17Avul7Lo8k5RzxlHShSdK5x+v1PAhSiQSgTqnlwhInEDvqJYsOG+Box/dl5Ito6ak0e9uG6+Tj83Ue7UxSGRXbtDad90o7T0gyzhyPnqGEl/5sJqamgKdDRPH3TNR+Qhe/O2BA1267juWXliWlCVHE8ck9PR/tmnEMBKr0ThMLq/2996iroXL3PrB5FFyFtykptFHRA7s01exCBYJwAAAIEqtScC/9UYClvSeKybr2q+dQuJbDyy/81U99tl7ZBvJGEcT/mymjiP5F2go4fLQC4jxysLXV3bpL7+VUjbrNnje8PHhuuWvR9Z7tTHAbPvqr9Txjd/IchxZTUmZX/6d0rOnBZIV/L0H8ltwaKIagb1kp3BwivfI5/Navb5bT73o6NlFRuvaLSmcDFz4K+MoYck3CkHEdIf6fmE5XuBdxfcDI2mG1rPC+sa/7wXj+EZyk3GXV+1977llfOvTe++761sa8dVLcvQCwxKhv8UkUN8Iv8XkyKaEkmfNdBMQz32HEkOaAsGp/kdcgx7nae/z9+QeF7xa/shr2cpuLVzk6LlFjrZ3SHIcN1G/7HiN+ht83zsfEmXnSy3zCR+/vvNMpux4Dpy/MZ8PLycROB+i19cbWbeW9U1Ypvh5xazvwWxvcf6+9bVHtih93lFKXfAOpU6dpmQ6GBzlb0T3bpwTMNW7wgn2/nrvzt1d+thXE1q90Q26PPmYlH5363g1ZdjnqL8t1/9Qu3/wO7f8aW1S929uUOaYiWWd6VCf7h1xQZXe77F37eyvX+fzea1ak9eTi4yeWSSt32T5fkdL9TEr9Psars9F15dj3g/Mv1QfVnj+JjjKXWD5xfmH3vctP7BcSVJ4Piayfl9x+WXbF1pvKzT/yO0OzT9u+Tr47bNqmX8N+9eKer1QP5d/+/3zb0kpcc7RSrx3lpJnHa1Ec4b6egMId7rlD7qOq7Pncnm9stLoD4tsPf1KQtt2lAJWvaBQf8KHTPDY9IKzw8+LwaG+6S1LxZG5Suem7/OFYzUc9Bm3HP/0km+68Pr7g2EH/fo77vlV+OsvSyLX35RGgC6NvFVp/R3ZsuSWRVYN61+ary1L5hDW37Ykcwjrb1tyl19t/cu+/xrXv1AWFz8ftf4x339x+rj1L6yfKf4WRO9vMyQt67xj5VxwnOyz30HZ3CAOtmx+dbmjp16SnllsaccuK/BbH6gDRNQtvN/2qLpC+W97KKlTMXWcCp8PLC9UtwmXWxXnF/n5uLpa9e2P+ry/jhSs+4brVL7tCk8X2E/Rdb7o/exbj4g6tlWog1m+e6Tl5X6l/WSK+6Xq9sft52rbP3KI7PccI/t9xytx6nTuHTWIuI6iKrW3dHZ264WlRk8ukv74akJ798Uca75zJbrsqX7sVy4jKs8vXCeLPpcUOLbD6xB1zVZL+Rh13kWWr/28L0rnZeXyO2r7/fXB+HIi4rn/8zHXmtW2v1I5djD7U0eNlf3eWbLnnqDk1DHFcieu3hPu8EQS5VEfiOv8pFIbUsduo8cXSU++nNDLy20ZJ76eXv06wrvuCdXLa71OK7uOibguLF5/+D4fuk4J1/uL1yGB5972Fdav4vZFXXeU5lfcX8bEXhf5rxuirnuK+y+8vVHXlVXX07vu8l3HFKcrv64yJrj/oq+zw9vrfQ8Hc7z4tt+3P4vXoT0+XuKOH+cgj5eDu46NP17i9mf8dXTZ8RJ6Xn6fwjuOI44X3/bWfP4NySh/5lHShbNln3Os7FCcgG3bkSO7c23beyolC3Z1denmedJjL9qyLWnMCEuP/2iCxh+ZrPdqY4DLb9+jNe++SfnVm2UZRzrzaFn/eV1g5F//6J50NtwzleIQtu/o1Ce+ntTaTbYs4+jMOU26//vj6r3KQNHma2/Tnp8+4tbXhrco/5sblJnZFhj5118nkPrmeo8EYAAAEKvWJOB7b98kGUeSdP4VU/TXJAHX5M07X9Pjn72ncEPKaMLlM0j+BRpUVO+C3k2Izs5OPfpCTl+YlyrcGDb6zEeG68vXjaIsRE22fOkX6vj2/OLoh+a2a5S+cE5k8i+/Bb0rKiglHAAX/t97tG/K663VjrZ2ONqxw2jLVkfbO4w6Ohzt3lUKfAiM2GmML1m3l98vHD/+6aPet/2BHaH5lV7zPhv8P/C32vumNE14RN3Y9yOWXe1977Vq79v++fmTPtMJJccOVWJMq+yxrUqMG6bE2GFKThyh1GnTigFi3sMfSOZ/ncCN/uVPOooKKqt0DjuOo1V/ymtde7e2bXe0fbt73nZ0OOrY5mj/PiNbTvEYiTu+/dOE/5aOQff8cs879zgMTu+dr457jJYd78HPF+fvO58Dn/evb9n56ZR9vnwbS4Gs0dvvC3SNPD/jt9e/vnZrSskxre5j7FAlxg1VYsxQJSePVPrEiYFzK+7c8wdvct71Ln+SvXf+ZLPZ4n2ANRu69PGvJrVrjzsS1CnHpjX/O+M0vNWu85rjsGWMNl07T3t+9qhbftmWnJ/8jdJnzYpM/qU+3bvi6tPV6tL5fF5rNzh6a42jLR2Otm032t5htK1D6ugw2r3b/X0rBn6F66GSyurBgfpp8PXy+qVC0wff9wcyB+Zj/MuPWi/f/Huw/Ojti3g9avt89dtK26fA9ih6uxUz/x5uX/B6IzQf3/4t3z6VX580p2SPaXUfY4fKHjdciXHDlZg4QslTpwXqBf46OvX1+upJfT1cRjiOo6VvG63daLSlQ9q8Xdq2Q9raIW3faWvPPhMR3OodP+UjkUUHFxdGLrN8I8sU3g8HlRanL87XW44vWNS/nIhlWyY0+llfrL9/ul5Zf+/1UhJL5fX3Pl/r+geDdauvv/+5Suvv26bgulaeb9z6F/dVYH1rX3/LBEcYaoz1L43g5F+fqO+/7FgNHy/eay0pacxQaewwWWOHSeOPkD3uCFkTR8o+bQZlc4M61LL5jbccrd3oaFuH0Zbtbr1te4fR9g5p/35Jhd9+73gJ1HP8x2lE3aV0zEXURaLqRlZwflF1Qa/uU7Y+leoiZfMrr5tEf76w/V75oEJd1l9GR9YBy+tU/mSEcB2sL/ZT5c/79mNZnc2EtqWW/RxdB/bXTYv7rzUte+xQWWOGKjFumKxxw2SPHa7E1NFKzJ4Ue9+Ie0f1Fe4oyosxqXSN2N3dXSyLXl1u1L7ZLWe2dkhbt0vbOow6dlrqPBA+Vv0Jm3HnTtQ5HX/slZdRvuVUORcVeu79plY7z2orT+LPm0rnUc37wvfcf77XUn6G1yNuX/R0+2stN+PKreDnfUmJVY6FyN+rUUPc8mjsMFltw5U4cpjsccNlz2pTYtKoqvexo+o83Jfqe3Gdn4Q7g44qi3bucbRkldHG7Za2dhht7rC0tcPS1h3S5m3uPXGp/LpHCtbDI5+Hjtvwa1HXjVWfV7hODNf7w/X6uOuSitep/uug8POY9Sxd54Snidh/sdsXsb3F9Sptb/i6y39tE9jewvz85U54/9W6fZXvC/j3Zy8dL+HtPajjx9ve0ndROl5qO36ij5fy7Y09fuKOFxPatuLxE9qnPT0/fPuquP+aUrLGDJMZP9wt58cNl8YOlz1xlKzTZ1aMEwi/Fy7jKed7R6Vkwd17O/Xpb9p6c7UtW0YTjrR1z/fbNG1Cqt6rjQEq175d6+b+o3LL17v14cmjZM2/sTi6Z1Qst8Q1Zk+E8xH8cQidnZ36U3tWH/tqUvv2u52CnH5CRr/517FqbSEOAXXkGG285t+191dPuvWIpKX8z/9WmXcdU5dYBIsEYAAAUEmtScD33b6x2PP5eVdM1l9/7Z0kvlXw5p2v6bHP3lO46eRowuUzdfzN7yb5F2hg/gYirzdYryzs7OzUT+7N6/YFCXm9An9kbqu+f8vYeq82GtyGa+dp188elxe8bv7ufUp/5uJA74H+XkT5Leh9ccFv4QA4/3N/Q7E/mMX/iFoGGoP/HPIHfvmDwbxgDH+wWLgRr1JPvpyn/cN/vnnnrT+wLJxo5D93/dNz/va98HkXfviDoKIazasFS3HO9a6oUaH8jW8vL8/pum8n1ZV1Az6OnpzU3d9r09hRiXqvOg5D7X/+f7RvwbPF6zDnlg8o/cn3lDW4UZ/uO1FB3tXq0/weo5K4+rq/rm5ZVlm9PKrOTr2hvqKCrv3lQ1ydnfIBaDyUzYMHZTMa1aHcO4q6X0s5Uz/VyplKbS7h60r/9aZ//kBfCZcVUWWR97fW9qPw/SjKo/4R1f4b134ULo/i6j3++Yb/BzAw9DROIKqsD9dLKef7TlSnxf4k4PYtXbrmawlt2e7GLI9otfTr74zXScc21XnNMdB0LW/Xmgu/LGfTDjd+b8QQ6TefVWbauMjRPbnOPHjV4hBeWJrTZ76TUK7bTQI+bnpKd313vEaPIA4B9bH+Q/+s/fc+LzmObEtyvvYhpT98ViAWoT8H9iEBGAAAVFVLEvAfH9yie2/fIDluT2rvuXKK/ook4Ehv3vmaHr3+t26vdcZo4uUzSP4FBohwIHO4LPzlQ9363q8SxV6Ezzu1WT/7VpuaMpy/CDJdOa29+tva99BiWXJvRpv/dZEy110Ye4PA30s9el84kTAcmBJ+VAtG4XZL4ws36oWDyfyBq3EPEn/rL3zeRQWWhQNZ/YEb1QI40LuqnXfhQM7w+cZ513/CjW+5XC7QqL74zaw++92k9u1XoWfthO7+XpumTaRnbfQPZ3+X1l3+dR14eklxlBfnK1cp/ZHoBjd/gzz6Rq316Wq/x+F54fDVk3pDuP5AvaFx1Fpfjwq0jutsi/IBqB/K5sGBshmN7FDuHcUl/VLO9L+ociaqw6i49hfKGdRbuPyo1PFJuFwKtzN5n6csqo+4ROBa6j1xnZ5QHgED36HGCYSvb/3zRO8KX6/6B+vo6urShi1Z/e2/WFq3yR2lfUiT9LNvjNe5p7XUe9UxQBx46S2tufgrMrv2uaN7jh0m++fXKTOzLRDP3V+jex4OaopD+Lek9h1wR26fMj6pe743XpPGE4eA/uPs2q+1l31Nnc+/6ZYNtiXzjauVvvL0QMcA/R2LQAIwAACoSW1JwJt13+0bJceRZVk67wqSgMPevPM1PXL9b2UZScbRxMtn6oSbTyf5Fxgg/MHM3o1Fryz0ysMHnsnp6z9OyMkb2ZbRsdNS+s9vtmnaxHSd1x6NIrtmq9Z86F+UfW2NO1KZbcn6lw8rc9k7lU6nA8kK3khltm1LotGgr4UbbqMag/2NC7UkD3LbpfFU6tk3qoffcGMfQWSNKer89Z+fUect52//6el5F3UO+j8Tnif6hv/86e7uDjSqZ7NZrViT1Wf+NaHtOyXbMhrWYmneP4zVRWcNqfeqY5DrWrFB6676lnIr2t3k35Qt51//XJmLT44d+ZfOdPpHLfVpfo9RzaHWG6ivN6ZK9fVK19yUD0BjoGwenCib0Uh6495RVMIe6iuuw4Fa21soZ1APlcojf92mUllEedR4KnWAUktZ5C+T/PMDMLD05rWt/7PoW+FkQf+IoV1dXdq2o0vXf8fSm3+SbElJ2+iWa0fruj8fUe9VR4Pr+OHD2njTT2Rlu934vSmjZP/sb5SZMLrY3phKpfp1dM/DRTgXIZzc78YhJLVjtyRjNGqYrR98aYzOP504BPS9ztdWa90H/1nda7a6o4JnkjK3flLpc4+reywCCcAAAKBmtSYB3/+DDZJxRwI+78op+vTXTiUJWNIbd76mR66/1+0NRkYTL5tB8i8wAFUqC73y8JnFWd0yz1Yuq2IPg/9+y3hd+p6h9V591Nmue1/U2k/dKu094I78m07KvvUTypwzK/B7ENU7GL8H/SfcgBuXwBD1XvjzaGzhRr5aHv7PcV42nqjzt9rD/znO374XdR7Veu75P4f+4Q9+CvfAm81mtXZjl/7uXxPasMWt91rG6Nqrj9A/XDdaqRTfFXrfjp8+po03/Kd0oMs95pqS0rxrlDnzHWX1aTrTqR/q0+gt1NcHH+rrwMBH2Tz4UDaj0XDvaPChnMFAFVUOec/DyWD+6cKfR+OIKl96WiYBGBwO9do2/D/6VjgJ2Guv9OL0du/p0s3fl15aZskuxOZecHqLbv3yeB0xLFHv1UeDcfZ2au2nbtOee58vtm9bsycq9R+fVnrUsEDyrz/Bj9i93lUpDqGrq0vrNmUDcQi2pL/96BH64rWjlEzwPaBvbL/jIW2++edSV9YtH4ZkZP3400qfNL1i8q/UP/UCEoABAECP1JIE/HwhCdg4jmxLOvfKqYd9EvAb81/XI5/9rSxJMkYT5k7VibecQfIvMEBVSwLOZrN6462svjRP2rBFsgs3iy6/YKi+esNYjRqRrPcmoJ91b92t9Tf+VDvvXCjbkttzYNsRSn7/48ocN5nk3wYW1ZtztQAUbrUMLHGNdZUCVDknB4ZKyUeV/qLvxZ1fBEo1prjGN+8+QMeurL76Q2nhK1axnnPM1LS+9w/jdOI7muq9+hgkcu3b1f6ZH2nPg4tkS5Ixbk/ct/6FMsdMVDqdLuuJm/p0Y6A+jUNVS309fI5zzg8M1NeBgYuyefCibEaj4N7R4FWtw6jwdJQzqKeociaqHKI8GngqlTdxSb+UR8DgQ5zAwBKO0+vu7g7E6h3ozOr233Trvx+yZRsjGaOxIxP6p+vH6LILhtV79dEgdj34str/7kfKrd8mW3JH97z6NKW+eLkyrS3F+D0v+Tfc3ojeVUscwpdul15cYrvflSUdOy2l7/79OM0mDgG9KLt2q9r/5w+195GXS7EIR49V4tZPKj11bKBs8HdE3t+xCCQAAwCAHqs9Cbhdctwetc67apr+8jBNAn5j/ut6+LP3ypKRjDRh7hTN+fszlGki+RcYyOLKQv/NxV17uvTNHxk9s6gwIpqMjmi19cW/HaOPXD7isCwTDzvGaOtP/6ANt/xS+Z17i8ngifceq/TXPqjMyGGBxF+SFRpb+BYKjb6DS7WGO87FgY3ztzFVOu845xqHd474G9/8jereaMC/erBb/zE/IScvWXKUsKRPfGC4vnjdGLW22HXeCgxYjtHWeQ9q0z/9WmbvgWJP3PZlc5T6ylVKD22hPj2A8HuMQ0G9YXCjfAAGJsrmwY2yGY2AcmZwo5zBQEJ5NHhRFgEgTmDg8MfpOY5TlgTc1dWlZxbn9M0f29q3rzCyq4zOPa1F//yFNk0Yl6r3JqBOurfu1trrf6Jdd/2xGMNpNyWV+KcrlLn05EActz/51xvdk3Kgb8TFIWSz2eJowNlsVv/v/rx+fLctJ++OBGxbRp+66gh94doj1dJMHAIOnsk72vq9+7X563fK7O8sJv9aH3yn0v9whdItTYHyIWpU8P4sH0gABgAAB6W2JOBN+t0PNkiFkYDPuWKq/vLrpx1WCW/L5r+uh6+/T1ahV7GJF0/VnC++W+lMOrK3KJJ/gYElqiwM31zMZrO665Gc7vhvS/lu4478Kunk45r07VsmasbUTL03A32kc9Umvf3p27X/hZVukoIlWQlLyRsvVNMnzoq9eUiywsDBLZXBi3Nv8OP8bTycd42tUhKwv+776vKsvnK7rW0dKtZ7x41O6Os3jtNF5w6t6zZg4DmwdJ1W/+U8db262j2eLMlKJZT42pVKX3pSZH26ng1u6Dl+j3GwOLcHP8oHYOChbB78KJtRb5Qzgx/lDAYKyqPBj/IIOHxRxjc+L06vUnvlhs1Zffk2oxWrJcsxsi2j5oylz/3VkfrUh0fLJl/w8GGMtvz4MbV/6b9ldu8vtF8bWTOOVPrfPqqmo9rKOhr22hoZ+bd/1BqHsHhZTv90h6XtO01x9Oa2MSl96/PjdP4ZrfXdCAxI+xe/rTXX3qGuJWtLsQiZpBJfDXYM4JUNXkfk9YxFIAEYAAActFqSgF94cJN+N6/d7RFFRudeOU2fOkySgJfNf12/v/4+WcYd+XPC3Cma879PV6YpQ/IvMIj4y8JKNyHeXpfTv/00r2Ur3DLBllHSluaeN1SfvHq0Tp49pN6bgl6y57kV2nT7w9rx2xdl5bqLPQcm5kxS0z/+mdJHjY+8eVjvGwQAAACVhBvf/D1r++u+u/Zk9cM787rvD5aMI7cR1RjNmdWkaz40UpdeMFzJJPUcxNv9xFJt+cHvtet3i2QbI8s4siTZp09X6ssfUGbqGKVSKerTAAAAAAAAAAAAh5lwnF541NBsNqvOrpzufCir//qtdOBAob1SRpPHp/QXHxypqy8fqdYhiXpvCvqIcyCrLf/3KW2542F1Lm8vfv9WOqHkNWeq+a/eo/SQ5kB7o9fRsL+9UaJjgP5QaxzCjl1Z/Wi+o/uekOSUYnBPPq5Z11w9Upe8Z5gSCb4vVLbrsde1Zd5D2v3Qy7LlFEeLt849Rpm/v1zpSaOLZYN/1N9GiEUgARgAABySmpKAH9ikB36wXsa4Pe+ccxgkAS+bv0QPXX+fLLkj/04i+RcY1MJJwN5NCP9owN7fR5/N6Ue/Ntq50+1h0Otp8OhpGX38Q6N12dyRammmq8GBJr+vS1t//Zw23vGIOpetk4wpJrskRrUofeOFanr/nGL5HzVKWb1vEAAAAFTjNSdENar7G99yuZxWrsnq338uLVtpZFsq1I+kUcNtfeKqkbrq/SM0YVy6rtuDxpHfvV9bf/GMNt/xsLKrNsoqHC8yjuwxQ5X8wsVqunB2ZOIv9WkAAAAAAAAAAIDDRzhOL669cvPWrH7467z+8EcpUYjltSU1pYyuvnyUPnDJCJ0wq6Xem4Nesn/5Bm3+yRPa8vMnZPYccNsbrUL83tkz1fT371fGl9wX1dEwsdz10ZM4hOV/yum7Pzda8baK57RlHB05KqmPfWCEPnTZSI0fm6rr9qCxdO/cp22/eFqb73hE2bc3FWIRCr8J44Ypdcv7lTlvVtVYBLswhHy9ygcSgAEAwCGrNQn4wR+sL44EfM6V03TN1981KJOAl85fot9ff58kyTJGE+dO0Un/+10k/wKDXKWbEOEbEfv253TvIznd/ZDRrt3GHdWq0NNcc8bSe88Zrg+8f5ROP3WYbHKBG5ZxjHb8Yak2/3Khtt/7ksyBrmLSry0je0SzMp84XU0ffZdSrc2RNwcSiQQ9BwIAgAEnrlE93BNvLpfTM4u69V/3Onp7jdsLr9eDasKSTj2xRVdcMlIXv/cIOsE5DJm8ox2/f01bf/mMdj6wWKYrV6xPWzKyx7Qq+ckz1PSh05Qq9MLtf3h1aerTAAAAAAAAAAAAh5fwgB2V2ivfWJXTf92T10uvlmL0vPiumVMzuuLSUfrA+0dp5IhkvTcLPZTbsU9bfrVQm3/xjPa/uqY4Kmwxfu+UyWr+zPnKnDy1rK3Rn9yXSCToaLgB1BqHkM3m9NSLOf3iXqPV6yRLbhKwJXfE73edPERXXjJCc88/Qs3EIRyWTC6vjode1dZfPK2dD70i5XKFZPFCLMK4YUpdc6YyV52qVHMmsnwIdwwg1TcWgQRgAADQK2pJAn7xgY168AfrZRx39J+zB2ES8NL5S/TQ9ffLkiTjaBLJv8BhJZwEHB4NOHwjYt/+nB54rFt3P+ho1y6n0KuUU7zQHD40oZNmD9EpJ7XqpBOHatasVqVSlBf1YnJ57Vq8WjsXrtSu51Zq9x9XqXvH3tJNQ0uS4yg5eogyHztVzR85TakhTZE3DsM9gzXCDQIAAICeiGpUDzfA+eu/Cxfn9Kt7pVV/cor1Jtty672ZlKXj39GkU05s1Slz3Edra6Lem4he5nR1a/eit7V74QrtWrhCe59fqfzu/cVemd0Rf40S44Yq9cl3q+mDbmNbMpmsqT5NXRoAAAAAAAAAAODw4W+v9Mcux7VXrng7p1/c3a1Fr5hQe6WjhCUdNT2jU+YM1cknturUdw7TqFGMItpostv2aOczK7TzuZXa9exy7V+yXsp3l7U3pk6boubrzlXmpCnFNsaogTvCbY20N9ZfLXEI3rmdzea0cHG3fnGPoz+t8x8D7t9MSjrh2BadcuIQnTKnVSfPaVXrEOIQBiOnM6fdL76lXQtXavezy7X3hVVy9h4oJod7x0Wibbgbi3DVO5VqygTKB38sQjjHoxHKBhKAAQBAr+lJErAct6eds6+aPmiSgJfOX6IHb7hflpEko0kXTdbJJP8Ch6XwTYhKCRHd3d3atz+np57L6qnn8lqy1An0ROfvcdCS0TFHtWjalCbNmNmimTNbAjck3NLE+P53n1ulf2WVvR+cxpLxZhE9D5Xm4c6vyjLlJnWE1zFyflKxDO3p/OKmr2l+MdvTvadTe5a2a++ydu1fsUl7X19X9n34v6fUKZPUfPFxar7kBKWGNAVuCPjLf24eAgCAwSLcqF6t3tvd3a2XXs/psWfyen6xUVene2/AkpHt1X3lNsBMGJ/WUTOaNWNak2bOaNG4sWmF63H++q0UX98rPg/UcyvXEaWe1TtL61N9urg6d8XP+Oq18esTnHet6x1XZ46cd+Et/3zj5t29c7/2LlmvfW+0a/+Kjdq3dH3EdY5kyZFlpOTpU5W+5Hg1XzYnsi5NfRoAAAAAAAAAAAB+lQbs8Nos/e2VuVxOb63u1qNP5bTwhbx27gy2V1kqDd4xakRSR81s1oxpzZoxo1kTJzXJtqyI9snKbXYHG18XOX1sO13EOphq7X/V4gqDz6tvU3CehxK3526r0f4WWeRzAAARTUlEQVTV27T3jQ3a+0a79i1rV3bTzuL347Y7Fr4vGdlDM0pfcLSaPzBHmdmTIpP64tobJQbuaCQHE4fwwis5Pf5sXi+8bJTtKh/t2zJGliVNGJfSUTOaNXN6s2bOaNbYMWlvqVXOSXea4PNa2tDjz83wvOPOpUpxEZHrE3Gexi6rxhiH2mIuyj9X237s+fp079invUvWu7G9y9brwMqNhViT8phryxilzpyu9CUnqOmS2VVjEcIjgjdK2UACMAAA6FW1JgE/NG+dZNzK2NlXTtP/+MbpAzoJeOn8JXrght+5F6zG0eSLp+jkL5xG8i9wGIu7uRi+EeE9vNd27OzWwudzeu6Fbr35Zr4wsmzpglTGKFH46x951nIc2Zb3vgq9mIXfd18vvV/q3coyNb7vuD0eRr5f+FxN7/t6UIxbTuz73vpVe983v/j3g/u3tJ9D7zvl34Mto/ScCWo6b6aaL5ql9JhhxXK+2o1Dbh4CAIDBwl/vrdQBjr/O6/3/7Is5PfVct5a9Ke3dW14vLa+3qayeWXwuU14P9J5bXiNwaL6WfzoTufzA+5aXvBo3f1M+H6fK+4Hlmwrb6a+P9mA7nKj3qy8nMJ9attP3PVn++Zct3/d9phNKHD9OTRfOUtOFs5QcMSSyHh3V2EZ9GgAAAAAAAAAAAJ6oATvCicBRbZavLsnp6ee69frSvDq21xa/Vmw3i4wn88WrOeF2tJ7OP6p9zmuH8+LZemP+pXbCYlxitfkX5lMtTjC4/JjtiNp/imqHLJ9/clSL0qdNUdPcY9V85syKsXvJZLIsdo847sbVkzgE/3l9oDOv5xfn9PQf81r6pqMD+xUbQxDfJl4thsB3zFZq2485hw61Tb7m2ILQ8sNlV1/HNvR4+2KWH/29VFl+JqHk7DZl3nesmt53rJJHlMcihOMQGj0WgQRgAADQ62pJAl70wEY9NG+tLwl4uj45QJOAl8xfWkj+dYNcJ82drFNI/gVQENUbmf9GhHfjwf/X/1i5qlvLV+T01lt5rVvTrS2bnNAIab7/fb1WVXzf37tV1fcl2zjBEbqM45tObg+IKr/JVuphr9r7XiJFtfdD6+fvnS20LZHv+/dPtfdD87FklJo4XJmjRit9/Fg1nThBmePbym4A+G8g+l+LunHI7wAAABhMvPqupECjulf39dd1o+q969q7tWJVXstX5rV6dV4bNxrlfD3zhuttlhT5ur8eG1VfDNdr4+cjX0/fccuPSHoNLD/0fmA+1Zbv/V/LdoYaunq4naq0HabadvqXE7WfS9ubmnKEkkcdqfQJ45U5caJSs8ZH1qWjkn6pTwMAAAAAAAAAAKCS8IAd4ZFDK8XqOY6j7R3dWr6iWytWdOvtt/Pa0J7XgX3xcWeV4vGi49skOyKOLvA8NP/IuMCqy4+O0wu3F1aLq6u+fX09/9DfISmlpo1Q5tixSp/QpqbZbUq1HRHZ1hjX3tjIyX2IVmscQlQMQj6f19r2bi1fmdeKlXmtXuNow4a88rlw27dUsc1c0W3/PY49UEQifKXYAlP+/sHGBPiXX3NsgzGSIuZvIpZfIbaiP/ZvYuoRSh89RukT2pQ6oU2Z49pk2/agikUgARgAAPSJWpOAfz9vrYzjyLYsnXXlNH3yG+8eUEnAxeRfScY4mkLyL4AI4d7IohKBo242eq/5b1oYY7RuXU4b2ru1eWNe+/Y46up01HXAUVenUbYz715IGyPL8t8kDPfmFewdK/DcXdvAc/+FdvFGQMz8Szcqap9/2fIi5l+2vML0VtSIbjXOv7R9UqI56T5aUu5jeEbpicOVmT5KmRmjizcAvYdXroeTFvyvxfUYyO8AAAAYjCrVe/112+7u7rL6b7ixznEcbd2aV/uGvNrb89q5I6+uTqPOA46yXVLnAUfGKTWWW756oeWuRHk9tPC8VL80NU3v1Z/99dHi67H1TlNMEu7Z9KWGqtLzatOX15sD9f6y7Y6a3tfQWPP0vv0kKdGUlN2SUnJIWlZLUsnhzUpNHqHUtJFKTw/Wp/115ahOdcLTUJ8GAAAAAAAAAABALcIJg3GDdkTF6PnbLY0x2rkzr/Xrc9q0wVFHR7c69xt17nfj9bIHjPJ5xxe3Vmp/LLXneUmvCrQfBp4bUxwtM/y8apxfj+LyCu2B6ul8y9sRy5/Xsvxw+2XwuW1bsluSSjSnlGhNy25OKjWmVZmpI5SeNkrJI1sDsXuV4vfC7Y1eO6UkYrgHoFriEOLicKPiELZsdWMQ2tvz2r3LUecBR12dKsQiGDndTnlsQLXYA5Xa+qNiA4Jt+7XEApgeTh9O8o2YPjIWwB9z0d+xBuVlX3TMsFGiJSW7JaVES1r2kJQSR7ixCOlpI5WaOipwng/WWAQSgAEAQJ+pLQl4gx6et9YN2pV01lXTB0wS8JL5S/W7Gx+QZdzK5+S5k/XOL5xK8i+AWNVuRIQTI+Ie/l4K/fP0/0XPhS/gvTLbf3Mg7uG/IeB/DJSbAwAAAL0pqt4blwwcV/8N13n9D/8y0Dii6tP+OjH1aQAAAAAAAAAAAPSHcJtiOBH4YOP0aK/sW+G4Pf/D334Y1b4Y1d4YNaIn7Y0DV1z8bTjJnziEwYdYBClZ7xUAAACDl78ilEgkIqd55yVtkqSH562VHEfPLnhLlqS/aPAk4NcXeMm/kjHSFJJ/AdTAXwZYliVjTPHiM+pmRNT/td5U5EZE7cLfi/c3fAMxKhk46n9uHAIAgMNdVL1XkmzbLtZlE4lEWSN7XP2Xem9joz4NAAAAAAAAAACARhJuW/JGf42L0+tJrJ5Ee2Vvq9be2NO2Ru9veH4Y2OLib40xxXObOITBhViEEhKAAQBAn6o1CdiS9PBtayRjiknAn2jQJODXFyzV/Tc86Cb/ymjK3Ekk/wLokUoJEVGjpFV6TYof/ZebENWFy+ZqowBH3TiodFOAsh8AABzOoupa4Qa4Wuq/1Xrdpd5bPwdbn46rS1OfBgAAAAAAAAAAQG+JasuKShrsSZulRHtlb6rU3hj3qNTWGI7Xpr1x8In6fr3zkziEwaOWWISexPUO9FgEEoABAECfqyUJ+JRL2iQjPTJvTWEk4FWSjD7xjTMaKgn49QXLdN8ND8qSZCRNvWiyTv3CO0n+BXBQ4m4wSsGk3qgbDfQ81vuq9RYWfl7phgDlPgAAQElcw0xUHdf/f6VOb6j3Nh7q0wAAAAAAAAAAAGhEfdFeGf4fhyaurdH7G9fuGP4/PC8MXj05r6vF3hKH0NiqxSJUik+I+/xAQwIwAADoFzUlAV/aJkl6dN5qyTFaOH+VJDVMEvBrC5bp/hsflGRJxmjKRZNI/gXQK6LKCf/NCP/faq/h0FW6mRj3WtRzAAAAlKvUCOehEX1goz4NAAAAAAAAAACARlWpjaqWpEDaK/tetWTg8DRRz3F4qRaHQPzt4HA4xyKQAAwAAPpNrUnAlowenbdGxjF6bv4qWcbo4988s65JwK8tWKb7bnxIlpGb/Dt3kk67+RSSfwH0urhyI/x6+IYDNyB6T60X/5TxAAAAhybcEOPVaaMa2eOeo/FQnwYAAAAAAAAAAMBAUEs7VlT7JG2WfauW9kbaGhGnluOFOISB6XCORSABGAAA9KtakoBPvnSCJOnR21bLGKOFC9yRgOuVBPzagmW6t5D8ayRNJfkXQD+qtSyhzOk77FsAAID+UUu9i7rZwMN3BgAAAAAAAAAAgIGAWL3GxP7GweKcHtwOp++NBGAAANDvepIE/Nhtf5Ic6bkFq2RJ+lg/JwG/tuAN/fbG38uSZGQ07aKJehfJvwAaAOUMAAAADgfUewEAAAAAAAAAAADUC+2VwODDeY2BhgRgAABQF7UmAVsqJAEbo+fmr5Rk9LFvntUvScCvLnhDv73xIVmSZKSpJP8CAAAAAAAAAAAAAAAAAAAAAACgH5AADAAA6qaWJOCTLp0gyejx2/4kY6Q/zndHAv7zPk4CfnXBG7rnc7+XLUvGOJp20USdfvPJJP8CAAAAAAAAAAAAAAAAAAAAAACgz5EADAAA6qq2JOCJkqTHb31bpjgScN8lAbvJvw9LRjIyJP8CAAAAAAAAAAAAAAAAAAAAAACgX5EADAAA6q4nScB/uPVtyRg9P3+lLGP00W+d3atJwK8ueEN3f+5hWZJk3OTfd998Esm/AAAAAAAAAAAAAAAAAAAAAAAA6DckAAMAgIZQaxKwJekPt74lY4z+OH+lZEkf/WbvJAG/suAN3f25R2RJMsZoOsm/AAAAAAAAAAAAAAAAAAAAAAAAqAMSgAEAQMOoJQl4zqUTJRk9cevbknH0/PwVsozRR751ziElAb9y15u6q5j8K824aILO+DzJvwAAAAAAAAAAAAAAAAAAAAAAAOh/JAADAICGUlsS8CRZkp74/luSMXp+/kpJOugkYC/512U0/aIJevfn55D8CwAAAAAAAAAAAAAAAAAAAAAAgLogARgAADScWpKAT7x0kmSkJ299S8Y4emH+ClmSPtzDJOCXfSP/ykjTL5qgMz4/R00k/wIAAAAAAAAAAAAAAAAAAAAAAKBOSAAGAAANqaYk4PdPkiQ9eesqGWP0/PzlkmpPAn75rje14HOPypJkjDTjojaSfwEAAAAAAAAAAAAAAAAAAAAAAFB3JAADAICG1ZMk4KduXSU5Ri/MXy5LRld/69yKScAv37Vc833JvzMvbNOZnz+R5F8AAAAAAAAAAAAAAAAAAAAAAADUHQnAAACgodWaBGzJlJKA73RHAo5LAl5813LNv+lRWbIkYzSD5F8AAAAAAAAAAAAAAAAAAAAAAAA0EBKAAQBAw6slCXj2+ydLkp7+/krJSC/euVyWMfrQP58XSAJ2k38fk2UkY4xmXtSms26aTfIvAAAAAAAAAAAAAAAAAAAAAAAAGgYJwAAAYEDoSRLwM99fKRmjF+a7IwF7ScCL71quO296TDLu9CT/AgAAAAAAAAAAAAAAAAAAAAAAoBGRAAwAAAaMWpOALUlPf2+FZKRF85fLkjT9tPH6zU2PybYsSY5mXjhe53x+tjIZkn8BAAAAAAAAAAAAAAAAAAAAAADQWCxjjKn3SgAAAPSEMab4yOfzyufzyuVyymaz6urqUldXl167d42evXWFZIwsSZbcvzJGx1zcprNvPJ7kXwAAAAAAAAAAAAAAAAAAAAAAADQkRgAGAAADTk0jAV8+RXbC0jPfWy45RpIlYxwdfeF4nX3jCWpqchN/Sf4FAAAAAAAAAAAAAAAAAAAAAABAoyEBGAAADEhRScDeqMDe+7MvmyrbsvT0d99wR/6dO0HnfX620ukUyb8AAAAAAAAAAAAAAAAAAAAAAABoWCQAAwCAAStuJGAvide2bZ34Z9OVTCa1ackOnX/ziUqlkkqlUsXEX5J/AQAAAAAAAAAAAAAAAAAAAAAA0Ggs4w2TBwAAMEB5I/8aY5TP55XP59Xd3V18OI4jSbJtW4lEIpD4S/IvAAAAAAAAAAAAAAAAAAAAAAAAGg0jAAMAgAEvaiRgbwTgRCIhr78T/2te4i/JvwAAAAAAAAAAAAAAAAAAAAAAAGg0JAADAIBBIZwE7CX1+hOAJRWTfv2JvyT/AgAAAAAAAAAAAAAAAAAAAAAAoJGQAAwAAAaNqCRgSYEEYH/SL8m/AAAAAAAAAAAAAAAAAAAAAAAAaEQkAAMAgEHFn9Br23bFaUj+BQAAAAAAAAAAAAAAAAAAAAAAQCMiARgAAAw61RJ7SfwFAAAAAAAAAAAAAAAAAAAAAABAIyMBGAAADFok+gIAAAAAAAAAAAAAAAAAAAAAAGAgsuu9AgAAAAAAAAAAAAAAAAAAAAAAAAAAAABKSAAGAAAAAAAAAAAAAAAAAAAAAAAAAAAAGggJwAAAAAAAAAAAAAAAAAAAAAAAAAAAAEAD+f97CZbb068K3QAAAABJRU5ErkJggg==;" vertex="1" parent="1">
          <mxGeometry x="-2370" y="-250" width="4998.1" height="410" as="geometry" />
        </mxCell>
      </root>
    </mxGraphModel>
  </diagram>
</mxfile>
